<?xml version="1.0" encoding="utf-8" ?>
<svg baseProfile="full" height="200mm" version="1.1" viewBox="0,0,200,200" width="200mm" xmlns="http://www.w3.org/2000/svg" xmlns:ev="http://www.w3.org/2001/xml-events" xmlns:xlink="http://www.w3.org/1999/xlink"><defs /><rect fill="#1a1a1a" height="200" width="200" x="0" y="0" /><text alignment-baseline="middle" fill="#e1ed5e" style="dominant-baseline: central; font-size:9.0px; font-family:Arial;" text-anchor="middle" x="100.0" y="100.0">2023</text><line stroke="#e1ed5e" stroke-width="0.3" x1="100.0" x2="100.0" y1="15.0" y2="10.0" /><path d="M 100.0 14.0 a86.0,86.0 0 0,1 42.46469731375804,11.215312516191453" fill="none" id="id25" stroke="none" /><text fill="#e1ed5e" style="font-size:6.75px; font-family:Arial;" text-anchor="middle"><textPath startOffset="22.20632615414155" xlink:href="#id25">January</textPath></text><path d="M 100.72285384407766 79.0124445844662 l 0.21832368919739165 -6.338875504495144 a27.342634144797675,27.342634144797675 0 0,0 0.4702401422865795,0.0202495297032754 l -0.3274046638733027 6.3341782482676745" fill="#ff4606" stroke="none" /><path d="M 101.08401301168833 79.027996857942 l 0.40249866619379826 -7.786994437403921 a28.797389790464972,28.797389790464972 0 0,0 0.4948186252742123,0.029848810767592025 l -0.5364793403076225 7.778912357256025" fill="#ff5b08" stroke="none" /><path d="M 101.44485096284872 79.0497635885617 l 0.5722498152721375 -8.297581705393137 a29.317291146085598,29.317291146085598 0 0,0 0.5031542547795154,0.03905445395981881 l -0.714994259413994 8.286501989244854" fill="#ff6209" stroke="none" /><path d="M 101.80526077348638 79.07773832637324 l 0.6551698705097021 -7.5931608733776095 a28.62137386618819,28.62137386618819 0 0,0 0.49048158488557525,0.046577136528785236 l -0.7857765824855215 7.580758192333646" fill="#ff5808" stroke="none" /><path d="M 102.16513564639614 79.11191278185805 l 0.7138520467599945 -6.886868191557084 a27.92376618846594,27.92376618846594 0 0,0 0.47767364658601397,0.05367219989082394 l -0.8322923968557338 6.873560038195659" fill="#ff4f07" stroke="none" /><path d="M 102.52436894288641 79.15227682838746 l 1.0178524551224033 -8.406024116932306 a29.46742375665977,29.46742375665977 0 0,0 0.5030303526466916,0.06530777684132856 l -1.162397536276941 8.38725801692684" fill="#ff6409" stroke="none" /><path d="M 103.2404852339499 79.25152402106235 l 1.1579591862546497 -7.414287252069672 a28.504167171194574,28.504167171194574 0 0,0 0.4841239968238182,0.07988460761040324 l -1.285412389217343 7.3932563815196435" fill="#ff5708" stroke="none" /><path d="M 103.59715602781102 79.31037775812273 l 0.95595507141181 -5.498329556683935 a26.580813382694508,26.580813382694508 0 0,0 0.4501079487590225,0.08225435061810715 l -1.0504581412737335 5.48105972471509" fill="#ff3c05" stroke="none" /><path d="M 103.95276090670814 79.375362276772 l 1.7367857409170058 -9.062166307223695 a30.227095040674122,30.227095040674122 0 0,0 0.5101665631735514,0.1023346131747698 l -1.8925187135576824 9.030927737971718" fill="#ff6f0a" stroke="none" /><path d="M 104.307194497241 79.44645832069477 l 1.8357167978827411 -8.759874145653766 a29.950153697547442,29.950153697547442 0 0,0 0.5036721281432855,0.11008321882879597 l -1.9862316501795545 8.7269774287291" fill="#ff6b09" stroke="none" /><path d="M 105.01212808612495 79.60689891045804 l 3.7678964890085065 -15.330632552666394 a36.78687234434855,36.78687234434855 0 0,0 0.6136244950144749,0.15642654669850772 l -4.031229872708007 15.263503009799019" fill="#ffc612" stroke="none" /><path d="M 105.36241919743992 79.69619591428918 l 1.7067594405166888 -6.4623275476546675 a27.683913907357667,27.683913907357667 0 0,0 0.45968758162117546,0.12564998085606366 l -1.8177449113615751 6.4319910259723105" fill="#ff4b07" stroke="none" /><path d="M 109.73455568895987 81.39251694778311 l 3.5197498132017992 -6.7279583259740985 a28.5930271949716,28.5930271949716 0 0,0 0.43414420742225734,0.23190480023893048 l -3.6350390671523676 6.666374799233414" fill="#ff5808" stroke="none" /><path d="M 110.05341064243156 81.56283822128135 l 4.399764323838902 -8.06882057363497 a30.19041846462067,30.19041846462067 0 0,0 0.4541155206575479,0.2527147955854832 l -4.5380039335684845 7.9918903804893064" fill="#ff6e0a" stroke="none" /><path d="M 110.36928655335952 81.73862282372117 l 4.584795790008841 -8.074295639022624 a30.28518187772445,30.28518187772445 0 0,0 0.4511097071063825,0.2613118594728516 l -4.723102229580552 7.994179622159723" fill="#ff6f0a" stroke="none" /><line stroke="#e1ed5e" stroke-width="0.3" x1="143.23703022742887" x2="145.7803849466894" y1="26.81831364943548" y2="22.513508569990506" /><path d="M 143.74570117128098 25.957352633546492 a86.0,86.0 0 0,1 28.547481713284135,27.462654790039103" fill="none" id="id26" stroke="none" /><text fill="#e1ed5e" style="font-size:6.75px; font-family:Arial;" text-anchor="middle"><textPath startOffset="19.985693538727396" xlink:href="#id26">February</textPath></text><path d="M 110.68208982089419 81.91981866633111 l 4.9057379033372275 -8.30330322576944 a30.644226710074413,30.644226710074413 0 0,0 0.45183881146979643,0.27222782825158415 l -5.047938781024661 8.217628788059242" fill="#ff740a" stroke="none" /><path d="M 111.2981086023043 82.29822771554956 l 2.4614323182912803 -3.8565494390001316 a25.57510902962771,25.57510902962771 0 0,0 0.36905244548282845,0.24004197640366626 l -2.527451789558389 3.813608538436937" fill="#ff2d04" stroke="none" /><path d="M 112.19680574252982 82.90503203632743 l 5.056385674768415 -7.086999083762578 a29.705894101426622,29.705894101426622 0 0,0 0.41369656485050366,0.30056814805361687 l -5.177627555972707 6.998911700892286" fill="#ff6709" stroke="none" /><path d="M 112.48926042617603 83.11751280151076 l 3.1690835418597296 -4.283841516688681 a26.328638534878472,26.328638534878472 0 0,0 0.36202360205959105,0.2726686715349115 l -3.242353297677704 4.228656255647922" fill="#ff3805" stroke="none" /><path d="M 112.77801427241765 83.33499621200491 l 5.388760382162355 -7.0279865295801045 a29.856146629111443,29.856146629111443 0 0,0 0.4051442770325369,0.31622153451593216 l -5.508937214354322 6.934186605840948" fill="#ff6909" stroke="none" /><path d="M 113.06298171725822 83.55741782278167 l 5.595468557728123 -7.043104979541883 a29.99525408942803,29.99525408942803 0 0,0 0.4015030468444175,0.32465420788286536 l -5.715875003137032 6.945744674394888" fill="#ff6b09" stroke="none" /><path d="M 113.34407831869373 83.78471172551755 l 5.131540477412213 -6.235680437879792 a29.075668281614636,29.075668281614636 0 0,0 0.38371915819649277,0.32135375981733305 l -5.238117172567824 6.14642552066864" fill="#ff5f08" stroke="none" /><path d="M 113.89432698308785 84.25364557470407 l 6.798864542773312 -7.705110935592363 a31.27585974995597,31.27585974995597 0 0,0 0.40061250601080867,0.3596738633908 l -6.93048803638011 7.586938063432265" fill="#ff7d0b" stroke="none" /><path d="M 114.16331599549186 84.49514656593476 l 6.1202428657394075 -6.699947148279207 a30.0745062965083,30.0745062965083 0 0,0 0.3792139126703637,0.3524380036019067 l -6.234664662204618 6.593604558602659" fill="#ff6c0a" stroke="none" /><path d="M 114.42810811169701 84.74124197986012 l 6.493061589820371 -6.866877822228949 a30.450601030337722,30.450601030337722 0 0,0 0.3777567528798066,0.3634016969740909 l -6.610301586312596 6.754093038492555" fill="#ff720a" stroke="none" /><path d="M 114.68862486808459 84.99185889309783 l 6.3111501465066215 -6.448434267759276 a30.022910876062262,30.022910876062262 0 0,0 0.36622833053401327,0.36465562969572 l -6.421214277207958 6.338842787413437" fill="#ff6c09" stroke="none" /><path d="M 114.94478906791727 85.2469230424477 l 6.81904531812152 -6.731570442252053 a30.5819319382678,30.5819319382678 0 0,0 0.36659834066005953,0.37781181495410276 l -6.933907922484689 6.613194431747836" fill="#ff730a" stroke="none" /><path d="M 115.19652480421416 85.50635884689758 l 7.557821565501923 -7.20825024673976 a31.444115014475365,31.444115014475365 0 0,0 0.3701910839665486,0.39489403754862384 l -7.680779971438935 7.0770867923130805" fill="#ff7f0b" stroke="none" /><path d="M 115.68641384162765 86.03803664274999 l 12.470692744654713 -11.099755297691809 a37.6949916202501,37.6949916202501 0 0,0 0.4272245099040169,0.4883914680442996 l -12.659909118136577 10.88344827344456" fill="#ffd113" stroke="none" /><path d="M 115.9244219780498 86.31012108654704 l 3.625916266063632 -3.1171212808321727 a25.781601598619613,25.781601598619613 0 0,0 0.2864082866791203,0.33901707360412975 l -3.6790351662298697 3.0542452575989363" fill="#ff3004" stroke="none" /><path d="M 116.15771136456269 86.58626213691792 l 6.884745181598589 -5.715547520091518 a29.9480276972062,29.9480276972062 0 0,0 0.3258652137213852,0.39947222128583376 l -6.982108887396383 5.596191129197583" fill="#ff6b09" stroke="none" /><path d="M 116.38621287248628 86.86637796730983 l 7.561195042051515 -6.060331241302113 a30.69016435455286,30.69016435455286 0 0,0 0.3268442868474441,0.4150590527392549 l -7.664393409492924 5.92927979460982" fill="#ff750a" stroke="none" /><path d="M 116.82858285166822 87.43820079747576 l 7.174567814871063 -5.355500284824598 a29.95297752878561,29.95297752878561 0 0,0 0.3048605316400329,0.4158294225478485 l -7.265690959024722 5.231208418605255" fill="#ff6b09" stroke="none" /><path d="M 117.04232023915458 87.72973835380427 l 7.259445642964096 -5.22671186760447 a29.94528188432918,29.94528188432918 0 0,0 0.297581067889281,0.4209073167784952 l -7.34833933065726 5.100978050494182" fill="#ff6b09" stroke="none" /><path d="M 117.45458315368197 88.32363383020206 l 6.834463426603404 -4.57196238033788 a29.222696050372065,29.222696050372065 0 0,0 0.27608958191935695,0.4205033746806386 l -6.912149643880685 4.453640941679568" fill="#ff6108" stroke="none" /><path d="M 117.65298651832404 88.62581576622439 l 7.237049932318109 -4.662980915652705 a29.609197566707763,29.609197566707763 0 0,0 0.2723657079613971,0.43081714122868375 l -7.3162432365254615 4.537716126709815" fill="#ff6609" stroke="none" /><line stroke="#e1ed5e" stroke-width="0.3" x1="172.23445277983987" x2="176.4835382374775" y1="55.19839476539836" y2="52.563006222186495" /><path d="M 173.08426987136738 54.67131705675599 a86.0,86.0 0 0,1 12.851231095245387,41.99856678651699" fill="none" id="id27" stroke="none" /><text fill="#e1ed5e" style="font-size:6.75px; font-family:Arial;" text-anchor="middle"><textPath startOffset="22.20632615414155" xlink:href="#id27">March</textPath></text><path d="M 117.84615892207809 88.93136811851018 l 6.977268443844833 -4.327475524590975 a29.210317859462375,29.210317859462375 0 0,0 0.2613408215633688,0.4295755957079392 l -7.0507250636944265 4.2067321556759545" fill="#ff6108" stroke="none" /><path d="M 118.03404312379186 89.2402003453031 l 5.313597383410175 -3.1702953629842394 a27.1874946336577,27.1874946336577 0 0,0 0.2363244819411479,0.4039551453437711 l -5.3673815398216504 3.078360805286573" fill="#ff4406" stroke="none" /><path d="M 118.21658344932153 89.55222093294921 l 7.917443666892461 -4.5409010113031805 a30.127195418794855,30.127195418794855 0 0,0 0.2541334503680537,0.45207505123234243 l -7.994434758552948 4.403942450136044" fill="#ff6d0a" stroke="none" /><path d="M 118.56541770881063 90.18545643968196 l 1.394887617828839 -0.7374024921848339 a22.577806674422636,22.577806674422636 0 0,0 0.17867707091540982,0.34514722923914837 l -1.4073741219043652 0.7132825406853407" fill="#ff0200" stroke="none" /><path d="M 118.73160827565052 90.50648371742162 l 8.481808687281887 -4.298733333170189 a30.5089529853375,30.5089529853375 0 0,0 0.23337894344617605,0.470477709011328 l -8.554547643681472 4.152096035659911" fill="#ff720a" stroke="none" /><path d="M 118.89224826269711 90.83032412892265 l 15.377263837298239 -7.463618051774089 a38.09285925597728,38.09285925597728 0 0,0 0.2812374143227854,0.5923577190465155 l -15.50345944546278 7.197817917087034" fill="#ffd614" stroke="none" /><path d="M 119.34039704204932 91.81776055985345 l 8.713021154179893 -3.686171756224077 a30.460687070692614,30.460687070692614 0 0,0 0.20013877230007543,0.4846519119896517 l -8.775181613366167 3.535645273781122" fill="#ff720a" stroke="none" /><path d="M 119.47837535516314 92.15188598940014 l 9.626510243090491 -3.8786576669986723 a31.378520354949146,31.378520354949146 0 0,0 0.19754489457583962,0.5027302094438345 l -9.691848687548031 3.7123784526590535" fill="#ff7e0b" stroke="none" /><path d="M 119.61058180528143 92.48833698450437 l 8.320204585672748 -3.186982094061245 a29.909694675762847,29.909694675762847 0 0,0 0.18002134125399014,0.4823676935808483 l -8.373830515428363 3.0432912634510636" fill="#ff6a09" stroke="none" /><path d="M 119.7369772167798 92.82701384747503 l 8.00365016673556 -2.908757059659569 a29.515825481044427,29.515825481044427 0 0,0 0.1694305632902489,0.4790030181865596 l -8.05253381083562 2.7705564150463946" fill="#ff6509" stroke="none" /><path d="M 119.85752413597 93.16781622104841 l 7.954323698665278 -2.7367662239478086 a29.411964982552508,29.411964982552508 0 0,0 0.1605931190661621,0.4801529853298111 l -8.00025411150321 2.599440135695683" fill="#ff6309" stroke="none" /><path d="M 119.97218684219823 93.5106431181261 l 9.401081028958961 -3.054596392190285 a30.884881568953368,30.884881568953368 0 0,0 0.15993150024247996,0.5070265609922109 l -9.452268012969649 2.8923196647716547" fill="#ff780b" stroke="none" /><path d="M 120.08093135843002 93.85539295169968 l 9.155963530126453 -2.8016528236165525 a30.575015755030602,30.575015755030602 0 0,0 0.14966339596828282,0.5045905695454984 l -9.202832823206437 2.6436328673245244" fill="#ff730a" stroke="none" /><path d="M 120.18372546131832 94.20196356495316 l 9.1127665809793 -2.6177601732571434 a30.481307034586763,30.481307034586763 0 0,0 0.14052351292269424,0.5055378427220455 l -9.156476864468358 2.460511027116146" fill="#ff720a" stroke="none" /><path d="M 120.28053869075195 94.5502522615342 l 8.741782499346755 -2.3490751469880444 a30.05190119875831,30.05190119875831 0 0,0 0.12994394586278582,0.5007270308808723 l -8.780922777079844 2.1982516905583216" fill="#ff6c0a" stroke="none" /><path d="M 120.45610955862082 95.25157060432595 l 8.220059880664744 -1.9081034866231437 a29.438616199198627,29.438616199198627 0 0,0 0.11033258732236545,0.49459935491987356 l -8.251686854989147 1.7663259621533063" fill="#ff6409" stroke="none" /><path d="M 120.6074358757038 95.95851677861258 l 7.31114368353175 -1.4338447880836664 a28.450418299502445,28.450418299502445 0 0,0 0.0901123322691951,0.48138368224635686 l -7.334741739710805 1.307783028374747" fill="#ff5608" stroke="none" /><path d="M 120.67395015179393 96.31383870115 l 7.359435912245615 -1.3121859945440855 a28.475501925003304,28.475501925003304 0 0,0 0.0818848835013455,0.4832892176624235 l -7.380932657267183 1.1853109885658242" fill="#ff5608" stroke="none" /><path d="M 120.73433829027371 96.67025291283417 l 5.888940997343449 -0.9457106302540669 a26.964393906036722,26.964393906036722 0 0,0 0.06965045030398803,0.45890944361081215 l -5.904347341086736 0.8442020742511726" fill="#ff4106" stroke="none" /><path d="M 120.78858239683441 97.02765380044208 l 4.507566548289875 -0.6444907133785118 a25.55340800575712,25.55340800575712 0 0,0 0.058510004505920074,0.4359674945809876 l -4.517992551853631 0.56680487673286" fill="#ff2d04" stroke="none" /><path d="M 120.83666639777658 97.38593545837742 l 15.373767671985284 -1.9287164355027804 a36.49427892871296,36.49427892871296 0 0,0 0.07283154034718684,0.6239761602225606 l -15.40468956533606 1.6637965369553671" fill="#ffc212" stroke="none" /><path d="M 120.87857604477298 97.74499172005257 l 3.7241247742797783 -0.40222724880994454 a24.745783241738586,24.745783241738586 0 0,0 0.0420947859352114,0.4238887497113095 l -3.7304966858972186 0.3380629683942001" fill="#ff2103" stroke="none" /><path d="M 120.91429891909075 98.10471618934814 l 7.476422570978572 -0.6775241529819308 a28.50705890730263,28.50705890730263 0 0,0 0.04008026804886572,0.48908078979235464 l -7.486977322846933 0.5487294459818074" fill="#ff5708" stroke="none" /><path d="M 120.94382443527127 98.46500227214037 l 9.637994391907675 -0.7063800376299589 a30.663845438333848,30.663845438333848 0 0,0 0.03405060729304261,0.5267478236678499 l -9.648725590205133 0.5403731497090738" fill="#ff740a" stroke="none" /><path d="M 120.96714384426684 98.82574320788733 l 9.663172467929607 -0.5411822415157016 a30.678314954757607,30.678314954757607 0 0,0 0.024990251159631785,0.5275047046516429 l -9.671056327322734 0.37476643024105893" fill="#ff750a" stroke="none" /><path d="M 120.98425023603335 99.18683210126433 l 8.697895813042845 -0.3370551524194364 a29.704424033232797,29.704424033232797 0 0,0 0.0154014688044247,0.5110997693692058 l -8.702408976302914 0.18728523562523156" fill="#ff6709" stroke="none" /><line stroke="#e1ed5e" stroke-width="0.3" x1="184.98032266829074" x2="189.97916517819016" y1="98.17113171792111" y2="98.06355123074" /><path d="M 185.9800911702706 98.14961562048488 a86.0,86.0 0 0,1 -9.607161424134198,41.387399972396054" fill="none" id="id28" stroke="none" /><text fill="#e1ed5e" style="font-size:6.75px; font-family:Arial;" text-anchor="middle"><textPath startOffset="21.466115282336823" xlink:href="#id28">April</textPath></text><path d="M 120.99513854157772 99.54816195383933 l 7.563460150566344 -0.1627738273733322 a28.565211482046145,28.565211482046145 0 0,0 0.006348268507983779,0.4916803919806969 l -7.565141426192044 0.032557177332172595" fill="#ff5808" stroke="none" /><path d="M 120.99824983174949 100.27111621757518 l 4.962360715562465 0.06407088582272065 a25.962774319850514,25.962774319850514 0 0,0 -0.009616039580147404,0.44681957378746906 l -4.96052261329731 -0.14948027540030454" fill="#ff3304" stroke="none" /><path d="M 120.9904718944345 100.63252640178507 l 17.388027270140235 0.5239704175606761 a38.3959201350667,38.3959201350667 0 0,0 -0.025593380433641715,0.6604514273628165 l -17.37643175685539 -0.8231990919374987" fill="#ffda14" stroke="none" /><path d="M 120.9764740272857 100.99374915477107 l 6.571076355522675 0.311301201800775 a27.578446086147682,27.578446086147682 0 0,0 -0.026545763440599054,0.47399243866711166 l -6.564744241194546 -0.42436535680331" fill="#ff4a06" stroke="none" /><path d="M 120.89721153311464 102.0752229133903 l 11.671481053706263 1.1590505688986517 a32.728890322971246,32.728890322971246 0 0,0 -0.060498104607725645,0.5601373125097677 l -11.649800647597486 -1.3597842032932108" fill="#ff900d" stroke="none" /><path d="M 120.81339534386255 102.79330883721812 l 8.439025311195602 1.1325784952343763 a29.514686268493243,29.514686268493243 0 0,0 -0.07191175866070201,0.5029506725837116 l -8.418279501518299 -1.277674639798497" fill="#ff6509" stroke="none" /><path d="M 120.76222939487914 103.15116336523771 l 7.976203073501987 1.2105790009773727 a29.067547148133063,29.067547148133063 0 0,0 -0.07933813369292957,0.4940386342400351 l -7.954183185447769 -1.3476968649106127" fill="#ff5f08" stroke="none" /><path d="M 120.70491114924044 103.5080841355445 l 16.672022930329913 2.8247819431705254 a37.909634579609005,37.909634579609005 0 0,0 -0.11454767541416692,0.6424441958780208 l -16.620928812576555 -3.1113448897817646" fill="#ffd413" stroke="none" /><path d="M 120.5718875245553 104.21870165774334 l 8.397485067883698 1.722082338553992 a29.572241424860202,29.572241424860202 0 0,0 -0.10655295592785201,0.4977799367893705 l -8.366598073231403 -1.8663760947595316" fill="#ff6609" stroke="none" /><path d="M 120.41448212921028 104.9243191809786 l 9.117847379835768 2.1993793649811106 a30.379360875511864,30.379360875511864 0 0,0 -0.12699829351510647,0.5072950531400935 l -9.0786377720256 -2.3560022575186004" fill="#ff710a" stroke="none" /><path d="M 120.32669344350535 105.2749913415812 l 8.961187985244635 2.325522799063536 a30.258020652161946,30.258020652161946 0 0,0 -0.1351696725461688,0.503016635896726 l -8.919830236356688 -2.4794303681358105" fill="#ff6f0a" stroke="none" /><path d="M 120.23288151984713 105.62410040840565 l 6.223361098907548 1.7298973289438944 a27.45931638303025,27.45931638303025 0 0,0 -0.13050676005240855,0.4543111526208772 l -6.1926617019690395 -1.8367659570693533" fill="#ff4806" stroke="none" /><path d="M 120.13307415673323 105.97154293290107 l 7.8679130857622885 2.333651603237685 a29.206703731121483,29.206703731121483 0 0,0 -0.1471089199094236,0.4807604619291377 l -7.8265773933467315 -2.46873903771888" fill="#ff6008" stroke="none" /><path d="M 119.9155931802556 106.66101706037122 l 9.005583798392717 3.0120291560869634 a30.49593908926291,30.49593908926291 0 0,0 -0.17079057409019324,0.49639735360171827 l -8.952402393359293 -3.166599212777982" fill="#ff720a" stroke="none" /><path d="M 119.79798401119884 107.00284435728193 l 8.589603121372779 3.038271660173655 a30.11111280051517,30.11111280051517 0 0,0 -0.1770472335713613,0.48715794802723394 l -8.536031626796191 -3.18567740520702" fill="#ff6d0a" stroke="none" /><path d="M 119.67450827220406 107.3425965602758 l 7.259036377016988 2.7090982298197366 a28.748085075789266,28.748085075789266 0 0,0 -0.17701389766819467,0.46212742953629854 l -7.211328199755287 -2.833649226189179" fill="#ff5a08" stroke="none" /><path d="M 119.54520255179757 107.68017299344265 l 14.816501568494687 5.822057607337918 a36.91933018416186,36.91933018416186 0 0,0 -0.23750976148801944,0.5894797499794936 l -14.714089192749274 -6.076236725160225" fill="#ffc712" stroke="none" /><path d="M 119.41010516605496 108.01547362559984 l 6.9433126997036 2.8672662689172883 a28.512044136101448,28.512044136101448 0 0,0 -0.19123302098911765,0.4520183722970884 l -6.892928697522173 -2.9863591668805403" fill="#ff5708" stroke="none" /><path d="M 119.26925614724726 108.34839909993367 l 7.715481065661874 3.342729718880638 a29.408477272852362,29.408477272852362 0 0,0 -0.2052416442292503,0.4627657255252881 l -7.656798336701351 -3.4750437808986137" fill="#ff6309" stroke="none" /><path d="M 119.12269723197855 108.67885076344098 l 8.974803099390462 4.073221250432273 a30.855872464059267,30.855872464059267 0 0,0 -0.22366890517060567,0.4817629232175588 l -8.903359577380025 -4.2271042409286625" fill="#ff770b" stroke="none" /><path d="M 118.97047184881838 109.00673069616215 l 6.157407974826699 2.9233914610890204 a27.81614925036326,27.81614925036326 0 0,0 -0.2090804082232808,0.4307675685112551 l -6.106174309988704 -3.0289479855655506" fill="#ff4d07" stroke="none" /><line stroke="#e1ed5e" stroke-width="0.3" x1="174.80103733775053" x2="179.2010983576182" y1="140.37084112569926" y2="142.7455964860345" /><path d="M 175.68104954172406 140.8457921977663 a86.0,86.0 0 0,1 -30.038265399797805,32.042727171017184" fill="none" id="id29" stroke="none" /><text fill="#e1ed5e" style="font-size:6.75px; font-family:Arial;" text-anchor="middle"><textPath startOffset="22.206326154141568" xlink:href="#id29">May</textPath></text><path d="M 118.48025628344425 109.97397251340804 l 7.45726383213944 4.024757197421749 a29.4740459262582,29.4740459262582 0 0,0 -0.24480804373566967,0.4443977086833533 l -7.386879378952261 -4.152525424502907" fill="#ff6409" stroke="none" /><path d="M 118.30583269289576 110.29060199501025 l 7.805702391374703 4.387966280949891 a29.954509361515345,29.954509361515345 0 0,0 -0.256536129281114,0.4472923648963107 l -7.729014265941209 -4.521678491704518" fill="#ff6b09" stroke="none" /><path d="M 118.12598468904814 110.60418214915192 l 1.365258410195271 0.7987124071179218 a22.581730709031415,22.581730709031415 0 0,0 -0.19916992319739282,0.33382024751140826 l -1.351307611299651 -0.8220947485154342" fill="#ff0200" stroke="none" /><path d="M 117.94076556474637 110.91462005526583 l 6.596948226961719 4.013384109038974 a28.721850679461493,28.721850679461493 0 0,0 -0.26059657945781717,0.4201646618433039 l -6.5268870078359384 -4.1263451022475515" fill="#ff5a08" stroke="none" /><path d="M 117.75023020441432 111.22182372390056 l 6.9911785076788515 4.419873541470094 a29.27114617503633,29.27114617503633 0 0,0 -0.27291181259293185,0.4235651937207296 l -6.91406183170887 -4.539560335112276" fill="#ff6109" stroke="none" /><path d="M 117.55443506779139 111.5257021239791 l 7.07488284055436 4.645150462967307 a29.4635329520937,29.4635329520937 0 0,0 -0.282003744142844,0.4215573347230936 l -6.993875991000795 -4.766244711896208" fill="#ff6409" stroke="none" /><path d="M 117.35343817320211 111.8261652097733 l 8.41580217603116 5.735270781107071 a31.18425535808639,31.18425535808639 0 0,0 -0.3061092433495344,0.44097319575119076 l -8.31583202551949 -5.879285239045282" fill="#ff7c0b" stroke="none" /><path d="M 117.14729908036423 112.12312394758627 l 5.486344938400224 3.8788405914959796 a27.719031560972656,27.719031560972656 0 0,0 -0.27880093340266016,0.38723011187756434 l -5.418764212621961 -3.9727043088246754" fill="#ff4c07" stroke="none" /><path d="M 116.93607887273984 112.41649034213515 l 6.273846246470702 4.599597812025429 a28.77929603220906,28.77929603220906 0 0,0 -0.29634278663865954,0.39699959034855425 l -6.19374219313695 -4.706910281883299" fill="#ff5b08" stroke="none" /><path d="M 116.71984013943494 112.70617746262583 l 7.710917708029524 5.859881911600523 a30.684857661210426,30.684857661210426 0 0,0 -0.32320387282350815,0.4177845739448862 l -7.608907017987947 -5.991744479658662" fill="#ff750a" stroke="none" /><path d="M 116.498646956653 112.99209946851258 l 6.502909329604143 5.120810516577948 a29.27710880052618,29.27710880052618 0 0,0 -0.3151918993628652,0.39325035742522346 l -6.4137995181864245 -5.231988707581422" fill="#ff6109" stroke="none" /><path d="M 116.27256486870786 113.27417163493432 l 7.305581199427091 5.959450124585371 a30.42796703689842,30.42796703689842 0 0,0 -0.33456853828225,0.40300935715364555 l -7.201916661251297 -6.084320738852787" fill="#ff710a" stroke="none" /><path d="M 116.0416608686014 113.55231037782055 l 6.840733618238044 5.7791862055762415 a29.95514542787636,29.95514542787636 0 0,0 -0.3361502093797954,0.39101863617751237 l -6.74024089928747 -5.896081940915281" fill="#ff6b09" stroke="none" /><path d="M 115.56566222782051 114.09645910891815 l 6.2328643496421785 5.644560196040369 a29.408903484269736,29.408903484269736 0 0,0 -0.3430388831132857,0.3723009566172268 l -6.134779058533171 -5.751012407458931" fill="#ff6309" stroke="none" /><path d="M 115.32070863581623 114.36230785411682 l 3.8490779178720347 3.6082953683829997 a26.275907152646294,26.275907152646294 0 0,0 -0.31217460434094557,0.32731382459386044 l -3.786396762152125 -3.674016309559367" fill="#ff3705" stroke="none" /><path d="M 114.55890576462653 115.13401014063108 l 2.6109184621402792 2.71405469073077 a24.766030812436703,24.766030812436703 0 0,0 -0.30976899137143976,0.29290591614726397 l -2.5638136363780317 -2.7585952436239554" fill="#ff2203" stroke="none" /><path d="M 111.45004920935366 117.60387380957326 l 4.198258684267937 6.454611220135502 a28.699829997027873,28.699829997027873 0 0,0 -0.41644573705970395,0.26579537283959764 l -4.0865311451613024 -6.525921021798909" fill="#ff5908" stroke="none" /><path d="M 111.1453310114006 117.79835938074945 l 4.419007301210597 7.056863539777281 a29.326280595031044,29.326280595031044 0 0,0 -0.4301478291376701,0.26423192921938127 l -4.296880272140618 -7.131883935825041" fill="#ff6209" stroke="none" /><line stroke="#e1ed5e" stroke-width="0.3" x1="143.8653032363475" x2="146.44561519142675" y1="172.8068346515853" y2="177.08958963109032" /><path d="M 144.38136562736335 173.6633856474863 a86.0,86.0 0 0,1 -40.68145358897372,12.25698825130547" fill="none" id="id30" stroke="none" /><text fill="#e1ed5e" style="font-size:6.75px; font-family:Arial;" text-anchor="middle"><textPath startOffset="21.466115282336833" xlink:href="#id30">June</textPath></text><path d="M 110.8373102113329 117.98757091392108 l 4.041321393909065 6.707711945245213 a28.831071328321077,28.831071328321077 0 0,0 -0.42729312904980665,0.25245231229297255 l -3.9252603938308765 -6.776282829831935" fill="#ff5b08" stroke="none" /><path d="M 110.5260780823613 118.17145234162733 l 3.8399251668956147 6.628966327219767 a28.660823706023514,28.660823706023514 0 0,0 -0.4290269177639343,0.24361268082111723 l -3.7252494822104816 -6.694082173835513" fill="#ff5908" stroke="none" /><path d="M 110.21172684928248 118.3499491758327 l 5.063533527069851 9.098909933963343 a31.41295029115847,31.41295029115847 0 0,0 -0.4747501825865613,0.2588716525566958 l -4.906160532614641 -9.184722238279809" fill="#ff7f0b" stroke="none" /><path d="M 109.89434966115114 118.52300852407294 l 3.641949306938313 6.818018401101399 a28.72975870723438,28.72975870723438 0 0,0 -0.4382096705783714,0.22925058857854036 l -3.524048733833446 -6.879698408624656" fill="#ff5a08" stroke="none" /><path d="M 109.57404056367764 118.69057910512821 l 5.777422740937411 11.278767417481896 a33.67237972857316,33.67237972857316 0 0,0 -0.5181475203957451,0.25980992329250274 l -5.582421312858905 -11.376545181683703" fill="#ff9d0e" stroke="none" /><path d="M 109.2508944713604 118.85261126421891 l 4.305398672331902 8.774071281241342 a30.77347351641275,30.77347351641275 0 0,0 -0.4775564371728213,0.2292561108998486 l -4.153729567158848 -8.846881668640751" fill="#ff760a" stroke="none" /><path d="M 108.92500713936063 119.00905698771935 l 3.316817955236503 7.064373231806536 a28.804271298874994,28.804271298874994 0 0,0 -0.4506249990608761,0.20685983530835594 l -3.1947249604082075 -7.120420137448966" fill="#ff5b08" stroke="none" /><path d="M 108.59647513512805 119.15986991738527 l 6.563900812713368 14.62965735901408 a37.03470200288406,37.03470200288406 0 0,0 -0.5838773406364757,0.2559546675616827 l -6.311102797419139 -14.740476579870219" fill="#ffc912" stroke="none" /><path d="M 108.2653958097858 119.30500536409082 l 3.0417744299695015 7.104496026359964 a28.728276358372597,28.728276358372597 0 0,0 -0.45627143261721925,0.1907214958387065 l -2.919031537854821 -7.155802565218644" fill="#ff5a08" stroke="none" /><path d="M 107.59598834532513 119.57807347666477 l 3.019805729885029 7.783316110711045 a29.348606849379156,29.348606849379156 0 0,0 -0.4725541883320981,0.1786795591726497 l -2.885381320792656 -7.834143919990325" fill="#ff6209" stroke="none" /><path d="M 107.2578585660854 119.70592522655815 l 2.648983006821208 7.1922951630341325 a28.664608318931354,28.664608318931354 0 0,0 -0.46447645300678664,0.16654473076758233 l -2.5247869931846867 -7.2368274348416755" fill="#ff5908" stroke="none" /><path d="M 106.57524785965236 119.94407469862006 l 2.3719321451796795 7.194556447644353 a28.57546728457576,28.57546728457576 0 0,0 -0.4684725447681705,0.14999011495940334 l -2.2477382553205687 -7.234319409263463" fill="#ff5808" stroke="none" /><path d="M 106.2309692047433 120.05430185196036 l 2.0334882441713575 6.5447582424226205 a27.853388569966096,27.853388569966096 0 0,0 -0.4590835633669181,0.13831811172255792 l -1.9205297063641937 -6.5787917232509034" fill="#ff4e07" stroke="none" /><path d="M 105.18746579009965 120.34920634021253 l 4.193055782025198 16.448370120781615 a37.97441004634318,37.97441004634318 0 0,0 -0.6347996147896752,0.1560183007174071 l -3.909302882492311 -16.51810967981305" fill="#ffd513" stroke="none" /><path d="M 104.48393922423573 120.51570834832081 l 1.5995740504931633 7.318652876490174 a28.49141622589274,28.49141622589274 0 0,0 -0.48002411127097216,0.10059371970384422 l -1.473358477792813 -7.345102576920559" fill="#ff5708" stroke="none" /><path d="M 104.13013068566511 120.58985236759428 l 1.6553032336837457 8.252147885645215 a29.416529779071816,29.416529779071816 0 0,0 -0.4973247970707791,0.09531348100160782 l -1.5130108220412624 -8.279418564995291" fill="#ff6309" stroke="none" /><path d="M 103.41894727170886 120.7198165907248 l 2.853331222921915 17.2920185405436 a38.52584960206508,38.52584960206508 0 0,0 -0.6552405619937965,0.1023351000806677 l -2.5552547973196016 -17.338571947971374" fill="#ffdc14" stroke="none" /><path d="M 102.70371172650421 120.8252237178851 l 2.8837596445997358 22.21203509186497 a43.39845022786315,43.39845022786315 0 0,0 -0.74164350804046,0.08980270041861747 l -2.5009887135078954 -22.25838332100894" fill="#e7ff1a" stroke="none" /><path d="M 102.34483914955558 120.86867818915974 l 0.8436899210456963 7.508699885481347 a28.555950413621154,28.555950413621154 0 0,0 -0.488942330556425,0.05068087172674797 l -0.7143149938836686 -7.522110125663853" fill="#ff5708" stroke="none" /><path d="M 101.98527174616119 120.90594882070398 l 0.7810754628791464 8.225132747511177 a29.26213577671613,29.26213577671613 0 0,0 -0.5018535464287066,0.043302035675463244 l -0.6393775987088981 -8.237359035465303" fill="#ff6109" stroke="none" /><path d="M 101.26447882468166 120.96189622390904 l 0.3804831541334169 6.307459038626581 a27.318924509323676,27.318924509323676 0 0,0 -0.46964084314177496,0.024275067161561838 l -0.2718542425781623 -6.313073912550344" fill="#ff4606" stroke="none" /><path d="M 100.90346689309514 120.98055641714683 l 0.34186148353212853 7.93880129633042 a28.946158524503545,28.946158524503545 0 0,0 -0.49798371295725746,0.017151565967173397 l -0.20515741890021877 -7.943509660723688" fill="#ff5d08" stroke="none" /><line stroke="#e1ed5e" stroke-width="0.3" x1="102.19456741930631" x2="102.32365962044197" y1="184.97166512339345" y2="189.96999836594603" /><path d="M 102.22038585953345 185.97133177190398 a86.0,86.0 0 0,1 -42.740103519485714,-10.115201625700543" fill="none" id="id31" stroke="none" /><text fill="#e1ed5e" style="font-size:6.75px; font-family:Arial;" text-anchor="middle"><textPath startOffset="22.20632615414155" xlink:href="#id31">July</textPath></text><path d="M 100.18074693466247 120.99922214144158 l 0.06850838988386096 7.959321138199402 a28.959615969409096,28.959615969409096 0 0,0 -0.4985106490926273,0.0 l 0.06850838988385548 -7.959321138199402" fill="#ff5d08" stroke="none" /><path d="M 99.81925306533755 120.99922214144158 l -0.06813351667453964 7.9157682789932435 a28.916061496906785,28.916061496906785 0 0,0 -0.4976871540249844,-0.008568135698177095 l 0.204380360592192 -7.913422666015906" fill="#ff5c08" stroke="none" /><path d="M 99.45781275523022 120.99299961872073 l -0.19641060304851374 7.604840863899231 a28.607376794284708,28.607376794284708 0 0,0 -0.492155382273817,-0.016950826473903412 l 0.3272863369969738 -7.600333238999234" fill="#ff5808" stroke="none" /><path d="M 99.09653310690486 120.98055641714683 l -0.3383071420501345 7.856261401887507 a28.863542136794944,28.863542136794944 0 0,0 -0.49619443329680935,-0.02564758446666294 l 0.47348964376043273 -7.849274010658642" fill="#ff5c08" stroke="none" /><path d="M 98.73552117531835 120.96189622390904 l -0.5075993337876329 8.41472735683064 a29.43002334358901,29.43002334358901 0 0,0 -0.5054077318496945,-0.0348558762609253 l 0.6523698264162573 -8.40474313605343" fill="#ff6409" stroke="none" /><path d="M 98.37488393609728 120.93702456842531 l -0.6205787975306104 7.995166510962515 a29.01921477340276,29.01921477340276 0 0,0 -0.4976873854914097,-0.04294256177950228 l 0.7581105007635618 -7.983299696904349" fill="#ff5e08" stroke="none" /><path d="M 97.2962882734958 120.8252237178851 l -1.067129016014692 8.21951551879622 a29.288498036469115,29.288498036469115 0 0,0 -0.4993987501876299,-0.06921211624422705 l 1.208456357389153 -8.199928837059387" fill="#ff6209" stroke="none" /><path d="M 96.93821686468263 120.77559828337769 l -1.3036265739345085 8.84570226388422 a29.941246601316543,29.941246601316543 0 0,0 -0.509235213563983,-0.07953206740757873 l 1.4556976511070088 -8.821951889129535" fill="#ff6b09" stroke="none" /><path d="M 96.22490169976321 120.6578951692458 l -1.1324767661050266 6.197080037448747 a27.29970670875347,27.29970670875347 0 0,0 -0.4615371425858021,-0.08845469184422411 l 1.2389815232625239 -6.176668147256055" fill="#ff4606" stroke="none" /><path d="M 95.86986931433489 120.58985236759428 l -1.189783235044711 5.931400970926987 a27.049553836797145,27.049553836797145 0 0,0 -0.45573157676115816,-0.09550298290542616 l 1.291706273235256 -5.9100420072950195" fill="#ff4206" stroke="none" /><path d="M 95.51606077576429 120.51570834832081 l -1.6093888682293789 7.363559358959849 a28.5373827660605,28.5373827660605 0 0,0 -0.47899297209998576,-0.10901724098272392 l 1.7359019897222272 -7.3347653843994385" fill="#ff5708" stroke="none" /><path d="M 93.76903079525671 120.05430185196036 l -2.6510589724908384 8.532402442497625 a29.93476385341905,29.93476385341905 0 0,0 -0.4907571540226404,-0.15712494311791877 l 2.7975374716044192 -8.48550465272" fill="#ff6b09" stroke="none" /><line stroke="#e1ed5e" stroke-width="0.3" x1="58.666819895761336" x2="56.23545636021788" y1="174.27360380694188" y2="178.64263932499728" /><path d="M 58.180547188652646 175.14741091055294 a86.0,86.0 0 0,1 -31.652253787137756,-30.449443065178592" fill="none" id="id32" stroke="none" /><text fill="#e1ed5e" style="font-size:6.75px; font-family:Arial;" text-anchor="middle"><textPath startOffset="22.20632615414155" xlink:href="#id32">August</textPath></text><path d="M 87.95078237400918 117.19931262002967 l -0.8327823169368803 1.1887314063059113 a22.451416116673915,22.451416116673915 0 0,0 -0.3146113435347714,-0.22446684016280305 l 0.8531209883205386 -1.174220304298889" fill="#ff0000" stroke="none" /><path d="M 87.65650970185807 116.9893568818739 l -2.8831587979226936 3.968327643308198 a25.90512272412047,25.90512272412047 0 0,0 -0.35849609556099965,-0.26520684106482356 l 2.9510398639022575 -3.918110853503608" fill="#ff3204" stroke="none" /><path d="M 87.36589467227662 116.77436683061367 l -3.7198797738356237 4.938903568832523 a27.183063479701467,27.183063479701467 0 0,0 -0.37133523732686785,-0.2847240254354097 l 3.804343739655978 -4.874140201569747" fill="#ff4406" stroke="none" /><path d="M 86.79598089348748 116.32954008644616 l -5.271168910853813 6.518906352518194 a29.383397981704903,29.383397981704903 0 0,0 -0.39056114769302575,-0.32140523528379433 l 5.382600187091527 -6.427205998377219" fill="#ff6309" stroke="none" /><path d="M 86.51685102203217 116.09983520530335 l -5.723898703484934 6.834740609077377 a29.91497030623927,29.91497030623927 0 0,0 -0.39193529040088787,-0.33401575733417865 l 5.840699470462877 -6.735200461520247" fill="#ff6a09" stroke="none" /><path d="M 85.44109423537348 115.13401014063109 l -6.045873731050784 6.2846972041682765 a29.720665577803707,29.720665577803707 0 0,0 -0.3656350174975562,-0.35785082059144735 l 6.153158700924134 -6.179696280654259" fill="#ff6809" stroke="none" /><path d="M 84.67929136418377 114.36230785411682 l -6.346004512746674 5.949024462394038 a29.698428900092466,29.698428900092466 0 0,0 -0.3464160398076715,-0.37596619321243235 l 6.4474669605500745 -5.838907014380262" fill="#ff6709" stroke="none" /><path d="M 83.95833913139862 113.55231037782056 l -6.263207273043497 5.2912805986970755 a29.199110666362117,29.199110666362117 0 0,0 -0.32105673582925337,-0.3867335206732442 l 6.353360008766286 -5.182685820910071" fill="#ff6008" stroke="none" /><path d="M 83.72743513129214 113.27417163493432 l -6.1836729457583575 5.044265404905054 a28.980126852076086,28.980126852076086 0 0,0 -0.311994647030112,-0.389261293540093 l 6.269585504843331 -4.937076277786701" fill="#ff5d08" stroke="none" /><path d="M 83.50135304334701 112.99209946851258 l -6.776257728796014 5.3360626885402995 a29.62503529402052,29.62503529402052 0 0,0 -0.3120407546053074,-0.4033547388443825 l 6.86710530061939 -5.2186299555826645" fill="#ff6609" stroke="none" /><path d="M 83.28015986056508 112.70617746262583 l -7.021451949147986 5.335925090620489 a29.818893584056184,29.818893584056184 0 0,0 -0.307047608436684,-0.41134044850398127 l 7.112260824279755 -5.214271762607201" fill="#ff6909" stroke="none" /><path d="M 82.85270091963577 112.12312394758628 l -4.296262836960339 3.037453691090138 a26.261558636921535,26.261558636921535 0 0,0 -0.2577873273296873,-0.3713618717058085 l 4.34791107145216 -2.963050557197317" fill="#ff3705" stroke="none" /><path d="M 82.6465618267979 111.8261652097733 l -7.07524828917485 4.821698981655351 a29.562004404528643,29.562004404528643 0 0,0 -0.28294624205450325,-0.42296624122122817 l 7.157197636640084 -4.699195826228302" fill="#ff6509" stroke="none" /><path d="M 82.24976979558568 111.22182372390057 l -6.644636594114324 4.200787241057096 a28.861158242426576,28.861158242426576 0 0,0 -0.2618605326343282,-0.4222025568152899 l 6.7159617664166085 -4.085788352876542" fill="#ff5c08" stroke="none" /><line stroke="#e1ed5e" stroke-width="0.3" x1="26.63291911575756" x2="22.317208475507996" y1="142.92168965132927" y2="145.44649492493687" /><path d="M 25.769776987707644 143.4266507060508 a86.0,86.0 0 0,1 -11.730757126820373,-40.83630448921669" fill="none" id="id33" stroke="none" /><text fill="#e1ed5e" style="font-size:6.75px; font-family:Arial;" text-anchor="middle"><textPath startOffset="21.46611528233685" xlink:href="#id33">September</textPath></text><path d="M 81.87401531095188 110.60418214915194 l -7.43435434338471 4.349294616044955 a29.61312882523887,29.61312882523887 0 0,0 -0.2536124812810338,-0.44219473817315325 l 7.508118820818121 -4.220680032013495" fill="#ff6609" stroke="none" /><path d="M 81.51974371655577 109.97397251340807 l -10.508743704977897 5.671670308912244 a32.941588602439346,32.941588602439346 0 0,0 -0.2650189890223718,-0.5013160522166484 l 10.604815202225154 -5.489939241609469" fill="#ff930d" stroke="none" /><path d="M 81.18737489456691 109.33194174019688 l -8.136560924797301 4.036114688419657 a30.082612259752985,30.082612259752985 0 0,0 -0.22611630370114946,-0.4658665590612282 l 8.20483048511317 -3.895459173393144" fill="#ff6d0a" stroke="none" /><path d="M 80.87730276802145 108.67885076344099 l -8.772772720916297 3.9815296086524454 a30.63400847194091,30.63400847194091 0 0,0 -0.21379462152287818,-0.4820504314023677 l 8.840008427170455 -3.829930840757382" fill="#ff740a" stroke="none" /><path d="M 80.73074385275274 108.34839909993369 l -8.367503306193468 3.6252181473075176 a30.11906344942979,30.11906344942979 0 0,0 -0.2020114540123261,-0.4774954040663082 l 8.4286657413981 -3.480648217575051" fill="#ff6d0a" stroke="none" /><path d="M 80.58989483394504 108.01547362559985 l -8.313484744938334 3.4330838055641286 a29.994447899696183,29.994447899696183 0 0,0 -0.19296054752580666,-0.47891225437972235 l 8.371347906721528 -3.289472183341601" fill="#ff6b09" stroke="none" /><path d="M 80.20201598880116 107.00284435728193 l -7.491035966448387 2.649691954401297 a28.94584717345119,28.94584717345119 0 0,0 -0.16210938255780447,-0.4711657474329113 l 7.53553617994942 -2.5203535038790887" fill="#ff5d08" stroke="none" /><path d="M 80.0844068197444 106.66101706037122 l -5.652714879334313 1.8906205759409311 a26.960505991039582,26.960505991039582 0 0,0 -0.14341416360580744,-0.44138341032735384 l 5.68442129395637 -1.793038265635774" fill="#ff4106" stroke="none" /><path d="M 79.97269907076064 106.31721596034903 l -9.090166396154565 2.8673131962668834 a30.531663552353486,30.531663552353486 0 0,0 -0.15378250450901776,-0.5025701225316347 l 9.138175673169712 -2.7104161011832013" fill="#ff730a" stroke="none" /><path d="M 79.86692584326677 105.97154293290107 l -9.971945133611015 2.9577151520090728 a31.401334946446656,31.401334946446656 0 0,0 -0.1492421161552891,-0.519531385062818 l 10.02137988665241 -2.7856262914416585" fill="#ff7f0b" stroke="none" /><path d="M 79.76711848015287 105.62410040840567 l -7.460314081509101 2.073731091218635 a28.743167751860334,28.743167751860334 0 0,0 -0.12840246946824188,-0.477833355782424 l 7.4949046273191176 -1.945006802260672" fill="#ff5a08" stroke="none" /><path d="M 79.58551787078972 104.9243191809786 l -8.097616955571409 1.9532824904474018 a29.32986871725155,29.32986871725155 0 0,0 -0.1141622319180598,-0.49180790719980183 l 8.130039753420023 -1.8136059258990258" fill="#ff6209" stroke="none" /><line stroke="#e1ed5e" stroke-width="0.3" x1="15.007084014347285" x2="10.007500721073583" y1="101.09737516637583" y2="101.16192664675087" /><path d="M 14.007167355692545 101.11028546245083 a86.0,86.0 0 0,1 10.666146001902534,-42.60595125391555" fill="none" id="id34" stroke="none" /><text fill="#e1ed5e" style="font-size:6.75px; font-family:Arial;" text-anchor="middle"><textPath startOffset="22.20632615414155" xlink:href="#id34">October</textPath></text><path d="M 79.00019446554 99.90962569577889 l -4.769566080901432 -0.02052620036365525 a25.769610248750606,25.769610248750606 0 0,0 0.005726980362388736,-0.44356094042079075 l 4.768506093421328 0.10262339884491796" fill="#ff3004" stroke="none" /><path d="M 79.01574976396665 99.18683210126434 l -6.667900768093691 -0.2583901161861831 a27.672905372121438,27.672905372121438 0 0,0 0.02254207431489642,-0.475827560825977 l 6.662465085545295 0.3731287836351692" fill="#ff4b07" stroke="none" /><path d="M 79.03285615573316 98.82574320788736 l -5.340899259759929 -0.29911500003742114 a26.34926861226388,26.34926861226388 0 0,0 0.029259493881140942,-0.4526314197827056 l 5.334959174874375 0.3910054840731385" fill="#ff3805" stroke="none" /><path d="M 79.08570108090925 98.10471618934814 l -7.690706851935296 -0.6969429023335363 a28.72222126667694,28.72222126667694 0 0,0 0.04885906192555805,-0.4920040858164423 l 7.677570664327509 0.8292225188544088" fill="#ff5a08" stroke="none" /><path d="M 79.12142395522702 97.74499172005258 l -7.582565145278282 -0.8189613673449722 a28.626663222117035,28.626663222117035 0 0,0 0.05713015953924138,-0.48945631813173857 l 7.567344632735451 0.9493614238015725" fill="#ff5808" stroke="none" /><path d="M 79.21141760316559 97.0276538004421 l -8.279611905580841 -1.1838167947957363 a29.363814650664878,29.363814650664878 0 0,0 0.0758482805209164,-0.4997454009381771 l 8.258007731620623 1.3261613081260053" fill="#ff6309" stroke="none" /><path d="M 79.26566170972629 96.67025291283419 l -5.869592924423419 -0.9426035048398897 a26.944797933132623,26.944797933132623 0 0,0 0.07748315185217244,-0.45730994830127486 l 5.852497911051024 1.0434992414569926" fill="#ff4106" stroke="none" /><path d="M 79.32604984820605 96.31383870115002 l -8.285603572550707 -1.4773215085893658 a29.41627621939809,29.41627621939809 0 0,0 0.09317153895241984,-0.49772608667469204 l 8.258946309688426 1.6197256727266307" fill="#ff6309" stroke="none" /><path d="M 79.3925641242962 95.95851677861259 l -7.396972318975852 -1.450677303887864 a28.537881939093392,28.537881939093392 0 0,0 0.09868767045293915,-0.4812361293413207 l 7.3709053526079185 1.577789089392587" fill="#ff5708" stroke="none" /><path d="M 79.46518482838121 95.60439243477599 l -10.637979804359578 -2.2771271187953417 a31.87896696534719,31.87896696534719 0 0,0 0.11947874460711638,-0.535599784646199 l 10.597206672750424 2.4599050729914995" fill="#ff850c" stroke="none" /><path d="M 79.62865764111835 94.90015583598534 l -8.585536905467709 -2.149338001930553 a29.850485738177927,29.850485738177927 0 0,0 0.1290730285942682,-0.49737103137576755 l 8.547267545003134 2.296805458855184" fill="#ff6909" stroke="none" /><path d="M 79.71946130924805 94.55025226153421 l -5.8565758003672705 -1.5737678968931565 a27.064340483411122,27.064340483411122 0 0,0 0.12477077165193388,-0.44886685099015267 l 5.828618258148976 1.6743460513022517" fill="#ff4306" stroke="none" /><path d="M 79.81627453868168 94.20196356495316 l -5.74243114092433 -1.6495876861105607 a26.974667768372154,26.974667768372154 0 0,0 0.1320398463790271,-0.4451727214663381 l 5.7131853974335955 1.748189794323438" fill="#ff4106" stroke="none" /><path d="M 79.91906864156998 93.8553929516997 l -5.597371172302751 -1.71275155237488 a26.85355293139888,26.85355293139888 0 0,0 0.13905602964904298,-0.4408456144742492 l 5.567059658885504 1.8088473332755437" fill="#ff4006" stroke="none" /><path d="M 80.02781315780177 93.51064311812611 l -5.598379905258019 -1.8190238982128413 a26.886484987313416,26.886484987313416 0 0,0 0.14680367283857002,-0.43892429626315366 l 5.566238938647677 1.9151212973983172" fill="#ff4006" stroke="none" /><path d="M 80.2630227832202 92.82701384747504 l -14.757720235787335 -5.363380710808311 a36.70210683974726,36.70210683974726 0 0,0 0.22090370937462303,-0.5919121147095026 l 14.663211937911084 5.616615962547155" fill="#ffc412" stroke="none" /><path d="M 81.26839172434947 90.50648371742162 l -2.038562986468407 -1.0331804199779702 a23.285432307031833,23.285432307031833 0 0,0 0.18427710448654352,-0.3559647116436983 l 2.0204764488217495 1.068117853882004" fill="#ff0c01" stroke="none" /><line stroke="#e1ed5e" stroke-width="0.3" x1="26.266209847984243" x2="21.928928074336255" y1="57.711370442889674" y2="55.22380399835377" /><path d="M 25.398753493254645 57.213857153982495 a86.0,86.0 0 0,1 29.58750427330803,-30.492523968695096" fill="none" id="id35" stroke="none" /><text fill="#e1ed5e" style="font-size:6.75px; font-family:Arial;" text-anchor="middle"><textPath startOffset="21.46611528233685" xlink:href="#id35">November</textPath></text><path d="M 82.15384107792192 88.93136811851018 l -4.766161222241892 -2.956091800323612 a26.608455360287966,26.608455360287966 0 0,0 0.2447628229585155,-0.387156006001299 l 4.714570803037414 3.0376954540391266" fill="#ff3c05" stroke="none" /><path d="M 83.17141714833178 87.43820079747576 l -6.254833587196257 -4.668959012182948 a28.805262421018448,28.805262421018448 0 0,0 0.3000192352207176,-0.39479014569101273 l 6.173538411751431 4.775933933754987" fill="#ff5b08" stroke="none" /><path d="M 83.6137871275137 86.86637796730984 l -5.993079370621749 -4.803479600696521 a28.68052189742856,28.68052189742856 0 0,0 0.31207345245706997,-0.38256515273198965 l 5.909507426088286 4.905928923036593" fill="#ff5908" stroke="none" /><path d="M 83.84228863543731 86.58626213691792 l -5.809432162064606 -4.822848879835889 a28.55045517590595,28.55045517590595 0 0,0 0.3171675320309742,-0.37542631813531013 l 5.725554016546508 4.922134147600316" fill="#ff5708" stroke="none" /><path d="M 84.31358615837235 86.03803664274999 l -4.320729321268159 -3.8457396999212556 a26.7843250001376,26.7843250001376 0 0,0 0.30949460919476385,-0.34175167755491515 l 4.25389107145735 3.919544164745727" fill="#ff3f05" stroke="none" /><path d="M 84.80347519578584 85.50635884689758 l -6.1028448357252305 -5.820570439732177 a29.4334901039144,29.4334901039144 0 0,0 0.35283149062361285,-0.3636238658512623 l 6.001749081398499 5.924758501133563" fill="#ff6409" stroke="none" /><path d="M 85.05521093208273 85.24692304244772 l -5.939602167070633 -5.863408808903936 a29.346162996455462,29.346162996455462 0 0,0 0.3579731601022198,-0.35643590958924526 l 5.837793206801099 5.96478056914329" fill="#ff6209" stroke="none" /><path d="M 85.31137513191541 84.99185889309783 l -6.702969147154819 -6.848776362605107 a30.5830857792617,30.5830857792617 0 0,0 0.37940030035886435,-0.36498278834675957 l 6.584085603183528 6.96314223771418" fill="#ff730a" stroke="none" /><path d="M 86.10567301691215 84.25364557470407 l -5.629306693566281 -6.379658293163766 a29.508180404044296,29.508180404044296 0 0,0 0.38375557423782164,-0.3327890523888135 l 5.518657320681686 6.475612338972261" fill="#ff6509" stroke="none" /><path d="M 86.37877921826538 84.01681056812374 l -5.800019331729914 -6.805763534197568 a29.941959602450353,29.941959602450353 0 0,0 0.3951518301187575,-0.3309282937661882 l 5.682009964652045 6.904592985357568" fill="#ff6b09" stroke="none" /><path d="M 86.65592168130627 83.78471172551755 l -5.692456600312381 -6.917287395918208 a29.958399804885296,29.958399804885296 0 0,0 0.4010097318856757,-0.32425531482732267 l 5.572543469862206 7.014248808009666" fill="#ff6b09" stroke="none" /><path d="M 86.93701828274178 83.55741782278169 l -5.468956601664308 -6.8838623748284595 a29.791873947371318,29.791873947371318 0 0,0 0.40427210456166096,-0.3155407900682411 l 5.349651941943221 6.976981554119922" fill="#ff6909" stroke="none" /><path d="M 87.22198572758235 83.33499621200491 l -5.24522372087298 -6.840786941826702 a29.620251612654663,29.620251612654663 0 0,0 0.4072838847522994,-0.30675777811499305 l 5.126693682362291 6.93006130944755" fill="#ff6609" stroke="none" /><path d="M 87.51073957382395 83.11751280151077 l -4.543994168989073 -6.14239120414082 a28.640474639216677,28.640474639216677 0 0,0 0.39885909286141197,-0.2897880936454561 l 4.437589759773879 6.219698532602944" fill="#ff5908" stroke="none" /><path d="M 87.80319425747018 82.90503203632743 l -10.152439546911335 -14.229596869153161 a38.480087408600184,38.480087408600184 0 0,0 0.5425121727516857,-0.3800644466815257 l 9.905996234575989 14.40224615859863" fill="#ffdb14" stroke="none" /><path d="M 88.09926311788651 82.69761687909137 l -3.9136929073776456 -5.690085813325272 a27.906089250528378,27.906089250528378 0 0,0 0.39812063509192536,-0.268812829986293 l 3.8151675778791807 5.756610555610231" fill="#ff4e07" stroke="none" /><path d="M 88.39885842347998 82.49532879139004 l -4.670724871493924 -7.0475394720511115 a29.454790561291887,29.454790561291887 0 0,0 0.42503679946138984,-0.2764557575374383 l 4.548721046248247 7.1268941537480845" fill="#ff6409" stroke="none" /><path d="M 88.70189139769569 82.29822771554957 l -4.026543103072183 -6.308750571717008 a28.484208918585708,28.484208918585708 0 0,0 0.4155721939277346,-0.2602312697128822 l 3.9173517567722063 6.3771261827528205" fill="#ff5608" stroke="none" /><path d="M 89.00827224532344 82.1063720568725 l -5.3698227210478615 -8.741629344859112 a31.259194883536612,31.259194883536612 0 0,0 0.46090631025895756,-0.2776908948151208 l 5.218554344571254 8.832766849132852" fill="#ff7d0b" stroke="none" /><line stroke="#e1ed5e" stroke-width="0.3" x1="56.762969772571076" x2="54.21961505331055" y1="26.818313649435495" y2="22.513508569990535" /><path d="M 56.25429882871897 25.957352633546506 a86.0,86.0 0 0,1 42.265352541879196,-11.944610805530505" fill="none" id="id36" stroke="none" /><text fill="#e1ed5e" style="font-size:6.75px; font-family:Arial;" text-anchor="middle"><textPath startOffset="22.20632615414155" xlink:href="#id36">December</textPath></text><path d="M 89.3179101791058 81.91981866633112 l -3.984828912359074 -6.74460059099817 a28.83380486053014,28.83380486053014 0 0,0 0.4294908750395791,-0.24878883654070055 l 3.868141304854175 6.812193584928917" fill="#ff5b08" stroke="none" /><path d="M 89.63071344664047 81.73862282372117 l -4.591918368064956 -8.086839229527222 a30.299606605829773,30.299606605829773 0 0,0 0.455757897017864,-0.2536287762518377 l 4.452036381975046 8.164683403339243" fill="#ff700a" stroke="none" /><path d="M 89.94658935756843 81.56283822128135 l -2.5921439314494306 -4.75378741778897 a26.414582622407643,26.414582622407643 0 0,0 0.4010676434781916,-0.21423644529396324 l 2.5099312414429336 4.7977025895846825" fill="#ff3905" stroke="none" /><path d="M 90.26544431104013 81.39251694778311 l -3.5062815382672308 -6.702213884666739 a28.563972579366826,28.563972579366826 0 0,0 0.43762660048635266,-0.22416934227849017 l 3.3903944501921144 6.761575752257735" fill="#ff5808" stroke="none" /><path d="M 92.91201910852362 80.23233633223022 l -2.784242910043351 -7.764972600489826 a29.249048919026023,29.249048919026023 0 0,0 0.47539175048080445,-0.1658548471810437 l 2.650169155499261 7.81174830084308" fill="#ff6109" stroke="none" /><path d="M 93.59665428221793 80.00007090966166 l -2.457828829864294 -7.676674738483652 a29.0605370539056,29.0605370539056 0 0,0 0.4777201175185752,-0.14842996593539484 l 2.32532333963499 7.717844839301573" fill="#ff5e08" stroke="none" /><path d="M 93.94186890950719 79.89281104454417 l -2.3581657387342077 -7.826850127330879 a29.174382457839812,29.174382457839812 0 0,0 0.4820855287975538,-0.14073398551162722 l 2.223089992213233 7.8662824417612045" fill="#ff6008" stroke="none" /><path d="M 94.63758080256005 79.69619591428918 l -4.054480977973662 -15.351539000404737 a36.87792699572894,36.87792699572894 0 0,0 0.615143334777493,-0.15681373277247576 l 3.78962875451117 15.419055729346075" fill="#ffc712" stroke="none" /><path d="M 95.33964822691252 79.52364482259891 l -1.986270125630109 -8.727146479699808 a29.950327071683326,29.950327071683326 0 0,0 0.5036750437784161,-0.11008385607370737 l 1.835752357698172 8.760043833869384" fill="#ff6b09" stroke="none" /><path d="M 95.692805502759 79.44645832069477 l -1.9555307064997955 -9.33161525604442 a30.53431400945577,30.53431400945577 0 0,0 0.5153517404204441,-0.1033747109508814 l 1.794612556612215 9.363893923072512" fill="#ff730a" stroke="none" /><path d="M 96.04723909329186 79.375362276772 l -1.829267446054837 -9.544715520169271 a30.71842650587821,30.71842650587821 0 0,0 0.5201724922634521,-0.09505819810225152 l 1.6646998326884919 9.57478919962226" fill="#ff750a" stroke="none" /><path d="M 96.40284397218896 79.31037775812273 l -0.6428164476943462 -3.69726232913913 a24.752727237076748,24.752727237076748 0 0,0 0.4204083273274186,-0.06937097620657372 l 0.5790789142280419 3.7077795682853307" fill="#ff2203" stroke="none" /><path d="M 96.75951476605007 79.25152402106235 l -1.4124826047352377 -9.043973133398108 a30.15360896839637,30.15360896839637 0 0,0 0.5135174247201635,-0.07567911976608398 l 1.2565961995864254 9.066946737325162" fill="#ff6e0a" stroke="none" /><path d="M 97.11714578562143 79.19881850522333 l -2.312428286774493 -16.685283718802438 a37.844762312315616,37.844762312315616 0 0,0 0.6460376139088598,-0.08387422368904057 l 2.0248759443577757 16.722616265655613" fill="#ffd313" stroke="none" /><path d="M 97.83486435360386 79.11191278185805 l -2.2359550796703895 -21.571315773098338 a42.68688911072828,42.68688911072828 0 0,0 0.7315208949350721,-0.0694667234142861 l 1.864309057645081 21.606608041027805" fill="#efff19" stroke="none" /><path d="M 98.19473922651362 79.07773832637324 l -0.9351649838365802 -10.83819400897733 a31.878464180353134,31.878464180353134 0 0,0 0.5471100589838422,-0.04246627034666088 l 0.7484647354904038 10.852685541512454" fill="#ff850c" stroke="none" /><path d="M 98.55514903715128 79.0497635885617 l -1.8951434855522205 -27.47944603063773 a48.544718604145565,48.544718604145565 0 0,0 0.834132228608425,-0.05031713394596496 l 1.4218492081041725 27.507996433964003" fill="#abff21" stroke="none" /><path d="M 98.91598698831166 79.02799685794201 l -0.42312330336631243 -8.186011747087342 a29.196939773677954,29.196939773677954 0 0,0 0.5021305935924079,-0.021622799619853455 l 0.2821518773845804 8.192082273231389" fill="#ff6008" stroke="none" /><path d="M 99.27714615592234 79.0124445844662 l -0.3853199460411976 -11.187494936225708 a32.19412856853507,32.19412856853507 0 0,0 0.5540047889419139,-0.014308309225035022 l 0.19268852190440475 11.192470037593102" fill="#ff890c" stroke="none" /><path d="M 99.63851952072746 79.00311137660856 l -1.0844414378176228 -62.990665870174325 a84.0,84.0 0 0,0 1.445921917090143,-0.012445506434235476 l 1.543054966925665e-14 63.0" fill="#4dd2ff" stroke="none" /></svg>