<?xml version="1.0" encoding="utf-8" ?>
<svg baseProfile="full" height="200mm" version="1.1" viewBox="0,0,200,200" width="200mm" xmlns="http://www.w3.org/2000/svg" xmlns:ev="http://www.w3.org/2001/xml-events" xmlns:xlink="http://www.w3.org/1999/xlink"><defs /><rect fill="#1a1a1a" height="200" width="200" x="0" y="0" /><text alignment-baseline="middle" fill="#e1ed5e" style="dominant-baseline: central; font-size:9.0px; font-family:Arial;" text-anchor="middle" x="100.0" y="100.0">2025</text><line stroke="#e1ed5e" stroke-width="0.3" x1="100.0" x2="100.0" y1="15.0" y2="10.0" /><path d="M 100.0 14.0 a86.0,86.0 0 0,1 42.46469731375804,11.215312516191453" fill="none" id="id49" stroke="none" /><text fill="#e1ed5e" style="font-size:6.75px; font-family:Arial;" text-anchor="middle"><textPath startOffset="22.20632615414155" xlink:href="#id49">January</textPath></text><path d="M 100.0 79.0 l 0.0 -3.6002071375319 a24.6002071375319,24.6002071375319 0 0,0 0.42345212696564305,0.0036447861454009375 l -0.061971647693114695 3.5996737279950577" fill="#ff0000" stroke="none" /><path d="M 100.72285384407766 79.0124445844662 l 0.7890057952532594 -22.90823101616657 a43.92181446646402,43.92181446646402 0 0,0 0.7553698072694458,0.03252781286362033 l -1.1832164349120369 22.891255476778756" fill="#f2ff19" stroke="none" /><path d="M 101.08401301168833 79.027996857942 l 1.4008210919809028 -27.101173164636563 a48.137352240617645,48.137352240617645 0 0,0 0.8271325503233518,0.04989489423652095 l -1.8671156911438664 27.07304500101974" fill="#beff1f" stroke="none" /><path d="M 101.44485096284872 79.0497635885617 l 3.8737800489679306 -56.16953576428399 a77.30295658171923,77.30295658171923 0 0,0 1.326702092540409,0.10297761630619554 l -4.840072330870681 56.094532885789334" fill="#44ffea" stroke="none" /><path d="M 101.80526077348638 79.07773832637324 l 0.9763632991913243 -11.315666265076905 a32.35771052257484,32.35771052257484 0 0,0 0.55451080771249,0.05265748275449921 l -1.1709992339940585 11.297183237807227" fill="#ff720a" stroke="none" /><path d="M 102.16513564639614 79.11191278185805 l 2.7050636893532434 -26.0970283168584 a47.23684921125947,47.23684921125947 0 0,0 0.8080499551416558,0.09079382759359476 l -3.1538803480046242 26.046598535794203" fill="#c9ff1d" stroke="none" /><path d="M 102.88285421437855 79.19881850522331 l 2.1397516698372567 -15.439338769210313 a36.58690857222855,36.58690857222855 0 0,0 0.62307682931665,0.09182532805975108 l -2.4051974795825624 15.400218956989592" fill="#ffad10" stroke="none" /><path d="M 103.95276090670814 79.375362276772 l 8.355642498242181 -43.597906258026505 a65.39137519431108,65.39137519431108 0 0,0 1.1036619000000967,0.22138419442792812 l -9.104870807709403 43.447618107521365" fill="#35ff64" stroke="none" /><path d="M 107.4271985657038 80.35727306442388 l 8.348696536362825 -22.07981446584971 a44.60548539434474,44.60548539434474 0 0,0 0.7158475957740783,0.27773774580067734 l -8.72752729713657 21.932834016158488" fill="#e9ff1a" stroke="none" /><path d="M 107.76421540070413 80.48803036053334 l 4.871917895729972 -12.243441115613106 a34.17715577559207,34.17715577559207 0 0,0 0.5447450156990986,0.2222151696364336 l -5.081946781017457 12.157765059793093" fill="#ff8c0c" stroke="none" /><path d="M 108.09893153111575 80.62456947434976 l 5.191495595184845 -12.419843511736145 a34.46120868907536,34.46120868907536 0 0,0 0.5453342558836791,0.23348366853592462 l -5.4045136088588395 12.328640315237429" fill="#ff900d" stroke="none" /><path d="M 108.76106565485865 80.91482961587045 l 5.590713236458528 -12.178851168344643 a34.40076454061492,34.40076454061492 0 0,0 0.5360323669353038,0.25167438368545453 l -5.79952381469343 12.080811802019186" fill="#ff8f0d" stroke="none" /><path d="M 109.41281617654863 81.2277094730956 l 13.032075076510264 -25.990298218527712 a50.074569339679044,50.074569339679044 0 0,0 0.7671889296929232,0.3929839675684091 l -13.477524493791941 25.762121725646804" fill="#a7ff21" stroke="none" /><path d="M 109.73455568895987 81.39251694778311 l 25.45805317530697 -48.66275443256278 a75.91972451169676,75.91972451169676 0 0,0 1.1527323917505001,0.6157497220222945 l -26.29193061358578 48.21732598403873" fill="#43ffdb" stroke="none" /><path d="M 110.05341064243156 81.56283822128135 l 12.98871522969264 -23.820278759610044 a48.13139147746718,48.13139147746718 0 0,0 0.7239784346274016,0.4028932150353292 l -13.396817753392074 23.593170147014533" fill="#beff1f" stroke="none" /><path d="M 110.36928655335952 81.73862282372117 l 15.58046744225633 -27.43880122143928 a52.55374428160416,52.55374428160416 0 0,0 0.7828087110698737,0.4534533322577682 l -16.05047288579153 27.166543731791464" fill="#8bff24" stroke="none" /><line stroke="#e1ed5e" stroke-width="0.3" x1="143.23703022742887" x2="145.7803849466894" y1="26.81831364943548" y2="22.513508569990506" /><path d="M 143.74570117128098 25.957352633546492 a86.0,86.0 0 0,1 28.547481713284135,27.462654790039103" fill="none" id="id50" stroke="none" /><text fill="#e1ed5e" style="font-size:6.75px; font-family:Arial;" text-anchor="middle"><textPath startOffset="19.985693538727396" xlink:href="#id50">February</textPath></text><path d="M 110.68208982089419 81.91981866633111 l 15.933404686471535 -26.968397647307928 a52.32359903596962,52.32359903596962 0 0,0 0.7714938615978308,0.46481641930895706 l -16.395260614287004 26.690134618540355" fill="#8dff24" stroke="none" /><path d="M 110.99172775467656 82.1063720568725 l 16.394976000878415 -26.689671291340613 a52.32305527417768,52.32305527417768 0 0,0 0.7633705726369276,0.47802258255349317 l -16.851965725887606 26.403504367464176" fill="#8dff24" stroke="none" /><path d="M 111.2981086023043 82.29822771554956 l 14.098493028124519 -22.08938875723605 a47.20512547827967,47.20512547827967 0 0,0 0.6811766462813973,0.44305623890254275 l -14.476636700190197 21.843433594173984" fill="#c9ff1d" stroke="none" /><path d="M 111.90073688211348 82.69761687909136 l 16.245900975485846 -23.61978133006834 a49.66746184414548,49.66746184414548 0 0,0 0.7002375632366024,0.49056116228188873 l -16.6500696783061 23.336635325022517" fill="#acff20" stroke="none" /><path d="M 112.19680574252982 82.90503203632743 l 15.106264892224049 -21.172848025515766 a47.00939700388357,47.00939700388357 0 0,0 0.654672301389044,0.47564726886628067 l -15.468482509966881 20.90968152183281" fill="#ccff1d" stroke="none" /><path d="M 112.48926042617603 83.11751280151076 l 15.51599166797704 -20.973902518476972 a47.08928102296626,47.08928102296626 0 0,0 0.6474862386730427,0.48767321117106116 l -15.874724060408466 20.703712717800062" fill="#cbff1d" stroke="none" /><path d="M 113.06298171725822 83.55741782278167 l 18.56699095061159 -23.37056585524924 a50.848224425493626,50.848224425493626 0 0,0 0.680631575001728,0.5503567322314217 l -18.96652592417781 23.047503025753688" fill="#9eff22" stroke="none" /><path d="M 113.34407831869373 83.78471172551755 l 16.9528006240132 -20.600489791273187 a47.67916094328855,47.67916094328855 0 0,0 0.6292342904545544,0.5269656224462421 l -17.304892451426873 20.305623011433127" fill="#c4ff1e" stroke="none" /><path d="M 113.6212207817346 84.01681056812373 l 8.587460866239992 -10.076557451296166 a34.2393917608958,34.2393917608958 0 0,0 0.4452852485935015,0.38614697966658146 l -8.759639913480257 9.927245478209914" fill="#ff8d0c" stroke="none" /><path d="M 113.89432698308785 84.25364557470407 l 9.69706375983655 -10.989622097776836 a35.656221866984694,35.656221866984694 0 0,0 0.4567205669551656,0.4100482344961265 l -9.884795314387706 10.821074854511412" fill="#ffa00e" stroke="none" /><path d="M 114.16331599549186 84.49514656593476 l 23.637551518887125 -25.876480617756883 a56.04748337568891,56.04748337568891 0 0,0 0.7067110348105624,0.6568108867054699 l -24.079470437492535 25.46576514497677" fill="#64ff29" stroke="none" /><path d="M 114.94478906791727 85.2469230424477 l 25.16322230907506 -24.840427893541168 a56.3586568595323,56.3586568595323 0 0,0 0.675594665773247,0.6962596895270395 l -25.587081238551416 24.403604008464015" fill="#61ff29" stroke="none" /><path d="M 115.19652480421416 85.50635884689758 l 18.756848615413197 -17.88928959070145 a46.919993287836846,46.919993287836846 0 0,0 0.5523883616038003,0.5892493899942365 l -19.06200429898746 17.563770783829156" fill="#cdff1d" stroke="none" /><path d="M 115.4437574822437 85.77008943001954 l 10.838536119245433 -9.98664993695295 a35.73794565641461,35.73794565641461 0 0,0 0.41295427546893004,0.45599442511183913 l -11.008834035330398 9.798602724571563" fill="#ffa10e" stroke="none" /><path d="M 115.68641384162765 86.03803664274999 l 17.124827704965792 -15.242248440587048 a43.92565945505913,43.92565945505913 0 0,0 0.497841159429176,0.5691185057737377 l -17.384660727972815 14.945214378610363" fill="#f2ff19" stroke="none" /><path d="M 115.9244219780498 86.31012108654704 l 17.90997898994661 -15.39681905269898 a44.61841197798623,44.61841197798623 0 0,0 0.4956667598820699,0.5867131023563033 l -18.172356363315796 15.08624700071357" fill="#e9ff1a" stroke="none" /><path d="M 116.15771136456269 86.58626213691792 l 10.195648457726952 -8.464178661839078 a34.25117232146205,34.25117232146205 0 0,0 0.37268783445737363,0.45687121793916063 l -10.339834784260734 8.287423274291816" fill="#ff8d0d" stroke="none" /><path d="M 116.60985879189232 87.15038557335679 l 25.75094635919513 -19.921285062239335 a53.55716260556416,53.55716260556416 0 0,0 0.5578209540555376,0.7340269884998274 l -26.090043253474782 19.475073297858476" fill="#80ff26" stroke="none" /><path d="M 117.2510076193507 88.02491185347247 l 18.26414200891718 -12.678373072662971 a43.23330895506827,43.23330895506827 0 0,0 0.41910685578270274,0.614987595791392 l -18.479673330368616 12.362107453601173" fill="#faff18" stroke="none" /><path d="M 117.45458315368197 88.32363383020206 l 18.73562339870267 -12.533327052072236 a43.54124821593118,43.54124821593118 0 0,0 0.41136810222649983,0.6265418420342254 l -18.948588136287096 12.208967146060337" fill="#f6ff19" stroke="none" /><path d="M 117.65298651832404 88.62581576622439 l 18.570960522392504 -11.965653866024708 a43.0920222516132,43.0920222516132 0 0,0 0.3963899771888994,0.6269937506539135 l -18.774178095827356 11.644212467656587" fill="#fcff18" stroke="none" /><line stroke="#e1ed5e" stroke-width="0.3" x1="172.23445277983987" x2="176.4835382374775" y1="55.19839476539836" y2="52.563006222186495" /><path d="M 173.08426987136738 54.67131705675599 a86.0,86.0 0 0,1 12.851231095245387,41.99856678651699" fill="none" id="id51" stroke="none" /><text fill="#e1ed5e" style="font-size:6.75px; font-family:Arial;" text-anchor="middle"><textPath startOffset="22.20632615414155" xlink:href="#id51">March</textPath></text><path d="M 118.3937258080291 89.86733742301442 l 19.210650963928618 -10.582687060430256 a42.9326782650202,42.9326782650202 0 0,0 0.3510091969982581,0.6503667329796261 l -19.38996826014534 10.25043934411817" fill="#feff18" stroke="none" /><path d="M 118.73160827565052 90.50648371742162 l 19.464087531895224 -9.864749955815588 a42.821182258073065,42.821182258073065 0 0,0 0.3275616268217432,0.6603442515912309 l -19.631009171670375 9.528246115725407" fill="#fffe18" stroke="none" /><path d="M 118.89224826269711 90.83032412892265 l 11.867456278639414 -5.760072913300239 a34.191472946261655,34.191472946261655 0 0,0 0.2524337009904351,0.5316897529058582 l -11.964848173471605 5.55494074475384" fill="#ff8c0c" stroke="none" /><path d="M 119.04729006885535 91.15688171328212 l 26.687688742737535 -12.390339386757697 a50.42368502666311,50.42368502666311 0 0,0 0.35872293872159244,0.7903984449455962 l -26.897013998422473 11.929118932970038" fill="#a3ff21" stroke="none" /><path d="M 119.196687751892 91.48605970444005 l 27.170596857594187 -12.050455913546127 a50.7229679090468,50.7229679090468 0 0,0 0.3471124625181714,0.8011834211684343 l -27.374000029955038 11.58097334779109" fill="#a0ff22" stroke="none" /><path d="M 119.34039704204932 91.81776055985345 l 19.62876891015879 -8.30423940051675 a42.313117110115805,42.313117110115805 0 0,0 0.27801392959240745,0.6732327823751015 l -19.768804526637396 7.9651320476883445" fill="#fff817" stroke="none" /><path d="M 119.47837535516314 92.15188598940014 l 13.447487681611202 -5.4181837323227775 a35.49798744323819,35.49798744323819 0 0,0 0.223479186010214,0.5687301523559256 l -13.538760417503116 5.185904575071067" fill="#ff9e0e" stroke="none" /><path d="M 119.61058180528143 92.48833698450437 l 21.502018859263675 -8.236161549277536 a44.025446186554746,44.025446186554746 0 0,0 0.2649816374832924,0.7100190478736316 l -21.64060508524859 7.864819364374572" fill="#f0ff19" stroke="none" /><path d="M 119.7369772167798 92.82701384747503 l 14.802646686716672 -5.37970827742902 a36.7499082563043,36.7499082563043 0 0,0 0.21095658194379177,0.5964026648739362 l -14.893056349470275 5.124107986128469" fill="#ffaf10" stroke="none" /><path d="M 119.85752413597 93.16781622104841 l 18.546527801089145 -6.381122114259295 a40.6135772594818,40.6135772594818 0 0,0 0.2217553656276896,0.6630203176710959 l -18.653620460488607 6.060928693665885" fill="#ffe215" stroke="none" /><path d="M 119.97218684219823 93.5106431181261 l 25.423051860275248 -8.26045028775406 a47.73137865592983,47.73137865592983 0 0,0 0.24716788957217423,0.7835897546604466 l -25.561475233615628 7.821610366667193" fill="#c3ff1e" stroke="none" /><path d="M 120.08093135843002 93.85539295169968 l 27.62927334238218 -8.454340323599947 a49.89381621965708,49.89381621965708 0 0,0 0.244228098951107,0.823415737371547 l -27.77070733844499 7.97749519948187" fill="#a9ff21" stroke="none" /><path d="M 120.18372546131832 94.20196356495316 l 12.631910593809048 -3.6286798493926473 a34.142773021679005,34.142773021679005 0 0,0 0.15740343419278086,0.566263900637293 l -12.692500798568192 3.4107046453364025" fill="#ff8b0c" stroke="none" /><path d="M 120.28053869075195 94.5502522615342 l 12.763183132491587 -3.4296982675139125 a34.215962843459636,34.215962843459636 0 0,0 0.14794928260836016,0.5701089382006784 l -12.820328746970251 3.2094929037643833" fill="#ff8c0c" stroke="none" /><path d="M 120.37134235888165 94.90015583598534 l 18.90038007364887 -4.731597521566002 a40.48364396191002,40.48364396191002 0 0,0 0.16341357780424276,0.6774547792598901 l -18.97902645171393 4.405557510646706" fill="#ffe015" stroke="none" /><path d="M 120.45610955862082 95.25157060432595 l 40.28687703696479 -9.351699580705962 a62.35803122054164,62.35803122054164 0 0,0 0.23371081297899088,1.0476797484996192 l -40.441882236945816 8.65684166265638" fill="#31ff3f" stroke="none" /><path d="M 120.53481517161879 95.60439243477599 l 32.11207451500865 -6.873793432935104 a53.83952444564522,53.83952444564522 0 0,0 0.1861840082306901,0.9078993460375268 l -32.225637819154336 6.320018430734166" fill="#7cff26" stroke="none" /><path d="M 120.6074358757038 95.95851677861258 l 6.921428606122654 -1.3574147578765836 a28.053279292255066,28.053279292255066 0 0,0 0.08885445543232766,0.47466405388589267 l -6.943768785464841 1.238072626528128" fill="#ff3404" stroke="none" /><path d="M 120.67395015179393 96.31383870115 l 20.547290573552306 -3.6635779206365915 a41.8713428675437,41.8713428675437 0 0,0 0.12040630721045005,0.7106448409663263 l -20.607308742282978 3.309347291354427" fill="#fff216" stroke="none" /><path d="M 120.73433829027371 96.67025291283417 l 14.817184400587806 -2.379505721723465 a36.00703171985511,36.00703171985511 0 0,0 0.09300806026411093,0.6128069093715556 l -14.855948354291217 2.124099699959827" fill="#ffa50f" stroke="none" /><path d="M 120.78858239683441 97.02765380044208 l 21.593325221985104 -3.0874081230838955 a42.81292697142918,42.81292697142918 0 0,0 0.09802937242052337,0.7304326883994331 l -21.643270593463466 2.715257092619798" fill="#fffe18" stroke="none" /><path d="M 120.83666639777658 97.38593545837742 l 13.148348861451389 -1.6495264589575254 a34.251415596879866,34.251415596879866 0 0,0 0.06835546365679067,0.5856278686332151 l -13.174794678111768 1.4229548519994575" fill="#ff8d0d" stroke="none" /><path d="M 120.87857604477298 97.74499172005257 l 18.950492957198385 -2.0467640339038478 a40.060703720778726,40.060703720778726 0 0,0 0.06814683257613584,0.6862293040744759 l -18.982916915456748 1.720259199124937" fill="#ffdb14" stroke="none" /><path d="M 120.91429891909075 98.10471618934814 l 13.089212771001067 -1.1861632634700077 a34.14284878754006,34.14284878754006 0 0,0 0.04800405877738372,0.5857711069062043 l -13.107691313597945 0.9606782393560347" fill="#ff8b0c" stroke="none" /><path d="M 120.94382443527127 98.46500227214037 l 28.4810881957579 -2.0874127264852596 a49.55748022331859,49.55748022331859 0 0,0 0.05503100714848362,0.8513053232867451 l -28.512799793910798 1.596848338945479" fill="#adff20" stroke="none" /><path d="M 120.96714384426684 98.82574320788733 l 16.25172788437418 -0.9101717426816519 a37.27719483906614,37.27719483906614 0 0,0 0.030365633279683273,0.640970525363677 l -16.26498712588736 0.6302901106949751" fill="#ffb610" stroke="none" /><line stroke="#e1ed5e" stroke-width="0.3" x1="184.98032266829074" x2="189.97916517819016" y1="98.17113171792111" y2="98.06355123074" /><path d="M 185.9800911702706 98.14961562048488 a86.0,86.0 0 0,1 -9.607161424134198,41.387399972396054" fill="none" id="id52" stroke="none" /><text fill="#e1ed5e" style="font-size:6.75px; font-family:Arial;" text-anchor="middle"><textPath startOffset="21.466115282336823" xlink:href="#id52">April</textPath></text><path d="M 120.99513854157772 99.54816195383933 l 22.209660331736693 -0.47797586618972987 a43.2148030146517,43.2148030146517 0 0,0 0.009603960860890668,0.7438373526121904 l -22.2145972997153 0.09560225551707667" fill="#fbff18" stroke="none" /><path d="M 120.9904718944345 100.63252640178507 l 21.886999240697417 0.6595423364093871 a42.89693430267821,42.89693430267821 0 0,0 -0.02859359940283591,0.7378737477844161 l -21.87240350844338 -1.0361933312078093" fill="#ffff18" stroke="none" /><path d="M 120.9764740272857 100.99374915477107 l 44.155420103955635 2.09183923617429 a65.20494221177998,65.20494221177998 0 0,0 -0.06276332486989761,1.1206813275688408 l -44.11287042819821 -2.8515922800785543" fill="#35ff62" stroke="none" /><path d="M 120.95626037817324 101.35467743843564 l 18.617233193028135 1.2034754921712232 a39.65609082910579,39.65609082910579 0 0,0 -0.04989763760117017,0.6808136212103193 l -18.593758996762624 -1.5237622498783128" fill="#ffd614" stroke="none" /><path d="M 120.92983693683757 101.71520430193887 l 19.038233543919457 1.56018702746671 a40.10205538766694,40.10205538766694 0 0,0 -0.062302178435319995,0.6874993474769603 l -19.00855676920706 -1.887667763492241" fill="#ffdc14" stroke="none" /><path d="M 120.89721153311464 102.0752229133903 l 29.68062821867802 2.947470750612583 a50.82662024569835,50.82662024569835 0 0,0 -0.0939510676389548,0.8698702029747102 l -29.625494849538015 -3.4579372754720845" fill="#9fff22" stroke="none" /><path d="M 120.8583938346157 102.4346265915055 l 36.74409704880375 4.288832422341924 a57.993550133487325,57.993550133487325 0 0,0 -0.1242677252106752,0.990536038034561 l -36.66482781434623 -4.9206862146638795" fill="#50ff2b" stroke="none" /><path d="M 120.81339534386255 102.79330883721812 l 13.346896729561745 1.7912504888404033 a34.46655971743923,34.46655971743923 0 0,0 -0.0839768683874171,0.5873340219115835 l -13.314085810157728 -2.020729982732396" fill="#ff900d" stroke="none" /><path d="M 120.76222939487914 103.15116336523771 l 32.181154044587274 4.884257453652166 a53.549695029523896,53.549695029523896 0 0,0 -0.14616069398001633,0.9101427809348392 l -32.09231159624597 -5.4374794642802105" fill="#80ff26" stroke="none" /><path d="M 120.64145759157962 103.86396538481128 l 61.924372774738885 11.591896154433844 a84.0,84.0 0 0,0 -0.2782802680973435,1.4189450917282203 l -61.715662573665874 -12.656104973230008" fill="#4dd2ff" stroke="none" /><path d="M 120.23288151984713 105.62410040840565 l 26.413836188679664 7.342210092546219 a48.41530213668073,48.41530213668073 0 0,0 -0.23010493526785242,0.8010254665988933 l -26.28353861652571 -7.795793034649694" fill="#bbff1f" stroke="none" /><path d="M 120.13307415673323 105.97154293290107 l 38.53679471888369 11.430153307374951 a61.19618081155816,61.19618081155816 0 0,0 -0.3082341692731799,1.0073270994944294 l -38.334333777104376 -12.091807379421438" fill="#2fff30" stroke="none" /><path d="M 120.02730092923936 106.31721596034902 l 28.744040804224856 9.066739146475154 a51.14010020728479,51.14010020728479 0 0,0 -0.27203549890282597,0.8372391765004901 l -28.583713054305782 -9.56017722295344" fill="#9bff22" stroke="none" /><path d="M 119.9155931802556 106.66101706037122 l 21.223810036907906 7.098566407857661 a43.37944944652388,43.37944944652388 0 0,0 -0.2429438573117048,0.7061085688466477 l -21.09847534865297 -7.46284767979361" fill="#f8ff18" stroke="none" /><line stroke="#e1ed5e" stroke-width="0.3" x1="174.80103733775053" x2="179.2010983576182" y1="140.37084112569926" y2="142.7455964860345" /><path d="M 175.68104954172406 140.8457921977663 a86.0,86.0 0 0,1 -30.038265399797805,32.042727171017184" fill="none" id="id53" stroke="none" /><text fill="#e1ed5e" style="font-size:6.75px; font-family:Arial;" text-anchor="middle"><textPath startOffset="22.206326154141568" xlink:href="#id53">May</textPath></text><line stroke="#e1ed5e" stroke-width="0.3" x1="143.8653032363475" x2="146.44561519142675" y1="172.8068346515853" y2="177.08958963109032" /><path d="M 144.38136562736335 173.6633856474863 a86.0,86.0 0 0,1 -40.68145358897372,12.25698825130547" fill="none" id="id54" stroke="none" /><text fill="#e1ed5e" style="font-size:6.75px; font-family:Arial;" text-anchor="middle"><textPath startOffset="21.466115282336833" xlink:href="#id54">June</textPath></text><line stroke="#e1ed5e" stroke-width="0.3" x1="102.19456741930631" x2="102.32365962044197" y1="184.97166512339345" y2="189.96999836594603" /><path d="M 102.22038585953345 185.97133177190398 a86.0,86.0 0 0,1 -42.740103519485714,-10.115201625700543" fill="none" id="id55" stroke="none" /><text fill="#e1ed5e" style="font-size:6.75px; font-family:Arial;" text-anchor="middle"><textPath startOffset="22.20632615414155" xlink:href="#id55">July</textPath></text><line stroke="#e1ed5e" stroke-width="0.3" x1="58.666819895761336" x2="56.23545636021788" y1="174.27360380694188" y2="178.64263932499728" /><path d="M 58.180547188652646 175.14741091055294 a86.0,86.0 0 0,1 -31.652253787137756,-30.449443065178592" fill="none" id="id56" stroke="none" /><text fill="#e1ed5e" style="font-size:6.75px; font-family:Arial;" text-anchor="middle"><textPath startOffset="22.20632615414155" xlink:href="#id56">August</textPath></text><line stroke="#e1ed5e" stroke-width="0.3" x1="26.63291911575756" x2="22.317208475507996" y1="142.92168965132927" y2="145.44649492493687" /><path d="M 25.769776987707644 143.4266507060508 a86.0,86.0 0 0,1 -11.730757126820373,-40.83630448921669" fill="none" id="id57" stroke="none" /><text fill="#e1ed5e" style="font-size:6.75px; font-family:Arial;" text-anchor="middle"><textPath startOffset="21.46611528233685" xlink:href="#id57">September</textPath></text><line stroke="#e1ed5e" stroke-width="0.3" x1="15.007084014347285" x2="10.007500721073583" y1="101.09737516637583" y2="101.16192664675087" /><path d="M 14.007167355692545 101.11028546245083 a86.0,86.0 0 0,1 10.666146001902534,-42.60595125391555" fill="none" id="id58" stroke="none" /><text fill="#e1ed5e" style="font-size:6.75px; font-family:Arial;" text-anchor="middle"><textPath startOffset="22.20632615414155" xlink:href="#id58">October</textPath></text><line stroke="#e1ed5e" stroke-width="0.3" x1="26.266209847984243" x2="21.928928074336255" y1="57.711370442889674" y2="55.22380399835377" /><path d="M 25.398753493254645 57.213857153982495 a86.0,86.0 0 0,1 29.58750427330803,-30.492523968695096" fill="none" id="id59" stroke="none" /><text fill="#e1ed5e" style="font-size:6.75px; font-family:Arial;" text-anchor="middle"><textPath startOffset="21.46611528233685" xlink:href="#id59">November</textPath></text><line stroke="#e1ed5e" stroke-width="0.3" x1="56.762969772571076" x2="54.21961505331055" y1="26.818313649435495" y2="22.513508569990535" /><path d="M 56.25429882871897 25.957352633546506 a86.0,86.0 0 0,1 42.265352541879196,-11.944610805530505" fill="none" id="id60" stroke="none" /><text fill="#e1ed5e" style="font-size:6.75px; font-family:Arial;" text-anchor="middle"><textPath startOffset="22.20632615414155" xlink:href="#id60">December</textPath></text></svg>