<?xml version="1.0" encoding="utf-8" ?>
<svg baseProfile="full" height="200mm" version="1.1" viewBox="0,0,200,200" width="200mm" xmlns="http://www.w3.org/2000/svg" xmlns:ev="http://www.w3.org/2001/xml-events" xmlns:xlink="http://www.w3.org/1999/xlink"><defs /><rect fill="#1a1a1a" height="200" width="200" x="0" y="0" /><text alignment-baseline="middle" fill="#e1ed5e" style="dominant-baseline: central; font-size:9.0px; font-family:Arial;" text-anchor="middle" x="100.0" y="100.0">2025</text><line stroke="#e1ed5e" stroke-width="0.3" x1="100.0" x2="100.0" y1="15.0" y2="10.0" /><path d="M 100.0 14.0 a86.0,86.0 0 0,1 42.46469731375804,11.215312516191453" fill="none" id="id49" stroke="none" /><text fill="#e1ed5e" style="font-size:6.75px; font-family:Arial;" text-anchor="middle"><textPath startOffset="22.20632615414155" xlink:href="#id49">January</textPath></text><path d="M 100.0 79.0 l 0.0 -3.6002071375319 a24.6002071375319,24.6002071375319 0 0,0 0.42345212696564305,0.0036447861454009375 l -0.061971647693114695 3.5996737279950577" fill="#ff0801" stroke="none" /><path d="M 100.72285384407766 79.0124445844662 l 0.7890057952532594 -22.90823101616657 a43.92181446646402,43.92181446646402 0 0,0 0.7553698072694458,0.03252781286362033 l -1.1832164349120369 22.891255476778756" fill="#edff1a" stroke="none" /><path d="M 101.08401301168833 79.027996857942 l 1.4008210919809028 -27.101173164636563 a48.137352240617645,48.137352240617645 0 0,0 0.8271325503233518,0.04989489423652095 l -1.8671156911438664 27.07304500101974" fill="#baff1f" stroke="none" /><path d="M 101.44485096284872 79.0497635885617 l 3.8737800489679306 -56.16953576428399 a77.30295658171923,77.30295658171923 0 0,0 1.326702092540409,0.10297761630619554 l -4.840072330870681 56.094532885789334" fill="#44ffea" stroke="none" /><path d="M 101.80526077348638 79.07773832637324 l 0.9763632991913243 -11.315666265076905 a32.35771052257484,32.35771052257484 0 0,0 0.55451080771249,0.05265748275449921 l -1.1709992339940585 11.297183237807227" fill="#ff790b" stroke="none" /><path d="M 102.16513564639614 79.11191278185805 l 2.7050636893532434 -26.0970283168584 a47.23684921125947,47.23684921125947 0 0,0 0.8080499551416558,0.09079382759359476 l -3.1538803480046242 26.046598535794203" fill="#c5ff1e" stroke="none" /><path d="M 102.88285421437855 79.19881850522331 l 2.1397516698372567 -15.439338769210313 a36.58690857222855,36.58690857222855 0 0,0 0.62307682931665,0.09182532805975108 l -2.4051974795825624 15.400218956989592" fill="#ffb310" stroke="none" /><path d="M 103.95276090670814 79.375362276772 l 8.355642498242181 -43.597906258026505 a65.39137519431108,65.39137519431108 0 0,0 1.1036619000000967,0.22138419442792812 l -9.104870807709403 43.447618107521365" fill="#35ff66" stroke="none" /><path d="M 107.4271985657038 80.35727306442388 l 8.348696536362825 -22.07981446584971 a44.60548539434474,44.60548539434474 0 0,0 0.7158475957740783,0.27773774580067734 l -8.72752729713657 21.932834016158488" fill="#e5ff1a" stroke="none" /><path d="M 107.76421540070413 80.48803036053334 l 4.871917895729972 -12.243441115613106 a34.17715577559207,34.17715577559207 0 0,0 0.5447450156990986,0.2222151696364336 l -5.081946781017457 12.157765059793093" fill="#ff920d" stroke="none" /><path d="M 108.09893153111575 80.62456947434976 l 5.191495595184845 -12.419843511736145 a34.46120868907536,34.46120868907536 0 0,0 0.5453342558836791,0.23348366853592462 l -5.4045136088588395 12.328640315237429" fill="#ff960d" stroke="none" /><path d="M 108.76106565485865 80.91482961587045 l 5.590713236458528 -12.178851168344643 a34.40076454061492,34.40076454061492 0 0,0 0.5360323669353038,0.25167438368545453 l -5.79952381469343 12.080811802019186" fill="#ff950d" stroke="none" /><path d="M 109.41281617654863 81.2277094730956 l 13.032075076510264 -25.990298218527712 a50.074569339679044,50.074569339679044 0 0,0 0.7671889296929232,0.3929839675684091 l -13.477524493791941 25.762121725646804" fill="#a4ff21" stroke="none" /><path d="M 109.73455568895987 81.39251694778311 l 25.45805317530697 -48.66275443256278 a75.91972451169676,75.91972451169676 0 0,0 1.1527323917505001,0.6157497220222945 l -26.29193061358578 48.21732598403873" fill="#43ffdc" stroke="none" /><path d="M 110.05341064243156 81.56283822128135 l 12.98871522969264 -23.820278759610044 a48.13139147746718,48.13139147746718 0 0,0 0.7239784346274016,0.4028932150353292 l -13.396817753392074 23.593170147014533" fill="#baff1f" stroke="none" /><path d="M 110.36928655335952 81.73862282372117 l 15.58046744225633 -27.43880122143928 a52.55374428160416,52.55374428160416 0 0,0 0.7828087110698737,0.4534533322577682 l -16.05047288579153 27.166543731791464" fill="#88ff25" stroke="none" /><line stroke="#e1ed5e" stroke-width="0.3" x1="143.23703022742887" x2="145.7803849466894" y1="26.81831364943548" y2="22.513508569990506" /><path d="M 143.74570117128098 25.957352633546492 a86.0,86.0 0 0,1 28.547481713284135,27.462654790039103" fill="none" id="id50" stroke="none" /><text fill="#e1ed5e" style="font-size:6.75px; font-family:Arial;" text-anchor="middle"><textPath startOffset="19.985693538727396" xlink:href="#id50">February</textPath></text><path d="M 110.68208982089419 81.91981866633111 l 15.933404686471535 -26.968397647307928 a52.32359903596962,52.32359903596962 0 0,0 0.7714938615978308,0.46481641930895706 l -16.395260614287004 26.690134618540355" fill="#8aff24" stroke="none" /><path d="M 110.99172775467656 82.1063720568725 l 16.394976000878415 -26.689671291340613 a52.32305527417768,52.32305527417768 0 0,0 0.7633705726369276,0.47802258255349317 l -16.851965725887606 26.403504367464176" fill="#8aff24" stroke="none" /><path d="M 111.2981086023043 82.29822771554956 l 14.098493028124519 -22.08938875723605 a47.20512547827967,47.20512547827967 0 0,0 0.6811766462813973,0.44305623890254275 l -14.476636700190197 21.843433594173984" fill="#c5ff1e" stroke="none" /><path d="M 111.90073688211348 82.69761687909136 l 16.245900975485846 -23.61978133006834 a49.66746184414548,49.66746184414548 0 0,0 0.7002375632366024,0.49056116228188873 l -16.6500696783061 23.336635325022517" fill="#a8ff21" stroke="none" /><path d="M 112.19680574252982 82.90503203632743 l 15.106264892224049 -21.172848025515766 a47.00939700388357,47.00939700388357 0 0,0 0.654672301389044,0.47564726886628067 l -15.468482509966881 20.90968152183281" fill="#c8ff1d" stroke="none" /><path d="M 112.48926042617603 83.11751280151076 l 15.51599166797704 -20.973902518476972 a47.08928102296626,47.08928102296626 0 0,0 0.6474862386730427,0.48767321117106116 l -15.874724060408466 20.703712717800062" fill="#c7ff1e" stroke="none" /><path d="M 113.06298171725822 83.55741782278167 l 18.56699095061159 -23.37056585524924 a50.848224425493626,50.848224425493626 0 0,0 0.680631575001728,0.5503567322314217 l -18.96652592417781 23.047503025753688" fill="#9bff22" stroke="none" /><path d="M 113.34407831869373 83.78471172551755 l 16.9528006240132 -20.600489791273187 a47.67916094328855,47.67916094328855 0 0,0 0.6292342904545544,0.5269656224462421 l -17.304892451426873 20.305623011433127" fill="#c0ff1e" stroke="none" /><path d="M 113.6212207817346 84.01681056812373 l 8.587460866239992 -10.076557451296166 a34.2393917608958,34.2393917608958 0 0,0 0.4452852485935015,0.38614697966658146 l -8.759639913480257 9.927245478209914" fill="#ff930d" stroke="none" /><path d="M 113.89432698308785 84.25364557470407 l 9.69706375983655 -10.989622097776836 a35.656221866984694,35.656221866984694 0 0,0 0.4567205669551656,0.4100482344961265 l -9.884795314387706 10.821074854511412" fill="#ffa60f" stroke="none" /><path d="M 114.16331599549186 84.49514656593476 l 23.637551518887125 -25.876480617756883 a56.04748337568891,56.04748337568891 0 0,0 0.7067110348105624,0.6568108867054699 l -24.079470437492535 25.46576514497677" fill="#62ff29" stroke="none" /><path d="M 114.94478906791727 85.2469230424477 l 25.16322230907506 -24.840427893541168 a56.3586568595323,56.3586568595323 0 0,0 0.675594665773247,0.6962596895270395 l -25.587081238551416 24.403604008464015" fill="#5eff29" stroke="none" /><path d="M 115.19652480421416 85.50635884689758 l 18.756848615413197 -17.88928959070145 a46.919993287836846,46.919993287836846 0 0,0 0.5523883616038003,0.5892493899942365 l -19.06200429898746 17.563770783829156" fill="#c9ff1d" stroke="none" /><path d="M 115.4437574822437 85.77008943001954 l 10.838536119245433 -9.98664993695295 a35.73794565641461,35.73794565641461 0 0,0 0.41295427546893004,0.45599442511183913 l -11.008834035330398 9.798602724571563" fill="#ffa70f" stroke="none" /><path d="M 115.68641384162765 86.03803664274999 l 17.124827704965792 -15.242248440587048 a43.92565945505913,43.92565945505913 0 0,0 0.497841159429176,0.5691185057737377 l -17.384660727972815 14.945214378610363" fill="#edff1a" stroke="none" /><path d="M 115.9244219780498 86.31012108654704 l 17.90997898994661 -15.39681905269898 a44.61841197798623,44.61841197798623 0 0,0 0.4956667598820699,0.5867131023563033 l -18.172356363315796 15.08624700071357" fill="#e5ff1a" stroke="none" /><path d="M 116.15771136456269 86.58626213691792 l 10.195648457726952 -8.464178661839078 a34.25117232146205,34.25117232146205 0 0,0 0.37268783445737363,0.45687121793916063 l -10.339834784260734 8.287423274291816" fill="#ff930d" stroke="none" /><path d="M 116.60985879189232 87.15038557335679 l 25.75094635919513 -19.921285062239335 a53.55716260556416,53.55716260556416 0 0,0 0.5578209540555376,0.7340269884998274 l -26.090043253474782 19.475073297858476" fill="#7dff26" stroke="none" /><path d="M 117.2510076193507 88.02491185347247 l 18.26414200891718 -12.678373072662971 a43.23330895506827,43.23330895506827 0 0,0 0.41910685578270274,0.614987595791392 l -18.479673330368616 12.362107453601173" fill="#f6ff19" stroke="none" /><path d="M 117.45458315368197 88.32363383020206 l 18.73562339870267 -12.533327052072236 a43.54124821593118,43.54124821593118 0 0,0 0.41136810222649983,0.6265418420342254 l -18.948588136287096 12.208967146060337" fill="#f2ff19" stroke="none" /><path d="M 117.65298651832404 88.62581576622439 l 18.570960522392504 -11.965653866024708 a43.0920222516132,43.0920222516132 0 0,0 0.3963899771888994,0.6269937506539135 l -18.774178095827356 11.644212467656587" fill="#f7ff18" stroke="none" /><line stroke="#e1ed5e" stroke-width="0.3" x1="172.23445277983987" x2="176.4835382374775" y1="55.19839476539836" y2="52.563006222186495" /><path d="M 173.08426987136738 54.67131705675599 a86.0,86.0 0 0,1 12.851231095245387,41.99856678651699" fill="none" id="id51" stroke="none" /><text fill="#e1ed5e" style="font-size:6.75px; font-family:Arial;" text-anchor="middle"><textPath startOffset="22.20632615414155" xlink:href="#id51">March</textPath></text><path d="M 118.3937258080291 89.86733742301442 l 19.210650963928618 -10.582687060430256 a42.9326782650202,42.9326782650202 0 0,0 0.3510091969982581,0.6503667329796261 l -19.38996826014534 10.25043934411817" fill="#f9ff18" stroke="none" /><path d="M 118.73160827565052 90.50648371742162 l 19.464087531895224 -9.864749955815588 a42.821182258073065,42.821182258073065 0 0,0 0.3275616268217432,0.6603442515912309 l -19.631009171670375 9.528246115725407" fill="#fbff18" stroke="none" /><path d="M 118.89224826269711 90.83032412892265 l 11.867456278639414 -5.760072913300239 a34.191472946261655,34.191472946261655 0 0,0 0.2524337009904351,0.5316897529058582 l -11.964848173471605 5.55494074475384" fill="#ff920d" stroke="none" /><path d="M 119.04729006885535 91.15688171328212 l 26.687688742737535 -12.390339386757697 a50.42368502666311,50.42368502666311 0 0,0 0.35872293872159244,0.7903984449455962 l -26.897013998422473 11.929118932970038" fill="#a0ff22" stroke="none" /><path d="M 119.196687751892 91.48605970444005 l 27.170596857594187 -12.050455913546127 a50.7229679090468,50.7229679090468 0 0,0 0.3471124625181714,0.8011834211684343 l -27.374000029955038 11.58097334779109" fill="#9cff22" stroke="none" /><path d="M 119.34039704204932 91.81776055985345 l 19.62876891015879 -8.30423940051675 a42.313117110115805,42.313117110115805 0 0,0 0.27801392959240745,0.6732327823751015 l -19.768804526637396 7.9651320476883445" fill="#fffd17" stroke="none" /><path d="M 119.47837535516314 92.15188598940014 l 13.447487681611202 -5.4181837323227775 a35.49798744323819,35.49798744323819 0 0,0 0.223479186010214,0.5687301523559256 l -13.538760417503116 5.185904575071067" fill="#ffa40f" stroke="none" /><path d="M 119.61058180528143 92.48833698450437 l 21.502018859263675 -8.236161549277536 a44.025446186554746,44.025446186554746 0 0,0 0.2649816374832924,0.7100190478736316 l -21.64060508524859 7.864819364374572" fill="#ecff1a" stroke="none" /><path d="M 119.7369772167798 92.82701384747503 l 14.802646686716672 -5.37970827742902 a36.7499082563043,36.7499082563043 0 0,0 0.21095658194379177,0.5964026648739362 l -14.893056349470275 5.124107986128469" fill="#ffb510" stroke="none" /><path d="M 119.85752413597 93.16781622104841 l 18.546527801089145 -6.381122114259295 a40.6135772594818,40.6135772594818 0 0,0 0.2217553656276896,0.6630203176710959 l -18.653620460488607 6.060928693665885" fill="#ffe715" stroke="none" /><path d="M 119.97218684219823 93.5106431181261 l 25.423051860275248 -8.26045028775406 a47.73137865592983,47.73137865592983 0 0,0 0.24716788957217423,0.7835897546604466 l -25.561475233615628 7.821610366667193" fill="#bfff1e" stroke="none" /><path d="M 120.08093135843002 93.85539295169968 l 27.62927334238218 -8.454340323599947 a49.89381621965708,49.89381621965708 0 0,0 0.244228098951107,0.823415737371547 l -27.77070733844499 7.97749519948187" fill="#a6ff21" stroke="none" /><path d="M 120.18372546131832 94.20196356495316 l 12.631910593809048 -3.6286798493926473 a34.142773021679005,34.142773021679005 0 0,0 0.15740343419278086,0.566263900637293 l -12.692500798568192 3.4107046453364025" fill="#ff910d" stroke="none" /><path d="M 120.28053869075195 94.5502522615342 l 12.763183132491587 -3.4296982675139125 a34.215962843459636,34.215962843459636 0 0,0 0.14794928260836016,0.5701089382006784 l -12.820328746970251 3.2094929037643833" fill="#ff920d" stroke="none" /><path d="M 120.37134235888165 94.90015583598534 l 18.90038007364887 -4.731597521566002 a40.48364396191002,40.48364396191002 0 0,0 0.16341357780424276,0.6774547792598901 l -18.97902645171393 4.405557510646706" fill="#ffe615" stroke="none" /><path d="M 120.45610955862082 95.25157060432595 l 40.28687703696479 -9.351699580705962 a62.35803122054164,62.35803122054164 0 0,0 0.23371081297899088,1.0476797484996192 l -40.441882236945816 8.65684166265638" fill="#31ff41" stroke="none" /><path d="M 120.53481517161879 95.60439243477599 l 32.11207451500865 -6.873793432935104 a53.83952444564522,53.83952444564522 0 0,0 0.1861840082306901,0.9078993460375268 l -32.225637819154336 6.320018430734166" fill="#79ff26" stroke="none" /><path d="M 120.6074358757038 95.95851677861258 l 6.921428606122654 -1.3574147578765836 a28.053279292255066,28.053279292255066 0 0,0 0.08885445543232766,0.47466405388589267 l -6.943768785464841 1.238072626528128" fill="#ff3b05" stroke="none" /><path d="M 120.67395015179393 96.31383870115 l 20.547290573552306 -3.6635779206365915 a41.8713428675437,41.8713428675437 0 0,0 0.12040630721045005,0.7106448409663263 l -20.607308742282978 3.309347291354427" fill="#fff717" stroke="none" /><path d="M 120.73433829027371 96.67025291283417 l 14.817184400587806 -2.379505721723465 a36.00703171985511,36.00703171985511 0 0,0 0.09300806026411093,0.6128069093715556 l -14.855948354291217 2.124099699959827" fill="#ffab0f" stroke="none" /><path d="M 120.78858239683441 97.02765380044208 l 21.593325221985104 -3.0874081230838955 a42.81292697142918,42.81292697142918 0 0,0 0.09802937242052337,0.7304326883994331 l -21.643270593463466 2.715257092619798" fill="#fbff18" stroke="none" /><path d="M 120.83666639777658 97.38593545837742 l 13.148348861451389 -1.6495264589575254 a34.251415596879866,34.251415596879866 0 0,0 0.06835546365679067,0.5856278686332151 l -13.174794678111768 1.4229548519994575" fill="#ff930d" stroke="none" /><path d="M 120.87857604477298 97.74499172005257 l 18.950492957198385 -2.0467640339038478 a40.060703720778726,40.060703720778726 0 0,0 0.06814683257613584,0.6862293040744759 l -18.982916915456748 1.720259199124937" fill="#ffe015" stroke="none" /><path d="M 120.91429891909075 98.10471618934814 l 13.089212771001067 -1.1861632634700077 a34.14284878754006,34.14284878754006 0 0,0 0.04800405877738372,0.5857711069062043 l -13.107691313597945 0.9606782393560347" fill="#ff910d" stroke="none" /><path d="M 120.94382443527127 98.46500227214037 l 28.4810881957579 -2.0874127264852596 a49.55748022331859,49.55748022331859 0 0,0 0.05503100714848362,0.8513053232867451 l -28.512799793910798 1.596848338945479" fill="#aaff21" stroke="none" /><path d="M 120.96714384426684 98.82574320788733 l 16.25172788437418 -0.9101717426816519 a37.27719483906614,37.27719483906614 0 0,0 0.030365633279683273,0.640970525363677 l -16.26498712588736 0.6302901106949751" fill="#ffbc11" stroke="none" /><line stroke="#e1ed5e" stroke-width="0.3" x1="184.98032266829074" x2="189.97916517819016" y1="98.17113171792111" y2="98.06355123074" /><path d="M 185.9800911702706 98.14961562048488 a86.0,86.0 0 0,1 -9.607161424134198,41.387399972396054" fill="none" id="id52" stroke="none" /><text fill="#e1ed5e" style="font-size:6.75px; font-family:Arial;" text-anchor="middle"><textPath startOffset="21.466115282336823" xlink:href="#id52">April</textPath></text><path d="M 120.99513854157772 99.54816195383933 l 22.209660331736693 -0.47797586618972987 a43.2148030146517,43.2148030146517 0 0,0 0.009603960860890668,0.7438373526121904 l -22.2145972997153 0.09560225551707667" fill="#f6ff19" stroke="none" /><path d="M 120.9904718944345 100.63252640178507 l 21.886999240697417 0.6595423364093871 a42.89693430267821,42.89693430267821 0 0,0 -0.02859359940283591,0.7378737477844161 l -21.87240350844338 -1.0361933312078093" fill="#faff18" stroke="none" /><path d="M 120.9764740272857 100.99374915477107 l 44.155420103955635 2.09183923617429 a65.20494221177998,65.20494221177998 0 0,0 -0.06276332486989761,1.1206813275688408 l -44.11287042819821 -2.8515922800785543" fill="#35ff64" stroke="none" /><path d="M 120.95626037817324 101.35467743843564 l 18.617233193028135 1.2034754921712232 a39.65609082910579,39.65609082910579 0 0,0 -0.04989763760117017,0.6808136212103193 l -18.593758996762624 -1.5237622498783128" fill="#ffdb14" stroke="none" /><path d="M 120.92983693683757 101.71520430193887 l 19.038233543919457 1.56018702746671 a40.10205538766694,40.10205538766694 0 0,0 -0.062302178435319995,0.6874993474769603 l -19.00855676920706 -1.887667763492241" fill="#ffe115" stroke="none" /><path d="M 120.89721153311464 102.0752229133903 l 29.68062821867802 2.947470750612583 a50.82662024569835,50.82662024569835 0 0,0 -0.0939510676389548,0.8698702029747102 l -29.625494849538015 -3.4579372754720845" fill="#9bff22" stroke="none" /><path d="M 120.8583938346157 102.4346265915055 l 36.74409704880375 4.288832422341924 a57.993550133487325,57.993550133487325 0 0,0 -0.1242677252106752,0.990536038034561 l -36.66482781434623 -4.9206862146638795" fill="#4dff2c" stroke="none" /><path d="M 120.81339534386255 102.79330883721812 l 13.346896729561745 1.7912504888404033 a34.46655971743923,34.46655971743923 0 0,0 -0.0839768683874171,0.5873340219115835 l -13.314085810157728 -2.020729982732396" fill="#ff960d" stroke="none" /><path d="M 120.76222939487914 103.15116336523771 l 32.181154044587274 4.884257453652166 a53.549695029523896,53.549695029523896 0 0,0 -0.14616069398001633,0.9101427809348392 l -32.09231159624597 -5.4374794642802105" fill="#7dff26" stroke="none" /><path d="M 120.64145759157962 103.86396538481128 l 61.924372774738885 11.591896154433844 a84.0,84.0 0 0,0 -0.2782802680973435,1.4189450917282203 l -61.715662573665874 -12.656104973230008" fill="#4dd2ff" stroke="none" /><path d="M 120.23288151984713 105.62410040840565 l 26.413836188679664 7.342210092546219 a48.41530213668073,48.41530213668073 0 0,0 -0.23010493526785242,0.8010254665988933 l -26.28353861652571 -7.795793034649694" fill="#b7ff1f" stroke="none" /><path d="M 120.13307415673323 105.97154293290107 l 38.53679471888369 11.430153307374951 a61.19618081155816,61.19618081155816 0 0,0 -0.3082341692731799,1.0073270994944294 l -38.334333777104376 -12.091807379421438" fill="#30ff33" stroke="none" /><path d="M 120.02730092923936 106.31721596034902 l 28.744040804224856 9.066739146475154 a51.14010020728479,51.14010020728479 0 0,0 -0.27203549890282597,0.8372391765004901 l -28.583713054305782 -9.56017722295344" fill="#98ff23" stroke="none" /><path d="M 119.9155931802556 106.66101706037122 l 21.223810036907906 7.098566407857661 a43.37944944652388,43.37944944652388 0 0,0 -0.2429438573117048,0.7061085688466477 l -21.09847534865297 -7.46284767979361" fill="#f4ff19" stroke="none" /><path d="M 119.79798401119884 107.00284435728193 l 26.923626153521848 9.52329102701107 a49.5582688067704,49.5582688067704 0 0,0 -0.29139256496274263,0.8017871906505989 l -26.75570932755388 -9.9853260146678" fill="#aaff21" stroke="none" /><path d="M 119.67450827220406 107.3425965602758 l 38.39790699443742 14.330235649013314 a61.98481322770324,61.98481322770324 0 0,0 -0.38166623469857613,0.9964101028534202 l -38.14554648014534 -14.98906931869988" fill="#31ff3d" stroke="none" /><path d="M 119.54520255179757 107.68017299344265 l 16.933935628659746 6.654090933223286 a39.194370063929014,39.194370063929014 0 0,0 -0.25214556816500605,0.6258046218780049 l -16.81688744623735 -6.944594922944105" fill="#ffd513" stroke="none" /><path d="M 119.41010516605496 108.01547362559984 l 12.384554017489185 5.114246689688438 a34.398981208102974,34.398981208102974 0 0,0 -0.2307172738640718,0.5453474826337339 l -12.294685762432804 -5.326668697988335" fill="#ff950d" stroke="none" /><path d="M 119.12269723197855 108.67885076344098 l 11.906367862701325 5.403714160270847 a34.075233168394305,34.075233168394305 0 0,0 -0.2470054964443291,0.5320278647005373 l -11.811587749417164 -5.607862092250215" fill="#ff910d" stroke="none" /><path d="M 118.97047184881838 109.00673069616215 l 25.406702849803445 12.062500725823986 a49.124801749678426,49.124801749678426 0 0,0 -0.3692471416968821,0.7607584792862755 l -25.195302451491848 -12.498048161075538" fill="#afff20" stroke="none" /><path d="M 118.81262510543309 109.33194174019688 l 25.62381732354343 12.710611575186118 a49.60314075142063,49.60314075142063 0 0,0 -0.38601005925600407,0.7616344676959064 l -25.40122859450116 -13.149800254584719" fill="#a9ff21" stroke="none" /><path d="M 118.64920377521936 109.65438752849418 l 25.631792188729353 13.269159253256783 a49.862767679044524,49.862767679044524 0 0,0 -0.4011518824923544,0.7588281836414777 l -25.399587798012103 -13.708402451984396" fill="#a6ff21" stroke="none" /><line stroke="#e1ed5e" stroke-width="0.3" x1="174.80103733775053" x2="179.2010983576182" y1="140.37084112569926" y2="142.7455964860345" /><path d="M 175.68104954172406 140.8457921977663 a86.0,86.0 0 0,1 -30.038265399797805,32.042727171017184" fill="none" id="id53" stroke="none" /><text fill="#e1ed5e" style="font-size:6.75px; font-family:Arial;" text-anchor="middle"><textPath startOffset="22.206326154141568" xlink:href="#id53">May</textPath></text><path d="M 118.48025628344425 109.97397251340804 l 24.533385826137582 13.240904895347365 a48.87846090697552,48.87846090697552 0 0,0 -0.40597888818469974,0.7369696065947052 l -24.301830528501373 -13.661245020339875" fill="#b2ff20" stroke="none" /><path d="M 118.30583269289576 110.29060199501025 l 32.258548203316366 18.134104362595345 a58.0062112789081,58.0062112789081 0 0,0 -0.49677625282261656,0.8661712701911972 l -31.94161995434137 -18.686695478644857" fill="#4dff2c" stroke="none" /><path d="M 118.12598468904814 110.60418214915192 l 31.85024918853234 18.633241155452595 a57.90035297024755,57.90035297024755 0 0,0 -0.5106786987577524,0.8559268733018639 l -31.52478961407636 -19.178730122640562" fill="#4eff2b" stroke="none" /><path d="M 117.94076556474637 110.91462005526583 l 24.75711923122203 15.061483808844548 a49.978668829900215,49.978668829900215 0 0,0 -0.45346207973431374,0.7311252580012094 l -24.494192511819755 -15.485405398211032" fill="#a5ff21" stroke="none" /><path d="M 117.75023020441432 111.22182372390056 l 27.671842707114944 17.494338800041092 a53.73809354342329,53.73809354342329 0 0,0 -0.5010313031995911,0.7776117090117509 l -27.366606540538303 -17.968072108974297" fill="#7bff26" stroke="none" /><path d="M 117.35343817320211 111.8261652097733 l 15.294409271757969 10.422961088656864 a39.5082974048855,39.5082974048855 0 0,0 -0.387819266029125,0.5586825776426022 l -15.112729098566708 -10.684684928486487" fill="#ffd914" stroke="none" /><path d="M 117.14729908036423 112.12312394758627 l 23.500518478613962 16.61484394793252 a49.78067768795284,49.78067768795284 0 0,0 -0.5006992893777427,0.6954275205482877 l -23.211039396860617 -17.01690507393194" fill="#a7ff21" stroke="none" /><path d="M 116.93607887273984 112.41649034213515 l 47.56871260911111 34.87445146760111 a79.98313135511094,79.98313135511094 0 0,0 -0.8235929052375836,1.1033372861947766 l -46.96135843717843 -35.68810163330521" fill="#48f9ff" stroke="none" /><path d="M 116.498646956653 112.99209946851258 l 21.0085455858789 16.54348472681607 a47.74034170575141,47.74034170575141 0 0,0 -0.5139636253357626,0.641248648126472 l -20.72066404848828 -16.902661208520794" fill="#bfff1e" stroke="none" /><path d="M 116.27256486870786 113.27417163493432 l 23.165276409014684 18.896827728447295 a50.89515227097308,50.89515227097308 0 0,0 -0.5596140116854711,0.6740911272215087 l -22.836566397435668 -19.292780112782577" fill="#9aff22" stroke="none" /><path d="M 116.0416608686014 113.55231037782055 l 19.95726266852164 16.860287733976847 a47.125880572582766,47.125880572582766 0 0,0 -0.5288365119048594,0.6151563374820848 l -19.664083647046002 -17.20132117062046" fill="#c6ff1e" stroke="none" /><path d="M 115.80600337817218 113.82643327865902 l 17.675189209888263 15.461519174144001 a44.48341731473026,44.48341731473026 0 0,0 -0.5091045566188237,0.5719843663415978 l -17.4064258036211 -15.763477710226464" fill="#e6ff1a" stroke="none" /><path d="M 115.56566222782051 114.09645910891815 l 21.20036252761392 19.199314432675763 a49.601906334840834,49.601906334840834 0 0,0 -0.5785792917609055,0.6279335504085313 l -20.86673682785729 -19.56139923788563" fill="#a9ff21" stroke="none" /><path d="M 115.32070863581623 114.36230785411682 l 17.074826146862073 16.006694958186 a44.40435795808084,44.40435795808084 0 0,0 -0.5275522095602148,0.5531363825979458 l -16.796767385922895 -16.298238457366452" fill="#e7ff1a" stroke="none" /><path d="M 115.07121518719521 114.62390073753431 l 24.2620930984145 23.541992914909777 a54.80642826330215,54.80642826330215 0 0,0 -0.6627907745088972,0.6714035553191071 l -23.853261698850066 -23.95613696420955" fill="#6fff28" stroke="none" /><path d="M 114.81725581225074 114.88116024355365 l 8.605148414207875 8.642261029570326 a33.19578840968366,33.19578840968366 0 0,0 -0.408387310312611,0.3996929372758376 l -8.45511115151947 -8.789104069768737" fill="#ff840c" stroke="none" /><path d="M 114.55890576462653 115.13401014063108 l 19.808459409950405 20.5909311061578 a49.572040669405986,49.572040669405986 0 0,0 -0.6200380333321178,0.5862846613382368 l -19.45108554222748 -20.92885040424196" fill="#aaff21" stroke="none" /><path d="M 113.75828350139079 115.86535959552629 l 12.465986389490515 14.375147652845692 a40.027498172489146,40.027498172489146 0 0,0 -0.5244260301667102,0.4469272400878226 l -12.21669488274676 -14.587599283156463" fill="#ffe015" stroke="none" /><path d="M 113.48314897796784 116.09983520530334 l 8.55461807365041 10.214820102865856 a34.323814773552606,34.323814773552606 0 0,0 -0.4562286669332176,0.3754451329965298 l -8.3775192781725 -10.360560354719563" fill="#ff940d" stroke="none" /><path d="M 113.20401910651253 116.32954008644616 l 16.518513428858387 20.428607761707976 a47.2714541086155,47.2714541086155 0 0,0 -0.6371348044666288,0.5061784221281274 l -16.16442113167441 -20.70992009784123" fill="#c4ff1e" stroke="none" /><path d="M 112.92097659922987 116.55440617244103 l 35.184176201558905 45.07810529724628 a78.18358009229544,78.18358009229544 0 0,0 -1.0680296681908363,0.8189196064473202 l -34.40301780487458 -45.677064245520974" fill="#46fff3" stroke="none" /><path d="M 112.63410532772338 116.77436683061366 l 17.04148696616716 22.626070172324628 a49.3258067751124,49.3258067751124 0 0,0 -0.6826105140513081,0.5049789393825553 l -16.64949148169729 -22.91605906044695" fill="#acff20" stroke="none" /><path d="M 112.34349029814194 116.9893568818739 l 19.049290873369856 26.219099555902794 a53.4085893599304,53.4085893599304 0 0,0 -0.7484137288937309,0.5339733239487221 l -18.59514981662724 -26.543117141695735" fill="#7eff26" stroke="none" /><path d="M 112.04921762599082 117.19931262002967 l 6.077620830025474 8.675326804300843 a31.59239208653929,31.59239208653929 0 0,0 -0.44807507053667767,0.3081901192817565 l -5.927388874865913 -8.778657712947693" fill="#ff6e0a" stroke="none" /><path d="M 111.7513745106137 117.40417183066458 l 12.395777523039632 18.358553868810773 a43.15156429137052,43.15156429137052 0 0,0 -0.6191741957113823,0.4103548943805663 l -12.077928628588285 -18.569206784282656" fill="#f7ff19" stroke="none" /><path d="M 111.45004920935366 117.60387380957326 l 14.836283109613234 22.810037833844152 a48.21053330035993,48.21053330035993 0 0,0 -0.699553658554387,0.44648824312520397 l -14.441447649011916 -23.062040505793167" fill="#b9ff1f" stroke="none" /><path d="M 111.1453310114006 117.79835938074945 l 20.633067900611923 32.94965014918362 a59.8767660170552,59.8767660170552 0 0,0 -0.878251874954252,0.5394940333069277 l -20.062836825725363 -33.299932649318926" fill="#3aff2e" stroke="none" /><line stroke="#e1ed5e" stroke-width="0.3" x1="143.8653032363475" x2="146.44561519142675" y1="172.8068346515853" y2="177.08958963109032" /><path d="M 144.38136562736335 173.6633856474863 a86.0,86.0 0 0,1 -40.68145358897372,12.25698825130547" fill="none" id="id54" stroke="none" /><text fill="#e1ed5e" style="font-size:6.75px; font-family:Arial;" text-anchor="middle"><textPath startOffset="21.466115282336833" xlink:href="#id54">June</textPath></text><path d="M 110.5260780823613 118.17145234162733 l 27.49139123497254 47.45912976538265 a75.8465640685153,75.8465640685153 0 0,0 -1.1353552828441935,0.6446843605516603 l -26.670387185207147 -47.92531729172894" fill="#43ffdb" stroke="none" /><path d="M 109.57404056367764 118.69057910512821 l 10.127140724850804 19.770349161115448 a43.21318719169651,43.21318719169651 0 0,0 -0.6649605989319102,0.33342504866005135 l -9.785326218236134 -19.9417420506848" fill="#f6ff19" stroke="none" /><path d="M 109.2508944713604 118.85261126421891 l 12.272172779714667 25.009744030651152 a48.85845511175845,48.85845511175845 0 0,0 -0.7582072181905406,0.3639855409082295 l -11.839852893523894 -25.217283848058944" fill="#b2ff20" stroke="none" /><path d="M 108.92500713936063 119.00905698771935 l 11.719018850493644 24.959923694262685 a48.574139943824925,48.574139943824925 0 0,0 -0.7599123595056501,0.3488384929014713 l -11.287638495220575 -25.15794925749823" fill="#b5ff1f" stroke="none" /><path d="M 108.59647513512805 119.15986991738527 l 11.821658075795435 26.34817496470009 a49.8786759327963,49.8786759327963 0 0,0 -0.7863713512759396,0.34472209107559665 l -11.366366049861742 -26.547761609070143" fill="#a6ff21" stroke="none" /><path d="M 108.2653958097858 119.30500536409082 l 11.465791733033532 26.77998440772756 a50.1312880755972,50.1312880755972 0 0,0 -0.7962007307317269,0.33281197001965307 l -11.003119542804344 -26.97338142076719" fill="#a3ff21" stroke="none" /><path d="M 107.93186726928326 119.44442032107085 l 10.367048869701431 25.414098454747883 a48.44726038303999,48.44726038303999 0 0,0 -0.7748768421988093,0.3083394871463875 l -9.928050951460756 -25.588784786300337" fill="#b7ff1f" stroke="none" /><path d="M 107.59598834532513 119.57807347666477 l 10.648709777434084 27.44622726844897 a50.4396061657654,50.4396061657654 0 0,0 -0.8121491856080446,0.3070853291535941 l -10.174690371065765 -27.625460847709196" fill="#a0ff22" stroke="none" /><path d="M 107.2578585660854 119.70592522655815 l 9.439828509231582 25.63022592141547 a48.31334551215758,48.31334551215758 0 0,0 -0.7828612589678292,0.2807061945963978 l -8.997247689634017 -25.788919657051824" fill="#b8ff1f" stroke="none" /><path d="M 106.91757812671514 119.82793768551818 l 9.018572277472531 25.850042580578847 a48.37808151316917,48.37808151316917 0 0,0 -0.7886324554470383,0.26754694697802855 l -8.572270089088265 -26.001452514454996" fill="#b7ff1f" stroke="none" /><path d="M 106.57524785965236 119.94407469862006 l 0.9564461088308126 2.901097121642916 a24.054693711045743,24.054693711045743 0 0,0 -0.3943579807184878,0.1262609720114872 l -0.9063667830213844 -2.91713094031411" fill="#ff0000" stroke="none" /><path d="M 106.2309692047433 120.05430185196036 l 9.251457394231473 29.775707928909885 a52.17983718021996,52.17983718021996 0 0,0 -0.860035594176545,0.25912166954583693 l -8.737546825614682 -29.930544967561445" fill="#8cff24" stroke="none" /><path d="M 105.88484417918355 120.15858648285463 l 5.630267122424387 19.28653049309991 a41.09154464771501,41.09154464771501 0 0,0 -0.680688935113241,0.19236949228099917 l -5.29744701920654 -19.380588778719428" fill="#ffed16" stroke="none" /><path d="M 105.53697534728816 120.25689768951611 l 3.669881487210962 13.426177498783947 a34.91870225125267,34.91870225125267 0 0,0 -0.5811628648301185,0.15349039470871612 l -3.438228179569346 -13.487359242796247" fill="#ff9c0e" stroke="none" /><path d="M 105.18746579009965 120.34920634021253 l 7.04168128483714 27.622856948886227 a49.50627126328271,49.50627126328271 0 0,0 -0.8275720910279503,0.20339708524573008 l -6.565155909065979 -27.739975292445987" fill="#aaff21" stroke="none" /><path d="M 104.83641907484287 120.43548508189849 l 4.441795984274402 18.76807079138925 a40.286524642778815,40.286524642778815 0 0,0 -0.6761994375032123,0.15390079045937272 l -4.118076397378328 -18.841748315426305" fill="#ffe315" stroke="none" /><path d="M 104.48393922423573 120.51570834832081 l 6.152979163541198 28.15219379206062 a49.81675151526814,49.81675151526814 0 0,0 -0.8393139071406113,0.17588638973757856 l -5.667473794971208 -28.253936162524738" fill="#a7ff21" stroke="none" /><path d="M 103.7750983002368 120.6578951692458 l 4.849406918301831 26.53667051398646 a47.97613073491364,47.97613073491364 0 0,0 -0.8136546812395661,0.1414642958175189 l -4.391903265590215 -26.616213388324987" fill="#bcff1f" stroke="none" /><path d="M 103.41894727170886 120.7198165907248 l 4.405026422342604 26.695743541729467 a48.05673633362544,48.05673633362544 0 0,0 -0.8173401300186918,0.12765171886016521 l -3.944850428715395 -26.767613567936735" fill="#bbff1f" stroke="none" /><path d="M 103.06178313531738 120.77559828337769 l 4.0619879919240525 27.56244548436003 a48.86015340095696,48.86015340095696 0 0,0 -0.8331154268146779,0.11546220679145625 l -3.5869439739225437 -27.628282256644088" fill="#b2ff20" stroke="none" /><path d="M 102.70371172650421 120.8252237178851 l 5.862230607802875 45.1535800568413 a66.53253276118777,66.53253276118777 0 0,0 -1.1369857849012341,0.13767314446193726 l -5.0841173998502605 -45.24779873002859" fill="#37ff74" stroke="none" /><path d="M 102.34483914955558 120.86867818915974 l 3.491498146988011 31.073752432592187 a52.269292437668774,52.269292437668774 0 0,0 -0.8949682742416653,0.09276712092964602 l -2.956097276140743 -31.12924892197759" fill="#8bff24" stroke="none" /><path d="M 101.98527174616119 120.90594882070398 l 2.765675570249273 29.124008860804125 a50.255031250779254,50.255031250779254 0 0,0 -0.8618873841449783,0.07436727013700488 l -2.263943868362753 -29.167300383219793" fill="#a2ff22" stroke="none" /><path d="M 100.90346689309514 120.98055641714683 l 1.1595406712166512 26.927172048434247 a47.95212661543026,47.95212661543026 0 0,0 -0.82495844952739,0.028413237017774852 l -0.6958618700146088 -26.943142083878115" fill="#bcff1f" stroke="none" /><line stroke="#e1ed5e" stroke-width="0.3" x1="102.19456741930631" x2="102.32365962044197" y1="184.97166512339345" y2="189.96999836594603" /><path d="M 102.22038585953345 185.97133177190398 a86.0,86.0 0 0,1 -42.740103519485714,-10.115201625700543" fill="none" id="id55" stroke="none" /><text fill="#e1ed5e" style="font-size:6.75px; font-family:Arial;" text-anchor="middle"><textPath startOffset="22.20632615414155" xlink:href="#id55">July</textPath></text><path d="M 100.54218724476979 120.99299961872073 l 0.7629245986842068 29.539750268545014 a50.549600671942805,50.549600671942805 0 0,0 -0.8700315877461338,0.01497838279574144 l -0.2543333210454052 -29.548506128619916" fill="#9eff22" stroke="none" /><path d="M 100.18074693466247 120.99922214144158 l 0.24125385972102373 28.028931180618763 a49.0299694354577,49.0299694354577 0 0,0 -0.8440015887669391,0.0 l 0.24125385972100444 -28.028931180618763" fill="#b0ff20" stroke="none" /><path d="M 99.81925306533755 120.99922214144158 l -0.2536025956380066 29.46361027584881 a50.464701674437805,50.464701674437805 0 0,0 -0.8685703534610857,-0.0149532263223628 l 0.7607326389917601 -29.45487957224729" fill="#9fff22" stroke="none" /><path d="M 99.09653310690486 120.98055641714683 l -1.6378118422430175 38.03371658604029 a59.068964064941774,59.068964064941774 0 0,0 -1.0154571816142306,-0.0524875373242079 l 2.292257092270737 -37.99988924195389" fill="#42ff2d" stroke="none" /><path d="M 98.73552117531835 120.96189622390904 l -3.307632749558269 54.83227800236139 a75.93195013226998,75.93195013226998 0 0,0 -1.3039947078273237,-0.08993110970935402 l 4.250990218164523 -54.76721854813575" fill="#43ffdc" stroke="none" /><line stroke="#e1ed5e" stroke-width="0.3" x1="58.666819895761336" x2="56.23545636021788" y1="174.27360380694188" y2="178.64263932499728" /><path d="M 58.180547188652646 175.14741091055294 a86.0,86.0 0 0,1 -31.652253787137756,-30.449443065178592" fill="none" id="id56" stroke="none" /><text fill="#e1ed5e" style="font-size:6.75px; font-family:Arial;" text-anchor="middle"><textPath startOffset="22.20632615414155" xlink:href="#id56">August</textPath></text><line stroke="#e1ed5e" stroke-width="0.3" x1="26.63291911575756" x2="22.317208475507996" y1="142.92168965132927" y2="145.44649492493687" /><path d="M 25.769776987707644 143.4266507060508 a86.0,86.0 0 0,1 -11.730757126820373,-40.83630448921669" fill="none" id="id57" stroke="none" /><text fill="#e1ed5e" style="font-size:6.75px; font-family:Arial;" text-anchor="middle"><textPath startOffset="21.46611528233685" xlink:href="#id57">September</textPath></text><line stroke="#e1ed5e" stroke-width="0.3" x1="15.007084014347285" x2="10.007500721073583" y1="101.09737516637583" y2="101.16192664675087" /><path d="M 14.007167355692545 101.11028546245083 a86.0,86.0 0 0,1 10.666146001902534,-42.60595125391555" fill="none" id="id58" stroke="none" /><text fill="#e1ed5e" style="font-size:6.75px; font-family:Arial;" text-anchor="middle"><textPath startOffset="22.20632615414155" xlink:href="#id58">October</textPath></text><line stroke="#e1ed5e" stroke-width="0.3" x1="26.266209847984243" x2="21.928928074336255" y1="57.711370442889674" y2="55.22380399835377" /><path d="M 25.398753493254645 57.213857153982495 a86.0,86.0 0 0,1 29.58750427330803,-30.492523968695096" fill="none" id="id59" stroke="none" /><text fill="#e1ed5e" style="font-size:6.75px; font-family:Arial;" text-anchor="middle"><textPath startOffset="21.46611528233685" xlink:href="#id59">November</textPath></text><line stroke="#e1ed5e" stroke-width="0.3" x1="56.762969772571076" x2="54.21961505331055" y1="26.818313649435495" y2="22.513508569990535" /><path d="M 56.25429882871897 25.957352633546506 a86.0,86.0 0 0,1 42.265352541879196,-11.944610805530505" fill="none" id="id60" stroke="none" /><text fill="#e1ed5e" style="font-size:6.75px; font-family:Arial;" text-anchor="middle"><textPath startOffset="22.20632615414155" xlink:href="#id60">December</textPath></text></svg>