<?xml version="1.0" encoding="utf-8" ?>
<svg baseProfile="full" height="200mm" version="1.1" viewBox="0,0,200,200" width="200mm" xmlns="http://www.w3.org/2000/svg" xmlns:ev="http://www.w3.org/2001/xml-events" xmlns:xlink="http://www.w3.org/1999/xlink"><defs /><rect fill="#1a1a1a" height="200" width="200" x="0" y="0" /><text alignment-baseline="middle" fill="#e1ed5e" style="dominant-baseline: central; font-size:9.0px; font-family:Arial;" text-anchor="middle" x="100.0" y="100.0">2023</text><line stroke="#e1ed5e" stroke-width="0.3" x1="100.0" x2="100.0" y1="15.0" y2="10.0" /><path d="M 100.0 14.0 a86.0,86.0 0 0,1 42.46469731375804,11.215312516191453" fill="none" id="id25" stroke="none" /><text fill="#e1ed5e" style="font-size:6.75px; font-family:Arial;" text-anchor="middle"><textPath startOffset="22.20632615414155" xlink:href="#id25">January</textPath></text><path d="M 100.72285384407766 79.0124445844662 l 0.4368512718156473 -12.683670911753907 a33.691191702569114,33.691191702569114 0 0,0 0.5794229881481582,0.02495117271829214 l -0.655115092353137 12.67427201251142" fill="#ff8d0d" stroke="none" /><path d="M 101.08401301168833 79.027996857942 l 0.8053732276019235 -15.58126118199507 a36.60206159638156,36.60206159638156 0 0,0 0.6289244245087927,0.03793843880447403 l -1.0734597009503282 15.565089473810291" fill="#ffb410" stroke="none" /><path d="M 101.44485096284872 79.0497635885617 l 1.1450340570778939 -16.602912557592248 a37.642349845707564,37.642349845707564 0 0,0 0.646032008564189,0.05014451750208391 l -1.4306562550044242 16.580742777901698" fill="#ffc212" stroke="none" /><path d="M 101.80526077348638 79.07773832637324 l 1.3109516069448859 -15.193413031953526 a36.24986536580853,36.24986536580853 0 0,0 0.6212102710245764,0.05899140048926699 l -1.5722870050597066 15.16859608694908" fill="#ffb010" stroke="none" /><path d="M 102.16513564639614 79.11191278185805 l 1.4283707629791758 -13.780168058576324 a34.853998511590106,34.853998511590106 0 0,0 0.5962246086278877,0.06699278179321108 l -1.6653620751167888 13.753539323312511" fill="#ff9d0e" stroke="none" /><path d="M 102.52436894288641 79.15227682838746 l 2.0366554869768723 -16.819898655499426 a37.942755276338744,37.942755276338744 0 0,0 0.6477104250666024,0.08409140258731451 l -2.325880640551321 16.78234892974797" fill="#ffc612" stroke="none" /><path d="M 103.2404852339499 79.25152402106235 l 2.3169997955127974 -14.835498738502789 a36.01534251599091,36.01534251599091 0 0,0 0.6116962288742285,0.10093511897978502 l -2.5720252305259015 14.79341735658338" fill="#ffad10" stroke="none" /><path d="M 103.59715602781102 79.31037775812273 l 1.9128029133260749 -11.001794026699868 a32.16683871071655,32.16683871071655 0 0,0 0.5446992754393751,0.09954031095639738 l -2.1018973098683507 10.967238234392731" fill="#ff780b" stroke="none" /><path d="M 103.95276090670814 79.375362276772 l 3.475193473415986 -18.132795810061264 a39.46280730460697,39.46280730460697 0 0,0 0.6660449754989906,0.13360235625928576 l -3.7868048583821015 18.070289497724772" fill="#ffda14" stroke="none" /><path d="M 104.307194497241 79.44645832069477 l 3.673147979481854 -17.527929174987463 a38.90866598165671,38.90866598165671 0 0,0 0.6543275469001039,0.14301065813715633 l -3.974318250535486 17.462105018754436" fill="#ffd313" stroke="none" /><path d="M 105.01212808612495 79.60689891045804 l 7.539311832555567 -30.675582448204132 a52.58848811584818,52.58848811584818 0 0,0 0.877203806879753,0.22361878213115916 l -8.066224528120346 30.541260669904105" fill="#86ff25" stroke="none" /><path d="M 105.36241919743992 79.69619591428918 l 3.4151128309258456 -12.93069029046054 a34.37406995030925,34.37406995030925 0 0,0 0.5707767022687927,0.15601483394490132 l -3.6371874224183496 12.869988915689344" fill="#ff960d" stroke="none" /><path d="M 109.73455568895987 81.39251694778311 l 7.042786735707393 -13.462199920811768 a36.193145550298674,36.193145550298674 0 0,0 0.5495411304968831,0.2935458400968686 l -7.273472912732587 13.338975354213146" fill="#ffaf10" stroke="none" /><path d="M 110.05341064243156 81.56283822128135 l 8.803637606271717 -16.145176653083094 a39.38941990008986,39.38941990008986 0 0,0 0.5924842329459521,0.329716834165354 l -9.080245928289704 15.99124442135756" fill="#ffd914" stroke="none" /><path d="M 110.36928655335952 81.73862282372117 l 9.17387334028394 -16.156131897045235 a39.57903522625152,39.57903522625152 0 0,0 0.589545311649588,0.34150269702426456 l -9.450615384398857 15.99582504263092" fill="#ffdb14" stroke="none" /><line stroke="#e1ed5e" stroke-width="0.3" x1="143.23703022742887" x2="145.7803849466894" y1="26.81831364943548" y2="22.513508569990506" /><path d="M 143.74570117128098 25.957352633546492 a86.0,86.0 0 0,1 28.547481713284135,27.462654790039103" fill="none" id="id26" stroke="none" /><text fill="#e1ed5e" style="font-size:6.75px; font-family:Arial;" text-anchor="middle"><textPath startOffset="19.985693538727396" xlink:href="#id26">February</textPath></text><path d="M 110.68208982089419 81.91981866633111 l 9.816057296143839 -16.614360941697047 a40.29746020444574,40.29746020444574 0 0,0 0.5941724911610266,0.3579822776831383 l -10.100591853522504 16.442932054555293" fill="#ffe515" stroke="none" /><path d="M 111.2981086023043 82.29822771554956 l 4.925163378681723 -7.716700525905449 a30.154490773015013,30.154490773015013 0 0,0 0.43513357261462954,0.28302297965632595 l -5.057263977080633 7.630778622089595" fill="#ff5c08" stroke="none" /><path d="M 112.19680574252982 82.90503203632743 l 10.117493529599956 -14.180616746077765 a38.419918674340536,38.419918674340536 0 0,0 0.5350516743627346,0.38873779610500003 l -10.36009052031648 14.00435971515609" fill="#ffcc13" stroke="none" /><path d="M 112.48926042617603 83.11751280151076 l 6.341126704302686 -8.571683731169202 a31.66225350792277,31.66225350792277 0 0,0 0.4353617848138015,0.3279054703254044 l -6.487734642874871 8.461261671337951" fill="#ff710a" stroke="none" /><path d="M 112.77801427241765 83.33499621200491 l 10.782553350539132 -14.062536525637766 a38.72056405118412,38.72056405118412 0 0,0 0.5254333428786455,0.41010905840236644 l -11.023019248577208 13.874849078012174" fill="#ffd013" stroke="none" /><path d="M 113.06298171725822 83.55741782278167 l 11.196162747314002 -14.092787544745969 a38.998908884865465,38.998908884865465 0 0,0 0.5220219403442263,0.422105438232461 l -11.43708808622272 13.897976009249378" fill="#ffd413" stroke="none" /><path d="M 113.34407831869373 83.78471172551755 l 10.267873322277033 -12.477184404212082 a37.15887846414601,37.15887846414601 0 0,0 0.49039538578048736,0.41069203257485803 l -10.481126245016638 12.298591214243404" fill="#ffbc11" stroke="none" /><path d="M 113.89432698308785 84.25364557470407 l 13.604078574027302 -15.41741770702174 a41.56131616898821,41.56131616898821 0 0,0 0.5323589233574738,0.4779570976982514 l -13.867448484980764 15.18096160055419" fill="#fff517" stroke="none" /><path d="M 114.16331599549186 84.49514656593476 l 12.246201452292265 -13.406151405664133 a39.15748731299889,39.15748731299889 0 0,0 0.49374256813740064,0.45887990707473686 l -12.475151904224512 13.193366912514756" fill="#ffd614" stroke="none" /><path d="M 114.42810811169701 84.74124197986012 l 12.99218707744449 -13.740168650829204 a39.91002801712745,39.91002801712745 0 0,0 0.49510624030283595,0.4762918108991681 l -13.226776561359744 13.514493753167734" fill="#ffe015" stroke="none" /><path d="M 114.68862486808459 84.99185889309783 l 12.62819430294725 -12.902890755676632 a39.05424828692446,39.05424828692446 0 0,0 0.4763952505946057,0.4743494579906403 l -12.848425353709178 12.683605447035873" fill="#ffd513" stroke="none" /><path d="M 114.94478906791727 85.2469230424477 l 13.644458971635554 -13.469427526738418 a40.17281248348047,40.17281248348047 0 0,0 0.48156821569742325,0.4962983773174364 l -13.874291451036086 13.232564953870867" fill="#ffe315" stroke="none" /><path d="M 115.19652480421416 85.50635884689758 l 15.122701412672392 -14.423232309008359 a41.89798383233335,41.89798383233335 0 0,0 0.49326432128123915,0.5261799860826242 l -15.368733055924094 14.16078290604768" fill="#fff917" stroke="none" /><path d="M 115.68641384162765 86.03803664274999 l 24.95303192224394 -22.209876704012146 a54.405574764101075,54.405574764101075 0 0,0 0.6166175933609404,0.7049005023404468 l -25.331641379182727 21.77706064546875" fill="#72ff27" stroke="none" /><path d="M 115.9244219780498 86.31012108654704 l 7.25521879073242 -6.237153654471237 a30.56766875528625,30.56766875528625 0 0,0 0.33957679481189257,0.40195181702258503 l -7.36150619903143 6.111342887819546" fill="#ff6109" stroke="none" /><path d="M 116.15771136456269 86.58626213691792 l 13.775920055971312 -11.436432814293887 a38.904411995493476,38.904411995493476 0 0,0 0.42331984789766225,0.518940079620296 l -13.970738395945384 11.197608565065492" fill="#ffd313" stroke="none" /><path d="M 116.38621287248628 86.86637796730983 l 15.129451516275655 -12.126322251697086 a40.389378394763966,40.389378394763966 0 0,0 0.430139031682632,0.5462328889343708 l -15.335944628552252 11.864096968809678" fill="#ffe615" stroke="none" /><path d="M 116.82858285166822 87.43820079747576 l 14.35583598910475 -10.716002094117412 a38.914316281321035,38.914316281321035 0 0,0 0.3960687760851434,0.5402373654690924 l -14.53816737770352 10.467302284976826" fill="#ffd313" stroke="none" /><path d="M 117.04232023915458 87.72973835380427 l 14.525670913055063 -10.45830498362717 a38.89891780541312,38.89891780541312 0 0,0 0.38655777377503603,0.5467585572347483 l -14.703541306633982 10.206719926060629" fill="#ffd313" stroke="none" /><path d="M 117.45458315368197 88.32363383020206 l 13.675309587636336 -9.14819453576621 a37.45307131151874,37.45307131151874 0 0,0 0.353848350684995,0.5389353142331891 l -13.830754573679256 8.911441157555346" fill="#ffc011" stroke="none" /><path d="M 117.65298651832404 88.62581576622439 l 14.480858576313768 -9.330316608992666 a38.22643529959824,38.22643529959824 0 0,0 0.3516329711319926,0.5561989154901403 l -14.639319143691717 9.079670045788319" fill="#ffca12" stroke="none" /><line stroke="#e1ed5e" stroke-width="0.3" x1="172.23445277983987" x2="176.4835382374775" y1="55.19839476539836" y2="52.563006222186495" /><path d="M 173.08426987136738 54.67131705675599 a86.0,86.0 0 0,1 12.851231095245387,41.99856678651699" fill="none" id="id27" stroke="none" /><text fill="#e1ed5e" style="font-size:6.75px; font-family:Arial;" text-anchor="middle"><textPath startOffset="22.20632615414155" xlink:href="#id27">March</textPath></text><path d="M 117.84615892207809 88.93136811851018 l 13.961052988331485 -8.65899249695914 a37.42830336965428,37.42830336965428 0 0,0 0.3348660428623109,0.5504317273681537 l -14.10803482948002 8.417392996383906" fill="#ffbf11" stroke="none" /><path d="M 118.03404312379186 89.2402003453031 l 10.632157157990916 -6.3435514782766 a33.38076779484062,33.38076779484062 0 0,0 0.29015886760479154,0.4959755611154446 l -10.739775700066035 6.1595965048072605" fill="#ff890c" stroke="none" /><path d="M 118.21658344932153 89.55222093294921 l 15.84228146806177 -9.086042789352307 a39.26291476416715,39.26291476416715 0 0,0 0.3311964443361298,0.5891615185816053 l -15.996335553690333 8.811997760835906" fill="#ffd714" stroke="none" /><path d="M 118.56541770881063 90.18545643968196 l 2.7910779271299884 -1.4754936476898892 a24.157086869201645,24.157086869201645 0 0,0 0.1911752361901396,0.3692897064638178 l -2.8160625964802444 1.4272312189657266" fill="#ff0400" stroke="none" /><path d="M 118.73160827565052 90.50648371742162 l 16.971538571730804 -8.601481271662893 a40.02678642226569,40.02678642226569 0 0,0 0.30618583106616476,0.6172519517167222 l -17.117084415750377 8.30806973144722" fill="#ffe115" stroke="none" /><path d="M 118.89224826269711 90.83032412892265 l 30.76888856662264 -14.93420640815504 a55.201681605830736,55.201681605830736 0 0,0 0.4075508771019191,0.8584060856085762 l -31.021397637566317 14.402357906905923" fill="#6aff28" stroke="none" /><path d="M 119.34039704204932 91.81776055985345 l 17.434179435831933 -7.375786043911565 a39.93020951723318,39.93020951723318 0 0,0 0.2623572834032638,0.6353189717540543 l -17.558558406121396 7.074592501704207" fill="#ffe015" stroke="none" /><path d="M 119.47837535516314 92.15188598940014 l 19.262010724994106 -7.760937628870577 a41.766733254149706,41.766733254149706 0 0,0 0.2629443588842413,0.6691647126481429 l -19.39274863376005 7.428223911326651" fill="#fff717" stroke="none" /><path d="M 119.61058180528143 92.48833698450437 l 16.648179445755474 -6.3769405242396555 a38.82771015323519,38.82771015323519 0 0,0 0.23369735249322784,0.6261927176681904 l -16.75548138675033 6.089424669542132" fill="#ffd213" stroke="none" /><path d="M 119.7369772167798 92.82701384747503 l 16.014774976364414 -5.820230619894671 a38.0396039276841,38.0396039276841 0 0,0 0.21835986003320887,0.6173327289688675 l -16.11258791720743 5.543700264499189" fill="#ffc712" stroke="none" /><path d="M 119.85752413597 93.16781622104841 l 15.916075974025757 -5.476088325498994 a37.831785934939475,37.831785934939475 0 0,0 0.20656642651177362,0.6176073229991688 l -16.007979694309302 5.201307899577511" fill="#ffc512" stroke="none" /><path d="M 119.97218684219823 93.5106431181261 l 18.81094176743027 -6.112045484928334 a40.77899467079875,40.77899467079875 0 0,0 0.21116628799499565,0.6694548393359909 l -18.91336353919347 5.787340479165923" fill="#ffeb16" stroke="none" /><path d="M 120.08093135843002 93.85539295169968 l 18.320477853491735 -5.605922122707577 a40.15897365795317,40.15897365795317 0 0,0 0.1965764604801941,0.6627581013460372 l -18.414260211083633 5.2897346346150105" fill="#ffe315" stroke="none" /><path d="M 120.18372546131832 94.20196356495316 l 18.234043613383104 -5.237965083861341 a39.971468702093354,39.971468702093354 0 0,0 0.18427461763120004,0.6629338445086788 l -18.321505001580665 4.92331993593371" fill="#ffe015" stroke="none" /><path d="M 120.28053869075195 94.5502522615342 l 17.491728986508097 -4.700344105235633 a39.112256006502086,39.112256006502086 0 0,0 0.16912077686753219,0.6516913419773107 l -17.57004609524593 4.398556337709472" fill="#ffd513" stroke="none" /><path d="M 120.45610955862082 95.25157060432595 l 16.447796510174005 -3.817988959198799 a37.88511325791616,37.88511325791616 0 0,0 0.14198909821245354,0.6365092860221386 l -16.511079995388496 3.534301503626697" fill="#ffc512" stroke="none" /><path d="M 120.6074358757038 95.95851677861258 l 14.62911527521009 -2.869028649906446 a35.907794576307026,35.907794576307026 0 0,0 0.11373242677316871,0.6075631715682273 l -14.676333425893118 2.616787400875656" fill="#ffab0f" stroke="none" /><path d="M 120.67395015179393 96.31383870115 l 14.725744832955378 -2.6255974451631445 a35.95798525301316,35.95798525301316 0 0,0 0.10340170442441605,0.6102827127477816 l -14.768758398900017 2.371728944099525" fill="#ffac0f" stroke="none" /><path d="M 120.73433829027371 96.67025291283417 l 11.783381701702794 -1.8923044636834694 a32.93435798488132,32.93435798488132 0 0,0 0.08507118209714987,0.5605127988854048 l -11.814208777239243 1.6891925524059823" fill="#ff830c" stroke="none" /><path d="M 120.78858239683441 97.02765380044208 l 9.019342732129072 -1.289583319372292 a30.111068458595444,30.111068458595444 0 0,0 0.06894574495869821,0.5137258823595222 l -9.040204476145606 1.1341390949481056" fill="#ff5b08" stroke="none" /><path d="M 120.83666639777658 97.38593545837742 l 30.76189297091309 -3.859234107478603 a52.003028030343074,52.003028030343074 0 0,0 0.10378231178553092,0.8891434685887086 l -30.82376563570221 3.329146900565042" fill="#8dff24" stroke="none" /><path d="M 120.87857604477298 97.74499172005257 l 7.451727524507764 -0.8048301393563679 a28.495064686360152,28.495064686360152 0 0,0 0.04847264830798132,0.48811295342112865 l -7.464477298497974 0.6764416552308044" fill="#ff4406" stroke="none" /><path d="M 120.91429891909075 98.10471618934814 l 14.95982740475889 -1.3556810486487139 a36.02112868881165,36.02112868881165 0 0,0 0.05064487704483668,0.6179957787165148 l -14.980946765623223 1.0979713527244304" fill="#ffad10" stroke="none" /><path d="M 120.94382443527127 98.46500227214037 l 19.28498974772385 -1.4134197665780337 a40.336715982978276,40.336715982978276 0 0,0 0.04479182750218096,0.6929097461266254 l -19.306462166230446 1.0812509561983732" fill="#ffe515" stroke="none" /><path d="M 120.96714384426684 98.82574320788733 l 19.335369413679874 -1.0828698954259044 a40.365668528968655,40.365668528968655 0 0,0 0.03288147332254095,0.6940759323594332 l -19.351144495235914 0.7498828564434715" fill="#ffe615" stroke="none" /><path d="M 120.98425023603335 99.18683210126433 l 17.403914627937482 -0.6744250820776566 a38.41697716504996,38.41697716504996 0 0,0 0.019918846926836688,0.6610095569249846 l -17.41294516931996 0.3747453777276729" fill="#ffcc13" stroke="none" /><line stroke="#e1ed5e" stroke-width="0.3" x1="184.98032266829074" x2="189.97916517819016" y1="98.17113171792111" y2="98.06355123074" /><path d="M 185.9800911702706 98.14961562048488 a86.0,86.0 0 0,1 -9.607161424134198,41.387399972396054" fill="none" id="id28" stroke="none" /><text fill="#e1ed5e" style="font-size:6.75px; font-family:Arial;" text-anchor="middle"><textPath startOffset="21.466115282336823" xlink:href="#id28">April</textPath></text><path d="M 120.99513854157772 99.54816195383933 l 15.133983848699778 -0.3256996699155739 a36.13748814723529,36.13748814723529 0 0,0 0.008031114284132654,0.6220186519045402 l -15.137347970101626 0.06514475995057106" fill="#ffae10" stroke="none" /><path d="M 120.99824983174949 100.27111621757518 l 9.929355800879204 0.12820160771790884 a30.930183395722104,30.930183395722104 0 0,0 -0.011455858456816655,0.5323087275568312 l -9.92567787973738 -0.29910015106485494" fill="#ff6709" stroke="none" /><path d="M 120.9904718944345 100.63252640178507 l 34.79229329281907 1.0484301733203396 a55.80808639385209,55.80808639385209 0 0,0 -0.037199722817605536,0.959959552669878 l -34.76909143715026 -1.6471669730042238" fill="#63ff29" stroke="none" /><path d="M 120.9764740272857 100.99374915477107 l 13.148289467170219 0.6228931291164383 a34.163035811042974,34.163035811042974 0 0,0 -0.03288379135719969,0.5871621847643433 l -13.13561932492549 -0.849127030216205" fill="#ff930d" stroke="none" /><path d="M 120.89721153311464 102.0752229133903 l 23.353862153153504 2.3191835800476888 a44.468734306443935,44.468734306443935 0 0,0 -0.08219875813987483,0.7610584128982814 l -23.31048109351258 -2.7208383148307616" fill="#e5ff1a" stroke="none" /><path d="M 120.81339534386255 102.79330883721812 l 16.885931863981536 2.266214710337078 a38.037324438666275,38.037324438666275 0 0,0 -0.09267694293779913,0.6481823230536649 l -16.844420870027136 -2.5565425053711524" fill="#ffc712" stroke="none" /><path d="M 120.76222939487914 103.15116336523771 l 15.959855156940282 2.422288566826761 a37.142628612821795,37.142628612821795 0 0,0 -0.10137858621415032,0.6312845531289315 l -15.915794816364842 -2.6966523496488977" fill="#ffbc11" stroke="none" /><path d="M 120.70491114924044 103.5080841355445 l 33.359615933703594 5.652201962198532 a54.83506113879051,54.83506113879051 0 0,0 -0.1656895101811598,0.9292747648425294 l -33.25737998118324 -6.225595477774281" fill="#6eff28" stroke="none" /><path d="M 120.5718875245553 104.21870165774334 l 16.80281258274803 3.4457729371200254 a38.15248850240525,38.15248850240525 0 0,0 -0.13746879607567267,0.6422084495468455 l -16.741009747947913 -3.73449520608304" fill="#ffc912" stroke="none" /><path d="M 120.41448212921028 104.9243191809786 l 18.24420995607568 4.400812739694985 a39.76748117599249,39.76748117599249 0 0,0 -0.16624451934458517,0.6640642164623178 l -18.16575412243603 -4.714204795554699" fill="#ffde14" stroke="none" /><path d="M 120.32669344350535 105.2749913415812 l 17.930744862019257 4.653217413748831 a39.52468740914257,39.52468740914257 0 0,0 -0.17656604561150485,0.6570679399016153 l -17.847990740065974 -4.961176286825995" fill="#ffdb14" stroke="none" /><path d="M 120.23288151984713 105.62410040840565 l 12.452534221184587 3.461410216352556 a33.92466514907226,33.92466514907226 0 0,0 -0.16123482728814018,0.5612795858121615 l -12.391106757010348 -3.6752472776692997" fill="#ff900d" stroke="none" /><path d="M 120.13307415673323 105.97154293290107 l 15.743174048981281 4.669482613621881 a37.421071737722684,37.421071737722684 0 0,0 -0.18848321590373665,0.6159740551392977 l -15.660464060571412 -4.939783641313236" fill="#ffbf11" stroke="none" /><path d="M 119.9155931802556 106.66101706037122 l 18.019577949753923 6.026871258999051 a40.000746476383675,40.000746476383675 0 0,0 -0.224021645463713,0.6511117639253535 l -17.913165473346982 -6.336155726013705" fill="#ffe115" stroke="none" /><path d="M 119.79798401119884 107.00284435728193 l 17.18722810959253 6.079380775158487 a39.230734507982234,39.230734507982234 0 0,0 -0.23066875879432663,0.6347013559121217 l -17.080035089792975 -6.37432992807674" fill="#ffd714" stroke="none" /><path d="M 119.67450827220406 107.3425965602758 l 14.524851998945643 5.42072649798559 a36.50340612114765,36.50340612114765 0 0,0 -0.2247666297993234,0.5867947446103908 l -14.429391089552812 -5.669944809429125" fill="#ffb310" stroke="none" /><path d="M 119.54520255179757 107.68017299344265 l 29.64684033075037 11.649552459009662 a52.853527498414124,52.853527498414124 0 0,0 -0.34001778058622706,0.8438962467597855 l -29.44191993590675 -12.158148073612262" fill="#83ff25" stroke="none" /><path d="M 119.41010516605496 108.01547362559984 l 13.893109788635309 5.7372102899843656 a36.03110380213565,36.03110380213565 0 0,0 -0.24166407700423204,0.5712224916237005 l -13.792294730438767 -5.9755073072742295" fill="#ffad10" stroke="none" /><path d="M 119.26925614724726 108.34839909993367 l 15.438167651869293 6.688581227246937 a37.82480725835228,37.82480725835228 0 0,0 -0.26397917723965647,0.5952033562079034 l -15.320747389898363 -6.953332919947528" fill="#ffc512" stroke="none" /><path d="M 119.12269723197855 108.67885076344098 l 17.957987805523846 8.15024649949493 a40.72094936928424,40.72094936928424 0 0,0 -0.2951791485897677,0.6357896256925267 l -17.815034040094247 -8.458156192466287" fill="#ffea16" stroke="none" /><path d="M 118.97047184881838 109.00673069616215 l 12.32056637912012 5.849513089883239 a34.63866413146905,34.63866413146905 0 0,0 -0.26036192039852835,0.5364226726744388 l -12.218051202106876 -6.060724718522954" fill="#ff9a0e" stroke="none" /><line stroke="#e1ed5e" stroke-width="0.3" x1="174.80103733775053" x2="179.2010983576182" y1="140.37084112569926" y2="142.7455964860345" /><path d="M 175.68104954172406 140.8457921977663 a86.0,86.0 0 0,1 -30.038265399797805,32.042727171017184" fill="none" id="id29" stroke="none" /><text fill="#e1ed5e" style="font-size:6.75px; font-family:Arial;" text-anchor="middle"><textPath startOffset="22.206326154141568" xlink:href="#id29">May</textPath></text><path d="M 118.48025628344425 109.97397251340804 l 14.921492034653033 8.053273132688883 a37.95600580000793,37.95600580000793 0 0,0 -0.31525822926270053,0.5722852590545913 l -14.780657395938823 -8.30892891014128" fill="#ffc612" stroke="none" /><path d="M 118.30583269289576 110.29060199501025 l 15.618694561374328 8.780030502251327 a38.9173813773656,38.9173813773656 0 0,0 -0.3332958740807505,0.5811294500526211 l -15.465246691141198 -9.047579798162262" fill="#ffd313" stroke="none" /><path d="M 118.12598468904814 110.60418214915192 l 2.7317918410199655 1.598170735146088 a24.164938603091795,24.164938603091795 0 0,0 -0.21313375080336985,0.357224425776889 l -2.7038772145183683 -1.6449572548090812" fill="#ff0400" stroke="none" /><path d="M 117.94076556474637 110.91462005526583 l 13.200057371898962 8.030516334547773 a36.45091282807792,36.45091282807792 0 0,0 -0.3307232290537857,0.5332311498033404 l -13.059869503177215 -8.256543815716388" fill="#ffb210" stroke="none" /><path d="M 117.75023020441432 111.22182372390056 l 13.988886106667229 8.843874821617883 a37.55001680862452,37.55001680862452 0 0,0 -0.35010050815422356,0.5433637633679699 l -13.834580735135955 -9.083360184907304" fill="#ffc111" stroke="none" /><path d="M 117.55443506779139 111.5257021239791 l 14.156372944250329 9.29463905168636 a37.934970033567694,37.934970033567694 0 0,0 -0.3630862463373553,0.5427646740855235 l -13.994283592502253 -9.53694063997769" fill="#ffc612" stroke="none" /><path d="M 117.35343817320211 111.8261652097733 l 16.839463905468072 11.475897755962247 a41.37802183551832,41.37802183551832 0 0,0 -0.40617275640947936,0.5851221494034983 l -16.639430241896456 -11.764061167552766" fill="#fff216" stroke="none" /><path d="M 117.14729908036423 112.12312394758627 l 10.977813597646518 7.76130364869916 a34.44433805406513,34.44433805406513 0 0,0 -0.3464447731078363,0.4811814889306422 l -10.84258903216308 -7.949118743080934" fill="#ff970e" stroke="none" /><path d="M 116.93607887273984 112.41649034213515 l 12.553551664604687 9.203491207988364 a36.56585718203203,36.56585718203203 0 0,0 -0.37652164948813227,0.5044122797779282 l -12.393268748421463 -9.418216367275608" fill="#ffb410" stroke="none" /><path d="M 116.71984013943494 112.70617746262583 l 15.429036674865513 11.725236391813315 a40.37876005213565,40.37876005213565 0 0,0 -0.4253098310818951,0.5497702890155374 l -15.224920026565549 -11.989084674942106" fill="#ffe615" stroke="none" /><path d="M 116.498646956653 112.99209946851258 l 13.011891753858052 10.246403379852492 a37.561947628125495,37.561947628125495 0 0,0 -0.4043849308120399,0.5045323782136029 l -12.833588910991157 -10.468863591644345" fill="#ffc111" stroke="none" /><path d="M 116.27256486870786 113.27417163493432 l 14.617985112173237 11.924465804960121 a39.86473889226622,39.86473889226622 0 0,0 -0.4383298892106526,0.5279965886182242 l -14.410559223069042 -12.174323650692116" fill="#ffdf14" stroke="none" /><path d="M 116.0416608686014 113.55231037782055 l 13.687855826664219 11.563769617702068 a38.918654104112704,38.918654104112704 0 0,0 -0.4367367789075291,0.5080235409404038 l -13.48677653818591 -11.797670257804" fill="#ffd313" stroke="none" /><path d="M 115.56566222782051 114.09645910891815 l 12.471549597780083 11.294391870828074 a37.825660079227674,37.825660079227674 0 0,0 -0.44121577649236393,0.4788525842082819 l -12.275287413291997 -11.507395709837692" fill="#ffc512" stroke="none" /><path d="M 115.32070863581623 114.36230785411682 l 7.701750505963931 7.219960539139955 a31.556741497396523,31.556741497396523 0 0,0 -0.3749142982584761,0.3930961428364004 l -7.5763296563264895 -7.351463798558863" fill="#ff6f0a" stroke="none" /><path d="M 114.55890576462653 115.13401014063108 l 5.224275272124536 5.430644048667561 a28.535578737048688,28.535578737048688 0 0,0 -0.35691780853058597,0.3374880656520218 l -5.130021629203142 -5.519766751065505" fill="#ff4406" stroke="none" /><path d="M 111.45004920935366 117.60387380957326 l 8.400438140156924 12.91525042911115 a36.4068508980018,36.4068508980018 0 0,0 -0.5282776189897714,0.3371717710297289 l -8.176878719120221 -13.05793662896469" fill="#ffb210" stroke="none" /><path d="M 111.1453310114006 117.79835938074945 l 8.84214153211343 14.120317514394621 a37.660337138883015,37.660337138883015 0 0,0 -0.5523889131589397,0.3393223871337251 l -8.59777341902218 -14.270428368356724" fill="#ffc212" stroke="none" /><line stroke="#e1ed5e" stroke-width="0.3" x1="143.8653032363475" x2="146.44561519142675" y1="172.8068346515853" y2="177.08958963109032" /><path d="M 144.38136562736335 173.6633856474863 a86.0,86.0 0 0,1 -40.68145358897372,12.25698825130547" fill="none" id="id30" stroke="none" /><text fill="#e1ed5e" style="font-size:6.75px; font-family:Arial;" text-anchor="middle"><textPath startOffset="21.466115282336833" xlink:href="#id30">June</textPath></text><path d="M 110.8373102113329 117.98757091392108 l 8.086416995036984 13.421688251173022 a36.669456127425065,36.669456127425065 0 0,0 -0.5434625189890401,0.3210872355201255 l -7.854186605019563 -13.558894058986898" fill="#ffb510" stroke="none" /><path d="M 110.5260780823613 118.17145234162733 l 7.6834364562180655 13.26412347425491 a36.328801887852194,36.328801887852194 0 0,0 -0.5438096985581813,0.30878933940265435 l -7.453977990738685 -13.394415979452193" fill="#ffb110" stroke="none" /><path d="M 110.21172684928248 118.3499491758327 l 10.131795909612464 18.206317378569672 a41.835625280832055,41.835625280832055 0 0,0 -0.6322701483498738,0.3447640973487269 l -9.81690294939394 -18.378022127678168" fill="#fff817" stroke="none" /><path d="M 109.89434966115114 118.52300852407294 l 7.287299845806771 13.64240417855314 a36.466736268964425,36.466736268964425 0 0,0 -0.5562203515293478,0.2909881993228638 l -7.051388591750928 -13.76582179682072" fill="#ffb310" stroke="none" /><path d="M 109.57404056367764 118.69057910512821 l 11.560241041517287 22.568068123771504 a46.35659424641196,46.35659424641196 0 0,0 -0.7133310611363739,0.357679002563693 l -11.170056072698152 -22.763714967244496" fill="#ceff1d" stroke="none" /><path d="M 109.2508944713604 118.85261126421891 l 8.614818174774879 17.55633670492785 a40.55607452126394,40.55607452126394 0 0,0 -0.6293671867675449,0.302134496229376 l -8.311338320007101 -17.70202547765679" fill="#ffe815" stroke="none" /><path d="M 108.92500713936063 119.00905698771935 l 6.636733500852516 14.135343911786423 a36.615831039871544,36.615831039871544 0 0,0 -0.5728320170557396,0.2629590833940745 l -6.392433488029357 -14.24749006551457" fill="#ffb510" stroke="none" /><path d="M 108.59647513512805 119.15986991738527 l 13.1339316802817 29.272977417188148 a53.084378882090185,53.084378882090185 0 0,0 -0.8369114450711714,0.36687738295898015 l -12.628099560552775 -29.49471935344158" fill="#81ff25" stroke="none" /><path d="M 108.2653958097858 119.30500536409082 l 6.086389586001775 14.215626971741566 a36.463770186868956,36.463770186868956 0 0,0 -0.5791289548403044,0.24207595009199617 l -5.840789171664009 -14.318287964853535" fill="#ffb310" stroke="none" /><path d="M 107.59598834532513 119.57807347666477 l 6.042431669170489 15.573901093404391 a37.70501049816303,37.70501049816303 0 0,0 -0.6071041369512088,0.2295548367589522 l -5.773457311459006 -15.675604180269975" fill="#ffc312" stroke="none" /><path d="M 107.2578585660854 119.70592522655815 l 5.300439910126383 14.391307241076653 a36.336374648133955,36.336374648133955 0 0,0 -0.5887884538280757,0.21111859145295606 l -5.051931895668573 -14.480413373569569" fill="#ffb110" stroke="none" /><path d="M 106.57524785965236 119.94407469862006 l 4.746079447866617 14.395831922120387 a36.15800933023206,36.15800933023206 0 0,0 -0.5927824198286439,0.18979021137729762 l -4.497575682947033 -14.475394980157391" fill="#ffae10" stroke="none" /><path d="M 106.2309692047433 120.05430185196036 l 4.068875571652984 13.095628662372478 a34.7131775486335,34.7131775486335 0 0,0 -0.5721475936324312,0.17238337656317423 l -3.8428530035803066 -13.163727408041378" fill="#ff9b0e" stroke="none" /><path d="M 105.18746579009965 120.34920634021253 l 8.390027476658936 32.91210144429801 a54.96467256634244,54.96467256634244 0 0,0 -0.9188175123609262,0.22582298981930402 l -7.822256679554799 -33.05164569243134" fill="#6cff28" stroke="none" /><path d="M 104.48393922423573 120.51570834832081 l 3.200641949987687 14.64414067399415 a35.98982871722525,35.98982871722525 0 0,0 -0.6063575572308795,0.12706812162183004 l -2.9480929313274293 -14.697064776342522" fill="#ffac0f" stroke="none" /><path d="M 104.13013068566511 120.58985236759428 l 3.312152362089792 16.512002487259124 a37.840919791060955,37.840919791060955 0 0,0 -0.6397500962010082,0.12260962855498511 l -3.0274346513170793 -16.566569314162578" fill="#ffc512" stroke="none" /><path d="M 103.41894727170886 120.7198165907248 l 5.7093271839949615 34.60018617066534 a56.068066669530054,56.068066669530054 0 0,0 -0.9535953624363231,0.1489319839334147 l -5.112895957950121 -34.69333646194586" fill="#61ff29" stroke="none" /><path d="M 102.70371172650421 120.8252237178851 l 5.770212444582879 44.444814097667475 a65.8178184635513,65.8178184635513 0 0,0 -1.1247719105310046,0.13619421437068846 l -5.004313111000494 -44.537553840763515" fill="#36ff6c" stroke="none" /><path d="M 102.34483914955558 120.86867818915974 l 1.6881677676929745 15.024412177685573 a36.118957361434155,36.118957361434155 0 0,0 -0.6184380815125634,0.06410363578953261 l -1.4292970895748083 -15.051245181930865" fill="#ffae10" stroke="none" /><path d="M 101.98527174616119 120.90594882070398 l 1.5628803754513836 16.45794698143877 a37.53198759713485,37.53198759713485 0 0,0 -0.6436837428362904,0.055539741811852214 l -1.2793523148735515 -16.482410975529284" fill="#ffc111" stroke="none" /><path d="M 101.26447882468166 120.96189622390904 l 0.7613216431009171 12.620808640045835 a33.64375028909182,33.64375028909182 0 0,0 -0.5783712036990282,0.029895184839937108 l -0.5439623709884093 -12.632043631647974" fill="#ff8c0c" stroke="none" /><path d="M 100.90346689309514 120.98055641714683 l 0.6840422329560862 15.885016672918553 a36.89973800021145,36.89973800021145 0 0,0 -0.6348154460958981,0.021864327521950385 l -0.41050643518553576 -15.894437798866598" fill="#ffb811" stroke="none" /><line stroke="#e1ed5e" stroke-width="0.3" x1="102.19456741930631" x2="102.32365962044197" y1="184.97166512339345" y2="189.96999836594603" /><path d="M 102.22038585953345 185.97133177190398 a86.0,86.0 0 0,1 -42.740103519485714,-10.115201625700543" fill="none" id="id31" stroke="none" /><text fill="#e1ed5e" style="font-size:6.75px; font-family:Arial;" text-anchor="middle"><textPath startOffset="22.20632615414155" xlink:href="#id31">July</textPath></text><path d="M 100.18074693466247 120.99922214144158 l 0.13708076004408437 15.926075520224018 a36.926665457987525,36.926665457987525 0 0,0 -0.6356553894130686,0.0 l 0.1370807600440734 -15.926075520224018" fill="#ffb911" stroke="none" /><path d="M 99.81925306533755 120.99922214144158 l -0.13633066352975895 15.838929127611458 a36.839515837276,36.839515837276 0 0,0 -0.6340612394490003,-0.010915939253438449 l 0.4089515928714272 -15.83423571107886" fill="#ffb811" stroke="none" /><path d="M 99.45781275523022 120.99299961872073 l -0.393004634793642 15.216783920989535 a36.22185815007665,36.22185815007665 0 0,0 -0.6231533416262217,-0.02146266106394483 l 0.6548783280945067 -15.207764461499496" fill="#ffaf10" stroke="none" /><path d="M 99.09653310690486 120.98055641714683 l -0.676930230577488 15.719859799674646 a36.73442806899878,36.73442806899878 0 0,0 -0.6315031825197619,-0.03264150124988152 l 0.9474214815107388 -15.705878491662563" fill="#ffb610" stroke="none" /><path d="M 98.73552117531835 120.96189622390904 l -1.0156727167495667 16.837313263288817 a37.86791952179257,37.86791952179257 0 0,0 -0.6503134262564254,-0.0448494213443364 l 1.3053489037849222 -16.817335497428196" fill="#ffc512" stroke="none" /><path d="M 98.37488393609728 120.93702456842531 l -1.2417371562366908 15.997799741896143 a37.04591872555109,37.04591872555109 0 0,0 -0.6353475301662976,-0.05482045830573165 l 1.51692900414453 -15.974055031311748" fill="#ffba11" stroke="none" /><path d="M 97.2962882734958 120.8252237178851 l -2.1352546283510123 16.44670727805509 a37.5847367364672,37.5847367364672 0 0,0 -0.6408580777666132,-0.08881709006634474 l 2.4180412973044567 -16.40751562249614" fill="#ffc112" stroke="none" /><path d="M 96.93821686468263 120.77559828337769 l -2.6084706102647206 17.69966556669262 a38.8908434708199,38.8908434708199 0 0,0 -0.661448310561511,-0.10330462273814735 l 2.912754784434749 -17.652142636607365" fill="#ffd213" stroke="none" /><path d="M 96.22490169976321 120.6578951692458 l -2.2660111570731134 12.399947554272035 a33.60529674036581,33.60529674036581 0 0,0 -0.5681413649884817,-0.10888564478788482 l 2.4791201366332904 -12.359104711135682" fill="#ff8c0c" stroke="none" /><path d="M 95.86986931433489 120.58985236759428 l -2.3806776137072863 11.868341302419589 a33.1047573776233,33.1047573776233 0 0,0 -0.5577498013100775,-0.11688189376427048 l 2.5846188764467506 -11.825603427928778" fill="#ff850c" stroke="none" /><path d="M 95.51606077576429 120.51570834832081 l -3.220280751560098 14.733995577288255 a36.081804725907915,36.081804725907915 0 0,0 -0.6056242447344726,-0.1378381063583044 l 3.4734251456874334 -14.676380737352263" fill="#ffad10" stroke="none" /><path d="M 93.76903079525671 120.05430185196036 l -5.3045937802187995 17.072773331885212 a38.877871920759105,38.877871920759105 0 0,0 -0.6373724500288401,-0.20406653094065724 l 5.59768757533858 -16.978933954284848" fill="#ffd213" stroke="none" /><line stroke="#e1ed5e" stroke-width="0.3" x1="58.666819895761336" x2="56.23545636021788" y1="174.27360380694188" y2="178.64263932499728" /><path d="M 58.180547188652646 175.14741091055294 a86.0,86.0 0 0,1 -31.652253787137756,-30.449443065178592" fill="none" id="id32" stroke="none" /><text fill="#e1ed5e" style="font-size:6.75px; font-family:Arial;" text-anchor="middle"><textPath startOffset="22.20632615414155" xlink:href="#id32">August</textPath></text><path d="M 87.95078237400918 117.19931262002967 l -1.6663423728175255 2.3785729739223567 a23.904187717025362,23.904187717025362 0 0,0 -0.33496900929004136,-0.2389914941496384 l 1.7070387099564537 -2.349537217928499" fill="#ff0000" stroke="none" /><path d="M 87.65650970185807 116.9893568818739 l -5.769010190095529 7.940361324661458 a30.814826363191838,30.814826363191838 0 0,0 -0.4264405559564667,-0.3154705285427524 l 5.9048357164705605 -7.8398808473789385" fill="#ff6509" stroke="none" /><path d="M 87.36589467227662 116.77436683061367 l -7.443233559195504 9.882419600690332 a33.371901348654646,33.371901348654646 0 0,0 -0.4558780844037373,-0.3495478754820125 l 7.612240372092729 -9.752832383380952" fill="#ff890c" stroke="none" /><path d="M 86.79598089348748 116.32954008644616 l -10.547260588747415 13.043900739373813 a37.7746252544008,37.7746252544008 0 0,0 -0.5020964900730214,-0.4131912287750798 l 10.770227207365126 -12.860414391741553" fill="#ffc412" stroke="none" /><path d="M 86.51685102203217 116.09983520530335 l -11.453142980286362 13.675864211446163 a38.83826634112174,38.83826634112174 0 0,0 -0.5088451381113274,-0.43364886585799706 l 11.686853594974746 -13.476690955365214" fill="#ffd213" stroke="none" /><path d="M 85.44109423537348 115.13401014063109 l -12.097393729264187 12.57526371375533 a38.44947542223926,38.44947542223926 0 0,0 -0.4730201812600591,-0.46294980491401827 l 12.312063862900041 -12.365163805918742" fill="#ffcd13" stroke="none" /><path d="M 84.67929136418377 114.36230785411682 l -12.697935586068061 11.903604744007241 a38.40498129988899,38.40498129988899 0 0,0 -0.44797324382212694,-0.48618648037873 l 12.900955237885917 -11.683267008827167" fill="#ffcc13" stroke="none" /><path d="M 83.95833913139862 113.55231037782056 l -12.53226378196779 10.587502746824661 a37.40587851700851,37.40587851700851 0 0,0 -0.411293665574938,-0.49542971558457694 l 12.712653447436265 -10.370211774126323" fill="#ffbf11" stroke="none" /><path d="M 83.72743513129214 113.27417163493432 l -12.373120849951373 10.093241670701723 a36.96770637852197,36.96770637852197 0 0,0 -0.3979874402190039,-0.496550525039642 l 12.54502620222524 -9.878763312083821" fill="#ffb911" stroke="none" /><path d="M 83.50135304334701 112.99209946851258 l -13.55884383347309 10.677108748695064 a38.25812554514458,38.25812554514458 0 0,0 -0.4029731693619643,-0.520897142730226 l 13.740623820053122 -10.442133611851586" fill="#ffca12" stroke="none" /><path d="M 83.28015986056508 112.70617746262583 l -14.049461262101099 10.676833424352164 a38.64602317029656,38.64602317029656 0 0,0 -0.39794129036272957,-0.5331073890771321 l 14.231163819158914 -10.433413155765725" fill="#ffcf13" stroke="none" /><path d="M 82.85270091963577 112.12312394758628 l -8.59653797203629 6.077744073086655 a31.528031065807212,31.528031065807212 0 0,0 -0.3094837963271219,-0.44583449100146505 l 8.699882675525545 -5.928868319898178" fill="#ff6f0a" stroke="none" /><path d="M 82.6465618267979 111.8261652097733 l -14.157104182785329 9.647900968474096 a38.132004901345354,38.132004901345354 0 0,0 -0.36497212236348686,-0.5455838028655708 l 14.321079410559545 -9.402780251402705" fill="#ffc912" stroke="none" /><path d="M 82.24976979558568 111.22182372390057 l -13.295478642572858 8.405497615165173 a36.72965805393297,36.72965805393297 0 0,0 -0.3332523158180421,-0.5373088429460753 l 13.438195598058856 -8.175392440853834" fill="#ffb610" stroke="none" /><line stroke="#e1ed5e" stroke-width="0.3" x1="26.63291911575756" x2="22.317208475507996" y1="142.92168965132927" y2="145.44649492493687" /><path d="M 25.769776987707644 143.4266507060508 a86.0,86.0 0 0,1 -11.730757126820373,-40.83630448921669" fill="none" id="id33" stroke="none" /><text fill="#e1ed5e" style="font-size:6.75px; font-family:Arial;" text-anchor="middle"><textPath startOffset="21.46611528233685" xlink:href="#id33">September</textPath></text><path d="M 81.87401531095188 110.60418214915194 l -14.875651661874697 8.702651056809307 a38.23430148807951,38.23430148807951 0 0,0 -0.32744584767329965,-0.5709294359110446 l 15.023249505700374 -8.445301775039956" fill="#ffca12" stroke="none" /><path d="M 81.51974371655577 109.97397251340807 l -21.027301570347042 11.34863741482141 a44.894329505206954,44.894329505206954 0 0,0 -0.36118020784905747,-0.6832168389352402 l 21.219534286420988 -10.985005560800044" fill="#e0ff1b" stroke="none" /><path d="M 81.18737489456691 109.33194174019688 l -16.2807206184095 8.07599872149379 a39.17370680968177,39.17370680968177 0 0,0 -0.29444962124943214,-0.6066534328707829 l 16.41732349627365 -7.794556332657722" fill="#ffd614" stroke="none" /><path d="M 80.87730276802145 108.67885076344099 l -17.55373837154676 7.966777584721476 a40.27701418532273,40.27701418532273 0 0,0 -0.2810931194887501,-0.6337907780308182 l 17.688272575766792 -7.6634384701979625" fill="#ffe415" stroke="none" /><path d="M 80.73074385275274 108.34839909993369 l -16.74282105927295 7.253821901244121 a39.24664323095628,39.24664323095628 0 0,0 -0.2632310090750378,-0.6222003482703408 l 16.865203049540295 -6.9645470273076215" fill="#ffd714" stroke="none" /><path d="M 80.58989483394504 108.01547362559985 l -16.63473348859883 6.869373782679327 a38.99729575249775,38.99729575249775 0 0,0 -0.25087774796161527,-0.6226579961063607 l 16.750513850817832 -6.582016418730161" fill="#ffd413" stroke="none" /><path d="M 80.20201598880116 107.00284435728193 l -14.98906784321063 5.301858467375715 a36.89911500733467,36.89911500733467 0 0,0 -0.20665115499727998,-0.6006249876835414 l 15.078109829151138 -5.043060776602877" fill="#ffb811" stroke="none" /><path d="M 80.0844068197444 106.66101706037122 l -11.310708853109341 3.783006810469816 a32.926578523946716,32.926578523946716 0 0,0 -0.17515018898318077,-0.5390568531666722 l 11.374151293108772 -3.5877510573253404" fill="#ff820c" stroke="none" /><path d="M 79.97269907076064 106.31721596034903 l -18.18882213732501 5.7373041885092055 a40.07222876579267,40.07222876579267 0 0,0 -0.20183661759193217,-0.6596137444789748 l 18.28488552742307 -5.423363471478183" fill="#ffe215" stroke="none" /><path d="M 79.86692584326677 105.97154293290107 l -19.95320310914696 5.9181925267641144 a41.81238374378866,41.81238374378866 0 0,0 -0.19872303652256543,-0.6917809601482154 l 20.052118782555628 -5.573854091111303" fill="#fff817" stroke="none" /><path d="M 79.76711848015287 105.62410040840567 l -14.927595382033191 4.1493988487133615 a36.49356688098007,36.49356688098007 0 0,0 -0.16302531953594449,-0.6066778609007147 l 14.99680877791091 -3.8918300546371083" fill="#ffb310" stroke="none" /><path d="M 79.58551787078972 104.9243191809786 l -16.202796310019412 3.9083891597109264 a37.66751673428662,37.66751673428662 0 0,0 -0.14661530955533006,-0.6316149162852094 l 16.267672185505297 -3.628905586077143" fill="#ffc212" stroke="none" /><line stroke="#e1ed5e" stroke-width="0.3" x1="15.007084014347285" x2="10.007500721073583" y1="101.09737516637583" y2="101.16192664675087" /><path d="M 14.007167355692545 101.11028546245083 a86.0,86.0 0 0,1 10.666146001902534,-42.60595125391555" fill="none" id="id34" stroke="none" /><text fill="#e1ed5e" style="font-size:6.75px; font-family:Arial;" text-anchor="middle"><textPath startOffset="22.20632615414155" xlink:href="#id34">October</textPath></text><path d="M 79.00019446554 99.90962569577889 l -9.543586479828763 -0.04107157023303328 a30.543674856775652,30.543674856775652 0 0,0 0.006787957769303926,-0.5257348098244955 l 9.541465514941743 0.20534263811800074" fill="#ff6109" stroke="none" /><path d="M 79.01574976396665 99.18683210126434 l -13.342028717042506 -0.517021543999613 a34.35204259891896,34.35204259891896 0 0,0 0.02798283327031646,-0.5906733832039476 l 13.331152275538692 0.7466060338265696" fill="#ff960d" stroke="none" /><path d="M 79.03285615573316 98.82574320788736 l -10.686786408028734 -0.5985093448441322 a31.703532929210496,31.703532929210496 0 0,0 0.03520512623720544,-0.5446077207318499 l 10.674900690787116 0.782376129828994" fill="#ff710a" stroke="none" /><path d="M 79.08570108090925 98.10471618934814 l -15.388596087672685 -1.3945366826044425 a36.451654348601785,36.451654348601785 0 0,0 0.062007517474759244,-0.6244072388331582 l 15.362311444515697 1.659219452142031" fill="#ffb210" stroke="none" /><path d="M 79.12142395522702 97.74499172005258 l -15.172211680359384 -1.6386875661901699 a36.260449017418196,36.260449017418196 0 0,0 0.072364886583398,-0.6199781557550532 l 15.141756440772397 1.8996094602700848" fill="#ffb010" stroke="none" /><path d="M 79.21141760316559 97.0276538004421 l -16.566956175895264 -2.368739161125439 a37.7354403033647,37.7354403033647 0 0,0 0.09747263071097925,-0.6422228504141794 l 16.52372765174498 2.6535611239317105" fill="#ffc312" stroke="none" /><path d="M 79.26566170972629 96.67025291283419 l -11.74466748661524 -1.8860873110974912 a32.89514773831078,32.89514773831078 0 0,0 0.09459413033018257,-0.5582999118754483 l 11.710461494764836 2.0879730112887676" fill="#ff820c" stroke="none" /><path d="M 79.32604984820605 96.31383870115002 l -16.578945105478237 -2.9560226940118315 a37.84041243491304,37.84041243491304 0 0,0 0.11985369714573864,-0.640263242665832 l 16.52560568442264 3.2409640141402365" fill="#ffc512" stroke="none" /><path d="M 79.3925641242962 95.95851677861259 l -14.800852701825567 -2.9027094014728614 a36.08280353815351,36.08280353815351 0 0,0 0.12477898087150634,-0.6084666250825463 l 14.748694425039067 3.1570516827188104" fill="#ffad10" stroke="none" /><path d="M 79.46518482838121 95.60439243477599 l -21.28589446325266 -4.556380856281034 a42.768093844161335,42.768093844161335 0 0,0 0.16028995441710003,-0.7185484359502916 l 21.204310121833522 4.922107461781285" fill="#faff18" stroke="none" /><path d="M 79.62865764111835 94.90015583598534 l -17.17909188032608 -4.3006832797523185 a38.70923698258699,38.70923698258699 0 0,0 0.16737812897716448,-0.644976208784919 l 17.10251741947861 4.5957559140861015" fill="#ffd013" stroke="none" /><path d="M 79.71946130924805 94.55025226153421 l -11.718621081755487 -3.1490055423111922 a33.13434448016335,33.13434448016335 0 0,0 0.15275442353768057,-0.5495389357649452 l 11.662679887651446 3.35025578149508" fill="#ff850c" stroke="none" /><path d="M 79.81627453868168 94.20196356495316 l -11.490225162687219 -3.3007159291692614 a32.95491530435587,32.95491530435587 0 0,0 0.1613129025938543,-0.543866914606975 l 11.431706362981659 3.4980122305227757" fill="#ff830c" stroke="none" /><path d="M 79.91906864156998 93.8553929516997 l -11.1999697533231 -3.42710265070095 a32.71257252074854,32.71257252074854 0 0,0 0.16939585111744515,-0.5370311396329479 l 11.13931841843745 3.6193839567603123" fill="#ff7f0b" stroke="none" /><path d="M 80.02781315780177 93.51064311812611 l -11.20198816129362 -3.639746590572133 a32.778467387964525,32.778467387964525 0 0,0 0.17897465603417692,-0.5351114412179873 l 11.13767621148767 3.8320311347124427" fill="#ff800b" stroke="none" /><path d="M 80.2630227832202 92.82701384747504 l -29.529222769199325 -10.731770305648144 a52.41887794378073,52.41887794378073 0 0,0 0.31550026895176775,-0.8453838639257859 l 29.34011791174593 11.23847730660327" fill="#88ff25" stroke="none" /><path d="M 81.26839172434947 90.50648371742162 l -4.079029795570477 -2.067325731539506 a25.5729989890046,25.5729989890046 0 0,0 0.20238053322754787,-0.3909347737656828 l 4.042839829182816 2.1372332275655244" fill="#ff1902" stroke="none" /><line stroke="#e1ed5e" stroke-width="0.3" x1="26.266209847984243" x2="21.928928074336255" y1="57.711370442889674" y2="55.22380399835377" /><path d="M 25.398753493254645 57.213857153982495 a86.0,86.0 0 0,1 29.58750427330803,-30.492523968695096" fill="none" id="id35" stroke="none" /><text fill="#e1ed5e" style="font-size:6.75px; font-family:Arial;" text-anchor="middle"><textPath startOffset="21.46611528233685" xlink:href="#id35">November</textPath></text><path d="M 82.15384107792192 88.93136811851018 l -9.536773582697714 -5.914944307338157 a32.22214848086377,32.22214848086377 0 0,0 0.2964014226746646,-0.468835869715702 l 9.433544563777087 6.078227824768074" fill="#ff790b" stroke="none" /><path d="M 83.17141714833178 87.43820079747576 l -12.515508590052532 -9.342278385022905 a36.61781420977164,36.61781420977164 0 0,0 0.38139033257526517,-0.5018649715967788 l 12.352842317253158 9.556328132500711" fill="#ffb510" stroke="none" /><path d="M 83.6137871275137 86.86637796730984 l -11.991755703528616 -9.611445191399154 a36.36821666688692,36.36821666688692 0 0,0 0.39572344518457786,-0.4851101529294388 l 11.824533766267646 9.816439513936675" fill="#ffb110" stroke="none" /><path d="M 83.84228863543731 86.58626213691792 l -11.624289777506059 -9.650201838729968 a36.107961753977904,36.107961753977904 0 0,0 0.4011240117055184,-0.47480430883310326 l 11.456455152313415 9.848865097192187" fill="#ffae10" stroke="none" /><path d="M 84.31358615837235 86.03803664274999 l -8.645493790005563 -7.695070952486444 a32.574052005966855,32.574052005966855 0 0,0 0.3763952795310254,-0.41562506868263555 l 8.511754869858493 7.842748808438635" fill="#ff7e0b" stroke="none" /><path d="M 84.80347519578584 85.50635884689758 l -12.211389144169772 -11.646576734926036 a37.87485628006555,37.87485628006555 0 0,0 0.45402165870480343,-0.46790922892582176 l 12.00910322176185 11.855050159401982" fill="#ffc512" stroke="none" /><path d="M 85.05521093208273 85.24692304244772 l -11.884751353838796 -11.732293480204511 a37.70012050999101,37.70012050999101 0 0,0 0.45987720019227196,-0.45790234134615343 l 11.681038353479211 11.935131672200775" fill="#ffc312" stroke="none" /><path d="M 85.31137513191541 84.99185889309783 l -13.412198225672949 -13.703948826551477 a40.175121243045275,40.175121243045275 0 0,0 0.4983948701769339,-0.47945547023246715 l 13.174320111883587 13.932787383546257" fill="#ffe315" stroke="none" /><path d="M 86.10567301691215 84.25364557470407 l -11.263870620569135 -12.76527457631075 a38.02430663391394,38.02430663391394 0 0,0 0.4945082830418346,-0.4288327100883377 l 11.042468538880525 12.957272279818769" fill="#ffc712" stroke="none" /><path d="M 86.37877921826538 84.01681056812374 l -11.605455326154436 -13.617882999873217 a38.89227013896231,38.89227013896231 0 0,0 0.5132714066458884,-0.4298500421704926 l 11.369326382549437 13.815634199437522" fill="#ffd213" stroke="none" /><path d="M 86.65592168130627 83.78471172551755 l -11.390229410027537 -13.841034875922759 a38.9251658974071,38.9251658974071 0 0,0 0.5210348497178162,-0.4213072795934612 l 11.15029116174522 14.035048252780355" fill="#ffd313" stroke="none" /><path d="M 86.93701828274178 83.55741782278169 l -10.943020685133133 -13.774153617974058 a38.59195866317334,38.59195866317334 0 0,0 0.523688183411313,-0.40874693375685023 l 10.704299946562395 13.960478940954129" fill="#ffcf13" stroke="none" /><path d="M 87.22198572758235 83.33499621200491 l -10.495345978462606 -13.687962523640662 a38.24855371491252,38.24855371491252 0 0,0 0.5259246189695148,-0.39611551944703327 l 10.2581752057347 13.86659463259355" fill="#ffca12" stroke="none" /><path d="M 87.51073957382395 83.11751280151077 l -9.092231993437197 -12.290518813522423 a36.28808475015859,36.28808475015859 0 0,0 0.5053628736064185,-0.36716761975006207 l 8.879323803476998 12.445205668089153" fill="#ffb010" stroke="none" /><path d="M 87.80319425747018 82.90503203632743 l -20.314360500246984 -28.472482819275204 a55.97649954509337,55.97649954509337 0 0,0 0.7891856395434073,-0.5528749740318875 l 19.821243721119917 28.817942636071034" fill="#62ff29" stroke="none" /><path d="M 88.09926311788651 82.69761687909137 l -7.8310408291883595 -11.385485621965275 a34.81862812714754,34.81862812714754 0 0,0 0.4967379778141822,-0.3353997000106941 l 7.633898156967638 11.518597234274635" fill="#ff9c0e" stroke="none" /><path d="M 88.39885842347998 82.49532879139004 l -9.345811752788363 -14.101660671155818 a37.91747708740815,37.91747708740815 0 0,0 0.5471545645977827,-0.3558845489087775 l 9.101690162406292 14.26044414422413" fill="#ffc612" stroke="none" /><path d="M 88.70189139769569 82.29822771554957 l -8.056846611854622 -12.623392912394932 a35.97540737167627,35.97540737167627 0 0,0 0.5248655144899076,-0.32867073702232674 l 7.838361944992473 12.76020799074019" fill="#ffac0f" stroke="none" /><path d="M 89.00827224532344 82.1063720568725 l -10.744660342347975 -17.49142253450118 a41.52797087275995,41.52797087275995 0 0,0 0.6123159569150018,-0.36891351279128914 l 10.441982319215324 17.67378265675109" fill="#fff417" stroke="none" /><line stroke="#e1ed5e" stroke-width="0.3" x1="56.762969772571076" x2="54.21961505331055" y1="26.818313649435495" y2="22.513508569990535" /><path d="M 56.25429882871897 25.957352633546506 a86.0,86.0 0 0,1 42.265352541879196,-11.944610805530505" fill="none" id="id36" stroke="none" /><text fill="#e1ed5e" style="font-size:6.75px; font-family:Arial;" text-anchor="middle"><textPath startOffset="22.20632615414155" xlink:href="#id36">December</textPath></text><path d="M 89.3179101791058 81.91981866633112 l -7.9733792733684785 -13.495499993141916 a36.67492574470053,36.67492574470053 0 0,0 0.5462874575968608,-0.31644495585564114 l 7.739895083306298 13.630749106387604" fill="#ffb510" stroke="none" /><path d="M 89.63071344664047 81.73862282372117 l -9.18812514820208 -16.181230792566893 a39.60789815377703,39.60789815377703 0 0,0 0.5957705194888554,-0.331545649068495 l 8.90823053964118 16.336991839195573" fill="#ffdc14" stroke="none" /><path d="M 89.94658935756843 81.56283822128135 l -5.186708677128862 -9.512014417843323 a31.834221946529574,31.834221946529574 0 0,0 0.4833571122651566,-0.25819262965518447 l 5.0222065183354 9.599885774000256" fill="#ff730a" stroke="none" /><path d="M 90.26544431104013 81.39251694778311 l -7.015837607759078 -13.410686995353945 a36.13500918486018,36.13500918486018 0 0,0 0.5536219160053552,-0.28358664816982077 l 6.783955204164959 13.52946616883627" fill="#ffae10" stroke="none" /><path d="M 92.91201910852362 80.23233633223022 l -5.571086036368923 -15.537196941879833 a37.50580165988265,37.50580165988265 0 0,0 0.6095907170738597,-0.21267423155957824 l 5.302813315231778 15.630792026611621" fill="#ffc011" stroke="none" /><path d="M 93.59665428221793 80.00007090966166 l -4.9179530365145965 -15.36051875611903 a37.12860187761009,37.12860187761009 0 0,0 0.6103493551881383,-0.18963851568537515 l 4.652818308615729 15.44289740668693" fill="#ffbb11" stroke="none" /><path d="M 93.94186890950719 79.89281104454417 l -4.718533778470213 -15.661009783247135 a37.356399006184915,37.356399006184915 0 0,0 0.6172874231320585,-0.18020312594792334 l 4.448256137614734 15.739911238113757" fill="#ffbe11" stroke="none" /><path d="M 94.63758080256005 79.69619591428918 l -8.112748452957643 -30.717414868301173 a52.770682454934715,52.770682454934715 0 0,0 0.8802429048566707,-0.22439351587380996 l 7.5827966594159735 30.852511380343845" fill="#84ff25" stroke="none" /><path d="M 95.33964822691252 79.52364482259891 l -3.9743952373689813 -17.462443278573275 a38.90901289184332,38.90901289184332 0 0,0 0.6543333808932819,-0.1430119332221025 l 3.6732191323221786 17.528268709891247" fill="#ffd313" stroke="none" /><path d="M 95.692805502759 79.44645832069477 l -3.912887691434235 -18.67194534722074 a40.07753215527039,40.07753215527039 0 0,0 0.6764201724518466,-0.13568352316324314 l 3.590901109515252 18.736532826461193" fill="#ffe215" stroke="none" /><path d="M 96.04723909329186 79.375362276772 l -3.6602432527489737 -19.098344890712436 a40.44592909155786,40.44592909155786 0 0,0 0.6848937960230665,-0.1251599634922449 l 3.330954335623014 19.15852033555542" fill="#ffe715" stroke="none" /><path d="M 96.40284397218896 79.31037775812273 l -1.2862332244001247 -7.397977547274829 a28.508959162063224,28.508959162063224 0 0,0 0.48420538554700854,-0.07989803744709432 l 1.1586986327142306 7.419021847661551" fill="#ff4406" stroke="none" /><path d="M 96.75951476605007 79.25152402106235 l -2.8262843329758067 -18.09639247172777 a39.31576653109637,39.31576653109637 0 0,0 0.6695494128450096,-0.09867417883944507 l 2.5143659397021483 18.142361134728183" fill="#ffd814" stroke="none" /><path d="M 97.11714578562143 79.19881850522333 l -4.627016160150087 -33.38614989495535 a54.705256019717716,54.705256019717716 0 0,0 0.9338585026797931,-0.12124163556632701 l 4.051642928962437 33.460849853685815" fill="#6fff27" stroke="none" /><path d="M 97.83486435360386 79.11191278185805 l -1.8040649541262281 -17.404667542057148 a38.497917093421265,38.497917093421265 0 0,0 0.6597349057755045,-0.06264977876035215 l 1.5042049212604873 17.43314286533268" fill="#ffcd13" stroke="none" /><path d="M 98.55514903715128 79.0497635885617 l -1.1251661151890608 -16.31482881035297 a37.35358180637786,37.35358180637786 0 0,0 0.6418376155959487,-0.038717397755243535 l 0.8441664507534892 16.33177947748852" fill="#ffbe11" stroke="none" /><path d="M 98.91598698831166 79.02799685794201 l -0.8466417633832289 -16.37966844532261 a37.401534704234294,37.401534704234294 0 0,0 0.6432336733877649,-0.0276989950540552 l 0.5645672576061398 16.39181516690086" fill="#ffbf11" stroke="none" /><path d="M 99.27714615592234 79.0124445844662 l -0.38538598536701446 -11.189412341827879 a32.196047111064125,32.196047111064125 0 0,0 0.5540378037118779,-0.014309161899140135 l 0.19272154646025746 11.194388295869379" fill="#ff780b" stroke="none" /><path d="M 99.63851952072746 79.00311137660856 l -1.0844414378176228 -62.990665870174325 a84.0,84.0 0 0,0 1.445921917090143,-0.012445506434235476 l 1.543054966925665e-14 63.0" fill="#4dd2ff" stroke="none" /></svg>