<?xml version="1.0" encoding="utf-8" ?>
<svg baseProfile="full" height="200mm" version="1.1" viewBox="0,0,200,200" width="200mm" xmlns="http://www.w3.org/2000/svg" xmlns:ev="http://www.w3.org/2001/xml-events" xmlns:xlink="http://www.w3.org/1999/xlink"><defs /><rect fill="#1a1a1a" height="200" width="200" x="0" y="0" /><text alignment-baseline="middle" fill="#e1ed5e" style="dominant-baseline: central; font-size:9.0px; font-family:Arial;" text-anchor="middle" x="100.0" y="100.0">2026</text><line stroke="#e1ed5e" stroke-width="0.3" x1="100.0" x2="100.0" y1="15.0" y2="10.0" /><path d="M 100.0 14.0 a86.0,86.0 0 0,1 42.46469731375804,11.215312516191453" fill="none" id="id61" stroke="none" /><text fill="#e1ed5e" style="font-size:6.75px; font-family:Arial;" text-anchor="middle"><textPath startOffset="22.20632615414155" xlink:href="#id61">January</textPath></text><path d="M 100.36148047927253 79.00311137660856 l 0.9786945350056516 -56.84827072596298 a77.85669465881067,77.85669465881067 0 0,0 1.3397778914981036,0.03460251020759608 l -1.957099061698623 56.82300142361303" fill="#42ffd8" stroke="none" /><path d="M 100.72285384407766 79.0124445844662 l 0.681935663748891 -19.799524689559558 a40.81126483044359,40.81126483044359 0 0,0 0.7018744016810264,0.030224188168408134 l -1.022650897819249 19.784852774866955" fill="#ff0200" stroke="none" /><path d="M 101.08401301168833 79.027996857942 l 1.6831493957220338 -32.56327556498421 a53.6067463481013,53.6067463481013 0 0,0 0.9211118343154042,0.05556398129321375 l -2.24342327887705 32.529478314310694" fill="#fff817" stroke="none" /><path d="M 101.44485096284872 79.0497635885617 l 2.2905010527162806 -33.212102693583354 a54.29099218109339,54.29099218109339 0 0,0 0.9317622005389754,0.0723226796092481 l -2.861853442617597 33.16775475178564" fill="#faff18" stroke="none" /><path d="M 101.80526077348638 79.07773832637324 l 3.222617116283425 -37.348863704925094 a58.48763637690744,58.48763637690744 0 0,0 1.002296700377694,0.09518014884643175 l -3.8650389437513635 37.287858011563486" fill="#b4ff20" stroke="none" /><path d="M 102.16513564639614 79.11191278185805 l 4.224851584143732 -40.7591406664012 a61.97751723532701,61.97751723532701 0 0,0 1.0602089440347304,0.1191268280696847 l -4.925827231688188 40.68037788486092" fill="#7dff26" stroke="none" /><path d="M 102.52436894288641 79.15227682838746 l 4.102678439234279 -33.882331108661745 a55.12981587604518,55.12981587604518 0 0,0 0.9411060481731672,0.12218257497731146 l -4.685299215915292 33.8066902105203" fill="#ecff1a" stroke="none" /><path d="M 102.88285421437855 79.19881850522331 l 4.429561265811359 -31.96141774107606 a53.26690622026146,53.26690622026146 0 0,0 0.9071379990934897,0.1336885604518177 l -4.9790682453335044 31.880434696463272" fill="#fff216" stroke="none" /><path d="M 103.2404852339499 79.25152402106235 l 5.201105456020641 -33.30211490784225 a54.70582079255417,54.70582079255417 0 0,0 0.9291413586145107,0.15331628536176176 l -5.773576020774027 33.207652359540866" fill="#f3ff19" stroke="none" /><path d="M 103.59715602781102 79.31037775812273 l 9.289093216304607 -53.427715709034395 a75.22921775820298,75.22921775820298 0 0,0 1.27389889859187,0.2327968811608235 l -10.207387235999379 53.25990334652283" fill="#3dffb0" stroke="none" /><path d="M 103.95276090670814 79.375362276772 l 6.58925377088905 -34.38127807335037 a56.00700711592207,56.00700711592207 0 0,0 0.9452745060522153,0.18961317323322388 l -7.18009468640839 34.26276094403994" fill="#ddff1b" stroke="none" /><path d="M 104.307194497241 79.44645832069477 l 7.005715023131453 -33.43063699897975 a55.1568080057678,55.1568080057678 0 0,0 0.9275727647478018,0.20273147934109043 l -7.580130512032783 33.305092021542784" fill="#ebff1a" stroke="none" /><path d="M 104.66035177308747 79.52364482259891 l 7.207200299684903 -31.666535136520395 a53.47634806612743,53.47634806612743 0 0,0 0.8957958360671948,0.212005932394422 l -7.751219822714622 31.537783291985104" fill="#fff617" stroke="none" /><path d="M 105.01212808612495 79.60689891045804 l 8.119542041281044 -33.03639468173444 a55.01955814715209,55.01955814715209 0 0,0 0.9177553413059424,0.23395627117397325 l -8.687006271272011 32.891735414391604" fill="#eeff19" stroke="none" /><path d="M 105.71112130821622 79.79150937346287 l 9.017332660723133 -31.907338807255393 a54.15705894790927,54.15705894790927 0 0,0 0.8949061540120723,0.26124764629864244 l -9.565229032458632 31.74739283203805" fill="#fdff18" stroke="none" /><path d="M 106.0581310904928 79.89281104454417 l 18.174393271478365 -60.321566866367476 a84.0,84.0 0 0,0 1.380858509157127,0.4290394604699177 l -19.21003715334621 59.99978727101504" fill="#4dd2ff" stroke="none" /><path d="M 106.40334571778207 80.00007090966166 l 10.941824338387148 -34.17521410392932 a56.884102035602496,56.884102035602496 0 0,0 0.9299661604827335,0.30659522182225935 l -11.5284733211123 33.98180515784783" fill="#ceff1d" stroke="none" /><path d="M 106.74666289553966 80.11325718540242 l 11.586439039797968 -34.15266730961286 a57.064529027620104,57.064529027620104 0 0,0 0.9274833660371639,0.3235807347970859 l -12.172604409898405 33.94816572164356" fill="#cbff1d" stroke="none" /><path d="M 107.08798089147638 80.2323363322302 l 14.25723132212417 -39.761979881782615 a63.24078229734676,63.24078229734676 0 0,0 1.0215424327251803,0.3762426991239111 l -14.939556080621927 39.510673914852376" fill="#6aff28" stroke="none" /><path d="M 107.4271985657038 80.35727306442388 l 14.244608818811924 -37.67274549842439 a61.275856710814104,61.275856710814104 0 0,0 0.9833807281244039,0.3815364447760164 l -14.890972711935994 37.421966349757824" fill="#88ff25" stroke="none" /><path d="M 107.76421540070413 80.48803036053334 l 12.995063030727406 -32.65742412240566 a56.14795888075524,56.14795888075524 0 0,0 0.8949346441465109,0.3650663118180547 l -13.555281544462305 32.42889692440402" fill="#dbff1b" stroke="none" /><path d="M 108.43124777332544 80.76684994638697 l 18.080561222344198 -41.244920845888714 a66.03387824403492,66.03387824403492 0 0,0 1.037102563422389,0.4653176893935193 l -18.787845904233365 40.92758282597866" fill="#41ff2d" stroke="none" /><path d="M 108.76106565485865 80.91482961587045 l 15.131596928301576 -32.962782946438985 a57.26996395331314,57.26996395331314 0 0,0 0.8923800020766987,0.4189843764844605 l -15.696755141677873 32.69743358731452" fill="#c8ff1d" stroke="none" /><path d="M 109.08828744355905 81.06846463323043 l 14.343585421092726 -29.87868686725399 a54.143240210389806,54.143240210389806 0 0,0 0.8367160545441735,0.41057293414689766 l -14.85577274264733 29.627358772972258" fill="#fdff18" stroke="none" /><path d="M 109.41281617654863 81.2277094730956 l 14.551783542421308 -29.021103059841288 a53.46504007506248,53.46504007506248 0 0,0 0.8191340916570594,0.41959229708747636 l -15.049178121667122 28.76631823744131" fill="#fff517" stroke="none" /><path d="M 109.73455568895987 81.39251694778311 l 9.135126020838753 -17.46168063997024 a40.70687235938054,40.70687235938054 0 0,0 0.6180756139108695,0.3301545876371542 l -9.434346681277933 17.301847325831332" fill="#ff0000" stroke="none" /><path d="M 110.05341064243156 81.56283822128135 l 16.188570660777156 -29.688561111712165 a54.81538822670594,54.81538822670594 0 0,0 0.8245171756657516,0.45884291557218565 l -16.697211925514942 29.4055027985798" fill="#f1ff19" stroke="none" /><path d="M 110.36928655335952 81.73862282372117 l 30.49333127550144 -53.701884012718196 a82.75544995215331,82.75544995215331 0 0,0 1.2326750072064545,0.714044927840286 l -31.413203015173224 53.169034927487864" fill="#4be2ff" stroke="none" /><line stroke="#e1ed5e" stroke-width="0.3" x1="143.23703022742887" x2="145.7803849466894" y1="26.81831364943548" y2="22.513508569990506" /><path d="M 143.74570117128098 25.957352633546492 a86.0,86.0 0 0,1 28.547481713284135,27.462654790039103" fill="none" id="id62" stroke="none" /><text fill="#e1ed5e" style="font-size:6.75px; font-family:Arial;" text-anchor="middle"><textPath startOffset="19.985693538727396" xlink:href="#id62">February</textPath></text><path d="M 110.68208982089419 81.91981866633111 l 18.2114626014088 -30.82416939995713 a56.80205007090746,56.80205007090746 0 0,0 0.8375271151694326,0.50460071573473 l -18.73935178279587 30.506122074763784" fill="#d0ff1d" stroke="none" /><line stroke="#e1ed5e" stroke-width="0.3" x1="172.23445277983987" x2="176.4835382374775" y1="55.19839476539836" y2="52.563006222186495" /><path d="M 173.08426987136738 54.67131705675599 a86.0,86.0 0 0,1 12.851231095245387,41.99856678651699" fill="none" id="id63" stroke="none" /><text fill="#e1ed5e" style="font-size:6.75px; font-family:Arial;" text-anchor="middle"><textPath startOffset="22.20632615414155" xlink:href="#id63">March</textPath></text><line stroke="#e1ed5e" stroke-width="0.3" x1="184.98032266829074" x2="189.97916517819016" y1="98.17113171792111" y2="98.06355123074" /><path d="M 185.9800911702706 98.14961562048488 a86.0,86.0 0 0,1 -9.607161424134198,41.387399972396054" fill="none" id="id64" stroke="none" /><text fill="#e1ed5e" style="font-size:6.75px; font-family:Arial;" text-anchor="middle"><textPath startOffset="21.466115282336823" xlink:href="#id64">April</textPath></text><line stroke="#e1ed5e" stroke-width="0.3" x1="174.80103733775053" x2="179.2010983576182" y1="140.37084112569926" y2="142.7455964860345" /><path d="M 175.68104954172406 140.8457921977663 a86.0,86.0 0 0,1 -30.038265399797805,32.042727171017184" fill="none" id="id65" stroke="none" /><text fill="#e1ed5e" style="font-size:6.75px; font-family:Arial;" text-anchor="middle"><textPath startOffset="22.206326154141568" xlink:href="#id65">May</textPath></text><line stroke="#e1ed5e" stroke-width="0.3" x1="143.8653032363475" x2="146.44561519142675" y1="172.8068346515853" y2="177.08958963109032" /><path d="M 144.38136562736335 173.6633856474863 a86.0,86.0 0 0,1 -40.68145358897372,12.25698825130547" fill="none" id="id66" stroke="none" /><text fill="#e1ed5e" style="font-size:6.75px; font-family:Arial;" text-anchor="middle"><textPath startOffset="21.466115282336833" xlink:href="#id66">June</textPath></text><line stroke="#e1ed5e" stroke-width="0.3" x1="102.19456741930631" x2="102.32365962044197" y1="184.97166512339345" y2="189.96999836594603" /><path d="M 102.22038585953345 185.97133177190398 a86.0,86.0 0 0,1 -42.740103519485714,-10.115201625700543" fill="none" id="id67" stroke="none" /><text fill="#e1ed5e" style="font-size:6.75px; font-family:Arial;" text-anchor="middle"><textPath startOffset="22.20632615414155" xlink:href="#id67">July</textPath></text><line stroke="#e1ed5e" stroke-width="0.3" x1="58.666819895761336" x2="56.23545636021788" y1="174.27360380694188" y2="178.64263932499728" /><path d="M 58.180547188652646 175.14741091055294 a86.0,86.0 0 0,1 -31.652253787137756,-30.449443065178592" fill="none" id="id68" stroke="none" /><text fill="#e1ed5e" style="font-size:6.75px; font-family:Arial;" text-anchor="middle"><textPath startOffset="22.20632615414155" xlink:href="#id68">August</textPath></text><line stroke="#e1ed5e" stroke-width="0.3" x1="26.63291911575756" x2="22.317208475507996" y1="142.92168965132927" y2="145.44649492493687" /><path d="M 25.769776987707644 143.4266507060508 a86.0,86.0 0 0,1 -11.730757126820373,-40.83630448921669" fill="none" id="id69" stroke="none" /><text fill="#e1ed5e" style="font-size:6.75px; font-family:Arial;" text-anchor="middle"><textPath startOffset="21.46611528233685" xlink:href="#id69">September</textPath></text><line stroke="#e1ed5e" stroke-width="0.3" x1="15.007084014347285" x2="10.007500721073583" y1="101.09737516637583" y2="101.16192664675087" /><path d="M 14.007167355692545 101.11028546245083 a86.0,86.0 0 0,1 10.666146001902534,-42.60595125391555" fill="none" id="id70" stroke="none" /><text fill="#e1ed5e" style="font-size:6.75px; font-family:Arial;" text-anchor="middle"><textPath startOffset="22.20632615414155" xlink:href="#id70">October</textPath></text><line stroke="#e1ed5e" stroke-width="0.3" x1="26.266209847984243" x2="21.928928074336255" y1="57.711370442889674" y2="55.22380399835377" /><path d="M 25.398753493254645 57.213857153982495 a86.0,86.0 0 0,1 29.58750427330803,-30.492523968695096" fill="none" id="id71" stroke="none" /><text fill="#e1ed5e" style="font-size:6.75px; font-family:Arial;" text-anchor="middle"><textPath startOffset="21.46611528233685" xlink:href="#id71">November</textPath></text><line stroke="#e1ed5e" stroke-width="0.3" x1="56.762969772571076" x2="54.21961505331055" y1="26.818313649435495" y2="22.513508569990535" /><path d="M 56.25429882871897 25.957352633546506 a86.0,86.0 0 0,1 42.265352541879196,-11.944610805530505" fill="none" id="id72" stroke="none" /><text fill="#e1ed5e" style="font-size:6.75px; font-family:Arial;" text-anchor="middle"><textPath startOffset="22.20632615414155" xlink:href="#id72">December</textPath></text></svg>