<?xml version="1.0" encoding="utf-8" ?>
<svg baseProfile="full" height="200mm" version="1.1" viewBox="0,0,200,200" width="200mm" xmlns="http://www.w3.org/2000/svg" xmlns:ev="http://www.w3.org/2001/xml-events" xmlns:xlink="http://www.w3.org/1999/xlink"><defs /><rect fill="#1a1a1a" height="200" width="200" x="0" y="0" /><text alignment-baseline="middle" fill="#e1ed5e" style="dominant-baseline: central; font-size:9.0px; font-family:Arial;" text-anchor="middle" x="100.0" y="100.0">2024</text><line stroke="#e1ed5e" stroke-width="0.3" x1="100.0" x2="100.0" y1="15.0" y2="10.0" /><path d="M 100.0 14.0 a86.0,86.0 0 0,1 42.35913384403234,11.155469271406648" fill="none" id="id37" stroke="none" /><text fill="#e1ed5e" style="font-size:6.75px; font-family:Arial;" text-anchor="middle"><textPath startOffset="22.145653131862478" xlink:href="#id37">January</textPath></text><path d="M 100.36049292484886 79.00309439819443 l 0.8641032942965904 -50.329684856261224 a71.3371021437844,71.3371021437844 0 0,0 1.224235325018832,0.0315319593108243 l -1.727951933386164 50.307435179600354" fill="#3cffa1" stroke="none" /><path d="M 100.72087961077811 79.0123766808444 l 1.8547497441760759 -53.99901509220153 a75.03085903019986,75.03085903019986 0 0,0 1.28686583726991,0.05526355609527345 l -2.781441342046822 53.95921896768043" fill="#41ffcc" stroke="none" /><path d="M 101.08105385017728 79.02784411241856 l 3.0524100562169227 -59.21593963270646 a80.29455888811071,80.29455888811071 0 0,0 1.3759262147104396,0.08277230435078169 l -4.068480623059825 59.15481535053098" fill="#48f8ff" stroke="none" /><path d="M 102.15924093988457 79.11130261209362 l 4.79148969144675 -46.35331627569764 a67.60030368160808,67.60030368160808 0 0,0 1.1532743738096984,0.1292267990855226 l -5.586499966857245 46.264233716105146" fill="#36ff73" stroke="none" /><path d="M 102.51750503828377 79.15144685158666 l 6.743663680326056 -55.8472092473543 a77.25289130836853,77.25289130836853 0 0,0 1.3152200936096117,0.17028157274136196 l -7.701361595826459 55.72321607841254" fill="#44ffe5" stroke="none" /><path d="M 102.87502721639298 79.19773525538626 l 7.399745741575075 -53.54087400681926 a75.04980505472756,75.04980505472756 0 0,0 1.2746848234313812,0.18733477286175848 l -8.317755670614138 53.40595816065862" fill="#41ffcc" stroke="none" /><path d="M 103.23170211078529 79.25015418208739 l 9.42803050738197 -60.534719070135644 a82.26450825843924,82.26450825843924 0 0,0 1.3934922041811098,0.22929861191202783 l -10.465800214616152 60.36395445972795" fill="#4be4ff" stroke="none" /><path d="M 103.58742460773223 79.30868818359171 l 1.1798918509921537 -6.805302652464849 a27.90682915466155,27.90682915466155 0 0,0 0.47131347608967916,0.08588901562148434 l -1.2965400606328865 6.784045462911998" fill="#ff0000" stroke="none" /><path d="M 103.94208987418118 79.37332000966035 l 9.584059214824107 -50.147847649897926 a72.05546802205056,72.05546802205056 0 0,0 1.2129457705955533,0.24262312464663116 l -10.443501470950617 49.97593512858843" fill="#3dffa9" stroke="none" /><path d="M 104.9986988182912 79.60360301121754 l 12.69292211531946 -51.79145370079598 a74.32414976600433,74.32414976600433 0 0,0 1.2365935482745214,0.31433724430992943 l -13.580120956819377 51.56593122465078" fill="#40ffc4" stroke="none" /><path d="M 105.69591212413111 79.78721728523813 l 16.89971504875997 -59.971126797200164 a83.30679271199203,83.30679271199203 0 0,0 1.3731339141836745,0.39969927015078127 l -17.926708975325248 59.67218383274687" fill="#4cd9ff" stroke="none" /><path d="M 106.04205211174951 79.88797359093562 l 16.192043251461623 -53.89804580745563 a77.27771856178775,77.27771856178775 0 0,0 1.267205059860072,0.39258336679472156 l -17.114888944193325 53.61214585285426" fill="#44ffe5" stroke="none" /><path d="M 106.38641147887787 79.99465700312896 l 19.15923443663363 -60.016028990613094 a84.0,84.0 0 0,0 1.3699090494090305,0.4503163143919138 l -20.186666223690402 59.67829175481916" fill="#4dd2ff" stroke="none" /><line stroke="#e1ed5e" stroke-width="0.3" x1="143.13028292997686" x2="145.6673583964461" y1="26.7553504044142" y2="22.446841604673864" /><path d="M 143.63769802327073 25.89364864446614 a86.0,86.0 0 0,1 29.32050498858742,28.57503671076993" fill="none" id="id38" stroke="none" /><text fill="#e1ed5e" style="font-size:6.75px; font-family:Arial;" text-anchor="middle"><textPath startOffset="20.669276256404974" xlink:href="#id38">February</textPath></text><line stroke="#e1ed5e" stroke-width="0.3" x1="172.87174338648825" x2="177.1583165268699" y1="56.24261187166439" y2="53.66864786411523" /><path d="M 173.72905801456457 55.72781907015455 a86.0,86.0 0 0,1 12.242430191666344,42.057860355516425" fill="none" id="id39" stroke="none" /><text fill="#e1ed5e" style="font-size:6.75px; font-family:Arial;" text-anchor="middle"><textPath startOffset="22.145653131862474" xlink:href="#id39">March</textPath></text><line stroke="#e1ed5e" stroke-width="0.3" x1="184.99686870605535" x2="189.99668451229388" y1="99.2704041080226" y2="99.22748670261217" /><path d="M 185.99683186730306 99.26182062694052 a86.0,86.0 0 0,1 -10.086455211305974,41.156179273409016" fill="none" id="id40" stroke="none" /><text fill="#e1ed5e" style="font-size:6.75px; font-family:Arial;" text-anchor="middle"><textPath startOffset="21.40746469413373" xlink:href="#id40">April</textPath></text><line stroke="#e1ed5e" stroke-width="0.3" x1="174.33088141563837" x2="178.70328620479359" y1="141.23008692659167" y2="143.65538615756765" /><path d="M 175.20536237346943 141.71514677278685 a86.0,86.0 0 0,1 -30.301960400862466,31.631185727798858" fill="none" id="id41" stroke="none" /><text fill="#e1ed5e" style="font-size:6.75px; font-family:Arial;" text-anchor="middle"><textPath startOffset="22.145653131862474" xlink:href="#id41">May</textPath></text><line stroke="#e1ed5e" stroke-width="0.3" x1="143.1302829299769" x2="145.66735839644613" y1="173.24464959558577" y2="177.55315839532614" /><path d="M 143.63769802327073 174.10635135553383 a86.0,86.0 0 0,1 -40.68552437913181,11.842963189579606" fill="none" id="id42" stroke="none" /><text fill="#e1ed5e" style="font-size:6.75px; font-family:Arial;" text-anchor="middle"><textPath startOffset="21.407464694133747" xlink:href="#id42">June</textPath></text><line stroke="#e1ed5e" stroke-width="0.3" x1="101.45913802915013" x2="101.54496967792366" y1="184.9874750549273" y2="189.98673829345242" /><path d="M 101.47630435890484 185.9873277026323 a86.0,86.0 0 0,1 -42.54439059252881,-10.42667462771756" fill="none" id="id43" stroke="none" /><text fill="#e1ed5e" style="font-size:6.75px; font-family:Arial;" text-anchor="middle"><textPath startOffset="22.145653131862474" xlink:href="#id43">July</textPath></text><line stroke="#e1ed5e" stroke-width="0.3" x1="58.13341422392154" x2="55.67067388415222" y1="173.97424548756322" y2="178.32567169271397" /><path d="M 57.64086615596768 174.84453072859336 a86.0,86.0 0 0,1 -31.369924170532247,-30.572349798747897" fill="none" id="id44" stroke="none" /><text fill="#e1ed5e" style="font-size:6.75px; font-family:Arial;" text-anchor="middle"><textPath startOffset="22.145653131862474" xlink:href="#id44">August</textPath></text><line stroke="#e1ed5e" stroke-width="0.3" x1="26.387840678322732" x2="22.057713659400548" y1="142.50000000000003" y2="145.00000000000006" /><path d="M 25.521815274538298 143.00000000000003 a86.0,86.0 0 0,1 -11.493303480769221,-40.785679425670985" fill="none" id="id45" stroke="none" /><text fill="#e1ed5e" style="font-size:6.75px; font-family:Arial;" text-anchor="middle"><textPath startOffset="21.40746469413373" xlink:href="#id45">September</textPath></text><line stroke="#e1ed5e" stroke-width="0.3" x1="15.003131293944662" x2="10.003315487706104" y1="100.72959589197737" y2="100.7725132973878" /><path d="M 14.003168132696942 100.73817937305945 a86.0,86.0 0 0,1 10.791469493833604,-42.45332614584628" fill="none" id="id46" stroke="none" /><text fill="#e1ed5e" style="font-size:6.75px; font-family:Arial;" text-anchor="middle"><textPath startOffset="22.145653131862435" xlink:href="#id46">October</textPath></text><line stroke="#e1ed5e" stroke-width="0.3" x1="26.387840678322718" x2="22.05771365940052" y1="57.49999999999999" y2="54.99999999999999" /><path d="M 25.521815274538284 56.99999999999999 a86.0,86.0 0 0,1 29.574782752854787,-30.34633250058573" fill="none" id="id47" stroke="none" /><text fill="#e1ed5e" style="font-size:6.75px; font-family:Arial;" text-anchor="middle"><textPath startOffset="21.40746469413373" xlink:href="#id47">November</textPath></text><line stroke="#e1ed5e" stroke-width="0.3" x1="56.869717070023135" x2="54.33264160355391" y1="26.7553504044142" y2="22.446841604673864" /><path d="M 56.362301976729285 25.89364864446614 a86.0,86.0 0 0,1 42.16139366436587,-11.88097634709845" fill="none" id="id48" stroke="none" /><text fill="#e1ed5e" style="font-size:6.75px; font-family:Arial;" text-anchor="middle"><textPath startOffset="22.145653131862474" xlink:href="#id48">December</textPath></text></svg>