<?xml version="1.0" encoding="utf-8" ?>
<svg baseProfile="full" height="200mm" version="1.1" viewBox="0,0,200,200" width="200mm" xmlns="http://www.w3.org/2000/svg" xmlns:ev="http://www.w3.org/2001/xml-events" xmlns:xlink="http://www.w3.org/1999/xlink"><defs /><rect fill="#1a1a1a" height="200" width="200" x="0" y="0" /><text alignment-baseline="middle" fill="#e1ed5e" style="dominant-baseline: central; font-size:9.0px; font-family:Arial;" text-anchor="middle" x="100.0" y="100.0">2025</text><line stroke="#e1ed5e" stroke-width="0.3" x1="100.0" x2="100.0" y1="15.0" y2="10.0" /><path d="M 100.0 14.0 a86.0,86.0 0 0,1 42.46469731375804,11.215312516191453" fill="none" id="id49" stroke="none" /><text fill="#e1ed5e" style="font-size:6.75px; font-family:Arial;" text-anchor="middle"><textPath startOffset="22.20632615414155" xlink:href="#id49">January</textPath></text><path d="M 100.0 79.0 l 0.0 -3.6002071375319 a24.6002071375319,24.6002071375319 0 0,0 0.42345212696564305,0.0036447861454009375 l -0.061971647693114695 3.5996737279950577" fill="#ff0c01" stroke="none" /><path d="M 100.72285384407766 79.0124445844662 l 0.7890057952532594 -22.90823101616657 a43.92181446646402,43.92181446646402 0 0,0 0.7553698072694458,0.03252781286362033 l -1.1832164349120369 22.891255476778756" fill="#ebff1a" stroke="none" /><path d="M 101.08401301168833 79.027996857942 l 1.4008210919809028 -27.101173164636563 a48.137352240617645,48.137352240617645 0 0,0 0.8271325503233518,0.04989489423652095 l -1.8671156911438664 27.07304500101974" fill="#b9ff1f" stroke="none" /><path d="M 101.44485096284872 79.0497635885617 l 3.8737800489679306 -56.16953576428399 a77.30295658171923,77.30295658171923 0 0,0 1.326702092540409,0.10297761630619554 l -4.840072330870681 56.094532885789334" fill="#44ffeb" stroke="none" /><path d="M 101.80526077348638 79.07773832637324 l 0.9763632991913243 -11.315666265076905 a32.35771052257484,32.35771052257484 0 0,0 0.55451080771249,0.05265748275449921 l -1.1709992339940585 11.297183237807227" fill="#ff7b0b" stroke="none" /><path d="M 102.16513564639614 79.11191278185805 l 2.7050636893532434 -26.0970283168584 a47.23684921125947,47.23684921125947 0 0,0 0.8080499551416558,0.09079382759359476 l -3.1538803480046242 26.046598535794203" fill="#c3ff1e" stroke="none" /><path d="M 102.88285421437855 79.19881850522331 l 2.1397516698372567 -15.439338769210313 a36.58690857222855,36.58690857222855 0 0,0 0.62307682931665,0.09182532805975108 l -2.4051974795825624 15.400218956989592" fill="#ffb510" stroke="none" /><path d="M 103.95276090670814 79.375362276772 l 8.355642498242181 -43.597906258026505 a65.39137519431108,65.39137519431108 0 0,0 1.1036619000000967,0.22138419442792812 l -9.104870807709403 43.447618107521365" fill="#35ff67" stroke="none" /><path d="M 107.4271985657038 80.35727306442388 l 8.348696536362825 -22.07981446584971 a44.60548539434474,44.60548539434474 0 0,0 0.7158475957740783,0.27773774580067734 l -8.72752729713657 21.932834016158488" fill="#e3ff1b" stroke="none" /><path d="M 107.76421540070413 80.48803036053334 l 4.871917895729972 -12.243441115613106 a34.17715577559207,34.17715577559207 0 0,0 0.5447450156990986,0.2222151696364336 l -5.081946781017457 12.157765059793093" fill="#ff950d" stroke="none" /><path d="M 108.09893153111575 80.62456947434976 l 5.191495595184845 -12.419843511736145 a34.46120868907536,34.46120868907536 0 0,0 0.5453342558836791,0.23348366853592462 l -5.4045136088588395 12.328640315237429" fill="#ff980e" stroke="none" /><path d="M 108.76106565485865 80.91482961587045 l 5.590713236458528 -12.178851168344643 a34.40076454061492,34.40076454061492 0 0,0 0.5360323669353038,0.25167438368545453 l -5.79952381469343 12.080811802019186" fill="#ff980e" stroke="none" /><path d="M 109.41281617654863 81.2277094730956 l 13.032075076510264 -25.990298218527712 a50.074569339679044,50.074569339679044 0 0,0 0.7671889296929232,0.3929839675684091 l -13.477524493791941 25.762121725646804" fill="#a2ff22" stroke="none" /><path d="M 109.73455568895987 81.39251694778311 l 25.45805317530697 -48.66275443256278 a75.91972451169676,75.91972451169676 0 0,0 1.1527323917505001,0.6157497220222945 l -26.29193061358578 48.21732598403873" fill="#43ffdc" stroke="none" /><path d="M 110.05341064243156 81.56283822128135 l 12.98871522969264 -23.820278759610044 a48.13139147746718,48.13139147746718 0 0,0 0.7239784346274016,0.4028932150353292 l -13.396817753392074 23.593170147014533" fill="#b9ff1f" stroke="none" /><path d="M 110.36928655335952 81.73862282372117 l 15.58046744225633 -27.43880122143928 a52.55374428160416,52.55374428160416 0 0,0 0.7828087110698737,0.4534533322577682 l -16.05047288579153 27.166543731791464" fill="#86ff25" stroke="none" /><line stroke="#e1ed5e" stroke-width="0.3" x1="143.23703022742887" x2="145.7803849466894" y1="26.81831364943548" y2="22.513508569990506" /><path d="M 143.74570117128098 25.957352633546492 a86.0,86.0 0 0,1 28.547481713284135,27.462654790039103" fill="none" id="id50" stroke="none" /><text fill="#e1ed5e" style="font-size:6.75px; font-family:Arial;" text-anchor="middle"><textPath startOffset="19.985693538727396" xlink:href="#id50">February</textPath></text><path d="M 110.68208982089419 81.91981866633111 l 15.933404686471535 -26.968397647307928 a52.32359903596962,52.32359903596962 0 0,0 0.7714938615978308,0.46481641930895706 l -16.395260614287004 26.690134618540355" fill="#89ff24" stroke="none" /><path d="M 110.99172775467656 82.1063720568725 l 16.394976000878415 -26.689671291340613 a52.32305527417768,52.32305527417768 0 0,0 0.7633705726369276,0.47802258255349317 l -16.851965725887606 26.403504367464176" fill="#89ff24" stroke="none" /><path d="M 111.2981086023043 82.29822771554956 l 14.098493028124519 -22.08938875723605 a47.20512547827967,47.20512547827967 0 0,0 0.6811766462813973,0.44305623890254275 l -14.476636700190197 21.843433594173984" fill="#c4ff1e" stroke="none" /><path d="M 111.90073688211348 82.69761687909136 l 16.245900975485846 -23.61978133006834 a49.66746184414548,49.66746184414548 0 0,0 0.7002375632366024,0.49056116228188873 l -16.6500696783061 23.336635325022517" fill="#a7ff21" stroke="none" /><path d="M 112.19680574252982 82.90503203632743 l 15.106264892224049 -21.172848025515766 a47.00939700388357,47.00939700388357 0 0,0 0.654672301389044,0.47564726886628067 l -15.468482509966881 20.90968152183281" fill="#c6ff1e" stroke="none" /><path d="M 112.48926042617603 83.11751280151076 l 15.51599166797704 -20.973902518476972 a47.08928102296626,47.08928102296626 0 0,0 0.6474862386730427,0.48767321117106116 l -15.874724060408466 20.703712717800062" fill="#c5ff1e" stroke="none" /><path d="M 113.06298171725822 83.55741782278167 l 18.56699095061159 -23.37056585524924 a50.848224425493626,50.848224425493626 0 0,0 0.680631575001728,0.5503567322314217 l -18.96652592417781 23.047503025753688" fill="#99ff23" stroke="none" /><path d="M 113.34407831869373 83.78471172551755 l 16.9528006240132 -20.600489791273187 a47.67916094328855,47.67916094328855 0 0,0 0.6292342904545544,0.5269656224462421 l -17.304892451426873 20.305623011433127" fill="#beff1f" stroke="none" /><path d="M 113.6212207817346 84.01681056812373 l 8.587460866239992 -10.076557451296166 a34.2393917608958,34.2393917608958 0 0,0 0.4452852485935015,0.38614697966658146 l -8.759639913480257 9.927245478209914" fill="#ff950d" stroke="none" /><path d="M 113.89432698308785 84.25364557470407 l 9.69706375983655 -10.989622097776836 a35.656221866984694,35.656221866984694 0 0,0 0.4567205669551656,0.4100482344961265 l -9.884795314387706 10.821074854511412" fill="#ffa90f" stroke="none" /><path d="M 114.16331599549186 84.49514656593476 l 23.637551518887125 -25.876480617756883 a56.04748337568891,56.04748337568891 0 0,0 0.7067110348105624,0.6568108867054699 l -24.079470437492535 25.46576514497677" fill="#60ff29" stroke="none" /><path d="M 114.94478906791727 85.2469230424477 l 25.16322230907506 -24.840427893541168 a56.3586568595323,56.3586568595323 0 0,0 0.675594665773247,0.6962596895270395 l -25.587081238551416 24.403604008464015" fill="#5dff2a" stroke="none" /><path d="M 115.19652480421416 85.50635884689758 l 18.756848615413197 -17.88928959070145 a46.919993287836846,46.919993287836846 0 0,0 0.5523883616038003,0.5892493899942365 l -19.06200429898746 17.563770783829156" fill="#c7ff1e" stroke="none" /><path d="M 115.4437574822437 85.77008943001954 l 10.838536119245433 -9.98664993695295 a35.73794565641461,35.73794565641461 0 0,0 0.41295427546893004,0.45599442511183913 l -11.008834035330398 9.798602724571563" fill="#ffaa0f" stroke="none" /><path d="M 115.68641384162765 86.03803664274999 l 17.124827704965792 -15.242248440587048 a43.92565945505913,43.92565945505913 0 0,0 0.497841159429176,0.5691185057737377 l -17.384660727972815 14.945214378610363" fill="#ebff1a" stroke="none" /><path d="M 115.9244219780498 86.31012108654704 l 17.90997898994661 -15.39681905269898 a44.61841197798623,44.61841197798623 0 0,0 0.4956667598820699,0.5867131023563033 l -18.172356363315796 15.08624700071357" fill="#e3ff1b" stroke="none" /><path d="M 116.15771136456269 86.58626213691792 l 10.195648457726952 -8.464178661839078 a34.25117232146205,34.25117232146205 0 0,0 0.37268783445737363,0.45687121793916063 l -10.339834784260734 8.287423274291816" fill="#ff960d" stroke="none" /><path d="M 116.60985879189232 87.15038557335679 l 25.75094635919513 -19.921285062239335 a53.55716260556416,53.55716260556416 0 0,0 0.5578209540555376,0.7340269884998274 l -26.090043253474782 19.475073297858476" fill="#7bff26" stroke="none" /><path d="M 117.2510076193507 88.02491185347247 l 18.26414200891718 -12.678373072662971 a43.23330895506827,43.23330895506827 0 0,0 0.41910685578270274,0.614987595791392 l -18.479673330368616 12.362107453601173" fill="#f4ff19" stroke="none" /><path d="M 117.45458315368197 88.32363383020206 l 18.73562339870267 -12.533327052072236 a43.54124821593118,43.54124821593118 0 0,0 0.41136810222649983,0.6265418420342254 l -18.948588136287096 12.208967146060337" fill="#f0ff19" stroke="none" /><path d="M 117.65298651832404 88.62581576622439 l 18.570960522392504 -11.965653866024708 a43.0920222516132,43.0920222516132 0 0,0 0.3963899771888994,0.6269937506539135 l -18.774178095827356 11.644212467656587" fill="#f5ff19" stroke="none" /><line stroke="#e1ed5e" stroke-width="0.3" x1="172.23445277983987" x2="176.4835382374775" y1="55.19839476539836" y2="52.563006222186495" /><path d="M 173.08426987136738 54.67131705675599 a86.0,86.0 0 0,1 12.851231095245387,41.99856678651699" fill="none" id="id51" stroke="none" /><text fill="#e1ed5e" style="font-size:6.75px; font-family:Arial;" text-anchor="middle"><textPath startOffset="22.20632615414155" xlink:href="#id51">March</textPath></text><path d="M 118.3937258080291 89.86733742301442 l 19.210650963928618 -10.582687060430256 a42.9326782650202,42.9326782650202 0 0,0 0.3510091969982581,0.6503667329796261 l -19.38996826014534 10.25043934411817" fill="#f7ff18" stroke="none" /><path d="M 118.73160827565052 90.50648371742162 l 19.464087531895224 -9.864749955815588 a42.821182258073065,42.821182258073065 0 0,0 0.3275616268217432,0.6603442515912309 l -19.631009171670375 9.528246115725407" fill="#f9ff18" stroke="none" /><path d="M 118.89224826269711 90.83032412892265 l 11.867456278639414 -5.760072913300239 a34.191472946261655,34.191472946261655 0 0,0 0.2524337009904351,0.5316897529058582 l -11.964848173471605 5.55494074475384" fill="#ff950d" stroke="none" /><path d="M 119.04729006885535 91.15688171328212 l 26.687688742737535 -12.390339386757697 a50.42368502666311,50.42368502666311 0 0,0 0.35872293872159244,0.7903984449455962 l -26.897013998422473 11.929118932970038" fill="#9eff22" stroke="none" /><path d="M 119.196687751892 91.48605970444005 l 27.170596857594187 -12.050455913546127 a50.7229679090468,50.7229679090468 0 0,0 0.3471124625181714,0.8011834211684343 l -27.374000029955038 11.58097334779109" fill="#9bff22" stroke="none" /><path d="M 119.34039704204932 91.81776055985345 l 19.62876891015879 -8.30423940051675 a42.313117110115805,42.313117110115805 0 0,0 0.27801392959240745,0.6732327823751015 l -19.768804526637396 7.9651320476883445" fill="#ffff18" stroke="none" /><path d="M 119.47837535516314 92.15188598940014 l 13.447487681611202 -5.4181837323227775 a35.49798744323819,35.49798744323819 0 0,0 0.223479186010214,0.5687301523559256 l -13.538760417503116 5.185904575071067" fill="#ffa60f" stroke="none" /><path d="M 119.61058180528143 92.48833698450437 l 21.502018859263675 -8.236161549277536 a44.025446186554746,44.025446186554746 0 0,0 0.2649816374832924,0.7100190478736316 l -21.64060508524859 7.864819364374572" fill="#eaff1a" stroke="none" /><path d="M 119.7369772167798 92.82701384747503 l 14.802646686716672 -5.37970827742902 a36.7499082563043,36.7499082563043 0 0,0 0.21095658194379177,0.5964026648739362 l -14.893056349470275 5.124107986128469" fill="#ffb711" stroke="none" /><path d="M 119.85752413597 93.16781622104841 l 18.546527801089145 -6.381122114259295 a40.6135772594818,40.6135772594818 0 0,0 0.2217553656276896,0.6630203176710959 l -18.653620460488607 6.060928693665885" fill="#ffe915" stroke="none" /><path d="M 119.97218684219823 93.5106431181261 l 25.423051860275248 -8.26045028775406 a47.73137865592983,47.73137865592983 0 0,0 0.24716788957217423,0.7835897546604466 l -25.561475233615628 7.821610366667193" fill="#bdff1f" stroke="none" /><path d="M 120.08093135843002 93.85539295169968 l 27.62927334238218 -8.454340323599947 a49.89381621965708,49.89381621965708 0 0,0 0.244228098951107,0.823415737371547 l -27.77070733844499 7.97749519948187" fill="#a4ff21" stroke="none" /><path d="M 120.18372546131832 94.20196356495316 l 12.631910593809048 -3.6286798493926473 a34.142773021679005,34.142773021679005 0 0,0 0.15740343419278086,0.566263900637293 l -12.692500798568192 3.4107046453364025" fill="#ff940d" stroke="none" /><path d="M 120.28053869075195 94.5502522615342 l 12.763183132491587 -3.4296982675139125 a34.215962843459636,34.215962843459636 0 0,0 0.14794928260836016,0.5701089382006784 l -12.820328746970251 3.2094929037643833" fill="#ff950d" stroke="none" /><path d="M 120.37134235888165 94.90015583598534 l 18.90038007364887 -4.731597521566002 a40.48364396191002,40.48364396191002 0 0,0 0.16341357780424276,0.6774547792598901 l -18.97902645171393 4.405557510646706" fill="#ffe815" stroke="none" /><path d="M 120.45610955862082 95.25157060432595 l 40.28687703696479 -9.351699580705962 a62.35803122054164,62.35803122054164 0 0,0 0.23371081297899088,1.0476797484996192 l -40.441882236945816 8.65684166265638" fill="#31ff42" stroke="none" /><path d="M 120.53481517161879 95.60439243477599 l 32.11207451500865 -6.873793432935104 a53.83952444564522,53.83952444564522 0 0,0 0.1861840082306901,0.9078993460375268 l -32.225637819154336 6.320018430734166" fill="#78ff26" stroke="none" /><path d="M 120.6074358757038 95.95851677861258 l 6.921428606122654 -1.3574147578765836 a28.053279292255066,28.053279292255066 0 0,0 0.08885445543232766,0.47466405388589267 l -6.943768785464841 1.238072626528128" fill="#ff3e05" stroke="none" /><path d="M 120.67395015179393 96.31383870115 l 20.547290573552306 -3.6635779206365915 a41.8713428675437,41.8713428675437 0 0,0 0.12040630721045005,0.7106448409663263 l -20.607308742282978 3.309347291354427" fill="#fff917" stroke="none" /><path d="M 120.73433829027371 96.67025291283417 l 14.817184400587806 -2.379505721723465 a36.00703171985511,36.00703171985511 0 0,0 0.09300806026411093,0.6128069093715556 l -14.855948354291217 2.124099699959827" fill="#ffad10" stroke="none" /><path d="M 120.78858239683441 97.02765380044208 l 21.593325221985104 -3.0874081230838955 a42.81292697142918,42.81292697142918 0 0,0 0.09802937242052337,0.7304326883994331 l -21.643270593463466 2.715257092619798" fill="#f9ff18" stroke="none" /><path d="M 120.83666639777658 97.38593545837742 l 13.148348861451389 -1.6495264589575254 a34.251415596879866,34.251415596879866 0 0,0 0.06835546365679067,0.5856278686332151 l -13.174794678111768 1.4229548519994575" fill="#ff960d" stroke="none" /><path d="M 120.87857604477298 97.74499172005257 l 18.950492957198385 -2.0467640339038478 a40.060703720778726,40.060703720778726 0 0,0 0.06814683257613584,0.6862293040744759 l -18.982916915456748 1.720259199124937" fill="#ffe215" stroke="none" /><path d="M 120.91429891909075 98.10471618934814 l 13.089212771001067 -1.1861632634700077 a34.14284878754006,34.14284878754006 0 0,0 0.04800405877738372,0.5857711069062043 l -13.107691313597945 0.9606782393560347" fill="#ff940d" stroke="none" /><path d="M 120.94382443527127 98.46500227214037 l 28.4810881957579 -2.0874127264852596 a49.55748022331859,49.55748022331859 0 0,0 0.05503100714848362,0.8513053232867451 l -28.512799793910798 1.596848338945479" fill="#a8ff21" stroke="none" /><path d="M 120.96714384426684 98.82574320788733 l 16.25172788437418 -0.9101717426816519 a37.27719483906614,37.27719483906614 0 0,0 0.030365633279683273,0.640970525363677 l -16.26498712588736 0.6302901106949751" fill="#ffbe11" stroke="none" /><line stroke="#e1ed5e" stroke-width="0.3" x1="184.98032266829074" x2="189.97916517819016" y1="98.17113171792111" y2="98.06355123074" /><path d="M 185.9800911702706 98.14961562048488 a86.0,86.0 0 0,1 -9.607161424134198,41.387399972396054" fill="none" id="id52" stroke="none" /><text fill="#e1ed5e" style="font-size:6.75px; font-family:Arial;" text-anchor="middle"><textPath startOffset="21.466115282336823" xlink:href="#id52">April</textPath></text><path d="M 120.99513854157772 99.54816195383933 l 22.209660331736693 -0.47797586618972987 a43.2148030146517,43.2148030146517 0 0,0 0.009603960860890668,0.7438373526121904 l -22.2145972997153 0.09560225551707667" fill="#f4ff19" stroke="none" /><path d="M 120.9904718944345 100.63252640178507 l 21.886999240697417 0.6595423364093871 a42.89693430267821,42.89693430267821 0 0,0 -0.02859359940283591,0.7378737477844161 l -21.87240350844338 -1.0361933312078093" fill="#f8ff18" stroke="none" /><path d="M 120.9764740272857 100.99374915477107 l 44.155420103955635 2.09183923617429 a65.20494221177998,65.20494221177998 0 0,0 -0.06276332486989761,1.1206813275688408 l -44.11287042819821 -2.8515922800785543" fill="#35ff65" stroke="none" /><path d="M 120.95626037817324 101.35467743843564 l 18.617233193028135 1.2034754921712232 a39.65609082910579,39.65609082910579 0 0,0 -0.04989763760117017,0.6808136212103193 l -18.593758996762624 -1.5237622498783128" fill="#ffdd14" stroke="none" /><path d="M 120.92983693683757 101.71520430193887 l 19.038233543919457 1.56018702746671 a40.10205538766694,40.10205538766694 0 0,0 -0.062302178435319995,0.6874993474769603 l -19.00855676920706 -1.887667763492241" fill="#ffe315" stroke="none" /><path d="M 120.89721153311464 102.0752229133903 l 29.68062821867802 2.947470750612583 a50.82662024569835,50.82662024569835 0 0,0 -0.0939510676389548,0.8698702029747102 l -29.625494849538015 -3.4579372754720845" fill="#9aff23" stroke="none" /><path d="M 120.8583938346157 102.4346265915055 l 36.74409704880375 4.288832422341924 a57.993550133487325,57.993550133487325 0 0,0 -0.1242677252106752,0.990536038034561 l -36.66482781434623 -4.9206862146638795" fill="#4cff2c" stroke="none" /><path d="M 120.81339534386255 102.79330883721812 l 13.346896729561745 1.7912504888404033 a34.46655971743923,34.46655971743923 0 0,0 -0.0839768683874171,0.5873340219115835 l -13.314085810157728 -2.020729982732396" fill="#ff980e" stroke="none" /><path d="M 120.76222939487914 103.15116336523771 l 32.181154044587274 4.884257453652166 a53.549695029523896,53.549695029523896 0 0,0 -0.14616069398001633,0.9101427809348392 l -32.09231159624597 -5.4374794642802105" fill="#7bff26" stroke="none" /><path d="M 120.64145759157962 103.86396538481128 l 61.924372774738885 11.591896154433844 a84.0,84.0 0 0,0 -0.2782802680973435,1.4189450917282203 l -61.715662573665874 -12.656104973230008" fill="#4dd2ff" stroke="none" /><path d="M 120.23288151984713 105.62410040840565 l 26.413836188679664 7.342210092546219 a48.41530213668073,48.41530213668073 0 0,0 -0.23010493526785242,0.8010254665988933 l -26.28353861652571 -7.795793034649694" fill="#b5ff1f" stroke="none" /><path d="M 120.13307415673323 105.97154293290107 l 38.53679471888369 11.430153307374951 a61.19618081155816,61.19618081155816 0 0,0 -0.3082341692731799,1.0073270994944294 l -38.334333777104376 -12.091807379421438" fill="#30ff34" stroke="none" /><path d="M 120.02730092923936 106.31721596034902 l 28.744040804224856 9.066739146475154 a51.14010020728479,51.14010020728479 0 0,0 -0.27203549890282597,0.8372391765004901 l -28.583713054305782 -9.56017722295344" fill="#96ff23" stroke="none" /><path d="M 119.9155931802556 106.66101706037122 l 21.223810036907906 7.098566407857661 a43.37944944652388,43.37944944652388 0 0,0 -0.2429438573117048,0.7061085688466477 l -21.09847534865297 -7.46284767979361" fill="#f2ff19" stroke="none" /><path d="M 119.79798401119884 107.00284435728193 l 26.923626153521848 9.52329102701107 a49.5582688067704,49.5582688067704 0 0,0 -0.29139256496274263,0.8017871906505989 l -26.75570932755388 -9.9853260146678" fill="#a8ff21" stroke="none" /><path d="M 119.67450827220406 107.3425965602758 l 38.39790699443742 14.330235649013314 a61.98481322770324,61.98481322770324 0 0,0 -0.38166623469857613,0.9964101028534202 l -38.14554648014534 -14.98906931869988" fill="#31ff3e" stroke="none" /><path d="M 119.54520255179757 107.68017299344265 l 16.933935628659746 6.654090933223286 a39.194370063929014,39.194370063929014 0 0,0 -0.25214556816500605,0.6258046218780049 l -16.81688744623735 -6.944594922944105" fill="#ffd714" stroke="none" /><path d="M 119.41010516605496 108.01547362559984 l 12.384554017489185 5.114246689688438 a34.398981208102974,34.398981208102974 0 0,0 -0.2307172738640718,0.5453474826337339 l -12.294685762432804 -5.326668697988335" fill="#ff980e" stroke="none" /><path d="M 119.12269723197855 108.67885076344098 l 11.906367862701325 5.403714160270847 a34.075233168394305,34.075233168394305 0 0,0 -0.2470054964443291,0.5320278647005373 l -11.811587749417164 -5.607862092250215" fill="#ff930d" stroke="none" /><path d="M 118.97047184881838 109.00673069616215 l 25.406702849803445 12.062500725823986 a49.124801749678426,49.124801749678426 0 0,0 -0.3692471416968821,0.7607584792862755 l -25.195302451491848 -12.498048161075538" fill="#adff20" stroke="none" /><path d="M 118.81262510543309 109.33194174019688 l 25.62381732354343 12.710611575186118 a49.60314075142063,49.60314075142063 0 0,0 -0.38601005925600407,0.7616344676959064 l -25.40122859450116 -13.149800254584719" fill="#a8ff21" stroke="none" /><path d="M 118.64920377521936 109.65438752849418 l 25.631792188729353 13.269159253256783 a49.862767679044524,49.862767679044524 0 0,0 -0.4011518824923544,0.7588281836414777 l -25.399587798012103 -13.708402451984396" fill="#a5ff21" stroke="none" /><line stroke="#e1ed5e" stroke-width="0.3" x1="174.80103733775053" x2="179.2010983576182" y1="140.37084112569926" y2="142.7455964860345" /><path d="M 175.68104954172406 140.8457921977663 a86.0,86.0 0 0,1 -30.038265399797805,32.042727171017184" fill="none" id="id53" stroke="none" /><text fill="#e1ed5e" style="font-size:6.75px; font-family:Arial;" text-anchor="middle"><textPath startOffset="22.206326154141568" xlink:href="#id53">May</textPath></text><path d="M 118.48025628344425 109.97397251340804 l 24.533385826137582 13.240904895347365 a48.87846090697552,48.87846090697552 0 0,0 -0.40597888818469974,0.7369696065947052 l -24.301830528501373 -13.661245020339875" fill="#b0ff20" stroke="none" /><path d="M 118.30583269289576 110.29060199501025 l 32.258548203316366 18.134104362595345 a58.0062112789081,58.0062112789081 0 0,0 -0.49677625282261656,0.8661712701911972 l -31.94161995434137 -18.686695478644857" fill="#4cff2c" stroke="none" /><path d="M 118.12598468904814 110.60418214915192 l 31.85024918853234 18.633241155452595 a57.90035297024755,57.90035297024755 0 0,0 -0.5106786987577524,0.8559268733018639 l -31.52478961407636 -19.178730122640562" fill="#4dff2c" stroke="none" /><path d="M 117.94076556474637 110.91462005526583 l 24.75711923122203 15.061483808844548 a49.978668829900215,49.978668829900215 0 0,0 -0.45346207973431374,0.7311252580012094 l -24.494192511819755 -15.485405398211032" fill="#a3ff21" stroke="none" /><path d="M 117.75023020441432 111.22182372390056 l 27.671842707114944 17.494338800041092 a53.73809354342329,53.73809354342329 0 0,0 -0.5010313031995911,0.7776117090117509 l -27.366606540538303 -17.968072108974297" fill="#79ff26" stroke="none" /><path d="M 117.35343817320211 111.8261652097733 l 15.294409271757969 10.422961088656864 a39.5082974048855,39.5082974048855 0 0,0 -0.387819266029125,0.5586825776426022 l -15.112729098566708 -10.684684928486487" fill="#ffdb14" stroke="none" /><path d="M 117.14729908036423 112.12312394758627 l 23.500518478613962 16.61484394793252 a49.78067768795284,49.78067768795284 0 0,0 -0.5006992893777427,0.6954275205482877 l -23.211039396860617 -17.01690507393194" fill="#a6ff21" stroke="none" /><path d="M 116.93607887273984 112.41649034213515 l 47.56871260911111 34.87445146760111 a79.98313135511094,79.98313135511094 0 0,0 -0.8235929052375836,1.1033372861947766 l -46.96135843717843 -35.68810163330521" fill="#48f8ff" stroke="none" /><path d="M 116.498646956653 112.99209946851258 l 21.0085455858789 16.54348472681607 a47.74034170575141,47.74034170575141 0 0,0 -0.5139636253357626,0.641248648126472 l -20.72066404848828 -16.902661208520794" fill="#bdff1f" stroke="none" /><path d="M 116.27256486870786 113.27417163493432 l 23.165276409014684 18.896827728447295 a50.89515227097308,50.89515227097308 0 0,0 -0.5596140116854711,0.6740911272215087 l -22.836566397435668 -19.292780112782577" fill="#99ff23" stroke="none" /><path d="M 116.0416608686014 113.55231037782055 l 19.95726266852164 16.860287733976847 a47.125880572582766,47.125880572582766 0 0,0 -0.5288365119048594,0.6151563374820848 l -19.664083647046002 -17.20132117062046" fill="#c5ff1e" stroke="none" /><path d="M 115.80600337817218 113.82643327865902 l 17.675189209888263 15.461519174144001 a44.48341731473026,44.48341731473026 0 0,0 -0.5091045566188237,0.5719843663415978 l -17.4064258036211 -15.763477710226464" fill="#e4ff1a" stroke="none" /><path d="M 115.56566222782051 114.09645910891815 l 21.20036252761392 19.199314432675763 a49.601906334840834,49.601906334840834 0 0,0 -0.5785792917609055,0.6279335504085313 l -20.86673682785729 -19.56139923788563" fill="#a8ff21" stroke="none" /><path d="M 115.32070863581623 114.36230785411682 l 17.074826146862073 16.006694958186 a44.40435795808084,44.40435795808084 0 0,0 -0.5275522095602148,0.5531363825979458 l -16.796767385922895 -16.298238457366452" fill="#e5ff1a" stroke="none" /><path d="M 115.07121518719521 114.62390073753431 l 24.2620930984145 23.541992914909777 a54.80642826330215,54.80642826330215 0 0,0 -0.6627907745088972,0.6714035553191071 l -23.853261698850066 -23.95613696420955" fill="#6eff28" stroke="none" /><path d="M 114.81725581225074 114.88116024355365 l 8.605148414207875 8.642261029570326 a33.19578840968366,33.19578840968366 0 0,0 -0.408387310312611,0.3996929372758376 l -8.45511115151947 -8.789104069768737" fill="#ff870c" stroke="none" /><path d="M 114.55890576462653 115.13401014063108 l 19.808459409950405 20.5909311061578 a49.572040669405986,49.572040669405986 0 0,0 -0.6200380333321178,0.5862846613382368 l -19.45108554222748 -20.92885040424196" fill="#a8ff21" stroke="none" /><path d="M 113.75828350139079 115.86535959552629 l 12.465986389490515 14.375147652845692 a40.027498172489146,40.027498172489146 0 0,0 -0.5244260301667102,0.4469272400878226 l -12.21669488274676 -14.587599283156463" fill="#ffe215" stroke="none" /><path d="M 113.48314897796784 116.09983520530334 l 8.55461807365041 10.214820102865856 a34.323814773552606,34.323814773552606 0 0,0 -0.4562286669332176,0.3754451329965298 l -8.3775192781725 -10.360560354719563" fill="#ff970d" stroke="none" /><path d="M 113.20401910651253 116.32954008644616 l 16.518513428858387 20.428607761707976 a47.2714541086155,47.2714541086155 0 0,0 -0.6371348044666288,0.5061784221281274 l -16.16442113167441 -20.70992009784123" fill="#c3ff1e" stroke="none" /><path d="M 112.92097659922987 116.55440617244103 l 35.184176201558905 45.07810529724628 a78.18358009229544,78.18358009229544 0 0,0 -1.0680296681908363,0.8189196064473202 l -34.40301780487458 -45.677064245520974" fill="#46fff4" stroke="none" /><path d="M 112.63410532772338 116.77436683061366 l 17.04148696616716 22.626070172324628 a49.3258067751124,49.3258067751124 0 0,0 -0.6826105140513081,0.5049789393825553 l -16.64949148169729 -22.91605906044695" fill="#abff21" stroke="none" /><path d="M 112.34349029814194 116.9893568818739 l 19.049290873369856 26.219099555902794 a53.4085893599304,53.4085893599304 0 0,0 -0.7484137288937309,0.5339733239487221 l -18.59514981662724 -26.543117141695735" fill="#7dff26" stroke="none" /><path d="M 112.04921762599082 117.19931262002967 l 6.077620830025474 8.675326804300843 a31.59239208653929,31.59239208653929 0 0,0 -0.44807507053667767,0.3081901192817565 l -5.927388874865913 -8.778657712947693" fill="#ff710a" stroke="none" /><path d="M 111.7513745106137 117.40417183066458 l 12.395777523039632 18.358553868810773 a43.15156429137052,43.15156429137052 0 0,0 -0.6191741957113823,0.4103548943805663 l -12.077928628588285 -18.569206784282656" fill="#f5ff19" stroke="none" /><path d="M 111.45004920935366 117.60387380957326 l 14.836283109613234 22.810037833844152 a48.21053330035993,48.21053330035993 0 0,0 -0.699553658554387,0.44648824312520397 l -14.441447649011916 -23.062040505793167" fill="#b8ff1f" stroke="none" /><path d="M 111.1453310114006 117.79835938074945 l 20.633067900611923 32.94965014918362 a59.8767660170552,59.8767660170552 0 0,0 -0.878251874954252,0.5394940333069277 l -20.062836825725363 -33.299932649318926" fill="#39ff2e" stroke="none" /><line stroke="#e1ed5e" stroke-width="0.3" x1="143.8653032363475" x2="146.44561519142675" y1="172.8068346515853" y2="177.08958963109032" /><path d="M 144.38136562736335 173.6633856474863 a86.0,86.0 0 0,1 -40.68145358897372,12.25698825130547" fill="none" id="id54" stroke="none" /><text fill="#e1ed5e" style="font-size:6.75px; font-family:Arial;" text-anchor="middle"><textPath startOffset="21.466115282336833" xlink:href="#id54">June</textPath></text><path d="M 110.5260780823613 118.17145234162733 l 27.49139123497254 47.45912976538265 a75.8465640685153,75.8465640685153 0 0,0 -1.1353552828441935,0.6446843605516603 l -26.670387185207147 -47.92531729172894" fill="#43ffdc" stroke="none" /><path d="M 109.57404056367764 118.69057910512821 l 10.127140724850804 19.770349161115448 a43.21318719169651,43.21318719169651 0 0,0 -0.6649605989319102,0.33342504866005135 l -9.785326218236134 -19.9417420506848" fill="#f4ff19" stroke="none" /><path d="M 109.2508944713604 118.85261126421891 l 12.272172779714667 25.009744030651152 a48.85845511175845,48.85845511175845 0 0,0 -0.7582072181905406,0.3639855409082295 l -11.839852893523894 -25.217283848058944" fill="#b0ff20" stroke="none" /><path d="M 108.92500713936063 119.00905698771935 l 11.719018850493644 24.959923694262685 a48.574139943824925,48.574139943824925 0 0,0 -0.7599123595056501,0.3488384929014713 l -11.287638495220575 -25.15794925749823" fill="#b4ff20" stroke="none" /><path d="M 108.59647513512805 119.15986991738527 l 11.821658075795435 26.34817496470009 a49.8786759327963,49.8786759327963 0 0,0 -0.7863713512759396,0.34472209107559665 l -11.366366049861742 -26.547761609070143" fill="#a4ff21" stroke="none" /><path d="M 108.2653958097858 119.30500536409082 l 11.465791733033532 26.77998440772756 a50.1312880755972,50.1312880755972 0 0,0 -0.7962007307317269,0.33281197001965307 l -11.003119542804344 -26.97338142076719" fill="#a2ff22" stroke="none" /><path d="M 107.93186726928326 119.44442032107085 l 10.367048869701431 25.414098454747883 a48.44726038303999,48.44726038303999 0 0,0 -0.7748768421988093,0.3083394871463875 l -9.928050951460756 -25.588784786300337" fill="#b5ff20" stroke="none" /><path d="M 107.59598834532513 119.57807347666477 l 10.648709777434084 27.44622726844897 a50.4396061657654,50.4396061657654 0 0,0 -0.8121491856080446,0.3070853291535941 l -10.174690371065765 -27.625460847709196" fill="#9eff22" stroke="none" /><path d="M 107.2578585660854 119.70592522655815 l 9.439828509231582 25.63022592141547 a48.31334551215758,48.31334551215758 0 0,0 -0.7828612589678292,0.2807061945963978 l -8.997247689634017 -25.788919657051824" fill="#b7ff1f" stroke="none" /><path d="M 106.91757812671514 119.82793768551818 l 9.018572277472531 25.850042580578847 a48.37808151316917,48.37808151316917 0 0,0 -0.7886324554470383,0.26754694697802855 l -8.572270089088265 -26.001452514454996" fill="#b6ff1f" stroke="none" /><path d="M 106.57524785965236 119.94407469862006 l 0.9564461088308126 2.901097121642916 a24.054693711045743,24.054693711045743 0 0,0 -0.3943579807184878,0.1262609720114872 l -0.9063667830213844 -2.91713094031411" fill="#ff0300" stroke="none" /><path d="M 106.2309692047433 120.05430185196036 l 9.251457394231473 29.775707928909885 a52.17983718021996,52.17983718021996 0 0,0 -0.860035594176545,0.25912166954583693 l -8.737546825614682 -29.930544967561445" fill="#8aff24" stroke="none" /><path d="M 105.88484417918355 120.15858648285463 l 5.630267122424387 19.28653049309991 a41.09154464771501,41.09154464771501 0 0,0 -0.680688935113241,0.19236949228099917 l -5.29744701920654 -19.380588778719428" fill="#ffef16" stroke="none" /><path d="M 105.53697534728816 120.25689768951611 l 3.669881487210962 13.426177498783947 a34.91870225125267,34.91870225125267 0 0,0 -0.5811628648301185,0.15349039470871612 l -3.438228179569346 -13.487359242796247" fill="#ff9f0e" stroke="none" /><path d="M 105.18746579009965 120.34920634021253 l 7.04168128483714 27.622856948886227 a49.50627126328271,49.50627126328271 0 0,0 -0.8275720910279503,0.20339708524573008 l -6.565155909065979 -27.739975292445987" fill="#a9ff21" stroke="none" /><path d="M 104.83641907484287 120.43548508189849 l 4.441795984274402 18.76807079138925 a40.286524642778815,40.286524642778815 0 0,0 -0.6761994375032123,0.15390079045937272 l -4.118076397378328 -18.841748315426305" fill="#ffe515" stroke="none" /><path d="M 104.48393922423573 120.51570834832081 l 6.152979163541198 28.15219379206062 a49.81675151526814,49.81675151526814 0 0,0 -0.8393139071406113,0.17588638973757856 l -5.667473794971208 -28.253936162524738" fill="#a5ff21" stroke="none" /><path d="M 103.7750983002368 120.6578951692458 l 4.849406918301831 26.53667051398646 a47.97613073491364,47.97613073491364 0 0,0 -0.8136546812395661,0.1414642958175189 l -4.391903265590215 -26.616213388324987" fill="#bbff1f" stroke="none" /><path d="M 103.41894727170886 120.7198165907248 l 4.405026422342604 26.695743541729467 a48.05673633362544,48.05673633362544 0 0,0 -0.8173401300186918,0.12765171886016521 l -3.944850428715395 -26.767613567936735" fill="#baff1f" stroke="none" /><path d="M 103.06178313531738 120.77559828337769 l 4.0619879919240525 27.56244548436003 a48.86015340095696,48.86015340095696 0 0,0 -0.8331154268146779,0.11546220679145625 l -3.5869439739225437 -27.628282256644088" fill="#b0ff20" stroke="none" /><path d="M 102.70371172650421 120.8252237178851 l 5.862230607802875 45.1535800568413 a66.53253276118777,66.53253276118777 0 0,0 -1.1369857849012341,0.13767314446193726 l -5.0841173998502605 -45.24779873002859" fill="#37ff74" stroke="none" /><path d="M 102.34483914955558 120.86867818915974 l 3.491498146988011 31.073752432592187 a52.269292437668774,52.269292437668774 0 0,0 -0.8949682742416653,0.09276712092964602 l -2.956097276140743 -31.12924892197759" fill="#89ff24" stroke="none" /><path d="M 101.98527174616119 120.90594882070398 l 2.765675570249273 29.124008860804125 a50.255031250779254,50.255031250779254 0 0,0 -0.8618873841449783,0.07436727013700488 l -2.263943868362753 -29.167300383219793" fill="#a0ff22" stroke="none" /><path d="M 100.90346689309514 120.98055641714683 l 1.1595406712166512 26.927172048434247 a47.95212661543026,47.95212661543026 0 0,0 -0.82495844952739,0.028413237017774852 l -0.6958618700146088 -26.943142083878115" fill="#bbff1f" stroke="none" /><line stroke="#e1ed5e" stroke-width="0.3" x1="102.19456741930631" x2="102.32365962044197" y1="184.97166512339345" y2="189.96999836594603" /><path d="M 102.22038585953345 185.97133177190398 a86.0,86.0 0 0,1 -42.740103519485714,-10.115201625700543" fill="none" id="id55" stroke="none" /><text fill="#e1ed5e" style="font-size:6.75px; font-family:Arial;" text-anchor="middle"><textPath startOffset="22.20632615414155" xlink:href="#id55">July</textPath></text><path d="M 100.54218724476979 120.99299961872073 l 0.7629245986842068 29.539750268545014 a50.549600671942805,50.549600671942805 0 0,0 -0.8700315877461338,0.01497838279574144 l -0.2543333210454052 -29.548506128619916" fill="#9dff22" stroke="none" /><path d="M 100.18074693466247 120.99922214144158 l 0.24125385972102373 28.028931180618763 a49.0299694354577,49.0299694354577 0 0,0 -0.8440015887669391,0.0 l 0.24125385972100444 -28.028931180618763" fill="#aeff20" stroke="none" /><path d="M 99.81925306533755 120.99922214144158 l -0.2536025956380066 29.46361027584881 a50.464701674437805,50.464701674437805 0 0,0 -0.8685703534610857,-0.0149532263223628 l 0.7607326389917601 -29.45487957224729" fill="#9eff22" stroke="none" /><path d="M 99.09653310690486 120.98055641714683 l -1.6378118422430175 38.03371658604029 a59.068964064941774,59.068964064941774 0 0,0 -1.0154571816142306,-0.0524875373242079 l 2.292257092270737 -37.99988924195389" fill="#41ff2d" stroke="none" /><path d="M 98.73552117531835 120.96189622390904 l -3.307632749558269 54.83227800236139 a75.93195013226998,75.93195013226998 0 0,0 -1.3039947078273237,-0.08993110970935402 l 4.250990218164523 -54.76721854813575" fill="#43ffdc" stroke="none" /><path d="M 98.37488393609728 120.93702456842531 l -1.75646514146709 22.62924761949835 a43.69731300435716,43.69731300435716 0 0,0 -0.7494207418069361,-0.0646631750011278 l 2.1457302010155677 -22.59566019221856" fill="#eeff19" stroke="none" /><path d="M 98.01472825383883 120.90594882070398 l -2.7107236074190384 28.54533597899481 a49.67375504933936,49.67375504933936 0 0,0 -0.8505268152352738,-0.08816058199346295 l 3.2016830192599057 -28.49444602854559" fill="#a7ff21" stroke="none" /><path d="M 97.65516085044442 120.86867818915974 l -3.5152976294805973 31.2855638659268 a52.482436751827464,52.482436751827464 0 0,0 -0.8968813010319425,-0.10859983525028552 l 4.053306353563929 -31.22041850195117" fill="#87ff25" stroke="none" /><path d="M 95.86986931433489 120.58985236759428 l -5.410278432844491 26.97174561242932 a48.509019868081495,48.509019868081495 0 0,0 -0.8172812108104169,-0.17126922400169672 l 5.8737511050842945 -26.87462040770108" fill="#b4ff20" stroke="none" /><path d="M 93.76903079525671 120.05430185196036 l -10.070399555450267 32.411463741645534 a54.93988699277615,54.93988699277615 0 0,0 -0.9006966854632721,-0.28837463562148236 l 10.62681758600448 -32.233316259364344" fill="#6cff28" stroke="none" /><path d="M 93.42475214034765 119.94407469862007 l -5.822521183965634 17.66090038063571 a39.59594458994937,39.59594458994937 0 0,0 -0.6454709660038179,-0.21897879693448305 l 6.125661882906678 -17.558058596803104" fill="#ffdc14" stroke="none" /><path d="M 93.08242187328487 119.8279376855182 l -9.082408517770304 26.033017166700855 a48.57187203084709,48.57187203084709 0 0,0 -0.7870503788425399,-0.28220826394172155 l 9.52917845724257 -25.872821361719176" fill="#b4ff20" stroke="none" /><path d="M 92.7421414339146 119.70592522655815 l -9.0538080187149 24.582135654461734 a47.19642786667879,47.19642786667879 0 0,0 -0.7599294159744442,-0.2873402805462354 l 9.475607655449627 -24.422647123808865" fill="#c4ff1e" stroke="none" /><path d="M 92.06813273071674 119.44442032107085 l -13.216580580230389 32.39952703249461 a55.99153260666174,55.99153260666174 0 0,0 -0.8892749595619115,-0.371717005219215 l 13.772326999289762 -32.16722498425542" fill="#61ff29" stroke="none" /><path d="M 91.40352486487194 119.15986991738527 l -12.171183631200195 27.127199398446347 a50.7325185308521,50.7325185308521 0 0,0 -0.7936788567955891,-0.36433903566517456 l 12.636330483763205 -26.913673292447097" fill="#9bff22" stroke="none" /><path d="M 91.07499286063937 119.00905698771935 l -9.53941731280839 20.317667481642115 a43.445669839915354,43.445669839915354 0 0,0 -0.674209211003446,-0.32366139290793805 l 9.887739191812077 -20.150451812234614" fill="#f1ff19" stroke="none" /><path d="M 90.7491055286396 118.85261126421891 l -8.508411992462236 17.339489091168968 a40.31452708652849,40.31452708652849 0 0,0 -0.6203562805537709,-0.3110595174547921 l 8.805622180698768 -17.190461732804874" fill="#ffe615" stroke="none" /><path d="M 90.42595943632237 118.69057910512821 l -13.272078523790395 25.90994177312013 a50.111392117659605,50.111392117659605 0 0,0 -0.7643397515404015,-0.39986643307835046 l 13.716109177857291 -25.677645921097064" fill="#a2ff22" stroke="none" /><path d="M 90.10565033884886 118.52300852407294 l -9.894493180900959 18.5232772044451 a42.00030460968629,42.00030460968629 0 0,0 -0.6347589798896576,-0.3461212067449339 l 10.211874972659258 -18.350215345940402" fill="#fffb17" stroke="none" /><line stroke="#e1ed5e" stroke-width="0.3" x1="58.666819895761336" x2="56.23545636021788" y1="174.27360380694188" y2="178.64263932499728" /><path d="M 58.180547188652646 175.14741091055294 a86.0,86.0 0 0,1 -31.652253787137756,-30.449443065178592" fill="none" id="id56" stroke="none" /><text fill="#e1ed5e" style="font-size:6.75px; font-family:Arial;" text-anchor="middle"><textPath startOffset="22.20632615414155" xlink:href="#id56">August</textPath></text><path d="M 89.7882731507175 118.34994917583269 l -15.274327220110989 27.44718227591135 a52.41103129338681,52.41103129338681 0 0,0 -0.7845463006670161,-0.4454858649194267 l 15.744522287699212 -27.18019324519729" fill="#88ff25" stroke="none" /><path d="M 89.4739219176387 118.17145234162733 l -8.50028927973947 14.674278523134541 a37.95846007200481,37.95846007200481 0 0,0 -0.5625663019378195,-0.3323740872176642 l 8.75162345270567 -14.525785863623128" fill="#ffc712" stroke="none" /><path d="M 89.1626897886671 117.98757091392108 l -13.695595127364712 22.73170037194363 a47.53864215992443,47.53864215992443 0 0,0 -0.6972805043919811,-0.4283266365703049 l 14.084854831689002 -22.49258526854495" fill="#c0ff1e" stroke="none" /><path d="M 88.8546689885994 117.79835938074946 l -6.355142046249559 10.148743176775943 a32.97434000252896,32.97434000252896 0 0,0 -0.47847054591727,-0.30538254045475843 l 6.528894394213752 -10.037846207497381" fill="#ff840c" stroke="none" /><path d="M 88.54995079064634 117.60387380957326 l -16.541790292377733 25.432169204439525 a51.33852429700964,51.33852429700964 0 0,0 -0.7366474428591534,-0.48820975696972646 l 16.97711243397685 -25.14366142637848" fill="#94ff23" stroke="none" /><path d="M 88.24862548938628 117.40417183066458 l -14.55176286235501 21.55163900757032 a47.00436398597053,47.00436398597053 0 0,0 -0.6666631526619562,-0.45853699536006626 l 14.920582899639857 -21.297961222845153" fill="#c6ff1e" stroke="none" /><path d="M 87.95078237400918 117.19931262002967 l -13.265346560401378 18.935241240330512 a44.11953243898038,44.11953243898038 0 0,0 -0.618246319279832,-0.4411023333482875 l 13.589320207530097 -18.704094645138007" fill="#e9ff1a" stroke="none" /><path d="M 87.65650970185807 116.9893568818739 l -17.12229925126789 23.566823126342243 a50.13019539787312,50.13019539787312 0 0,0 -0.6937422961179072,-0.5132139656321073 l 17.525426517804362 -23.26859921197037" fill="#a2ff22" stroke="none" /><path d="M 87.36589467227662 116.77436683061367 l -6.364290465322798 8.449901288035159 a31.578517141099546,31.578517141099546 0 0,0 -0.4313794935503548,-0.33076340068914456 l 6.50879868736664 -8.339098545518647" fill="#ff710a" stroke="none" /><path d="M 87.07902340077011 116.55440617244103 l -16.24799977056924 20.817001379583292 a47.40729147379547,47.40729147379547 0 0,0 -0.6389656496296229,-0.5076329562538251 l 16.60392291291622 -20.534234509324335" fill="#c1ff1e" stroke="none" /><path d="M 86.79598089348748 116.32954008644616 l -14.028519909243508 17.349208325403954 a43.31130655883486,43.31130655883486 0 0,0 -0.5756894967775786,-0.4737532631065414 l 14.325079534565775 -17.10515994344023" fill="#f3ff19" stroke="none" /><path d="M 86.24171649860922 115.8653595955263 l -18.83916356368743 21.72437458398236 a49.75521752386072,49.75521752386072 0 0,0 -0.6422158186970763,-0.5666807908473032 l 19.210321735291092 -21.396870651362768" fill="#a6ff21" stroke="none" /><path d="M 85.97065885151581 115.62618273729859 l -15.818121102353565 17.618564427938377 a44.67755831394231,44.67755831394231 0 0,0 -0.5678314496529561,-0.5187005661042474 l 16.119052101473375 -17.343671095247554" fill="#e2ff1b" stroke="none" /><path d="M 85.70375840098266 115.38237550388516 l -18.626759273003582 20.041897275820414 a48.361173356217066,48.361173356217066 0 0,0 -0.6048927260710386,-0.5719638280004697 l 18.968987833465437 -19.718298811074014" fill="#b6ff1f" stroke="none" /><path d="M 85.44109423537348 115.13401014063109 l -2.166764895327589 2.252356216078057 a24.125376559029238,24.125376559029238 0 0,0 -0.29679962776081437,-0.29048090380499014 l 2.2052144754641976 -2.214725209350497" fill="#ff0500" stroke="none" /><path d="M 85.18274418774928 114.88116024355367 l -20.261166865505405 20.348550005978925 a49.715472660182336,49.715472660182336 0 0,0 -0.6012243029451729,-0.609037044670299 l 20.60843179350611 -19.99677246732796" fill="#a6ff21" stroke="none" /><path d="M 84.9287848128048 114.62390073753433 l -20.588344333619048 19.97728120429383 a49.68748310178317,49.68748310178317 0 0,0 -0.5903191196363646,-0.6189472368739886 l 20.92917000463437 -19.61992685083734" fill="#a7ff21" stroke="none" /><path d="M 84.67929136418377 114.36230785411682 l -11.683540746542205 10.952666290883817 a37.014556605025774,37.014556605025774 0 0,0 -0.4317546950879276,-0.46858444893003437 l 11.870341849625861 -10.749930587152438" fill="#ffbb11" stroke="none" /><path d="M 84.19399662182784 113.82643327865904 l -22.0380912416171 19.2780041134254 a50.28000867778367,50.28000867778367 0 0,0 -0.5642314601793317,-0.656328658711309 l 22.36666521136721 -18.89579835555256" fill="#a0ff22" stroke="none" /><path d="M 83.95833913139862 113.55231037782056 l -15.195297520236263 12.837285987053992 a40.89203303440629,40.89203303440629 0 0,0 -0.44962542857762205,-0.5416027934405865 l 15.41401894870742 -12.573821936499645" fill="#ffed16" stroke="none" /><path d="M 83.50135304334701 112.99209946851258 l -17.155648245141712 13.509464687212798 a42.836252032940166,42.836252032940166 0 0,0 -0.45119461550547724,-0.583229862187072 l 17.38564967786526 -13.212156830912475" fill="#f9ff18" stroke="none" /><path d="M 83.28015986056508 112.70617746262583 l -22.612519198165128 17.18429598685327 a49.40116288202242,49.40116288202242 0 0,0 -0.5086878516856338,-0.6814705059135586 l 22.904968316545848 -16.792512601430406" fill="#aaff21" stroke="none" /><path d="M 83.06392112726016 112.41649034213515 l -13.091226623166538 9.597681385086377 a37.23255070741311,37.23255070741311 0 0,0 -0.37448890908597715,-0.5201323409948314 l 13.254495324628122 -9.370915438640408" fill="#ffbe11" stroke="none" /><path d="M 82.85270091963577 112.12312394758628 l -17.92466738050047 12.672722587658287 a42.95202948443087,42.95202948443087 0 0,0 -0.42162344730789797,-0.6073800220096577 l 18.1401517349705 -12.362301303461615" fill="#f7ff18" stroke="none" /><path d="M 82.6465618267979 111.8261652097733 l -23.591487303411697 16.077322753554068 a49.54888054038166,49.54888054038166 0 0,0 -0.4742462437614955,-0.7089337878481061 l 23.86473665258392 -15.668852051500142" fill="#a8ff21" stroke="none" /><path d="M 82.24976979558568 111.22182372390057 l -12.142703725518794 7.676704987489973 a35.365829361045655,35.365829361045655 0 0,0 -0.3208781447975438,-0.5173577392392038 l 12.273046509984294 -7.466550916885505" fill="#ffa50f" stroke="none" /><path d="M 82.05923443525364 110.91462005526583 l -2.414236183248054 1.468748396980693 a23.825908385305066,23.825908385305066 0 0,0 -0.21014351842001708,-0.3522126243045453 l 2.439160577366303 -1.4269736787900364" fill="#ff0000" stroke="none" /><line stroke="#e1ed5e" stroke-width="0.3" x1="26.63291911575756" x2="22.317208475507996" y1="142.92168965132927" y2="145.44649492493687" /><path d="M 25.769776987707644 143.4266507060508 a86.0,86.0 0 0,1 -11.730757126820373,-40.83630448921669" fill="none" id="id57" stroke="none" /><text fill="#e1ed5e" style="font-size:6.75px; font-family:Arial;" text-anchor="middle"><textPath startOffset="21.46611528233685" xlink:href="#id57">September</textPath></text><path d="M 81.51974371655577 109.97397251340807 l -24.075265884337945 12.993653145302835 a48.35787728355409,48.35787728355409 0 0,0 -0.3890448606964392,-0.7359262610538855 l 24.29536325325927 -12.577311869162822" fill="#b6ff1f" stroke="none" /><path d="M 81.02952815118164 109.00673069616217 l -13.297327776521119 6.313256265641201 a35.71992291664253,35.71992291664253 0 0,0 -0.2589275691637031,-0.5577069487006778 l 13.404029962524648 -6.0834292496616955" fill="#ffa90f" stroke="none" /><path d="M 80.58989483394504 108.01547362559985 l -24.311583158374535 10.039556815143987 a47.30296136770657,47.30296136770657 0 0,0 -0.30430982946004465,-0.755272040452351 l 24.480795602091966 -9.619585406848831" fill="#c2ff1e" stroke="none" /><path d="M 80.45479744820244 107.68017299344265 l -26.201189778797126 10.295604233412067 a49.151408709966816,49.151408709966816 0 0,0 -0.30264563391600624,-0.7901122494017265 l 26.37452969230664 -9.843068417177182" fill="#adff20" stroke="none" /><path d="M 80.32549172779594 107.34259656027581 l -26.36043678750773 9.837808894912682 a49.13636635176998,49.13636635176998 0 0,0 -0.2889118641334678,-0.7949613673870642 l 26.525872912646424 -9.3825997305195" fill="#adff20" stroke="none" /><path d="M 80.20201598880116 107.00284435728193 l -26.562756086655536 9.395645863238986 a49.17548885301825,49.17548885301825 0 0,0 -0.27540420866495274,-0.8004535442328401 l 26.720551126263718 -8.93701961591685" fill="#adff20" stroke="none" /><path d="M 79.97269907076064 106.31721596034903 l -18.25405903049365 5.7578818761459285 a40.140634127123285,40.140634127123285 0 0,0 -0.20218116310839992,-0.6607397391620616 l 18.350466966108183 -5.44281516443182" fill="#ffe315" stroke="none" /><path d="M 79.86692584326677 105.97154293290107 l -21.027526143423614 6.236840641455634 a42.93296689687185,42.93296689687185 0 0,0 -0.20404886745871248,-0.7103208763203223 l 21.13176764776843 -5.873962289630716" fill="#f7ff18" stroke="none" /><path d="M 79.76711848015287 105.62410040840567 l -11.406980225951024 3.1707793121071632 a32.83946955405201,32.83946955405201 0 0,0 -0.14670161003720641,-0.5459312652869237 l 11.459869912330007 -2.9739571136447003" fill="#ff820c" stroke="none" /><path d="M 79.67330655649465 105.27499134158121 l -27.159698140865824 7.048228130719526 a49.05934288050268,49.05934288050268 0 0,0 -0.20508834442987658,-0.8192259888404789 l 27.27699779959076 -6.5796743024816555" fill="#aeff20" stroke="none" /><path d="M 79.58551787078972 104.9243191809786 l -27.609602900349365 6.659904291515439 a49.40148759285552,49.40148759285552 0 0,0 -0.19228807800136719,-0.8283720073833316 l 27.720151544281286 -6.183663626783534" fill="#aaff21" stroke="none" /><path d="M 79.50377843672027 104.57218783832718 l -12.858069790102927 2.868309660742338 a34.17410942102218,34.17410942102218 0 0,0 -0.12313413524179946,-0.5752416863852964 l 12.905537964069168 -2.646554154940878" fill="#ff940d" stroke="none" /><path d="M 79.4281124754447 104.21870165774334 l -39.63071478230449 8.127118231134489 a61.4554521035077,61.4554521035077 0 0,0 -0.20359332961198814,-1.0381180014548637 l 39.76473804489214 -7.443736502611671" fill="#30ff37" stroke="none" /><path d="M 79.35854240842038 103.8639653848113 l -40.1999423770196 7.525204318883832 a61.89821594099973,61.89821594099973 0 0,0 -0.1870315244911226,-1.0489721150699185 l 40.323520343849914 -6.8321134530807" fill="#31ff3d" stroke="none" /><path d="M 79.29508885075956 103.50808413554451 l -27.45362228611665 4.651534899665104 a48.84489456887139,48.84489456887139 0 0,0 -0.1333192221474012,-0.8301789235750162 l 27.529623262625343 -4.178276746396874" fill="#b0ff20" stroke="none" /><path d="M 79.23777060512086 103.15116336523772 l -13.840869248870804 2.1006819301805963 a34.99937591952315,34.99937591952315 0 0,0 -0.08527506108329498,-0.5964135786029281 l 13.874978360970697 -1.8621228795972675" fill="#ffa00e" stroke="none" /><path d="M 79.18660465613746 102.79330883721812 l -22.475024194840444 3.016311498577834 a43.676526356898584,43.676526356898584 0 0,0 -0.0935894174952712,-0.7459997408865511 l 22.523615121582562 -2.6289940034038746" fill="#eeff19" stroke="none" /><path d="M 79.04373962182676 101.35467743843564 l -28.472259415786343 1.8405348452353374 a49.53168632864801,49.53168632864801 0 0,0 -0.047676958447435115,-0.851304120648114 l 28.49972272512131 -1.3501590082517858" fill="#a8ff21" stroke="none" /><path d="M 79.0095281055655 100.63252640178507 l -26.004486572893 0.7836186058580964 a47.01629066641168,47.01629066641168 0 0,0 -0.01741379817080091,-0.8091507747910806 l 26.01412243374881 -0.335878015276887" fill="#c6ff1e" stroke="none" /><line stroke="#e1ed5e" stroke-width="0.3" x1="15.007084014347285" x2="10.007500721073583" y1="101.09737516637583" y2="101.16192664675087" /><path d="M 14.007167355692545 101.11028546245083 a86.0,86.0 0 0,1 10.666146001902534,-42.60595125391555" fill="none" id="id58" stroke="none" /><text fill="#e1ed5e" style="font-size:6.75px; font-family:Arial;" text-anchor="middle"><textPath startOffset="22.20632615414155" xlink:href="#id58">October</textPath></text><path d="M 79.00175016825051 100.2711162175752 l -26.05757210233639 0.33643901011677835 a47.05974395645491,47.05974395645491 0 0,0 -0.003486236725159576,-0.8100786380200152 l 26.059502636351056 0.11214910610691217" fill="#c5ff1e" stroke="none" /><path d="M 79.00019446554 99.90962569577889 l -26.42184933959798 -0.11370849346119129 a47.42209401515897,47.42209401515897 0 0,0 0.01053897977294147,-0.816255597777498 l 26.415977352707323 0.5685003492991613" fill="#c1ff1e" stroke="none" /><path d="M 79.00486145842228 99.54816195383935 l -30.99019705519736 -0.6669424952745089 a51.99737288564897,51.99737288564897 0 0,0 0.026960156356319178,-0.894676337098054 l 30.974125204385395 1.2002889797975573" fill="#8dff24" stroke="none" /><path d="M 79.01574976396665 99.18683210126434 l -28.905125966039513 -1.120112478649932 a49.92682075647856,49.92682075647856 0 0,0 0.04066989311981933,-0.8584771646089631 l 28.881562464686194 1.617500749881904" fill="#a4ff21" stroke="none" /><path d="M 79.03285615573316 98.82574320788736 l -31.996309964244883 -1.7919409804750068 a53.046449160640904,53.046449160640904 0 0,0 0.058905325892408975,-0.9112393194411732 l 31.960724047348062 2.342439364169192" fill="#81ff25" stroke="none" /><path d="M 79.05617556472873 98.46500227214037 l -38.58070780292979 -2.8276258235329594 a59.68418904892486,59.68418904892486 0 0,0 0.0839145947373441,-1.0239706036698832 l 38.52631872437294 3.4913103444106213" fill="#3bff2e" stroke="none" /><path d="M 79.08570108090925 98.10471618934814 l -25.98275153587358 -2.3545942674262825 a47.08922175035387,47.08922175035387 0 0,0 0.08010296906235977,-0.8066259668422593 l 25.938371441128993 2.801495764972972" fill="#c5ff1e" stroke="none" /><path d="M 79.16333360222342 97.38593545837743 l -29.864728602305224 -3.746680327559387 a51.09883100663991,51.09883100663991 0 0,0 0.11700172563175533,-0.8717987567436541 l 29.795810877615633 4.260197426367701" fill="#97ff23" stroke="none" /><path d="M 79.21141760316559 97.0276538004421 l -22.392531594710178 -3.2016784460566323 a43.62026118531873,43.62026118531873 0 0,0 0.1126734331400904,-0.7423771459676995 l 22.334102268130785 3.586654704416424" fill="#efff19" stroke="none" /><path d="M 79.26566170972629 96.67025291283419 l -15.579107750552943 -2.5018637164504933 a36.77871732299651,36.77871732299651 0 0,0 0.10576182260998504,-0.6242122638776574 l 15.533734066422735 2.769661768643979" fill="#ffb811" stroke="none" /><path d="M 79.32604984820605 96.31383870115002 l -26.025643725019883 -4.640367224088604 a47.43609538634748,47.43609538634748 0 0,0 0.15024654976979313,-0.802623076683132 l 25.94191145134023 5.087668378234309" fill="#c1ff1e" stroke="none" /><path d="M 79.3925641242962 95.95851677861259 l -26.450348434054284 -5.187381877146337 a47.954217907819626,47.954217907819626 0 0,0 0.16583186039579223,-0.8086550452763733 l 26.357137277743497 5.641912578586113" fill="#bbff1f" stroke="none" /><path d="M 79.46518482838121 95.60439243477599 l -29.046191753067863 -6.217521762123919 a50.704188799199216,50.704188799199216 0 0,0 0.1900335362383521,-0.8518830811246629 l 28.934863829827474 6.716583012798542" fill="#9bff22" stroke="none" /><path d="M 79.54389044137918 95.25157060432595 l -29.16908720867582 -6.77095274395834 a50.94463974817951,50.94463974817951 0 0,0 0.20563973586546513,-0.8525094654905709 l 29.04821467254954 7.272047441108308" fill="#98ff23" stroke="none" /><path d="M 79.62865764111835 94.90015583598534 l -27.74485745694908 -6.94575972906127 a49.60106105584673,49.60106105584673 0 0,0 0.21447420414265375,-0.8264565980957056 l 27.621186920936122 7.42231275270584" fill="#a8ff21" stroke="none" /><path d="M 79.71946130924805 94.55025226153421 l -30.227277553997965 -8.122616465064432 a52.299603936231605,52.299603936231605 0 0,0 0.24110921691270723,-0.8673981374597927 l 30.082981566518896 8.641725905943167" fill="#89ff24" stroke="none" /><path d="M 79.81627453868168 94.20196356495316 l -20.45451539841046 -5.875824350093216 a42.281741281600034,42.281741281600034 0 0,0 0.20696731731414197,-0.6977909050184902 l 20.350342183984612 6.227044641858246" fill="#fffe18" stroke="none" /><path d="M 80.02781315780177 93.51064311812611 l -27.17135099080409 -8.828507110169737 a49.56964914834951,49.56964914834951 0 0,0 0.270656672292072,-0.8092290003218009 l 27.015357024740247 9.29490921341386" fill="#a8ff21" stroke="none" /><path d="M 80.14247586403 93.16781622104843 l -24.794773079641317 -8.530894651194416 a47.22130690146247,47.22130690146247 0 0,0 0.27106586033837043,-0.7663396892978982 l 24.64425413849314 8.956431966918926" fill="#c3ff1e" stroke="none" /><path d="M 80.2630227832202 92.82701384747504 l -12.521816491657875 -4.550788872713459 a34.32312154169464,34.32312154169464 0 0,0 0.20658500338910213,-0.5535451014810369 l 12.441626899767146 4.765657111223837" fill="#ff970d" stroke="none" /><path d="M 80.38941819471856 92.48833698450439 l -26.156857527177408 -10.019157067312054 a49.01008218546541,49.01008218546541 0 0,0 0.30854518979747386,-0.7852138534019169 l 25.980518787498244 10.467919925609735" fill="#aeff20" stroke="none" /><path d="M 80.52162464483688 92.15188598940014 l -21.31519192659877 -8.588193488807718 a43.980306226613706,43.980306226613706 0 0,0 0.28896802206554884,-0.6997589861696292 l 21.16420221764702 8.953827045430659" fill="#eaff1a" stroke="none" /><path d="M 80.803312248108 91.48605970444005 l -29.017478878372636 -12.869568224017552 a52.743343660198185,52.743343660198185 0 0,0 0.37522539706853836,-0.8267594244293491 l 28.791651164340745 13.367149657288971" fill="#84ff25" stroke="none" /><path d="M 80.95270993114464 91.15688171328213 l -23.541917690177318 -10.929846822190216 a46.95541253934572,46.95541253934572 0 0,0 0.34666914138122995,-0.7301736234024288 l 23.350290354954335 11.333462861233176" fill="#c7ff1e" stroke="none" /><path d="M 81.10775173730289 90.83032412892265 l -25.826045828644066 -12.535113131445081 a49.70738066005588,49.70738066005588 0 0,0 0.38023776120719793,-0.7665361241710124 l 25.606448054483455 12.977808844115055" fill="#a6ff21" stroke="none" /><path d="M 81.26839172434947 90.50648371742162 l -12.67956002664222 -6.426229280340715 a35.21505065881693,35.21505065881693 0 0,0 0.2786861538230517,-0.5383329451649703 l 12.567064439659053 6.643534947766021" fill="#ffa30f" stroke="none" /><path d="M 81.43458229118936 90.18545643968196 l -11.61150298148846 -6.138380703306141 a34.13418132765939,34.13418132765939 0 0,0 0.2790744035127232,-0.5170824856526703 l 11.504120478757265 6.337344172291284" fill="#ff940d" stroke="none" /><path d="M 81.6062741919709 89.86733742301443 l -24.2087681896495 -13.336030015360116 a48.638996975845046,48.638996975845046 0 0,0 0.41028698330816776,-0.7298547622533771 l 23.975623565048902 13.750768287548278" fill="#b3ff20" stroke="none" /><line stroke="#e1ed5e" stroke-width="0.3" x1="26.266209847984243" x2="21.928928074336255" y1="57.711370442889674" y2="55.22380399835377" /><path d="M 25.398753493254645 57.213857153982495 a86.0,86.0 0 0,1 29.58750427330803,-30.492523968695096" fill="none" id="id59" stroke="none" /><text fill="#e1ed5e" style="font-size:6.75px; font-family:Arial;" text-anchor="middle"><textPath startOffset="21.46611528233685" xlink:href="#id59">November</textPath></text><line stroke="#e1ed5e" stroke-width="0.3" x1="56.762969772571076" x2="54.21961505331055" y1="26.818313649435495" y2="22.513508569990535" /><path d="M 56.25429882871897 25.957352633546506 a86.0,86.0 0 0,1 42.265352541879196,-11.944610805530505" fill="none" id="id60" stroke="none" /><text fill="#e1ed5e" style="font-size:6.75px; font-family:Arial;" text-anchor="middle"><textPath startOffset="22.20632615414155" xlink:href="#id60">December</textPath></text></svg>