<?xml version="1.0" encoding="utf-8" ?>
<svg baseProfile="full" height="200mm" version="1.1" viewBox="0,0,200,200" width="200mm" xmlns="http://www.w3.org/2000/svg" xmlns:ev="http://www.w3.org/2001/xml-events" xmlns:xlink="http://www.w3.org/1999/xlink"><defs /><rect fill="#1a1a1a" height="200" width="200" x="0" y="0" /><text alignment-baseline="middle" fill="#e1ed5e" style="dominant-baseline: central; font-size:9.0px; font-family:Arial;" text-anchor="middle" x="100.0" y="100.0">2024</text><line stroke="#e1ed5e" stroke-width="0.3" x1="100.0" x2="100.0" y1="15.0" y2="10.0" /><path d="M 100.0 14.0 a86.0,86.0 0 0,1 42.35913384403234,11.155469271406648" fill="none" id="id37" stroke="none" /><text fill="#e1ed5e" style="font-size:6.75px; font-family:Arial;" text-anchor="middle"><textPath startOffset="22.145653131862478" xlink:href="#id37">January</textPath></text><path d="M 100.36049292484886 79.00309439819443 l 0.42439109121285346 -24.718653449799728 a45.72229633690198,45.72229633690198 0 0,0 0.7846527071395993,0.02020987038114865 l -0.8486571124231941 24.707725862068536" fill="#daff1c" stroke="none" /><path d="M 100.72087961077811 79.0123766808444 l 0.9109319141045562 -26.520788765252576 a47.53642842741429,47.53642842741429 0 0,0 0.8153046167903204,0.03501268828482935 l -1.3660622914957128 26.501243508541915" fill="#c4ff1e" stroke="none" /><path d="M 101.08105385017728 79.02784411241856 l 1.4991444230536115 -29.083001307587896 a50.121613950094385,50.121613950094385 0 0,0 0.8588831361989442,0.05166827667875633 l -1.998171911385018 29.052981053084448" fill="#a5ff21" stroke="none" /><path d="M 102.15924093988457 79.11130261209362 l 2.353266735713043 -22.765720956533865 a43.887025036036874,43.887025036036874 0 0,0 0.7487212121885245,0.08389577350872525 l -2.7437238495023646 22.721969422518168" fill="#f0ff19" stroke="none" /><path d="M 102.51750503828377 79.15144685158666 l 3.312047074644922 -27.428501002268163 a48.62774552974038,48.62774552974038 0 0,0 0.827880833253957,0.10718574861642671 l -3.7824057297896707 27.36760365745134" fill="#b7ff1f" stroke="none" /><path d="M 102.87502721639298 79.19773525538626 l 3.634271725026918 -26.295779791859996 a47.545733477026445,47.545733477026445 0 0,0 0.8075414031773194,0.11868077705157723 l -4.08513823381192 26.229517941509535" fill="#c4ff1e" stroke="none" /><path d="M 103.23170211078529 79.25015418208739 l 4.630432705702155 -29.73069961890523 a51.08912439522971,51.08912439522971 0 0,0 0.8654071855573048,0.14240242305739817 l -5.14011739431253 29.646831197352164" fill="#9aff22" stroke="none" /><path d="M 103.58742460773223 79.30868818359171 l 0.579485801594275 -3.342320111236588 a24.39218329696759,24.39218329696759 0 0,0 0.4119552470614547,0.07507196896589761 l -0.6367757822067833 3.3318799683393245" fill="#ff0000" stroke="none" /><path d="M 103.94208987418118 79.37332000966035 l 4.707063814331134 -24.62934689242289 a46.075110729555846,46.075110729555846 0 0,0 0.7756054082118241,0.15514280373868886 l -5.129165708073915 24.544914692021344" fill="#d5ff1c" stroke="none" /><path d="M 104.9986988182912 79.60360301121754 l 6.23393418675159 -25.436578817203923 a47.18933900213172,47.18933900213172 0 0,0 0.7851288220732033,0.19957667634863283 l -6.669668302050188 25.325816909020023" fill="#c8ff1d" stroke="none" /><path d="M 105.69591212413111 79.78721728523813 l 8.300036069840296 -29.453899910711872 a51.60102643230914,51.60102643230914 0 0,0 0.8505323166845709,0.24757756159608071 l -8.804428398906472 29.307078654813274" fill="#94ff23" stroke="none" /><path d="M 106.04205211174951 79.88797359093562 l 7.952473911174432 -26.47119924833356 a48.63993905479687,48.63993905479687 0 0,0 0.7976008871463014,0.24709879367821325 l -8.405715431192364 26.3307838668487" fill="#b7ff1f" stroke="none" /><path d="M 106.38641147887787 79.99465700312896 l 9.409764391634154 -29.4759529349118 a51.941484568895554,51.941484568895554 0 0,0 0.847084639888923,0.2784535463703513 l -9.914371769170819 29.310078467139427" fill="#91ff24" stroke="none" /><path d="M 107.06938296918511 80.22567764915836 l 17.735644372195598 -49.609753841941384 a73.68472983279891,73.68472983279891 0 0,0 1.1874148539454337,0.4360351817782677 l -18.58464837779516 49.29798781115439" fill="#40ffc4" stroke="none" /><path d="M 107.74402155503746 80.48000691201159 l 10.209193313584121 -25.73383628890679 a48.68497712222979,48.68497712222979 0 0,0 0.7741967103340068,0.314859062206874 l -10.64944448510857 25.554789970120623" fill="#b6ff1f" stroke="none" /><path d="M 108.07796709384702 80.6158196554323 l 11.413253223124968 -27.38765288655217 a50.67062317797592,50.67062317797592 0 0,0 0.8000286364320501,0.3414846522494995 l -11.881716934727448 27.18769358464327" fill="#9fff22" stroke="none" /><path d="M 109.3889696526874 81.21577127319529 l 28.166908958062173 -56.352686180414125 a84.0,84.0 0 0,0 1.2842911131456847,0.6557681933086643 l -29.130127292921436 55.86086003543262" fill="#4dd2ff" stroke="none" /><path d="M 109.71004243097381 81.37971332152246 l 12.021343482543568 -23.052511201329526 a46.99867250097043,46.99867250097043 0 0,0 0.7121668206187362,0.37918871902378015 l -12.415299118948862 22.842752014583173" fill="#caff1d" stroke="none" /><path d="M 110.02825361518725 81.54914285379988 l 12.830487991376232 -23.60665277615224 a47.86811265032708,47.86811265032708 0 0,0 0.7186047959530528,0.3985979668038303 l -13.233836975485385 23.382921893915263" fill="#c0ff1e" stroke="none" /><path d="M 110.34350942703115 81.72400993836675 l 15.05440643301858 -26.599693681780284 a51.56433962995198,51.56433962995198 0 0,0 0.7666083439178866,0.44260153372400507 l -15.508807244796863 26.33734525078011" fill="#95ff23" stroke="none" /><line stroke="#e1ed5e" stroke-width="0.3" x1="143.13028292997686" x2="145.6673583964461" y1="26.7553504044142" y2="22.446841604673864" /><path d="M 143.63769802327073 25.89364864446614 a86.0,86.0 0 0,1 29.32050498858742,28.57503671076993" fill="none" id="id38" stroke="none" /><text fill="#e1ed5e" style="font-size:6.75px; font-family:Arial;" text-anchor="middle"><textPath startOffset="20.669276256404974" xlink:href="#id38">February</textPath></text><path d="M 110.96478420261332 82.08984904055464 l 15.63718670145385 -25.54216929662144 a50.94868979293412,50.94868979293412 0 0,0 0.7419969966592708,0.4630610037759839 l -16.073347826902832 25.269972496003913" fill="#9cff22" stroke="none" /><path d="M 111.5731344415666 82.4767994020092 l 15.574137722270255 -23.581229512713993 a49.2600097509455,49.2600097509455 0 0,0 0.7016119888040822,0.47207585801558505 l -15.976645999171337 23.310403980641286" fill="#afff20" stroke="none" /><path d="M 111.8722381534696 82.67804972795209 l 13.700144624999977 -19.98892044165746 a45.23326026701375,45.23326026701375 0 0,0 0.636722560816388,0.44448179781591746 l -14.041262276990127 19.750793828036414" fill="#e0ff1b" stroke="none" /><path d="M 112.45986205192187 83.09580414077388 l 11.254643868174638 -15.269085924118805 a39.96871090922006,39.96871090922006 0 0,0 0.5488027775125357,0.4118318355019246 l -11.515099634597942 15.073635061352865" fill="#ffdc14" stroke="none" /><path d="M 113.03279911837588 83.53348406188908 l 11.79206436611819 -14.898888110239866 a40.00078021914156,40.00078021914156 0 0,0 0.5347708681767889,0.4307735569597023 l -12.046086004650238 14.694266259486756" fill="#ffdc14" stroke="none" /><path d="M 113.31354834802062 83.75963576809568 l 15.85533800283605 -19.34093432156237 a46.00926795440375,46.00926795440375 0 0,0 0.606502201723891,0.5059657076763607 l -16.185014538721834 19.065906429974135" fill="#d6ff1c" stroke="none" /><path d="M 113.59037401385872 83.9905735841838 l 18.23583961807371 -21.48177321672434 a49.178226117179236,49.178226117179236 0 0,0 0.6388966301727873,0.5518636923566684 l -18.60191572800936 21.165565391902952" fill="#b0ff20" stroke="none" /><path d="M 113.86319453409587 84.22622945171908 l 7.887907931556416 -8.974991262823727 a32.94862166546723,32.94862166546723 0 0,0 0.42164033140362295,0.37703338430442185 l -8.040813289783415 8.838262348635919" fill="#ff7d0b" stroke="none" /><path d="M 114.13192950727249 84.46653392183569 l 16.93502178827011 -18.614555524473353 a46.165385757879505,46.165385757879505 0 0,0 0.5816184127305337,0.5383373197646615 l -17.252069972314608 18.321100458576318" fill="#d4ff1c" stroke="none" /><path d="M 114.39649973595853 84.71141617570332 l 23.73853800915691 -25.209504732094814 a55.6271182117383,55.6271182117383 0 0,0 0.6895842572637265,0.6606061194316705 l -24.16779475228595 24.798286482357565" fill="#68ff28" stroke="none" /><path d="M 114.91283532996326 85.21462403516908 l 10.884603687258158 -10.791573445523543 a36.327513003054435,36.327513003054435 0 0,0 0.4352610358540003,0.4466161671906044 l -11.068251524262969 10.603134586265197" fill="#ffab0f" stroke="none" /><path d="M 115.16444852881244 85.47280134310134 l 36.355210805550094 -34.827469563577644 a71.34534724200354,71.34534724200354 0 0,0 0.8396469695677138,0.8916759846137767 l -36.94771360885407 34.19825211901937" fill="#3dffaa" stroke="none" /><path d="M 115.41159269507618 85.73525988315684 l 11.910343442757478 -11.024036079513236 a37.22916055767659,37.22916055767659 0 0,0 0.43008952128663,0.47274372448870194 l -12.097830664885986 10.817954779466861" fill="#ffb811" stroke="none" /><path d="M 115.6541949942343 86.00192230759917 l 11.392543928515595 -10.187283030790624 a36.283023022707,36.283023022707 0 0,0 0.41118847835904837,0.46785700754471754 l -11.565743470833233 9.990213745434609" fill="#ffab0f" stroke="none" /><path d="M 115.8921839302757 86.27271002978787 l 5.3013811893525045 -4.579206806827293 a28.00526783888482,28.00526783888482 0 0,0 0.31113243986910744,0.36651323183441886 l -5.379208192728724 4.487526792543322" fill="#ff3605" stroke="none" /><path d="M 116.1254893667686 86.54754324733833 l 14.471633146255447 -12.072751072074816 a39.84620610011689,39.84620610011689 0 0,0 0.433665578354996,0.5290014925563853 l -14.676745543849071 11.822547297819934" fill="#ffda14" stroke="none" /><path d="M 116.35404254752997 86.82634096563983 l 5.487629414675334 -4.420445807558265 a28.046589084824614,28.046589084824614 0 0,0 0.2988077849655854,0.3775338750238188 l -5.5627036302824795 4.325591988619768" fill="#ff3705" stroke="none" /><path d="M 116.57777611688842 87.10902102172516 l 6.728082594267823 -5.231797719746418 a29.522840065121102,29.522840065121102 0 0,0 0.3076673891017525,0.4027464885900664 l -6.816901960723882 5.11553031791547" fill="#ff4c07" stroke="none" /><line stroke="#e1ed5e" stroke-width="0.3" x1="172.87174338648825" x2="177.1583165268699" y1="56.24261187166439" y2="53.66864786411523" /><path d="M 173.72905801456457 55.72781907015455 a86.0,86.0 0 0,1 12.242430191666344,42.057860355516425" fill="none" id="id39" stroke="none" /><text fill="#e1ed5e" style="font-size:6.75px; font-family:Arial;" text-anchor="middle"><textPath startOffset="22.145653131862474" xlink:href="#id39">March</textPath></text><path d="M 120.7213421655516 96.59031103205396 l 12.252088581191282 -2.016076513568518 a33.416853027636286,33.416853027636286 0 0,0 0.08828176873372172,0.5668322843382926 l -12.284891842063269 1.8054560472987842" fill="#ff830c" stroke="none" /><path d="M 120.82617615685814 97.30363454192243 l 24.403581254003566 -3.1595321700482235 a45.60726359338486,45.60726359338486 0 0,0 0.09385956113865185,0.7772918103949079 l -24.45422290140188 2.7401466827299026" fill="#dbff1b" stroke="none" /><path d="M 120.9064616781168 98.02013634271609 l 25.26027033778326 -2.3921738639921255 a46.37328818528375,46.37328818528375 0 0,0 0.06824906387622755,0.7931575752446097 l -25.29761302435723 1.9581952413718537" fill="#d2ff1c" stroke="none" /><path d="M 120.93736805541906 98.37931529534042 l 23.908542213722672 -1.850672375530947 a44.98006211474258,44.98006211474258 0 0,0 0.05298231253657201,0.770351196262556 l -23.936788487424312 1.4399777551140571" fill="#e3ff1b" stroke="none" /><path d="M 120.96210409425399 98.7389718711861 l 29.040806973371016 -1.7470228328326276 a50.09330779480108,50.09330779480108 0 0,0 0.044269151025437464,0.8588097032947463 l -29.066517713853024 1.2482413361611506" fill="#a6ff21" stroke="none" /><line stroke="#e1ed5e" stroke-width="0.3" x1="184.99686870605535" x2="189.99668451229388" y1="99.2704041080226" y2="99.22748670261217" /><path d="M 185.99683186730306 99.26182062694052 a86.0,86.0 0 0,1 -10.086455211305974,41.156179273409016" fill="none" id="id40" stroke="none" /><text fill="#e1ed5e" style="font-size:6.75px; font-family:Arial;" text-anchor="middle"><textPath startOffset="21.40746469413373" xlink:href="#id40">April</textPath></text><path d="M 120.99922638620191 99.81974689727618 l 28.01588463416784 -0.24048267483700145 a49.016916742423646,49.016916742423646 0 0,0 0.0,0.8414715551216532 l -28.01588463416784 -0.24048267483699803" fill="#b2ff20" stroke="none" /><path d="M 120.99303781780057 100.54070618675476 l 25.23146059187692 0.6498729226943287 a46.23982841492963,46.23982841492963 0 0,0 -0.027249159516518937,0.7933295478823607 l -25.216586745363557 -1.0829087351408002" fill="#d3ff1c" stroke="none" /><line stroke="#e1ed5e" stroke-width="0.3" x1="174.33088141563837" x2="178.70328620479359" y1="141.23008692659167" y2="143.65538615756765" /><path d="M 175.20536237346943 141.71514677278685 a86.0,86.0 0 0,1 -30.301960400862466,31.631185727798858" fill="none" id="id41" stroke="none" /><text fill="#e1ed5e" style="font-size:6.75px; font-family:Arial;" text-anchor="middle"><textPath startOffset="22.145653131862474" xlink:href="#id41">May</textPath></text><line stroke="#e1ed5e" stroke-width="0.3" x1="143.1302829299769" x2="145.66735839644613" y1="173.24464959558577" y2="177.55315839532614" /><path d="M 143.63769802327073 174.10635135553383 a86.0,86.0 0 0,1 -40.68552437913181,11.842963189579606" fill="none" id="id42" stroke="none" /><text fill="#e1ed5e" style="font-size:6.75px; font-family:Arial;" text-anchor="middle"><textPath startOffset="21.407464694133747" xlink:href="#id42">June</textPath></text><line stroke="#e1ed5e" stroke-width="0.3" x1="101.45913802915013" x2="101.54496967792366" y1="184.9874750549273" y2="189.98673829345242" /><path d="M 101.47630435890484 185.9873277026323 a86.0,86.0 0 0,1 -42.54439059252881,-10.42667462771756" fill="none" id="id43" stroke="none" /><text fill="#e1ed5e" style="font-size:6.75px; font-family:Arial;" text-anchor="middle"><textPath startOffset="22.145653131862474" xlink:href="#id43">July</textPath></text><line stroke="#e1ed5e" stroke-width="0.3" x1="58.13341422392154" x2="55.67067388415222" y1="173.97424548756322" y2="178.32567169271397" /><path d="M 57.64086615596768 174.84453072859336 a86.0,86.0 0 0,1 -31.369924170532247,-30.572349798747897" fill="none" id="id44" stroke="none" /><text fill="#e1ed5e" style="font-size:6.75px; font-family:Arial;" text-anchor="middle"><textPath startOffset="22.145653131862474" xlink:href="#id44">August</textPath></text><line stroke="#e1ed5e" stroke-width="0.3" x1="26.387840678322732" x2="22.057713659400548" y1="142.50000000000003" y2="145.00000000000006" /><path d="M 25.521815274538298 143.00000000000003 a86.0,86.0 0 0,1 -11.493303480769221,-40.785679425670985" fill="none" id="id45" stroke="none" /><text fill="#e1ed5e" style="font-size:6.75px; font-family:Arial;" text-anchor="middle"><textPath startOffset="21.40746469413373" xlink:href="#id45">September</textPath></text><line stroke="#e1ed5e" stroke-width="0.3" x1="15.003131293944662" x2="10.003315487706104" y1="100.72959589197737" y2="100.7725132973878" /><path d="M 14.003168132696942 100.73817937305945 a86.0,86.0 0 0,1 10.791469493833604,-42.45332614584628" fill="none" id="id46" stroke="none" /><text fill="#e1ed5e" style="font-size:6.75px; font-family:Arial;" text-anchor="middle"><textPath startOffset="22.145653131862435" xlink:href="#id46">October</textPath></text><line stroke="#e1ed5e" stroke-width="0.3" x1="26.387840678322718" x2="22.05771365940052" y1="57.49999999999999" y2="54.99999999999999" /><path d="M 25.521815274538284 56.99999999999999 a86.0,86.0 0 0,1 29.574782752854787,-30.34633250058573" fill="none" id="id47" stroke="none" /><text fill="#e1ed5e" style="font-size:6.75px; font-family:Arial;" text-anchor="middle"><textPath startOffset="21.40746469413373" xlink:href="#id47">November</textPath></text><line stroke="#e1ed5e" stroke-width="0.3" x1="56.869717070023135" x2="54.33264160355391" y1="26.7553504044142" y2="22.446841604673864" /><path d="M 56.362301976729285 25.89364864446614 a86.0,86.0 0 0,1 42.16139366436587,-11.88097634709845" fill="none" id="id48" stroke="none" /><text fill="#e1ed5e" style="font-size:6.75px; font-family:Arial;" text-anchor="middle"><textPath startOffset="22.145653131862474" xlink:href="#id48">December</textPath></text></svg>