<?xml version="1.0" encoding="utf-8" ?>
<svg baseProfile="full" height="200mm" version="1.1" viewBox="0,0,200,200" width="200mm" xmlns="http://www.w3.org/2000/svg" xmlns:ev="http://www.w3.org/2001/xml-events" xmlns:xlink="http://www.w3.org/1999/xlink"><defs /><rect fill="#1a1a1a" height="200" width="200" x="0" y="0" /><text alignment-baseline="middle" fill="#e1ed5e" style="dominant-baseline: central; font-size:9.0px; font-family:Arial;" text-anchor="middle" x="100.0" y="100.0">2025</text><line stroke="#e1ed5e" stroke-width="0.3" x1="100.0" x2="100.0" y1="15.0" y2="10.0" /><path d="M 100.0 14.0 a86.0,86.0 0 0,1 42.46469731375804,11.215312516191453" fill="none" id="id49" stroke="none" /><text fill="#e1ed5e" style="font-size:6.75px; font-family:Arial;" text-anchor="middle"><textPath startOffset="22.20632615414155" xlink:href="#id49">January</textPath></text><path d="M 100.0 79.0 l 0.0 -2.083697770200043 a23.083697770200043,23.083697770200043 0 0,0 0.39734791111210027,0.0034200989181544256 l -0.03586743183957192 2.0833890478904475" fill="#ff0701" stroke="none" /><path d="M 100.72285384407766 79.0124445844662 l 0.4566541738960044 -13.258634313007164 a34.266496028740505,34.266496028740505 0 0,0 0.5893171039368665,0.025377234156979348 l -0.6848121102222025 13.24880935232599" fill="#ffa30f" stroke="none" /><path d="M 101.08401301168833 79.027996857942 l 0.8107555133093879 -15.685390294423888 a36.70632971737091,36.70632971737091 0 0,0 0.6307160385635137,0.03804651385694056 l -1.0806336007125135 15.669110511186643" fill="#ffc312" stroke="none" /><path d="M 101.44485096284872 79.0497635885617 l 2.2420340113578736 -32.509334033887406 a53.586554218495635,53.586554218495635 0 0,0 0.91967237421965,0.07138427640409742 l -2.801296574939865 32.46592449529485" fill="#75ff27" stroke="none" /><path d="M 101.80526077348638 79.07773832637324 l 0.565091382721057 -6.549186661807643 a27.573520685448912,27.573520685448912 0 0,0 0.47252463106430714,0.04487190739165174 l -0.6777411408756082 6.538489209900813" fill="#ff4706" stroke="none" /><path d="M 102.16513564639614 79.11191278185805 l 1.565614133418598 -15.104219739413098 a36.18514410702896,36.18514410702896 0 0,0 0.6189956476925549,0.06955137335281579 l -1.8253764846208782 15.075032412589682" fill="#ffbc11" stroke="none" /><path d="M 102.88285421437855 79.19881850522331 l 1.2384275717752937 -8.935851337937514 a30.021260554060774,30.021260554060774 0 0,0 0.5112635247983682,0.07534695350665371 l -1.3920600770023177 8.91320990026989" fill="#ff6909" stroke="none" /><path d="M 103.95276090670814 79.375362276772 l 4.836008867565245 -25.23323147387528 a46.69246878720182,46.69246878720182 0 0,0 0.7880656839567676,0.15807856246468951 l -5.269640960989138 25.14624895533338" fill="#c1ff1e" stroke="none" /><path d="M 107.4271985657038 80.35727306442388 l 4.831988741853857 -12.779170311978765 a34.6621853692578,34.6621853692578 0 0,0 0.5562733336829576,0.2158254112442285 l -5.051245240536482 12.694102196843989" fill="#ffa80f" stroke="none" /><path d="M 107.76421540070413 80.48803036053334 l 2.819727884570998 -7.086156428673688 a28.626563988760644,28.626563988760644 0 0,0 0.45627489168087515,0.18612598469687808 l -2.9412866458402607 7.03656955779323" fill="#ff5608" stroke="none" /><path d="M 108.09893153111575 80.62456947434976 l 3.0046903920939076 -7.188253131840467 a28.790965757834886,28.790965757834886 0 0,0 0.4556050262014951,0.19506629516342253 l -3.1279791760857183 7.1354673087142535" fill="#ff5808" stroke="none" /><path d="M 108.76106565485865 80.91482961587045 l 3.2357462389296425 -7.048773599308788 a28.75598239922319,28.75598239922319 0 0,0 0.44807542840529,0.21037742167182977 l -3.3565998786345306 6.992031194996955" fill="#ff5808" stroke="none" /><path d="M 109.41281617654863 81.2277094730956 l 7.542595395391577 -15.042447385931972 a37.82753602453769,37.82753602453769 0 0,0 0.5795529998215971,0.29686955646926044 l -7.800408882801929 14.91038530415021" fill="#ffd113" stroke="none" /><path d="M 109.73455568895987 81.39251694778311 l 14.734399052213213 -28.164621931291556 a52.78597873217767,52.78597873217767 0 0,0 0.8014795615526699,0.4281226247864678 l -15.217023660294194 27.906820580003334" fill="#7dff26" stroke="none" /><path d="M 110.05341064243156 81.56283822128135 l 7.517499945969175 -13.786501676392255 a36.70287979673834,36.70287979673834 0 0,0 0.5520740756892534,0.30722862540315016 l -7.753698110730463 13.655057653428926" fill="#ffc312" stroke="none" /><path d="M 110.36928655335952 81.73862282372117 l 9.017532610737522 -15.88079983677569 a39.26241215834999,39.26241215834999 0 0,0 0.5848290864011856,0.33877075494911385 l -9.289558429604035 15.723224924436527" fill="#ffe315" stroke="none" /><line stroke="#e1ed5e" stroke-width="0.3" x1="143.23703022742887" x2="145.7803849466894" y1="26.81831364943548" y2="22.513508569990506" /><path d="M 143.74570117128098 25.957352633546492 a86.0,86.0 0 0,1 28.547481713284135,27.462654790039103" fill="none" id="id50" stroke="none" /><text fill="#e1ed5e" style="font-size:6.75px; font-family:Arial;" text-anchor="middle"><textPath startOffset="19.985693538727396" xlink:href="#id50">February</textPath></text><path d="M 110.68208982089419 81.91981866633111 l 9.221802676513772 -15.608543591213218 a39.12921061831871,39.12921061831871 0 0,0 0.5769470441138611,0.3476041385740636 l -9.48911178684527 15.447492843180541" fill="#ffe215" stroke="none" /><path d="M 110.99172775467656 82.1063720568725 l 9.488947060677528 -15.447224682539751 a39.12889590441751,39.12889590441751 0 0,0 0.5708735378063293,0.3574809570022844 l -9.75343975085612 15.281599384214523" fill="#ffe215" stroke="none" /><path d="M 111.2981086023043 82.29822771554956 l 8.159807856506596 -12.784711640255404 a36.166783310233875,36.166783310233875 0 0,0 0.5218918054436014,0.3394529476255392 l -8.378666687734476 12.642359768470337" fill="#ffbc11" stroke="none" /><path d="M 111.90073688211348 82.69761687909136 l 9.402666664540112 -13.670459451345925 a37.59191375385453,37.59191375385453 0 0,0 0.529990241236828,0.3712920334314433 l -9.63658804536059 13.506582575150547" fill="#ffce13" stroke="none" /><path d="M 112.19680574252982 82.90503203632743 l 8.743077625682739 -12.254243862700715 a36.053501221152914,36.053501221152914 0 0,0 0.5020959663795509,0.3647940727146914 l -8.952718908416077 12.101930555169348" fill="#ffba11" stroke="none" /><path d="M 112.48926042617603 83.11751280151076 l 8.980215861460206 -12.139099846378299 a36.099735825462744,36.099735825462744 0 0,0 0.49637797942422207,0.3738616031075992 l -9.187839994642811 11.982721653764852" fill="#ffbb11" stroke="none" /><path d="M 113.06298171725822 83.55741782278167 l 10.746047703698538 -13.526220603595654 a38.275305643238276,38.275305643238276 0 0,0 0.5123361112009349,0.41427350466951957 l -10.977287213463965 13.339241001662005" fill="#ffd714" stroke="none" /><path d="M 113.34407831869373 83.78471172551755 l 9.811800129677739 -11.92297915184175 a36.441141591216535,36.441141591216535 0 0,0 0.48092322555291905,0.40275937078901475 l -10.015580892189774 11.752318623658915" fill="#ffbf11" stroke="none" /><path d="M 113.6212207817346 84.01681056812373 l 4.970178763361741 -5.8320256281010785 a28.662584411711222,28.662584411711222 0 0,0 0.37275854998328206,0.323252541321755 l -5.069831111991787 5.745608093359652" fill="#ff5708" stroke="none" /><path d="M 113.89432698308785 84.25364557470407 l 5.612385443941707 -6.360481546119324 a29.482605488285614,29.482605488285614 0 0,0 0.3776427111138567,0.33905135473736797 l -5.721039142651554 6.262931182612658" fill="#ff6209" stroke="none" /><path d="M 114.16331599549186 84.49514656593476 l 13.680744332577264 -14.976572987077722 a41.28448924500223,41.28448924500223 0 0,0 0.5205622511253822,0.48380587949742265 l -13.936514467497492 14.73886252150566" fill="#fffc17" stroke="none" /><path d="M 114.94478906791727 85.2469230424477 l 14.563759309808075 -14.37693505826179 a41.46458763091742,41.46458763091742 0 0,0 0.497053261786474,0.5122570784861828 l -14.80907683529766 14.124113784225493" fill="#ffff18" stroke="none" /><path d="M 115.19652480421416 85.50635884689758 l 10.85593193471356 -10.353813379793946 a36.00175688626948,36.00175688626948 0 0,0 0.42384813184574915,0.45213163509668364 l -11.032547388529771 10.165412327819208" fill="#ffba11" stroke="none" /><path d="M 115.4437574822437 85.77008943001954 l 6.273037267346461 -5.779989709054034 a29.529904899486752,29.529904899486752 0 0,0 0.3412199626601975,0.376783605238703 l -6.371600870622694 5.671153316545782" fill="#ff6309" stroke="none" /><path d="M 115.68641384162765 86.03803664274999 l 9.91136452453105 -8.82178104625929 a34.268721399075055,34.268721399075055 0 0,0 0.3883921198935128,0.4439993334049275 l -10.061748508002411 8.649866156651415" fill="#ffa30f" stroke="none" /><path d="M 115.9244219780498 86.31012108654704 l 10.365787817215754 -8.911242132105832 a34.669666909202896,34.669666909202896 0 0,0 0.3851459678025684,0.45589134458649017 l -10.517644398505439 8.731491837890236" fill="#ffa80f" stroke="none" /><path d="M 116.15771136456269 86.58626213691792 l 5.900952124569508 -4.898826520392846 a28.669402666007677,28.669402666007677 0 0,0 0.311952463831018,0.382416834982308 l -5.984403080476935 4.796525515802437" fill="#ff5708" stroke="none" /><path d="M 116.60985879189232 87.15038557335679 l 14.903917319040753 -11.529874720531891 a39.843162221982894,39.843162221982894 0 0,0 0.4149837235953014,0.5460699364061116 l -15.100176982860168 11.271620008244746" fill="#ffea16" stroke="none" /><path d="M 117.2510076193507 88.02491185347247 l 10.570767326650925 -7.337882708432918 a33.868008568419185,33.868008568419185 0 0,0 0.32831894957389773,0.48176754606919003 l -10.695510741893557 7.154837139093321" fill="#ff9e0e" stroke="none" /><path d="M 117.45458315368197 88.32363383020206 l 10.84364738134143 -7.25393418599082 a34.04623507781303,34.04623507781303 0 0,0 0.32166131394443553,0.48991224905165565 l -10.96690533064379 7.06620387296149" fill="#ffa00e" stroke="none" /><path d="M 117.65298651832404 88.62581576622439 l 10.748345179247183 -6.925381048134288 a33.786235832101006,33.786235832101006 0 0,0 0.31078897092799884,0.49159351587528743 l -10.865961746421137 6.739339884544794" fill="#ff9c0e" stroke="none" /><line stroke="#e1ed5e" stroke-width="0.3" x1="172.23445277983987" x2="176.4835382374775" y1="55.19839476539836" y2="52.563006222186495" /><path d="M 173.08426987136738 54.67131705675599 a86.0,86.0 0 0,1 12.851231095245387,41.99856678651699" fill="none" id="id51" stroke="none" /><text fill="#e1ed5e" style="font-size:6.75px; font-family:Arial;" text-anchor="middle"><textPath startOffset="22.20632615414155" xlink:href="#id51">March</textPath></text><path d="M 118.3937258080291 89.86733742301442 l 11.11857986178849 -6.1249590893429495 a33.694012052503076,33.694012052503076 0 0,0 0.27547566544048613,0.5104145705584078 l -11.222363626447441 5.9326635354520825" fill="#ff9b0e" stroke="none" /><path d="M 118.73160827565052 90.50648371742162 l 11.26526175851991 -5.709437457702887 a33.629481326301246,33.629481326301246 0 0,0 0.2572494973638398,0.5185992891083941 l -11.361871268837158 5.514678580095542" fill="#ff9a0e" stroke="none" /><path d="M 118.89224826269711 90.83032412892265 l 6.868547069961015 -3.3337668159453324 a28.63485036103317,28.63485036103317 0 0,0 0.21140947233550583,0.44528226487588535 l -6.924914736138277 3.2150421354289067" fill="#ff5608" stroke="none" /><path d="M 119.04729006885535 91.15688171328212 l 15.446077239643902 -7.17117698119669 a38.02959428138823,38.02959428138823 0 0,0 0.27054920345063577,0.5961193071475597 l -15.567228760057883 6.904235665207068" fill="#ffd413" stroke="none" /><path d="M 119.196687751892 91.48605970444005 l 15.725570758682956 -6.974462067803039 a38.202810724459184,38.202810724459184 0 0,0 0.26143327672506916,0.6034240474523437 l -15.843294745250706 6.7027388757640916" fill="#ffd614" stroke="none" /><path d="M 119.34039704204932 91.81776055985345 l 11.360574669019972 -4.8062582126667355 a33.335427630090685,33.335427630090685 0 0,0 0.21902695577748377,0.5303911464774703 l -11.441623311683653 4.609992495735963" fill="#ff960d" stroke="none" /><path d="M 119.47837535516314 92.15188598940014 l 7.783024427915307 -3.135891055789311 a29.39102389219014,29.39102389219014 0 0,0 0.18503252067278983,0.4708875826504357 l -7.835850498469797 3.001454468243091" fill="#ff6108" stroke="none" /><path d="M 119.61058180528143 92.48833698450437 l 12.444758604240167 -4.766856683419058 a34.3264751287828,34.3264751287828 0 0,0 0.20660518805672518,0.5535991863550844 l -12.52496838079852 4.55193436003464" fill="#ffa40f" stroke="none" /><path d="M 119.7369772167798 92.82701384747503 l 8.567352020560591 -3.1136225538651354 a30.115600147666708,30.115600147666708 0 0,0 0.17287346749356505,0.4887365719958005 l -8.619678568863966 2.9656883554427207" fill="#ff6b09" stroke="none" /><path d="M 119.85752413597 93.16781622104841 l 10.734204213198598 -3.693212477205271 a32.35178217252407,32.35178217252407 0 0,0 0.17664489977180065,0.5281457665304583 l -10.79618640674217 3.5078936077524987" fill="#ff890c" stroke="none" /><path d="M 119.97218684219823 93.5106431181261 l 14.714141283896115 -4.780914316291593 a36.471363722121524,36.471363722121524 0 0,0 0.1888600382988524,0.5987379320668061 l -14.794256805963174 4.526926217798367" fill="#ffc011" stroke="none" /><path d="M 120.08093135843002 93.85539295169968 l 15.991039697576047 -4.89313236928758 a37.72292124578786,37.72292124578786 0 0,0 0.18465208798984137,0.6225550452316693 l -16.072897682677592 4.6171479373093804" fill="#ffd013" stroke="none" /><path d="M 120.18372546131832 94.20196356495316 l 7.310991543595036 -2.100176968187651 a28.606664226073345,28.606664226073345 0 0,0 0.13188112128808818,0.4744465617538468 l -7.3460594354494875 1.9740191030148524" fill="#ff5607" stroke="none" /><path d="M 120.28053869075195 94.5502522615342 l 7.386968365397804 -1.9850120727711515 a28.64902441886775,28.64902441886775 0 0,0 0.12387792883668865,0.4773521927952426 l -7.420042626104795 1.8575634544270585" fill="#ff5608" stroke="none" /><path d="M 120.37134235888165 94.90015583598534 l 10.939003871425586 -2.7385144322362676 a32.27658046548821,32.27658046548821 0 0,0 0.13028549253408442,0.5401174784336227 l -10.98452216422049 2.549811722143239" fill="#ff880c" stroke="none" /><path d="M 120.45610955862082 95.25157060432595 l 23.316901679105968 -5.412498453424066 a44.93685533693623,44.93685533693623 0 0,0 0.16841822597592024,0.7549858835545865 l -23.406614292083926 5.010334400319515" fill="#d6ff1c" stroke="none" /><path d="M 120.53481517161879 95.60439243477599 l 18.58555786023251 -3.978356661678518 a40.00658524573976,40.00658524573976 0 0,0 0.13834792326582465,0.6746336071090534 l -18.65128507941333 3.6578473984060524" fill="#ffed16" stroke="none" /><path d="M 120.6074358757038 95.95851677861258 l 4.005926548732858 -0.7856331583640739 a25.082237985880276,25.082237985880276 0 0,0 0.07944413820721218,0.424393762984977 l -4.018856410849929 0.7165613179165341" fill="#ff2403" stroke="none" /><path d="M 120.67395015179393 96.31383870115 l 11.892188953637381 -2.120374981928922 a33.079741229554756,33.079741229554756 0 0,0 0.0951249521069305,0.5614328520498969 l -11.926925767264535 1.9153563415631873" fill="#ff930d" stroke="none" /><path d="M 120.73433829027371 96.67025291283417 l 8.575766036982397 -1.3771904163082331 a29.68564428029562,29.68564428029562 0 0,0 0.07667958341254254,0.505222648332884 l -8.598201513834239 1.2293686555832668" fill="#ff6509" stroke="none" /><path d="M 120.78858239683441 97.02765380044208 l 12.497604137049757 -1.7869042463422464 a33.62470340055556,33.62470340055556 0 0,0 0.07699096523772819,0.5736721181873793 l -12.52651110134532 1.5715137860902026" fill="#ff9a0e" stroke="none" /><path d="M 120.83666639777658 97.38593545837742 l 7.609891363973163 -0.9546991251098021 a28.669543466918924,28.669543466918924 0 0,0 0.05721573553556361,0.49018948100785953 l -7.625197452512316 0.8235659057770899" fill="#ff5708" stroke="none" /><path d="M 120.87857604477298 97.74499172005257 l 10.968007786956404 -1.1846089657204633 a32.03179465075387,32.03179465075387 0 0,0 0.0544889416419781,0.5486962062536644 l -10.98677385428061 0.9956372287623639" fill="#ff850c" stroke="none" /><path d="M 120.91429891909075 98.10471618934814 l 7.575665072234245 -0.6865176510038407 a28.6067080772046,28.6067080772046 0 0,0 0.04022037248592832,0.4907904187960441 l -7.586359928539668 0.5560133150000277" fill="#ff5607" stroke="none" /><path d="M 120.94382443527127 98.46500227214037 l 16.48404597271472 -1.2081352759736839 a37.528259511383055,37.528259511383055 0 0,0 0.04167318249706549,0.6446656882424406 l -16.502399746216202 0.924210523478208" fill="#ffcd13" stroke="none" /><path d="M 120.96714384426684 98.82574320788733 l 9.406039114122583 -0.5267815873574974 a30.420778665120142,30.420778665120142 0 0,0 0.024780464651792254,0.5230764430407091 l -9.413713187007872 0.3647940376937886" fill="#ff6f0a" stroke="none" /><line stroke="#e1ed5e" stroke-width="0.3" x1="184.98032266829074" x2="189.97916517819016" y1="98.17113171792111" y2="98.06355123074" /><path d="M 185.9800911702706 98.14961562048488 a86.0,86.0 0 0,1 -9.607161424134198,41.387399972396054" fill="none" id="id52" stroke="none" /><text fill="#e1ed5e" style="font-size:6.75px; font-family:Arial;" text-anchor="middle"><textPath startOffset="21.466115282336823" xlink:href="#id52">April</textPath></text><path d="M 120.99513854157772 99.54816195383933 l 12.854321416035482 -0.27663887341541876 a33.857297855032876,33.857297855032876 0 0,0 0.007524369909658236,0.5827707416496025 l -12.857178793062856 0.05533187370535353" fill="#ff9d0e" stroke="none" /><path d="M 120.9904718944345 100.63252640178507 l 12.66757432892489 0.3817243961887428 a33.673324460988226,33.673324460988226 0 0,0 -0.022445462964916334,0.5792176649518463 l -12.659126733108769 -0.5997193081545954" fill="#ff9b0e" stroke="none" /><path d="M 120.9764740272857 100.99374915477107 l 25.555904673844147 1.2106972142223609 a46.58456666514277,46.58456666514277 0 0,0 -0.044840194505985496,0.8006517948432397 l -25.53127812845063 -1.6504207254010237" fill="#c2ff1e" stroke="none" /><path d="M 120.95626037817324 101.35467743843564 l 10.775126488472281 0.6965374779093131 a31.79761618602501,31.79761618602501 0 0,0 -0.0400096402812066,0.5458997538298632 l -10.761540289526739 -0.8819103682359466" fill="#ff820b" stroke="none" /><path d="M 120.92983693683757 101.71520430193887 l 11.01878954976133 0.9029919963038828 a32.05572782259578,32.05572782259578 0 0,0 -0.049801479135446476,0.5495551723693279 l -11.001613474348808 -1.0925285572217813" fill="#ff850c" stroke="none" /><path d="M 120.89721153311464 102.0752229133903 l 17.178305712652318 1.7059124645232635 a38.262801756782096,38.262801756782096 0 0,0 -0.07072732868189475,0.6548472231609785 l -17.14639608246937 -2.0013560095690335" fill="#ffd714" stroke="none" /><path d="M 120.8583938346157 102.4346265915055 l 21.2664411140227 2.4822545519761317 a42.41081748362265,42.41081748362265 0 0,0 -0.09087727516049551,0.7243812979777708 l -21.22056232961536 -2.8479536042412974" fill="#f4ff19" stroke="none" /><path d="M 120.81339534386255 102.79330883721812 l 7.7248052381629515 1.0367249735595014 a28.7940627812683,28.7940627812683 0 0,0 -0.0701559784424358,0.4906707498265347 l -7.705815208703915 -1.1695411953664454" fill="#ff5808" stroke="none" /><path d="M 120.76222939487914 103.15116336523771 l 18.625539132490115 2.8268696706809373 a39.838840200790926,39.838840200790926 0 0,0 -0.10873773469477675,0.6771099777426481 l -18.57411964343405 -3.1470588781167907" fill="#ffea16" stroke="none" /><path d="M 120.64145759157962 103.86396538481128 l 35.840070457783874 6.709060686420085 a57.462612985261764,57.462612985261764 0 0,0 -0.19036561127514925,0.9706701506347081 l -35.719274913533056 -7.324994564122738" fill="#4cff2c" stroke="none" /><path d="M 120.23288151984713 105.62410040840565 l 15.287579149268698 4.249462937476122 a36.867199233076335,36.867199233076335 0 0,0 -0.17521990194515083,0.6099634653626467 l -15.212166610437448 -4.511983878343351" fill="#ffc512" stroke="none" /><path d="M 120.13307415673323 105.97154293290107 l 22.304003675033893 6.615448514428929 a44.26440927646746,44.26440927646746 0 0,0 -0.22295187772768776,0.7286196363233959 l -22.186825024800072 -6.998395123304382" fill="#deff1b" stroke="none" /><path d="M 120.02730092923936 106.31721596034902 l 16.636235483762277 5.247571437083273 a38.444235066591006,38.444235066591006 0 0,0 -0.20450090289005446,0.6293890621622003 l -16.543442329855978 -5.533159399223268" fill="#ffd914" stroke="none" /><path d="M 119.9155931802556 106.66101706037122 l 12.28373922934107 4.108448883807838 a33.95259053955287,33.95259053955287 0 0,0 -0.19014933146102556,0.5526629641548167 l -12.211199066936812 -4.319284551051955" fill="#ff9f0e" stroke="none" /><path d="M 119.79798401119884 107.00284435728193 l 15.582631120567283 5.511810715300327 a37.52871592111654,37.52871592111654 0 0,0 -0.22066123485165612,0.6071649480824013 l -15.485445624710401 -5.7792234603888595" fill="#ffcd13" stroke="none" /><path d="M 119.67450827220406 107.3425965602758 l 22.223619399718213 8.293933912024983 a44.72084734912667,44.72084734912667 0 0,0 -0.27536482779369703,0.7188906731579826 l -22.07756029233101 -8.67524815201611" fill="#d8ff1c" stroke="none" /><path d="M 119.54520255179757 107.68017299344265 l 9.80088160547866 3.851199086775554 a31.530385303994855,31.530385303994855 0 0,0 -0.20284155362032558,0.5034361011709113 l -9.733137437600941 -4.019334555789279" fill="#ff7e0b" stroke="none" /><path d="M 119.41010516605496 108.01547362559984 l 7.167828573567887 2.9599809167819937 a28.75495025695006,28.75495025695006 0 0,0 -0.19286221569311335,0.45586930732099873 l -7.115815376682464 -3.082924749769156" fill="#ff5808" stroke="none" /><path d="M 119.12269723197855 108.67885076344098 l 6.89106799107677 3.1275164779195963 a28.56757407478126,28.56757407478126 0 0,0 -0.20708142426143225,0.4460349650307763 l -6.836211949975506 -3.2456715102292035" fill="#ff5507" stroke="none" /><path d="M 118.97047184881838 109.00673069616215 l 14.704678940379848 6.9814332634945915 a37.2778374839006,37.2778374839006 0 0,0 -0.2801992974895068,0.5772935451188621 l -14.582326386275627 -7.233515764578729" fill="#ffca12" stroke="none" /><path d="M 118.81262510543309 109.33194174019688 l 14.830338639260475 7.356541439238092 a37.55468652987333,37.55468652987333 0 0,0 -0.2922493727843611,0.5766357382087245 l -14.701510596689845 -7.61073138914951" fill="#ffce13" stroke="none" /><path d="M 118.64920377521936 109.65438752849418 l 14.834954265020539 7.67981299192551 a37.704951231182896,37.704951231182896 0 0,0 -0.3033408065719562,0.5738064890664584 l -14.70056095022369 -7.934034496078103" fill="#ffcf13" stroke="none" /><line stroke="#e1ed5e" stroke-width="0.3" x1="174.80103733775053" x2="179.2010983576182" y1="140.37084112569926" y2="142.7455964860345" /><path d="M 175.68104954172406 140.8457921977663 a86.0,86.0 0 0,1 -30.038265399797805,32.042727171017184" fill="none" id="id53" stroke="none" /><text fill="#e1ed5e" style="font-size:6.75px; font-family:Arial;" text-anchor="middle"><textPath startOffset="22.206326154141568" xlink:href="#id53">May</textPath></text><path d="M 118.48025628344425 109.97397251340804 l 14.199227818993034 7.663460171011252 a37.13526239167933,37.13526239167933 0 0,0 -0.30844122868176344,0.5599104228685197 l -14.065210180859761 -7.906741112277577" fill="#ffc812" stroke="none" /><path d="M 118.30583269289576 110.29060199501025 l 18.67033267625295 10.495505225518428 a42.418145395454836,42.418145395454836 0 0,0 -0.3632770845852707,0.6334042176910061 l -18.486903595515297 -10.81532928906775" fill="#f4ff19" stroke="none" /><path d="M 118.12598468904814 110.60418214915192 l 18.434020788025435 10.784391443052693 a42.356877609106206,42.356877609106206 0 0,0 -0.37358589423409616,0.6261514473568329 l -18.245654018093113 -11.10010498429563" fill="#f5ff19" stroke="none" /><path d="M 117.94076556474637 110.91462005526583 l 14.328718367587777 8.717159604852142 a37.77203152972571,37.77203152972571 0 0,0 -0.3427098875233026,0.5525574598913475 l -14.176543840396512 -8.962513396108763" fill="#ffd013" stroke="none" /><path d="M 117.75023020441432 111.22182372390056 l 16.015677638390006 10.125227065062651 a39.94787991665302,39.94787991665302 0 0,0 -0.3724571717180127,0.5780618016953544 l -15.839015603294945 -10.39941046667946" fill="#ffec16" stroke="none" /><path d="M 117.35343817320211 111.8261652097733 l 8.8519702557827 6.032514227557744 a31.712077544293088,31.712077544293088 0 0,0 -0.31129042366593185,0.4484370724276493 l -8.746818924954631 -6.183992562172413" fill="#ff810b" stroke="none" /><path d="M 117.14729908036423 112.12312394758627 l 13.601433495852282 9.616200391809244 a37.65743987284735,37.65743987284735 0 0,0 -0.3787624889783843,0.5260679696875257 l -13.433891214498294 -9.848901966947901" fill="#ffcf13" stroke="none" /><path d="M 116.93607887273984 112.41649034213515 l 27.531421556716822 20.184343284705296 a55.1377633533376,55.1377633533376 0 0,0 -0.5677581002281664,0.7606047569583422 l -27.179902189793562 -20.655260921172953" fill="#64ff29" stroke="none" /><path d="M 116.498646956653 112.99209946851258 l 12.159150271129077 9.574899698753706 a36.476551281118546,36.476551281118546 0 0,0 -0.39269975593683204,0.48995332587900753 l -11.99253260313739 -9.782780858210964" fill="#ffc011" stroke="none" /><path d="M 116.27256486870786 113.27417163493432 l 13.407404895214551 10.9369478747863 a38.30246614907874,38.30246614907874 0 0,0 -0.4211520308459252,0.5073047516260534 l -13.217156864475083 -11.166113883526124" fill="#ffd714" stroke="none" /><path d="M 116.0416608686014 113.55231037782055 l 11.550697538532015 9.758256293081805 a36.120918606623086,36.120918606623086 0 0,0 -0.40534119194452184,0.4715033804475171 l -11.381013837016715 -9.955636772690852" fill="#ffbb11" stroke="none" /><path d="M 115.80600337817218 113.82643327865902 l 10.229898152403655 8.948688727158995 a34.59153582727626,34.59153582727626 0 0,0 -0.39589378634087125,0.4447908657951826 l -10.074345516414445 -9.123453762695044" fill="#ffa70f" stroke="none" /><path d="M 115.56566222782051 114.09645910891815 l 12.270168476057652 11.1120185990636 a37.553972084571555,37.553972084571555 0 0,0 -0.43804668362591365,0.4754131598051928 l -12.077075384436016 -11.321583013670127" fill="#ffce13" stroke="none" /><path d="M 115.32070863581623 114.36230785411682 l 9.88242504101048 9.264221006880586 a34.545778514191,34.545778514191 0 0,0 -0.41042597222876115,0.43032999102044267 l -9.721492517402755 -9.432958114483535" fill="#ffa70f" stroke="none" /><path d="M 115.07121518719521 114.62390073753431 l 14.04221128349013 13.62543772314491 a40.56620174886986,40.56620174886986 0 0,0 -0.4905793923816204,0.49695433442833126 l -13.805591266052973 -13.865132551553907" fill="#fff316" stroke="none" /><path d="M 114.81725581225074 114.88116024355365 l 4.9804158144127095 5.001895543473535 a28.058576394165655,28.058576394165655 0 0,0 -0.3451873594142911,0.33783848349542556 l -4.893578502622624 -5.086884129891533" fill="#ff4e07" stroke="none" /><path d="M 114.55890576462653 115.13401014063108 l 11.464574433322035 11.91744685603206 a37.536686684566824,37.536686684566824 0 0,0 -0.4695020232254965,0.44394346779842725 l -11.257736575705731 -12.113024960576409" fill="#ffcd13" stroke="none" /><path d="M 113.75828350139079 115.86535959552629 l 7.214959320627511 8.319927705900101 a32.012576221289635,32.012576221289635 0 0,0 -0.41941737629454634,0.35743658714387044 l -7.070676467755916 -8.442888683266919" fill="#ff850c" stroke="none" /><path d="M 113.48314897796784 116.09983520530334 l 4.951170286606991 5.912048128966183 a28.711446056751775,28.711446056751775 0 0,0 -0.38162963081510276,0.3140552049478429 l -4.848670527247197 -5.996398452771205" fill="#ff5708" stroke="none" /><path d="M 113.20401910651253 116.32954008644616 l 9.560447019814488 11.823498708617024 a36.205172440039874,36.205172440039874 0 0,0 -0.4879810849537879,0.38768168663624997 l -9.355508442143348 -11.9863143092584" fill="#ffbc11" stroke="none" /><path d="M 112.92097659922987 116.55440617244103 l 20.363603175280943 26.089928691466177 a54.09623412725536,54.09623412725536 0 0,0 -0.7389835937047334,0.5666211077757952 l -19.911490853082718 -26.436589141069344" fill="#6fff27" stroke="none" /><path d="M 112.63410532772338 116.77436683061366 l 9.86312926890057 13.09532762017219 a37.394173491051255,37.394173491051255 0 0,0 -0.5174908969178666,0.3828273940797657 l -9.636253401564138 -13.263164962991723" fill="#ffcc13" stroke="none" /><path d="M 112.34349029814194 116.9893568818739 l 11.025189218402605 15.17487110998305 a39.75717224173674,39.75717224173674 0 0,0 -0.557116633940382,0.39748792595239774 l -10.762345256613338 -15.362403297779668" fill="#ffe915" stroke="none" /><path d="M 112.04921762599082 117.19931262002967 l 3.5175545427997497 5.021033075966498 a27.130576083168755,27.130576083168755 0 0,0 -0.38479310964699404,0.2646642095461051 l -3.4306045485298724 -5.080838074877698" fill="#ff4106" stroke="none" /><path d="M 111.7513745106137 117.40417183066458 l 7.174324420222233 10.625410233135351 a33.820697075783926,33.820697075783926 0 0,0 -0.48528722548500025,0.32162191114786237 l -6.990362495997269 -10.747330165374532" fill="#ff9d0e" stroke="none" /><path d="M 111.45004920935366 117.60387380957326 l 8.586819828025448 13.201802884359331 a36.748684838946055,36.748684838946055 0 0,0 -0.5332377629175681,0.3403375695655362 l -8.358300263060949 -13.347654882748676" fill="#ffc312" stroke="none" /><path d="M 111.1453310114006 117.79835938074945 l 11.941834437438729 19.070322879197697 a43.50076941902318,43.50076941902318 0 0,0 -0.6380543714289371,0.3919451083770752 l -11.611800866077484 -19.27305645440315" fill="#e7ff1a" stroke="none" /><line stroke="#e1ed5e" stroke-width="0.3" x1="143.8653032363475" x2="146.44561519142675" y1="172.8068346515853" y2="177.08958963109032" /><path d="M 144.38136562736335 173.6633856474863 a86.0,86.0 0 0,1 -40.68145358897372,12.25698825130547" fill="none" id="id54" stroke="none" /><text fill="#e1ed5e" style="font-size:6.75px; font-family:Arial;" text-anchor="middle"><textPath startOffset="21.466115282336833" xlink:href="#id54">June</textPath></text><path d="M 110.5260780823613 118.17145234162733 l 15.911237444876528 27.467998115118487 a52.74363554288314,52.74363554288314 0 0,0 -0.7895250890459137,0.4483129508993597 l -15.436063588909416 -27.737814231812475" fill="#7eff26" stroke="none" /><path d="M 109.57404056367764 118.69057910512821 l 5.861301792024098 11.44251730230551 a33.85636266253974,33.85636266253974 0 0,0 -0.5209786330702384,0.2612295019604287 l -5.663469251271098 -11.54171464517524" fill="#ff9d0e" stroke="none" /><path d="M 109.2508944713604 118.85261126421891 l 7.102785500873016 14.474930435715772 a37.123683604878345,37.123683604878345 0 0,0 -0.576101819237967,0.2765638828841244 l -6.852571013634816 -14.595048595099456" fill="#ffc812" stroke="none" /><path d="M 108.92500713936063 119.00905698771935 l 6.782635697024396 14.446095838183577 a36.959130050367236,36.959130050367236 0 0,0 -0.5782027176257021,0.26542450860951583 l -6.532964983631275 -14.560707417127167" fill="#ffc612" stroke="none" /><path d="M 108.59647513512805 119.15986991738527 l 6.8420403692352885 15.249576295330513 a37.71415847721182,37.71415847721182 0 0,0 -0.5945894354517068,0.260650535129232 l -6.578530259125828 -15.3650913837542" fill="#ffd013" stroke="none" /><path d="M 108.2653958097858 119.30500536409082 l 6.636075024305005 15.499495352544672 a37.8603632200424,37.8603632200424 0 0,0 -0.6013100803655593,0.25134766236049527 l -6.368293484441985 -15.61142805792514" fill="#ffd113" stroke="none" /><path d="M 107.93186726928326 119.44442032107085 l 6.000153821193949 14.708959306743036 a36.88569575956341,36.88569575956341 0 0,0 -0.5899584667223455,0.23475664926396825 l -5.746074278429738 -14.810062800413073" fill="#ffc512" stroke="none" /><path d="M 107.59598834532513 119.57807347666477 l 6.163171165189714 15.885097822142747 a38.03880898509254,38.03880898509254 0 0,0 -0.612478765936734,0.23158706155255682 l -5.888822178492705 -15.988833133801934" fill="#ffd413" stroke="none" /><path d="M 107.2578585660854 119.70592522655815 l 5.463504977450026 14.834047753926923 a36.80818963083394,36.80818963083394 0 0,0 -0.5964336638097244,0.2138598917488329 l -5.207351753010567 -14.925895186715715" fill="#ffc412" stroke="none" /><path d="M 106.91757812671514 119.82793768551818 l 5.219693819572885 14.961271401082286 a36.8456569919625,36.8456569919625 0 0,0 -0.6006373141981834,0.20376878803918158 l -4.961386772437474 -15.04890317601959" fill="#ffc412" stroke="none" /><path d="M 106.57524785965236 119.94407469862006 l 0.5535638778977374 1.6790727234781344 a22.76797007260911,22.76797007260911 0 0,0 -0.37326314817178996,0.11950707278289029 l -0.5245793846350071 -1.6883526429207314" fill="#ff0200" stroke="none" /><path d="M 106.2309692047433 120.05430185196036 l 5.35448111929366 17.233335151968756 a39.046005334060894,39.046005334060894 0 0,0 -0.643561885440863,0.19389991686468622 l -5.057044259412551 -17.322950437939166" fill="#ffe115" stroke="none" /><path d="M 105.88484417918355 120.15858648285463 l 3.258638906168315 11.162496780926219 a32.62841613913873,32.62841613913873 0 0,0 -0.5404956670913819,0.15274947438531755 l -3.0660120709723273 -11.216935048650056" fill="#ff8d0d" stroke="none" /><path d="M 105.53697534728816 120.25689768951611 l 2.124023307459526 7.770690698564899 a29.05575005467488,29.05575005467488 0 0,0 -0.48358392073282036,0.12771890869139785 l -1.989948943915208 -7.806100956559882" fill="#ff5c08" stroke="none" /><path d="M 105.18746579009965 120.34920634021253 l 4.075525388167896 15.987326071023602 a37.49862121787248,37.49862121787248 0 0,0 -0.6268460859615554,0.15406351683985026 l -3.799726017463129 -16.055110846177485" fill="#ffcd13" stroke="none" /><path d="M 104.83641907484287 120.43548508189849 l 2.570785522763292 10.862427011847963 a32.162493394926315,32.162493394926315 0 0,0 -0.5398395650950804,0.12286572744891139 l -2.3834258082753492 -10.905069472874558" fill="#ff870c" stroke="none" /><path d="M 104.48393922423573 120.51570834832081 l 3.5611698086759103 16.293691221047542 a37.678318380852026,37.678318380852026 0 0,0 -0.6348052743870409,0.13302961734387667 l -3.2801730728594913 -16.35257681911796" fill="#ffcf13" stroke="none" /><path d="M 103.7750983002368 120.6578951692458 l 2.8066991693665173 15.358672172522157 a36.613019282967954,36.613019282967954 0 0,0 -0.620941165482986,0.10795858088758033 l -2.5419090324114815 -15.404709331930743" fill="#ffc112" stroke="none" /><path d="M 103.41894727170886 120.7198165907248 l 2.5495043432973103 15.450739128823532 a36.65967151709928,36.65967151709928 0 0,0 -0.6235009484666765,0.09737802520585204 l -2.2831675312221167 -15.49233546137649" fill="#ffc212" stroke="none" /><path d="M 103.06178313531738 120.77559828337769 l 2.3509634301636084 15.952361628945964 a37.12466652649394,37.12466652649394 0 0,0 -0.6330134116600382,0.08772989082473784 l -2.0760214273167397 -15.990466085263304" fill="#ffc812" stroke="none" /><path d="M 102.70371172650421 120.8252237178851 l 3.3928927917884453 26.13361134145457 a47.35293841761812,47.35293841761812 0 0,0 -0.8092224302866623,0.0979855667732673 l -2.9425429384504027 -26.18814243695319" fill="#baff1f" stroke="none" /><path d="M 102.34483914955558 120.86867818915974 l 2.020780090037816 17.98460649126103 a39.09777949964585,39.09777949964585 0 0,0 -0.6694422406273505,0.0693904254252049 l -1.710905252804863 -18.016726285141996" fill="#ffe115" stroke="none" /><path d="M 101.98527174616119 120.90594882070398 l 1.6006945708062283 16.856150216997385 a37.93198225982385,37.93198225982385 0 0,0 -0.6505437595334569,0.05613165291792861 l -1.3103064935312296 -16.881206122193976" fill="#ffd213" stroke="none" /><path d="M 100.90346689309514 120.98055641714683 l 0.6711092497657685 15.584683383962165 a36.599126379495345,36.599126379495345 0 0,0 -0.6296437860666207,0.021686205093758522 l -0.4027451120244954 -15.593926387482018" fill="#ffc112" stroke="none" /><line stroke="#e1ed5e" stroke-width="0.3" x1="102.19456741930631" x2="102.32365962044197" y1="184.97166512339345" y2="189.96999836594603" /><path d="M 102.22038585953345 185.97133177190398 a86.0,86.0 0 0,1 -42.740103519485714,-10.115201625700543" fill="none" id="id55" stroke="none" /><text fill="#e1ed5e" style="font-size:6.75px; font-family:Arial;" text-anchor="middle"><textPath startOffset="22.20632615414155" xlink:href="#id55">July</textPath></text><path d="M 100.54218724476979 120.99299961872073 l 0.44155911712314894 17.096769551162527 a38.10247068523939,38.10247068523939 0 0,0 -0.6557985152537359,0.011290166169478814 l -0.1472009119767451 -17.101837194611164" fill="#ffd513" stroke="none" /><path d="M 100.18074693466247 120.99922214144158 l 0.13963089076521146 16.22235031792759 a37.222951230377944,37.222951230377944 0 0,0 -0.6407556508553226,0.0 l 0.13963089076520027 -16.22235031792759" fill="#ffc912" stroke="none" /><path d="M 99.81925306533755 120.99922214144158 l -0.14677798883819787 17.052701883124712 a38.05333355367016,38.05333355367016 0 0,0 -0.6549527942979184,-0.011275606316258506 l 0.44029047302878416 -17.04764879952929" fill="#ffd413" stroke="none" /><path d="M 99.09653310690486 120.98055641714683 l -0.9479190372442184 22.012836321713 a43.03323656269539,43.03323656269539 0 0,0 -0.739786278757997,-0.038238500471798796 l 1.3266933844157043 -21.993258014479" fill="#ecff1a" stroke="none" /><path d="M 98.73552117531835 120.96189622390904 l -1.9143640134050859 31.73536717302199 a52.79305457458189,52.79305457458189 0 0,0 -0.9066257834202138,-0.06252622215771221 l 2.4603525576042298 -31.697712606347995" fill="#7dff26" stroke="none" /><path d="M 98.37488393609728 120.93702456842531 l -1.016592201197104 13.097166636467055 a34.13656095052737,34.13656095052737 0 0,0 -0.5854512570997443,-0.05051519791298183 l 1.2418877760383902 -13.077727186275409" fill="#ffa10e" stroke="none" /><path d="M 98.01472825383883 120.90594882070398 l -1.5688899334497306 16.521230767243743 a37.595556082512005,37.595556082512005 0 0,0 -0.6437207847503635,-0.06672429135486134 l 1.8530433148056873 -16.491777107433123" fill="#ffce13" stroke="none" /><path d="M 97.65516085044442 120.86867818915974 l -2.0345545554247484 18.107196940777442 a39.221141382775656,39.221141382775656 0 0,0 -0.6702567656620235,-0.08115876007508888 l 2.345938744138161 -18.069492651977004" fill="#ffe315" stroke="none" /><path d="M 95.86986931433489 120.58985236759428 l -3.1313156926875747 15.610481298459403 a36.92144039767829,36.92144039767829 0 0,0 -0.6220533747154551,-0.13035733278330094 l 3.399560528832416 -15.55426798494956" fill="#ffc512" stroke="none" /><path d="M 93.76903079525671 120.05430185196036 l -5.828461612656114 18.758835852340717 a40.64344387589074,40.64344387589074 0 0,0 -0.6663176280220724,-0.2133338628754961 l 6.1505005857691275 -18.655729142805516" fill="#fff417" stroke="none" /><path d="M 93.42475214034765 119.94407469862007 l -3.3699101036416983 10.221628183339396 a31.76280524886819,31.76280524886819 0 0,0 -0.5177795049289492,-0.17565892044477008 l 3.545359341507873 -10.162106275996504" fill="#ff810b" stroke="none" /><path d="M 93.08242187328487 119.8279376855182 l -5.256640424722279 15.067171901398241 a36.95781744666573,36.95781744666573 0 0,0 -0.5988582075675127,-0.21472924687923972 l 5.5152181929195185 -14.974455113479044" fill="#ffc612" stroke="none" /><path d="M 92.7421414339146 119.70592522655815 l -5.240087267131127 14.227442836822899 a36.161749379349764,36.161749379349764 0 0,0 -0.5822554445029291,-0.22015918749310656 l 5.484212932394339 -14.13513539922316" fill="#ffbc11" stroke="none" /><path d="M 92.06813273071674 119.44442032107085 l -7.649381947388367 18.751927223672663 a41.2521065269504,41.2521065269504 0 0,0 -0.6551788039328085,-0.27386479318048923 l 7.971032210818637 -18.6174773874722" fill="#fffc17" stroke="none" /><path d="M 91.40352486487194 119.15986991738527 l -7.044335846301678 15.700453540310715 a38.20833835345371,38.20833835345371 0 0,0 -0.597745808459844,-0.2743957830833954 l 7.313549650528942 -15.576870686893244" fill="#ffd614" stroke="none" /><path d="M 91.07499286063937 119.00905698771935 l -5.521144152092666 11.759289621370701 a33.99091702488565,33.99091702488565 0 0,0 -0.5274861553078635,-0.25322540982864655 l 5.722742975400772 -11.662509935042493" fill="#ff9f0e" stroke="none" /><path d="M 90.7491055286396 118.85261126421891 l -4.9244275174652445 10.035604445927973 a32.17870041507054,32.17870041507054 0 0,0 -0.495162918808437,-0.24828496690412458 l 5.096444343956442 -9.949351638114546" fill="#ff870c" stroke="none" /><path d="M 90.42595943632237 118.69057910512821 l -7.681502582904338 14.995939354665811 a37.8488480039432,37.8488480039432 0 0,0 -0.5773014449788045,-0.3020168310616123 l 7.938494930409639 -14.861493104659482" fill="#ffd113" stroke="none" /><path d="M 90.10565033884886 118.52300852407294 l -5.726651992706403 10.720747427371482 a33.154380627866665,33.154380627866665 0 0,0 -0.5010687665671019,-0.2732226429889167 l 5.910343571142145 -10.620584132622799" fill="#ff940d" stroke="none" /><line stroke="#e1ed5e" stroke-width="0.3" x1="58.666819895761336" x2="56.23545636021788" y1="174.27360380694188" y2="178.64263932499728" /><path d="M 58.180547188652646 175.14741091055294 a86.0,86.0 0 0,1 -31.652253787137756,-30.449443065178592" fill="none" id="id56" stroke="none" /><text fill="#e1ed5e" style="font-size:6.75px; font-family:Arial;" text-anchor="middle"><textPath startOffset="22.20632615414155" xlink:href="#id56">August</textPath></text><path d="M 89.7882731507175 118.34994917583269 l -8.840347333923116 15.885650553372889 a39.17981392886841,39.17981392886841 0 0,0 -0.5864868009684497,-0.3330225119551595 l 9.112482901812774 -15.731124875623097" fill="#ffe215" stroke="none" /><path d="M 89.4739219176387 118.17145234162733 l -4.919726321744601 8.493056168682438 a30.81507565764327,30.81507565764327 0 0,0 -0.4566972191118949,-0.2698247669906462 l 5.065191411884878 -8.407112829398041" fill="#ff740a" stroke="none" /><path d="M 89.1626897886671 117.98757091392108 l -7.926621979872004 13.156463383477961 a36.359813305264694,36.359813305264694 0 0,0 -0.5333132754571199,-0.3276045724439557 l 8.151914455261434 -13.018070344205627" fill="#ffbe11" stroke="none" /><path d="M 88.8546689885994 117.79835938074946 l -3.678175950774005 5.873804678438055 a27.93040833755797,27.93040833755797 0 0,0 -0.4052811284149642,-0.2586695913673497 l 3.7787388812358924 -5.809620658246901" fill="#ff4c07" stroke="none" /><path d="M 88.54995079064634 117.60387380957326 l -9.573919008163957 14.719418144082077 a38.55907730136227,38.55907730136227 0 0,0 -0.5532774087686708,-0.3666820972368986 l 9.825871115672589 -14.55243802575386" fill="#ffda14" stroke="none" /><path d="M 88.24862548938628 117.40417183066458 l -8.422147579418343 12.473477338589007 a36.05058825314797,36.05058825314797 0 0,0 -0.511305691261668,-0.3516807167839834 l 8.635610155302901 -12.326655832439922" fill="#ffba11" stroke="none" /><path d="M 87.95078237400918 117.19931262002967 l -7.677606313449029 10.959180525853009 a34.38092958290074,34.38092958290074 0 0,0 -0.48177942949521213,-0.3437368309076116 l 7.865113070793128 -10.825399433101179" fill="#ffa40f" stroke="none" /><path d="M 87.65650970185807 116.9893568818739 l -9.909901127251088 13.639808745205304 a37.85973080916986,37.85973080916986 0 0,0 -0.5239336566215281,-0.3875935936839077 l 10.143219754291179 -13.46720520278163" fill="#ffd113" stroke="none" /><path d="M 87.36589467227662 116.77436683061367 l -3.6834707962358197 4.890563181417314 a27.122545658315403,27.122545658315403 0 0,0 -0.37050853140449524,-0.2840901425866834 l 3.7671080561338015 -4.826433697003264" fill="#ff4106" stroke="none" /><path d="M 87.07902340077011 116.55440617244103 l -9.4038813876014 12.048289917736602 a36.28379125393662,36.28379125393662 0 0,0 -0.48904072620162925,-0.38852352972988574 l 9.609879606520387 -11.884632474001586" fill="#ffbd11" stroke="none" /><path d="M 86.79598089348748 116.32954008644616 l -8.119309400107705 10.041229663014056 a33.91315136905282,33.91315136905282 0 0,0 -0.45077017058515356,-0.37095316211460555 l 8.290949699237547 -9.899981382042268" fill="#ff9e0e" stroke="none" /><path d="M 86.24171649860922 115.8653595955263 l -10.90357349188539 12.573451790517556 a37.64270425205636,37.64270425205636 0 0,0 -0.4858734687997897,-0.4287268446762736 l 11.118389313591768 -12.383901804068993" fill="#ffcf13" stroke="none" /><path d="M 85.97065885151581 115.62618273729859 l -9.155079808081274 10.197125334790746 a34.70389913074993,34.70389913074993 0 0,0 -0.4410707768216185,-0.40290769693936535 l 9.329250134369747 -10.038024871264804" fill="#ffa90f" stroke="none" /><path d="M 85.70375840098266 115.38237550388516 l -10.78063991335183 11.599681648549394 a36.83587103032379,36.83587103032379 0 0,0 -0.4607363489841655,-0.4356549756774482 l 10.978712096726813 -11.412392036126015" fill="#ffc412" stroke="none" /><path d="M 85.44109423537348 115.13401014063109 l -1.2540620604504935 1.3035998890762348 a22.80887930008083,22.80887930008083 0 0,0 -0.28060357397288777,-0.27462965635604614 l 1.2763155867991753 -1.281820129797619" fill="#ff0300" stroke="none" /><path d="M 85.18274418774928 114.88116024355367 l -11.726588667408457 11.777163550464373 a37.61970105233482,37.61970105233482 0 0,0 -0.4549464649927928,-0.4608583671104155 l 11.927575757456783 -11.573564689373292" fill="#ffce13" stroke="none" /><path d="M 84.9287848128048 114.62390073753433 l -11.915949705461243 11.56228369920492 a37.60350148986598,37.60350148986598 0 0,0 -0.4467536793777701,-0.4684194467299187 l 12.11320993621797 -11.355457135892502" fill="#ffce13" stroke="none" /><path d="M 84.67929136418377 114.36230785411682 l -6.7621019768048365 6.339092573352683 a30.26877110507337,30.26877110507337 0 0,0 -0.3530687717972767,-0.3831864198566232 l 6.870217156597842 -6.221754898694716" fill="#ff6d0a" stroke="none" /><path d="M 84.19399662182784 113.82643327865904 l -12.755022093285257 11.157561954224045 a37.94643848608146,37.94643848608146 0 0,0 -0.42582678401698926,-0.4953327521091999 l 12.945191386873026 -10.936352102953315" fill="#ffd313" stroke="none" /><path d="M 83.95833913139862 113.55231037782056 l -8.79460718533782 7.429856995667838 a32.51294447656506,32.51294447656506 0 0,0 -0.35749375880372497,-0.43062426210675664 l 8.921196944035081 -7.27737147644732" fill="#ff8b0c" stroke="none" /><path d="M 83.50135304334701 112.99209946851258 l -9.92920257895059 7.818894960760326 a33.638203284535436,33.638203284535436 0 0,0 -0.35431148797961987,-0.45799535988288304 l 10.06232088414828 -7.64682160676419" fill="#ff9a0e" stroke="none" /><path d="M 83.28015986056508 112.70617746262583 l -13.087484700706298 9.945783079251076 a37.43778746823119,37.43778746823119 0 0,0 -0.3854999876128063,-0.5164402309149718 l 13.256745955014189 -9.719029968826796" fill="#ffcc13" stroke="none" /><path d="M 83.06392112726016 112.41649034213515 l -7.576830632744073 5.554865744448501 a30.394939908064146,30.394939908064146 0 0,0 -0.3057155008624878,-0.42461209206467104 l 7.671325925982168 -5.423620046932691" fill="#ff6f0a" stroke="none" /><path d="M 82.85270091963577 112.12312394758628 l -10.374289041027529 7.334612367989985 a33.70521198939457,33.70521198939457 0 0,0 -0.33085532492389363,-0.47662177190903726 l 10.499005273113557 -7.154949333893935" fill="#ff9b0e" stroke="none" /><path d="M 82.6465618267979 111.8261652097733 l -13.65408367128599 9.305098371460081 a37.52328225883186,37.52328225883186 0 0,0 -0.3591458670867542,-0.5368743417435523 l 13.812232643783476 -9.068687115510707" fill="#ffcd13" stroke="none" /><path d="M 82.24976979558568 111.22182372390057 l -7.02785248473473 4.443059094617074 a29.31453454292251,29.31453454292251 0 0,0 -0.26597406676675683,-0.4288348836145468 l 7.1032911911694425 -4.3214278796372625" fill="#ff6008" stroke="none" /><path d="M 82.05923443525364 110.91462005526583 l -1.3972914222982435 0.8500699106639785 a22.635555615637852,22.635555615637852 0 0,0 -0.1996446566291625,-0.3346159280496711 l 1.4117169546256378 -0.8258918887281963" fill="#ff0000" stroke="none" /><line stroke="#e1ed5e" stroke-width="0.3" x1="26.63291911575756" x2="22.317208475507996" y1="142.92168965132927" y2="145.44649492493687" /><path d="M 25.769776987707644 143.4266507060508 a86.0,86.0 0 0,1 -11.730757126820373,-40.83630448921669" fill="none" id="id57" stroke="none" /><text fill="#e1ed5e" style="font-size:6.75px; font-family:Arial;" text-anchor="middle"><textPath startOffset="21.46611528233685" xlink:href="#id57">September</textPath></text><path d="M 81.51974371655577 109.97397251340807 l -13.934080991395088 7.5203578714588355 a36.833963356960595,36.833963356960595 0 0,0 -0.2963336057759499,-0.560551505892973 l 14.061467105395925 -7.279391350479736" fill="#ffc412" stroke="none" /><path d="M 81.02952815118164 109.00673069616217 l -7.69611613418192 3.6539336490611753 a29.519473848927337,29.519473848927337 0 0,0 -0.21398158177808,-0.46089729045479605 l 7.757872332799826 -3.520916291327552" fill="#ff6309" stroke="none" /><path d="M 80.58989483394504 108.01547362559985 l -14.070854726393945 5.810610709430831 a36.22340794788851,36.22340794788851 0 0,0 -0.23303274840228091,-0.5783681706578555 l 14.168790089053612 -5.56754317093017" fill="#ffbc11" stroke="none" /><path d="M 80.45479744820244 107.68017299344265 l -15.164505439010728 5.958803692259156 a37.29323683780075,37.29323683780075 0 0,0 -0.22962994550484336,-0.5994913272833838 l 15.264829664109081 -5.696888798142615" fill="#ffca12" stroke="none" /><path d="M 80.32549172779594 107.34259656027581 l -15.256673090561133 5.693844735843919 a37.284530747557625,37.284530747557625 0 0,0 -0.21922547557752908,-0.6032143551940888 l 15.352422827143887 -5.430382583643713" fill="#ffca12" stroke="none" /><path d="M 80.20201598880116 107.00284435728193 l -15.373769762057574 5.437933315204109 a37.30717374155812,37.30717374155812 0 0,0 -0.20893646207625033,-0.6072671597835606 l 15.465097055077052 -5.172493452331251" fill="#ffca12" stroke="none" /><path d="M 79.97269907076064 106.31721596034903 l -10.564931584746232 3.3324987057898716 a32.07805610269508,32.07805610269508 0 0,0 -0.16157140598626094,-0.5280247032220888 l 10.620729763238623 -3.1501470300157353" fill="#ff860c" stroke="none" /><path d="M 79.86692584326677 105.97154293290107 l -12.17013567944649 3.60970645333569 a33.694179104431676,33.694179104431676 0 0,0 -0.16013938898574556,-0.5574662213735254 l 12.23046770531834 -3.3996827564575685" fill="#ff9b0e" stroke="none" /><path d="M 79.76711848015287 105.62410040840567 l -6.602036592212479 1.8351571256990167 a27.852349147622036,27.852349147622036 0 0,0 -0.12442297390185474,-0.4630241723712097 l 6.632647642456108 -1.721242020152268" fill="#ff4b07" stroke="none" /><path d="M 79.67330655649465 105.27499134158121 l -15.719262890586096 4.079314516861286 a37.23995174718301,37.23995174718301 0 0,0 -0.15567840093336358,-0.6218578257105494 l 15.787152605814518 -3.8081288517533456" fill="#ffca12" stroke="none" /><path d="M 79.58551787078972 104.9243191809786 l -15.979655003685703 3.854563693657323 a37.43797540165086,37.43797540165086 0 0,0 -0.14572185343032087,-0.6277659306825889 l 16.04363742304658 -3.57892910562616" fill="#ffcc13" stroke="none" /><path d="M 79.50377843672027 104.57218783832718 l -7.441886071333474 1.660096271135481 a28.62480084514639,28.62480084514639 0 0,0 -0.10313919391759249,-0.48183197717732207 l 7.469359303975507 -1.5317504745419952" fill="#ff5608" stroke="none" /><path d="M 79.4281124754447 104.21870165774334 l -22.93713357835653 4.703745503925748 a44.41446814593644,44.41446814593644 0 0,0 -0.14713892979823454,-0.7502582330642159 l 23.014702441130428 -4.308223543793577" fill="#dcff1b" stroke="none" /><path d="M 79.35854240842038 103.8639653848113 l -23.266586363858565 4.35537480499177 a44.670727295941845,44.670727295941845 0 0,0 -0.1349769795344487,-0.7570225826540817 l 23.3381097857322 -3.9542334716044745" fill="#d9ff1c" stroke="none" /><path d="M 79.29508885075956 103.50808413554451 l -15.889377848606806 2.6921764576813825 a37.11583514730436,37.11583514730436 0 0,0 -0.10130545505042997,-0.630829165302646 l 15.933365058018527 -2.418268062685523" fill="#ffc812" stroke="none" /><path d="M 79.23777060512086 103.15116336523772 l -8.010702520653759 1.2158151146874248 a29.102441685535965,29.102441685535965 0 0,0 -0.07090733555116835,-0.49592573969501846 l 8.030443907221526 -1.0777439030120057" fill="#ff5d08" stroke="none" /><path d="M 79.18660465613746 102.79330883721812 l -13.007906492870818 1.7457555367561668 a34.12453022859811,34.12453022859811 0 0,0 -0.0731215408546297,-0.58285062553718 l 13.036029542972296 -1.5215871569315782" fill="#ffa10e" stroke="none" /><path d="M 79.04373962182676 101.35467743843564 l -16.478936125298294 1.0652493610746787 a37.513330736799624,37.513330736799624 0 0,0 -0.03610863355017343,-0.6447439084463886 l 16.494831109736 -0.7814337362928525" fill="#ffcd13" stroke="none" /><path d="M 79.0095281055655 100.63252640178507 l -15.050659202981485 0.45353622148339917 a36.057491077483284,36.057491077483284 0 0,0 -0.013354900254122285,-0.6205497377361439 l 15.056236165920614 -0.19439666795712648" fill="#ffba11" stroke="none" /><line stroke="#e1ed5e" stroke-width="0.3" x1="15.007084014347285" x2="10.007500721073583" y1="101.09737516637583" y2="101.16192664675087" /><path d="M 14.007167355692545 101.11028546245083 a86.0,86.0 0 0,1 10.666146001902534,-42.60595125391555" fill="none" id="id58" stroke="none" /><text fill="#e1ed5e" style="font-size:6.75px; font-family:Arial;" text-anchor="middle"><textPath startOffset="22.20632615414155" xlink:href="#id58">October</textPath></text><path d="M 79.00175016825051 100.2711162175752 l -15.08138360163564 0.19472135585766118 a36.082640609194115,36.082640609194115 0 0,0 -0.0026730410379815204,-0.6211205991241349 l 15.082500939963124 0.06490872147014912" fill="#ffbb11" stroke="none" /><path d="M 79.00019446554 99.90962569577889 l -15.292216933724688 -0.06581125063829502 a36.29235854499909,36.29235854499909 0 0,0 0.008065532333848855,-0.6246843677850655 l 15.288818394273124 0.3290318764838325" fill="#ffbd11" stroke="none" /><path d="M 79.00486145842228 99.54816195383935 l -17.936247008899365 -0.38600739823205055 a38.94040017602008,38.94040017602008 0 0,0 0.02019023691123616,-0.6700156692768122 l 17.92694507753248 0.6946932149338572" fill="#ffdf14" stroke="none" /><path d="M 79.01574976396665 99.18683210126434 l -16.729467006189516 -0.6482893303011865 a37.74202333551611,37.74202333551611 0 0,0 0.03074427796370327,-0.6489631161919085 l 16.715829119992314 0.9361635531161041" fill="#ffd013" stroke="none" /><path d="M 79.03285615573316 98.82574320788736 l -18.51855662194819 -1.037124610531598 a39.54757576660819,39.54757576660819 0 0,0 0.04391552828978545,-0.679353785170055 l 18.49796050265399 1.3557374599546648" fill="#ffe715" stroke="none" /><path d="M 79.05617556472873 98.46500227214037 l -22.329419322471388 -1.6365496201684822 a43.38931133237537,43.38931133237537 0 0,0 0.06100437208594894,-0.7444078578568415 l 22.29794046656594 2.020671395233102" fill="#e8ff1a" stroke="none" /><path d="M 79.08570108090925 98.10471618934814 l -15.038079580075774 -1.3627723731822294 a36.099701520155975,36.099701520155975 0 0,0 0.06140881430064716,-0.618378379574599 l 15.012393640092897 1.6214262834612587" fill="#ffbb11" stroke="none" /><path d="M 79.16333360222342 97.38593545837743 l -17.284857792630678 -2.168472297830027 a38.42034962387155,38.42034962387155 0 0,0 0.08797162511964725,-0.6554907886521971 l 17.244970168453197 2.4656814285468833" fill="#ffd914" stroke="none" /><path d="M 79.21141760316559 97.0276538004421 l -12.960162115843865 -1.853040667965353 a34.09196554326691,34.09196554326691 0 0,0 0.08806134341869558,-0.5802142259743718 l 12.926344878985867 2.075854006331817" fill="#ffa10e" stroke="none" /><path d="M 79.26566170972629 96.67025291283419 l -9.016745659747684 -1.448007752933382 a30.132274018289962,30.132274018289962 0 0,0 0.08664913981557525,-0.5114081281181083 l 8.990484658411885 1.6030016693673181" fill="#ff6b09" stroke="none" /><path d="M 79.32604984820605 96.31383870115002 l -15.062904362503275 -2.6857129238323205 a36.30046214148972,36.30046214148972 0 0,0 0.11497614100374585,-0.614207142719582 l 15.014442497589666 2.944598144014475" fill="#ffbd11" stroke="none" /><path d="M 79.3925641242962 95.95851677861259 l -15.308711401210257 -3.002309488780121 a36.60033676021015,36.60033676021015 0 0,0 0.12656867739403654,-0.6171938209241866 l 15.254763427901226 3.2653789658677104" fill="#ffc112" stroke="none" /><path d="M 79.46518482838121 95.60439243477599 l -16.811111882346275 -3.5985252339645593 a38.191941908354735,38.191941908354735 0 0,0 0.14313905711807762,-0.6416643263117782 l 16.746678438226162 3.8873677298262965" fill="#ffd614" stroke="none" /><path d="M 79.54389044137918 95.25157060432595 l -16.882240286084063 -3.918835388007129 a38.33110809715803,38.33110809715803 0 0,0 0.1547247950617188,-0.6414341653429242 l 16.812282690761528 4.20885478500945" fill="#ffd714" stroke="none" /><path d="M 79.62865764111835 94.90015583598534 l -16.057936504507747 -4.020008712529805 a37.55348286106637,37.55348286106637 0 0,0 0.1623806664204939,-0.6257189469607907 l 15.986359506216948 4.295824085039459" fill="#ffce13" stroke="none" /><path d="M 79.71946130924805 94.55025226153421 l -17.494690842055835 -4.701140009418403 a39.11532293521887,39.11532293521887 0 0,0 0.18032765398563025,-0.6487345162597391 l 17.411176417503846 5.001585829097085" fill="#ffe115" stroke="none" /><path d="M 79.81627453868168 94.20196356495316 l -11.838493313862193 -3.4007604642353373 a33.31726819053097,33.31726819053097 0 0,0 0.1630866044921092,-0.5498469556534447 l 11.778200812258378 3.604036806635321" fill="#ff960d" stroke="none" /><path d="M 80.02781315780177 93.51064311812611 l -15.726007229593622 -5.109689491996044 a37.53530254001558,37.53530254001558 0 0,0 0.2049475889682596,-0.6127672047935915 l 15.635722346853589 5.379629799711958" fill="#ffcd13" stroke="none" /><path d="M 80.14247586403 93.16781622104843 l -14.35051134698965 -4.937439842611769 a36.176148658980935,36.176148658980935 0 0,0 0.20766301280983293,-0.5870913014154512 l 14.263395253370007 5.183728770453832" fill="#ffbc11" stroke="none" /><path d="M 80.2630227832202 92.82701384747504 l -7.247272200123639 -2.6338675149743884 a28.71104483381612,28.71104483381612 0 0,0 0.17280687268182895,-0.46303650461556084 l 7.200860738940183 2.7582271566192906" fill="#ff5708" stroke="none" /><path d="M 80.38941819471856 92.48833698450439 l -15.138847189271438 -5.7988039140309455 a37.21144105419047,37.21144105419047 0 0,0 0.2342663107410107,-0.5961822081878585 l 15.036787328648735 6.058535127114568" fill="#ffc912" stroke="none" /><path d="M 80.52162464483688 92.15188598940014 l -12.336628475018204 -4.970602784522869 a34.30034940037804,34.30034940037804 0 0,0 0.22536687378467202,-0.545743760809658 l 12.249239914347331 5.182221115785838" fill="#ffa30f" stroke="none" /><path d="M 80.803312248108 91.48605970444005 l -16.79449368492237 -7.4485410387265825 a39.372146900634434,39.372146900634434 0 0,0 0.28010035824444474,-0.6171640106821774 l 16.663791009714572 7.7365270582508305" fill="#ffe515" stroke="none" /><path d="M 80.95270993114464 91.15688171328213 l -13.625394185203536 -6.325885312154204 a36.02225654436465,36.02225654436465 0 0,0 0.26595027221590867,-0.560159099062131 l 13.514485719145876 6.559486826856867" fill="#ffba11" stroke="none" /><path d="M 81.10775173730289 90.83032412892265 l -14.947382761737819 -7.254967918069123 a37.61501763219375,37.61501763219375 0 0,0 0.2877369497710835,-0.5800601327918306 l 14.820285799013323 7.511187639359915" fill="#ffce13" stroke="none" /><path d="M 81.26839172434947 90.50648371742162 l -7.338569683727786 -3.7193192254542966 a29.22726810695765,29.22726810695765 0 0,0 0.23129982161317203,-0.44679763410209195 l 7.2734604289544995 3.845089581816724" fill="#ff5e08" stroke="none" /><path d="M 81.43458229118936 90.18545643968196 l -6.720408561765508 -3.552720633981759 a28.60169159728089,28.60169159728089 0 0,0 0.23384184742401043,-0.43327342885499404 l 6.658258615123025 3.6678750461692258" fill="#ff5607" stroke="none" /><path d="M 81.6062741919709 89.86733742301443 l -14.011348338874697 -7.718515892220801 a36.99666746081045,36.99666746081045 0 0,0 0.3120798542060735,-0.5551552378266931 l 13.876410843376194 7.958554639982279" fill="#ffc612" stroke="none" /><line stroke="#e1ed5e" stroke-width="0.3" x1="26.266209847984243" x2="21.928928074336255" y1="57.711370442889674" y2="55.22380399835377" /><path d="M 25.398753493254645 57.213857153982495 a86.0,86.0 0 0,1 29.58750427330803,-30.492523968695096" fill="none" id="id59" stroke="none" /><text fill="#e1ed5e" style="font-size:6.75px; font-family:Arial;" text-anchor="middle"><textPath startOffset="21.46611528233685" xlink:href="#id59">November</textPath></text><path d="M 82.15384107792192 88.93136811851018 l -12.994054873018078 -8.05923620120762 a36.29041366967749,36.29041366967749 0 0,0 0.3338241162761893,-0.5280295839140069 l 12.853403160495926 8.281713432835843" fill="#ffbd11" stroke="none" /><path d="M 82.54541684631803 88.32363383020206 l -13.741811826038454 -9.192681675897685 a37.53308164428626,37.53308164428626 0 0,0 0.36384843575401754,-0.5339026829301936 l 13.581538924615696 9.427862382098294" fill="#ffcd13" stroke="none" /><path d="M 82.7489923806493 88.02491185347247 l -13.764037888783374 -9.554547224559697 a37.755241319366476,37.755241319366476 0 0,0 0.37519249521956943,-0.5306831767169216 l 13.597532773759927 9.790056901608404" fill="#ffd013" stroke="none" /><path d="M 82.95767976084542 87.72973835380427 l -16.56823930763453 -11.928929187376044 a41.41582487465246,41.41582487465246 0 0,0 0.42152905758576636,-0.5749651608231073 l 16.36044763753513 12.21235679187065" fill="#fffe18" stroke="none" /><path d="M 83.17141714833178 87.43820079747576 l -12.720596055529265 -9.495367185368202 a36.87373812285291,36.87373812285291 0 0,0 0.38405589054016365,-0.5053725334253927 l 12.555264224764992 9.712924494674622" fill="#ffc512" stroke="none" /><path d="M 83.6137871275137 86.86637796730984 l -10.689153713769551 -8.567403940034042 a34.6988473014449,34.6988473014449 0 0,0 0.37755899674243604,-0.462842686927933 l 10.540096224950723 8.750130796570057" fill="#ffa90f" stroke="none" /><path d="M 83.84228863543731 86.58626213691792 l -9.804167723806076 -8.139180905363581 a33.742369111227156,33.742369111227156 0 0,0 0.3748445994975806,-0.44369777373220676 l 9.66261251082137 8.306737628724905" fill="#ff9c0e" stroke="none" /><path d="M 84.07557802195018 86.31012108654704 l -12.202230984110315 -10.489992344884573 a37.09143810805357,37.09143810805357 0 0,0 0.4203840029197899,-0.48057158606012934 l 12.019855117612682 10.698479487147646" fill="#ffc812" stroke="none" /><path d="M 84.31358615837235 86.03803664274999 l -13.699987515455524 -12.193910323720315 a39.34069537685445,39.34069537685445 0 0,0 0.4545842817038424,-0.5019633177669339 l 13.488059593135636 12.427926428756805" fill="#ffe415" stroke="none" /><path d="M 84.5562425177563 85.77008943001954 l -12.627893423911578 -11.635367514421745 a38.17106489188513,38.17106489188513 0 0,0 0.44938736173620336,-0.4793751048725073 l 12.425738740204919 11.851012036172303" fill="#ffd513" stroke="none" /><path d="M 85.05521093208273 85.24692304244772 l -11.262814669103117 -11.118335014084177 a36.8261924592106,36.8261924592106 0 0,0 0.4492167678189623,-0.447287688257329 l 11.069762101116842 11.310558552991615" fill="#ffc412" stroke="none" /><path d="M 85.31137513191541 84.99185889309783 l -10.935841093682807 -11.173724411279986 a36.63472857601039,36.63472857601039 0 0,0 0.4544743171314922,-0.4372039330009613 l 10.741883532938887 11.360311431043261" fill="#ffc212" stroke="none" /><path d="M 85.57189188830299 84.74124197986013 l -7.341998657587811 -7.764689592913462 a31.686222380351246,31.686222380351246 0 0,0 0.399536279935238,-0.3713254291630147 l 7.207254493857716 7.889919608151125" fill="#ff800b" stroke="none" /><path d="M 85.83668400450813 84.49514656593479 l -11.509052643638315 -12.599180478734754 a38.06451410060565,38.06451410060565 0 0,0 0.4875683835981493,-0.4377437088577157 l 11.290473272444194 12.79542319636175" fill="#ffd413" stroke="none" /><path d="M 86.10567301691215 84.25364557470407 l -11.529783711563619 -13.066632229849617 a38.4262098651882,38.4262098651882 0 0,0 0.49973505755635367,-0.43336531744183726 l 11.303154855360491 13.263162540711134" fill="#ffd914" stroke="none" /><path d="M 86.37877921826538 84.01681056812374 l -4.891211319115268 -5.7393649451441515 a28.540839352604646,28.540839352604646 0 0,0 0.37666088168739054,-0.3154426562261272 l 4.791692900468767 5.822708758764091" fill="#ff5507" stroke="none" /><path d="M 86.65592168130627 83.78471172551755 l -10.671555485891094 -12.967725788782547 a37.794165910265036,37.794165910265036 0 0,0 0.5058957900697578,-0.4090658795424263 l 10.446756297256837 13.149497765589107" fill="#ffd113" stroke="none" /><path d="M 86.93701828274178 83.55741782278169 l -4.888167933458258 -6.152814470814436 a28.858200281104644,28.858200281104644 0 0,0 0.39160226651447305,-0.30565178050677 l 4.78153311178436 6.236044640544427" fill="#ff5908" stroke="none" /><path d="M 87.22198572758235 83.33499621200491 l -9.5319503714229 -12.43150818743676 a36.6652632821021,36.6652632821021 0 0,0 0.504154085531822,-0.3797184050122542 l 9.316550132132688 12.593743181954869" fill="#ffc212" stroke="none" /><path d="M 87.51073957382395 83.11751280151077 l -9.194323612260526 -12.428522217170368 a36.45974615540853,36.45974615540853 0 0,0 0.5077535013191156,-0.3689045124519646 l 8.979024794587628 12.584945964439001" fill="#ffbf11" stroke="none" /><path d="M 88.09926311788651 82.69761687909137 l -9.09641536505295 -13.22520321490502 a37.05150374790803,37.05150374790803 0 0,0 0.5285931708596072,-0.3569084685534831 l 8.867417499786804 13.37982359575717" fill="#ffc712" stroke="none" /><path d="M 88.39885842347998 82.49532879139004 l -8.301024192241899 -12.525206956701835 a36.02623745148456,36.02623745148456 0 0,0 0.5198637087964224,-0.33813381715103136 l 8.08419345766119 12.6662396980124" fill="#ffba11" stroke="none" /><path d="M 88.70189139769569 82.29822771554957 l -4.659413839747575 -7.300326600985772 a29.660537270348286,29.660537270348286 0 0,0 0.43273431190400036,-0.2709781864151642 l 4.533060375471333 7.379449128723867" fill="#ff6409" stroke="none" /><path d="M 89.00827224532344 82.1063720568725 l -32.97518326402967 -53.68088382938249 a84.0,84.0 0 0,0 1.2385517351294033,-0.746213562165523 l 32.046269462682616 54.240544001006626" fill="#4dd2ff" stroke="none" /><line stroke="#e1ed5e" stroke-width="0.3" x1="56.762969772571076" x2="54.21961505331055" y1="26.818313649435495" y2="22.513508569990535" /><path d="M 56.25429882871897 25.957352633546506 a86.0,86.0 0 0,1 42.265352541879196,-11.944610805530505" fill="none" id="id60" stroke="none" /><text fill="#e1ed5e" style="font-size:6.75px; font-family:Arial;" text-anchor="middle"><textPath startOffset="22.20632615414155" xlink:href="#id60">December</textPath></text><path d="M 89.3179101791058 81.91981866633112 l -3.933992116978764 -6.6585557725862525 a28.733864425569713,28.733864425569713 0 0,0 0.4280022229150811,-0.24792651314434533 l 3.8187931615983626 6.725286443120645" fill="#ff5808" stroke="none" /><path d="M 89.63071344664047 81.73862282372117 l -6.128669245284766 -10.793215145601811 a33.41185239588949,33.41185239588949 0 0,0 0.502571395778188,-0.2796804376280585 l 5.941973760434532 10.897110980790053" fill="#ff970e" stroke="none" /><path d="M 90.26544431104013 81.39251694778311 l -6.931147817890421 -13.248803507290484 a35.952311006939354,35.952311006939354 0 0,0 0.5508228101633234,-0.28215283743967134 l 6.702064520138334 13.366148870042661" fill="#ffb911" stroke="none" /><path d="M 90.58718382345135 81.22770947309562 l -3.547273884863839 -7.074445595896173 a28.913970716620813,28.913970716620813 0 0,0 0.4468292515410761,-0.21925717317307172 l 3.424973366312337 7.134457929204075" fill="#ff5a08" stroke="none" /><path d="M 90.91171255644093 81.06846463323043 l -4.38708895137487 -9.138611664288693 a31.137098826486245,31.137098826486245 0 0,0 0.48517796061636626,-0.22779755803557208 l 4.2291327794588955 9.212774204964273" fill="#ff790b" stroke="none" /><path d="M 91.56875222667455 80.76684994638697 l -3.103185316746928 -7.078908181300167 a28.72921083613018,28.72921083613018 0 0,0 0.4546277803196542,-0.19464788947720194 l 2.980873778636966 7.131275598740155" fill="#ff5808" stroke="none" /><path d="M 92.23578459929587 80.48803036053334 l -6.176160974362402 -15.521087347639664 a37.70476329776322,37.70476329776322 0 0,0 0.6051019043356441,-0.23477013806010918 l 5.908075905027081 15.625100189590325" fill="#ffcf13" stroke="none" /><path d="M 92.57280143429618 80.3572730644239 l -5.513054957376122 -14.580387497463045 a36.58786305236308,36.58786305236308 0 0,0 0.5910118956940164,-0.21767466893866852 l 5.261260735909536 14.673125434208037" fill="#ffc112" stroke="none" /><path d="M 93.25333710446033 80.11325718540243 l -4.965127772000974 -14.63541614161248 a36.45470476684904,36.45470476684904 0 0,0 0.5959774455495619,-0.1964843936089903 l 4.712467504209003 14.718714259480704" fill="#ffbf11" stroke="none" /><path d="M 93.59665428221793 80.00007090966166 l -5.8011571455825806 -18.11907972286524 a40.02510116218282,40.02510116218282 0 0,0 0.6579643038056343,-0.20443271199852436 l 5.4884074690662175 18.21625256974629" fill="#ffed16" stroke="none" /><path d="M 93.94186890950719 79.89281104454417 l -4.598433521168453 -15.262392036108073 a36.94008160306781,36.94008160306781 0 0,0 0.6104080797314101,-0.17819485696525714 l 4.335035223713621 15.339285221992029" fill="#ffc612" stroke="none" /><path d="M 94.28887869178378 79.79150937346287 l -4.489058128178467 -15.884286851824685 a37.50642940399939,37.50642940399939 0 0,0 0.6227891000407632,-0.1702317870356909 l 4.214971138913981 15.959205179686672" fill="#ffcd13" stroke="none" /><path d="M 94.63758080256005 79.69619591428918 l -3.8313604898226674 -14.506734722311613 a36.00415527467293,36.00415527467293 0 0,0 0.6005683601487153,-0.15309824721425302 l 3.581083240988953 14.570535965694729" fill="#ffba11" stroke="none" /><path d="M 95.33964822691252 79.52364482259891 l -3.4298999457857904 -15.070074735223255 a36.45546395820312,36.45546395820312 0 0,0 0.6130720162475483,-0.13399379705837394 l 3.1699852053847213 15.126882030377496" fill="#ffbf11" stroke="none" /><path d="M 95.692805502759 79.44645832069477 l -1.6918592798482268 -8.073399110756275 a29.24876724270777,29.24876724270777 0 0,0 0.49365455202347236,-0.09902245907499971 l 1.552638318357618 8.101325525908486" fill="#ff5f08" stroke="none" /><path d="M 96.04723909329186 79.375362276772 l -4.76132153154522 -24.843529368364123 a46.295674219192634,46.295674219192634 0 0,0 0.7839508392464715,-0.14326200498463643 l 4.332975571195855 24.921806854699497" fill="#c6ff1e" stroke="none" /></svg>