<?xml version="1.0" encoding="utf-8" ?>
<svg baseProfile="full" height="200mm" version="1.1" viewBox="0,0,200,200" width="200mm" xmlns="http://www.w3.org/2000/svg" xmlns:ev="http://www.w3.org/2001/xml-events" xmlns:xlink="http://www.w3.org/1999/xlink"><defs /><rect fill="#1a1a1a" height="200" width="200" x="0" y="0" /><text alignment-baseline="middle" fill="#e1ed5e" style="dominant-baseline: central; font-size:9.0px; font-family:Arial;" text-anchor="middle" x="100.0" y="100.0">2024</text><line stroke="#e1ed5e" stroke-width="0.3" x1="100.0" x2="100.0" y1="15.0" y2="10.0" /><path d="M 100.0 14.0 a86.0,86.0 0 0,1 42.35913384403234,11.155469271406648" fill="none" id="id37" stroke="none" /><text fill="#e1ed5e" style="font-size:6.75px; font-family:Arial;" text-anchor="middle"><textPath startOffset="22.145653131862478" xlink:href="#id37">January</textPath></text><path d="M 100.36049292484886 79.00309439819443 l 0.8737170566991416 -50.88963831922916 a71.89713812934008,71.89713812934008 0 0,0 1.2338462542014765,0.03177950275425639 l -1.7471766249713596 50.86714109912486" fill="#3cffa7" stroke="none" /><path d="M 100.72087961077811 79.0123766808444 l 1.875385151394626 -54.599792458165375 a75.63199068257356,75.63199068257356 0 0,0 1.2971759389685986,0.055706316223852366 l -2.812386850964061 54.55955357351569" fill="#41ffd3" stroke="none" /><path d="M 101.08105385017728 79.02784411241856 l 3.0863702843856102 -59.87475898663111 a80.95425293704777,80.95425293704777 0 0,0 1.387230720871135,0.08345235536984398 l -4.113745357389208 59.81295465343657" fill="#49f1ff" stroke="none" /><path d="M 102.15924093988457 79.11130261209362 l 4.844798414780966 -46.869029816180806 a68.11876513226879,68.11876513226879 0 0,0 1.1621194273418747,0.1302179057828191 l -5.648653743723638 46.778956149891016" fill="#37ff79" stroke="none" /><path d="M 102.51750503828377 79.15144685158666 l 6.818691724743064 -56.468549084956315 a77.87874464681161,77.87874464681161 0 0,0 1.3258751625970921,0.171661084743704 l -7.787044709230948 56.34317640401222" fill="#45ffec" stroke="none" /><path d="M 102.87502721639298 79.19773525538626 l 7.482073164544459 -54.13655422806583 a75.65114749507012,75.65114749507012 0 0,0 1.2848983354029433,0.18883580739997693 l -8.410296605555084 54.00013734736698" fill="#42ffd3" stroke="none" /><path d="M 103.23170211078529 79.25015418208739 l 9.532924037843227 -61.20821078123853 a82.94611939219287,82.94611939219287 0 0,0 1.4050381286785227,0.23119848939433757 l -10.58223966957482 61.035546293348524" fill="#4cddff" stroke="none" /><path d="M 103.58742460773223 79.30868818359171 l 1.1930189852028599 -6.8810164741920365 a27.983672530778964,27.983672530778964 0 0,0 0.4726112702070848,0.0861255169414723 l -1.3109649889609984 6.859522783319198" fill="#ff0000" stroke="none" /><path d="M 103.94208987418118 79.37332000966035 l 9.69068867538912 -50.70577804489531 a72.62349633782569,72.62349633782569 0 0,0 1.2225076756405266,0.24453577345239494 l -10.559692836560604 50.53195287478005" fill="#3dffb0" stroke="none" /><path d="M 104.9986988182912 79.60360301121754 l 12.834139882010303 -52.367670379575664 a74.91741877626278,74.91741877626278 0 0,0 1.246464265030603,0.3168463419101878 l -13.731209440266301 52.13963880583021" fill="#41ffcb" stroke="none" /><path d="M 105.69591212413111 79.78721728523813 l 17.08773637239333 -60.63834814428561 a84.0,84.0 0 0,0 1.3845599504735822,0.40302522278993624 l -18.126156335248517 60.33607922719316" fill="#4dd2ff" stroke="none" /><line stroke="#e1ed5e" stroke-width="0.3" x1="143.13028292997686" x2="145.6673583964461" y1="26.7553504044142" y2="22.446841604673864" /><path d="M 143.63769802327073 25.89364864446614 a86.0,86.0 0 0,1 29.32050498858742,28.57503671076993" fill="none" id="id38" stroke="none" /><text fill="#e1ed5e" style="font-size:6.75px; font-family:Arial;" text-anchor="middle"><textPath startOffset="20.669276256404974" xlink:href="#id38">February</textPath></text><line stroke="#e1ed5e" stroke-width="0.3" x1="172.87174338648825" x2="177.1583165268699" y1="56.24261187166439" y2="53.66864786411523" /><path d="M 173.72905801456457 55.72781907015455 a86.0,86.0 0 0,1 12.242430191666344,42.057860355516425" fill="none" id="id39" stroke="none" /><text fill="#e1ed5e" style="font-size:6.75px; font-family:Arial;" text-anchor="middle"><textPath startOffset="22.145653131862474" xlink:href="#id39">March</textPath></text><line stroke="#e1ed5e" stroke-width="0.3" x1="184.99686870605535" x2="189.99668451229388" y1="99.2704041080226" y2="99.22748670261217" /><path d="M 185.99683186730306 99.26182062694052 a86.0,86.0 0 0,1 -10.086455211305974,41.156179273409016" fill="none" id="id40" stroke="none" /><text fill="#e1ed5e" style="font-size:6.75px; font-family:Arial;" text-anchor="middle"><textPath startOffset="21.40746469413373" xlink:href="#id40">April</textPath></text><line stroke="#e1ed5e" stroke-width="0.3" x1="174.33088141563837" x2="178.70328620479359" y1="141.23008692659167" y2="143.65538615756765" /><path d="M 175.20536237346943 141.71514677278685 a86.0,86.0 0 0,1 -30.301960400862466,31.631185727798858" fill="none" id="id41" stroke="none" /><text fill="#e1ed5e" style="font-size:6.75px; font-family:Arial;" text-anchor="middle"><textPath startOffset="22.145653131862474" xlink:href="#id41">May</textPath></text><line stroke="#e1ed5e" stroke-width="0.3" x1="143.1302829299769" x2="145.66735839644613" y1="173.24464959558577" y2="177.55315839532614" /><path d="M 143.63769802327073 174.10635135553383 a86.0,86.0 0 0,1 -40.68552437913181,11.842963189579606" fill="none" id="id42" stroke="none" /><text fill="#e1ed5e" style="font-size:6.75px; font-family:Arial;" text-anchor="middle"><textPath startOffset="21.407464694133747" xlink:href="#id42">June</textPath></text><line stroke="#e1ed5e" stroke-width="0.3" x1="101.45913802915013" x2="101.54496967792366" y1="184.9874750549273" y2="189.98673829345242" /><path d="M 101.47630435890484 185.9873277026323 a86.0,86.0 0 0,1 -42.54439059252881,-10.42667462771756" fill="none" id="id43" stroke="none" /><text fill="#e1ed5e" style="font-size:6.75px; font-family:Arial;" text-anchor="middle"><textPath startOffset="22.145653131862474" xlink:href="#id43">July</textPath></text><line stroke="#e1ed5e" stroke-width="0.3" x1="58.13341422392154" x2="55.67067388415222" y1="173.97424548756322" y2="178.32567169271397" /><path d="M 57.64086615596768 174.84453072859336 a86.0,86.0 0 0,1 -31.369924170532247,-30.572349798747897" fill="none" id="id44" stroke="none" /><text fill="#e1ed5e" style="font-size:6.75px; font-family:Arial;" text-anchor="middle"><textPath startOffset="22.145653131862474" xlink:href="#id44">August</textPath></text><line stroke="#e1ed5e" stroke-width="0.3" x1="26.387840678322732" x2="22.057713659400548" y1="142.50000000000003" y2="145.00000000000006" /><path d="M 25.521815274538298 143.00000000000003 a86.0,86.0 0 0,1 -11.493303480769221,-40.785679425670985" fill="none" id="id45" stroke="none" /><text fill="#e1ed5e" style="font-size:6.75px; font-family:Arial;" text-anchor="middle"><textPath startOffset="21.40746469413373" xlink:href="#id45">September</textPath></text><line stroke="#e1ed5e" stroke-width="0.3" x1="15.003131293944662" x2="10.003315487706104" y1="100.72959589197737" y2="100.7725132973878" /><path d="M 14.003168132696942 100.73817937305945 a86.0,86.0 0 0,1 10.791469493833604,-42.45332614584628" fill="none" id="id46" stroke="none" /><text fill="#e1ed5e" style="font-size:6.75px; font-family:Arial;" text-anchor="middle"><textPath startOffset="22.145653131862435" xlink:href="#id46">October</textPath></text><line stroke="#e1ed5e" stroke-width="0.3" x1="26.387840678322718" x2="22.05771365940052" y1="57.49999999999999" y2="54.99999999999999" /><path d="M 25.521815274538284 56.99999999999999 a86.0,86.0 0 0,1 29.574782752854787,-30.34633250058573" fill="none" id="id47" stroke="none" /><text fill="#e1ed5e" style="font-size:6.75px; font-family:Arial;" text-anchor="middle"><textPath startOffset="21.40746469413373" xlink:href="#id47">November</textPath></text><line stroke="#e1ed5e" stroke-width="0.3" x1="56.869717070023135" x2="54.33264160355391" y1="26.7553504044142" y2="22.446841604673864" /><path d="M 56.362301976729285 25.89364864446614 a86.0,86.0 0 0,1 42.16139366436587,-11.88097634709845" fill="none" id="id48" stroke="none" /><text fill="#e1ed5e" style="font-size:6.75px; font-family:Arial;" text-anchor="middle"><textPath startOffset="22.145653131862474" xlink:href="#id48">December</textPath></text></svg>