<?xml version="1.0" encoding="utf-8" ?>
<svg baseProfile="full" height="200mm" version="1.1" viewBox="0,0,200,200" width="200mm" xmlns="http://www.w3.org/2000/svg" xmlns:ev="http://www.w3.org/2001/xml-events" xmlns:xlink="http://www.w3.org/1999/xlink"><defs /><rect fill="#1a1a1a" height="200" width="200" x="0" y="0" /><text alignment-baseline="middle" fill="#e1ed5e" style="dominant-baseline: central; font-size:9.0px; font-family:Arial;" text-anchor="middle" x="100.0" y="100.0">2024</text><line stroke="#e1ed5e" stroke-width="0.3" x1="100.0" x2="100.0" y1="15.0" y2="10.0" /><path d="M 100.0 14.0 a86.0,86.0 0 0,1 42.35913384403234,11.155469271406648" fill="none" id="id37" stroke="none" /><text fill="#e1ed5e" style="font-size:6.75px; font-family:Arial;" text-anchor="middle"><textPath startOffset="22.145653131862478" xlink:href="#id37">January</textPath></text><path d="M 100.36049292484886 79.00309439819443 l 0.507483645285106 -29.558378153965602 a50.56273429070902,50.56273429070902 0 0,0 0.8677207734547765,0.022349409106710853 l -1.014817732810624 29.545311027508845" fill="#a5ff21" stroke="none" /><path d="M 100.72087961077811 79.0123766808444 l 1.0892854679281216 -31.713357884028635 a52.732059673319675,52.732059673319675 0 0,0 0.904415689751868,0.038839501179146314 l -1.633526918280826 31.68998581442366" fill="#8cff24" stroke="none" /><path d="M 101.08105385017728 79.02784411241856 l 1.792665520960498 -34.77723219218983 a55.823404896987384,55.823404896987384 0 0,0 0.9565889302560604,0.05754601462434259 l -2.389398803349021 34.74133419974079" fill="#69ff28" stroke="none" /><path d="M 102.15924093988457 79.11130261209362 l 2.814018498726836 -27.223076303387373 a48.368130800827956,48.368130800827956 0 0,0 0.8251697510768269,0.09246199174755224 l -3.28092415140446 27.17075855113285" fill="#bfff1e" stroke="none" /><path d="M 102.51750503828377 79.15144685158666 l 3.9605207498421926 -32.798793286534604 a54.0370483800045,54.0370483800045 0 0,0 0.9199734874005655,0.11910898645487285 l -4.52297205913355 32.725972703879336" fill="#7dff26" stroke="none" /><path d="M 102.87502721639298 79.19773525538626 l 4.345834540735505 -31.44429386170717 a52.7431865810105,52.7431865810105 0 0,0 0.8958176430331545,0.13165434435111228 l -4.884977289376342 31.365058444057176" fill="#8bff24" stroke="none" /><path d="M 103.23170211078529 79.25015418208739 l 5.537036279488085 -35.55174491613262 a56.980346542829864,56.980346542829864 0 0,0 0.9651995785293704,0.15882322334549243 l -6.146513361070525 35.45145569429146" fill="#5dff2a" stroke="none" /><path d="M 103.58742460773223 79.30868818359171 l 0.6929447226226735 -3.9967210171934293 a25.056347036175072,25.056347036175072 0 0,0 0.42317219037249043,0.0771160696932096 l -0.7614516465462176 3.984236773568854" fill="#ff0000" stroke="none" /><path d="M 103.94208987418118 79.37332000966035 l 5.628671177473651 -29.4515860505877 a50.98462706320181,50.98462706320181 0 0,0 0.8582497547969203,0.17167398764562478 l -6.133417417801527 29.350622666279218" fill="#a0ff22" stroke="none" /><path d="M 104.9986988182912 79.60360301121754 l 7.454491178217091 -30.416867858477797 a52.31701277335078,52.31701277335078 0 0,0 0.8704422541556281,0.22126301716840427 l -7.975538725598113 30.284419609474124" fill="#90ff24" stroke="none" /><path d="M 105.69591212413111 79.78721728523813 l 9.92512012606745 -35.22074992628406 a57.59247511287953,57.59247511287953 0 0,0 0.9492885058326129,0.2763240489689539 l -10.528268644281667 35.045182183012585" fill="#56ff2b" stroke="none" /><path d="M 106.04205211174951 79.88797359093562 l 9.50950793510737 -31.65405911613493 a54.05162930470501,54.05162930470501 0 0,0 0.8863421361726412,0.2745910594683895 l -10.051490704151641 31.486151468859894" fill="#7dff26" stroke="none" /><path d="M 106.38641147887787 79.99465700312896 l 11.252124829230771 -35.247120765216046 a57.999592368164215,57.999592368164215 0 0,0 0.9458829338950369,0.3109305079936319 l -11.85553050077355 35.04876933582039" fill="#52ff2b" stroke="none" /><path d="M 107.06938296918511 80.22567764915836 l 21.208148907555344 -59.32296705252493 a84.0,84.0 0 0,0 1.3536433933835013,0.49707660396511244 l -22.22338145259297 58.9501595995511" fill="#4dd2ff" stroke="none" /><line stroke="#e1ed5e" stroke-width="0.3" x1="143.13028292997686" x2="145.6673583964461" y1="26.7553504044142" y2="22.446841604673864" /><path d="M 143.63769802327073 25.89364864446614 a86.0,86.0 0 0,1 29.32050498858742,28.57503671076993" fill="none" id="id38" stroke="none" /><text fill="#e1ed5e" style="font-size:6.75px; font-family:Arial;" text-anchor="middle"><textPath startOffset="20.669276256404974" xlink:href="#id38">February</textPath></text><line stroke="#e1ed5e" stroke-width="0.3" x1="172.87174338648825" x2="177.1583165268699" y1="56.24261187166439" y2="53.66864786411523" /><path d="M 173.72905801456457 55.72781907015455 a86.0,86.0 0 0,1 12.242430191666344,42.057860355516425" fill="none" id="id39" stroke="none" /><text fill="#e1ed5e" style="font-size:6.75px; font-family:Arial;" text-anchor="middle"><textPath startOffset="22.145653131862474" xlink:href="#id39">March</textPath></text><line stroke="#e1ed5e" stroke-width="0.3" x1="184.99686870605535" x2="189.99668451229388" y1="99.2704041080226" y2="99.22748670261217" /><path d="M 185.99683186730306 99.26182062694052 a86.0,86.0 0 0,1 -10.086455211305974,41.156179273409016" fill="none" id="id40" stroke="none" /><text fill="#e1ed5e" style="font-size:6.75px; font-family:Arial;" text-anchor="middle"><textPath startOffset="21.40746469413373" xlink:href="#id40">April</textPath></text><line stroke="#e1ed5e" stroke-width="0.3" x1="174.33088141563837" x2="178.70328620479359" y1="141.23008692659167" y2="143.65538615756765" /><path d="M 175.20536237346943 141.71514677278685 a86.0,86.0 0 0,1 -30.301960400862466,31.631185727798858" fill="none" id="id41" stroke="none" /><text fill="#e1ed5e" style="font-size:6.75px; font-family:Arial;" text-anchor="middle"><textPath startOffset="22.145653131862474" xlink:href="#id41">May</textPath></text><line stroke="#e1ed5e" stroke-width="0.3" x1="143.1302829299769" x2="145.66735839644613" y1="173.24464959558577" y2="177.55315839532614" /><path d="M 143.63769802327073 174.10635135553383 a86.0,86.0 0 0,1 -40.68552437913181,11.842963189579606" fill="none" id="id42" stroke="none" /><text fill="#e1ed5e" style="font-size:6.75px; font-family:Arial;" text-anchor="middle"><textPath startOffset="21.407464694133747" xlink:href="#id42">June</textPath></text><line stroke="#e1ed5e" stroke-width="0.3" x1="101.45913802915013" x2="101.54496967792366" y1="184.9874750549273" y2="189.98673829345242" /><path d="M 101.47630435890484 185.9873277026323 a86.0,86.0 0 0,1 -42.54439059252881,-10.42667462771756" fill="none" id="id43" stroke="none" /><text fill="#e1ed5e" style="font-size:6.75px; font-family:Arial;" text-anchor="middle"><textPath startOffset="22.145653131862474" xlink:href="#id43">July</textPath></text><line stroke="#e1ed5e" stroke-width="0.3" x1="58.13341422392154" x2="55.67067388415222" y1="173.97424548756322" y2="178.32567169271397" /><path d="M 57.64086615596768 174.84453072859336 a86.0,86.0 0 0,1 -31.369924170532247,-30.572349798747897" fill="none" id="id44" stroke="none" /><text fill="#e1ed5e" style="font-size:6.75px; font-family:Arial;" text-anchor="middle"><textPath startOffset="22.145653131862474" xlink:href="#id44">August</textPath></text><line stroke="#e1ed5e" stroke-width="0.3" x1="26.387840678322732" x2="22.057713659400548" y1="142.50000000000003" y2="145.00000000000006" /><path d="M 25.521815274538298 143.00000000000003 a86.0,86.0 0 0,1 -11.493303480769221,-40.785679425670985" fill="none" id="id45" stroke="none" /><text fill="#e1ed5e" style="font-size:6.75px; font-family:Arial;" text-anchor="middle"><textPath startOffset="21.40746469413373" xlink:href="#id45">September</textPath></text><line stroke="#e1ed5e" stroke-width="0.3" x1="15.003131293944662" x2="10.003315487706104" y1="100.72959589197737" y2="100.7725132973878" /><path d="M 14.003168132696942 100.73817937305945 a86.0,86.0 0 0,1 10.791469493833604,-42.45332614584628" fill="none" id="id46" stroke="none" /><text fill="#e1ed5e" style="font-size:6.75px; font-family:Arial;" text-anchor="middle"><textPath startOffset="22.145653131862435" xlink:href="#id46">October</textPath></text><line stroke="#e1ed5e" stroke-width="0.3" x1="26.387840678322718" x2="22.05771365940052" y1="57.49999999999999" y2="54.99999999999999" /><path d="M 25.521815274538284 56.99999999999999 a86.0,86.0 0 0,1 29.574782752854787,-30.34633250058573" fill="none" id="id47" stroke="none" /><text fill="#e1ed5e" style="font-size:6.75px; font-family:Arial;" text-anchor="middle"><textPath startOffset="21.40746469413373" xlink:href="#id47">November</textPath></text><line stroke="#e1ed5e" stroke-width="0.3" x1="56.869717070023135" x2="54.33264160355391" y1="26.7553504044142" y2="22.446841604673864" /><path d="M 56.362301976729285 25.89364864446614 a86.0,86.0 0 0,1 42.16139366436587,-11.88097634709845" fill="none" id="id48" stroke="none" /><text fill="#e1ed5e" style="font-size:6.75px; font-family:Arial;" text-anchor="middle"><textPath startOffset="22.145653131862474" xlink:href="#id48">December</textPath></text></svg>