<?xml version="1.0" encoding="utf-8" ?>
<svg baseProfile="full" height="200mm" version="1.1" viewBox="0,0,200,200" width="200mm" xmlns="http://www.w3.org/2000/svg" xmlns:ev="http://www.w3.org/2001/xml-events" xmlns:xlink="http://www.w3.org/1999/xlink"><defs /><rect fill="#1a1a1a" height="200" width="200" x="0" y="0" /><text alignment-baseline="middle" fill="#e1ed5e" style="dominant-baseline: central; font-size:9.0px; font-family:Arial;" text-anchor="middle" x="100.0" y="100.0">2026</text><line stroke="#e1ed5e" stroke-width="0.3" x1="100.0" x2="100.0" y1="15.0" y2="10.0" /><path d="M 100.0 14.0 a86.0,86.0 0 0,1 42.46469731375804,11.215312516191453" fill="none" id="id61" stroke="none" /><text fill="#e1ed5e" style="font-size:6.75px; font-family:Arial;" text-anchor="middle"><textPath startOffset="22.20632615414155" xlink:href="#id61">January</textPath></text><path d="M 100.36148047927253 79.00311137660856 l 0.8902870715905763 -51.71305106890538 a72.72071405080422,72.72071405080422 0 0,0 1.2513966251224273,0.032319882847246836 l -1.7803103319078715 51.690064393915776" fill="#3bff9b" stroke="none" /><path d="M 100.72285384407766 79.0124445844662 l 0.620335031388185 -18.010993445111552 a39.021673075245225,39.021673075245225 0 0,0 0.6710969031729143,0.02889884434046093 l -0.9302727669504308 17.997646874246897" fill="#ff3c05" stroke="none" /><path d="M 101.08401301168833 79.027996857942 l 1.5311070951858992 -29.62176880243778 a50.6613127815005,50.6613127815005 0 0,0 0.8705011574843915,0.052511007055003764 l -2.0407703015099026 29.591024526002474" fill="#feff18" stroke="none" /><path d="M 101.44485096284872 79.0497635885617 l 2.0835954445031555 -30.211986059843554 a51.28374929985611,51.28374929985611 0 0,0 0.8801507797119195,0.06831664003123766 l -2.6033364135774164 30.171644157623852" fill="#f4ff19" stroke="none" /><path d="M 101.80526077348638 79.07773832637324 l 2.9315115725021093 -33.97506505428817 a55.101302109198514,55.101302109198514 0 0,0 0.9442654330338035,0.08966938076602483 l -3.515902132626157 33.91957012900697" fill="#bbff1f" stroke="none" /><path d="M 102.16513564639614 79.11191278185805 l 3.8432121670429176 -37.07728477734797 a58.27593494765043,58.27593494765043 0 0,0 0.99688839129987,0.11201202617958102 l -4.480867261852513 37.00563679769779" fill="#8eff24" stroke="none" /><path d="M 102.52436894288641 79.15227682838746 l 3.7320751702394976 -30.82167138209121 a52.04680034821525,52.04680034821525 0 0,0 0.8884767311013273,0.11534977914987293 l -4.262066629848671 30.752863279777202" fill="#e9ff1a" stroke="none" /><path d="M 102.88285421437855 79.19881850522331 l 4.029430007747482 -29.0742780171153 a50.352171102047116,50.352171102047116 0 0,0 0.8574999185169468,0.12637319769278788 l -4.529298906693085 29.00061033526154" fill="#fffb17" stroke="none" /><path d="M 103.2404852339499 79.25152402106235 l 4.731279045558017 -30.29386728812637 a51.66110560103059,51.66110560103059 0 0,0 0.8774289307839516,0.14478329168053988 l -5.252037182480843 30.20793773350621" fill="#efff19" stroke="none" /><path d="M 103.59715602781102 79.31037775812273 l 8.449990575688625 -48.60148172799942 a70.33058247057588,70.33058247057588 0 0,0 1.1909475362957893,0.21763804991297903 l -9.285333233087314 48.448828196735704" fill="#37ff79" stroke="none" /><path d="M 103.95276090670814 79.375362276772 l 5.994033106170455 -31.275547454944807 a52.844753123307015,52.844753123307015 0 0,0 0.8919026471579546,0.17890728043541515 l -6.531502162795535 31.167736218432182" fill="#ddff1b" stroke="none" /><path d="M 104.307194497241 79.44645832069477 l 6.372874568371621 -30.410779717961105 a52.0713542240848,52.0713542240848 0 0,0 0.8756846479721178,0.19139074676037718 l -6.895401940497267 30.29657547310486" fill="#e8ff1a" stroke="none" /><path d="M 104.66035177308747 79.52364482259891 l 6.556159271019271 -28.806032756635386 a50.542693640954994,50.542693640954994 0 0,0 0.8466534485713264,0.2003755170010108 l -7.051036406553121 28.688911327493503" fill="#fffe18" stroke="none" /><path d="M 105.01212808612495 79.60689891045804 l 7.386087331678956 -30.052150109269796 a51.94650242371944,51.94650242371944 0 0,0 0.8664951458538439,0.22088890599737096 l -7.902291366217825 29.920558207103557" fill="#eaff1a" stroke="none" /><path d="M 105.71112130821622 79.79150937346287 l 8.202778702577408 -29.02508414312922 a51.16191452741667,51.16191452741667 0 0,0 0.845413562905309,0.24679940177836995 l -8.701182483206145 28.879586412432147" fill="#f6ff19" stroke="none" /><path d="M 106.0581310904928 79.89281104454417 l 16.532663445910128 -54.87259732057594 a78.30908215389434,78.30908215389434 0 0,0 1.2873066956724943,0.3999724566333487 l -17.474755514293342 54.57988472906007" fill="#44ffe6" stroke="none" /><path d="M 106.40334571778207 80.00007090966166 l 9.95342714162079 -31.088097662047844 a53.64261827900112,53.64261827900112 0 0,0 0.8769729673844749,0.2891241992373122 l -10.48708293124768 30.912159738551296" fill="#d1ff1d" stroke="none" /><path d="M 106.74666289553966 80.11325718540242 l 10.53981248893445 -31.067587565416265 a53.80674693468869,53.80674693468869 0 0,0 0.8745338586486923,0.30510769136007954 l -11.073028351646414 30.881559020883977" fill="#ceff1d" stroke="none" /><path d="M 107.08798089147638 80.2323363322302 l 12.969346684550631 -36.170199549945615 a59.42508671307002,59.42508671307002 0 0,0 0.9599066526462182,0.35354172115508387 l -13.590035662969425 35.94159456098421" fill="#7eff26" stroke="none" /><path d="M 107.4271985657038 80.35727306442388 l 12.957864397577467 -34.26968994812629 a57.637656842198766,57.637656842198766 0 0,0 0.9249933659901483,0.3588830553700207 l -13.545840928567282 34.04156418886573" fill="#97ff23" stroke="none" /><path d="M 107.76421540070413 80.48803036053334 l 11.82119261623797 -29.70741272961138 a52.97297242918893,52.97297242918893 0 0,0 0.8443289689475788,0.34442298627157825 l -12.330805454773937 29.49952885715622" fill="#dbff1b" stroke="none" /><path d="M 108.43124777332544 80.76684994638697 l 16.44730743618793 -37.51918344742706 a61.96587663485511,61.96587663485511 0 0,0 0.9732121028122264,0.4366519020799646 l -17.090701657466937 37.230511214830564" fill="#5cff2a" stroke="none" /><path d="M 108.76106565485865 80.91482961587045 l 13.764729071169054 -29.985187871404115 a53.993624506654115,53.993624506654115 0 0,0 0.8413281137850105,0.39501483040042706 l -14.278835396253662 29.743808058363687" fill="#cbff1d" stroke="none" /><path d="M 109.08828744355905 81.06846463323043 l 13.047900242520702 -27.17968444961814 a51.14934406449974,51.14934406449974 0 0,0 0.7904491344047425,0.38786995736950686 l -13.513820643935876 26.9510593321138" fill="#f6ff19" stroke="none" /><path d="M 109.41281617654863 81.2277094730956 l 13.237291405052543 -26.399567927826645 a50.53240712367028,50.53240712367028 0 0,0 0.7742034299493414,0.39657706704441464 l -13.68975532259064 26.16779833546973" fill="#fffe18" stroke="none" /><path d="M 109.73455568895987 81.39251694778311 l 8.309931549435333 -15.884331592716203 a38.926710587937286,38.926710587937286 0 0,0 0.5910464044439353,0.3157165200207205 l -8.582123000407579 15.738936346193729" fill="#ff3a05" stroke="none" /><path d="M 110.05341064243156 81.56283822128135 l 14.726224221469868 -27.006733139397227 a51.76077558650988,51.76077558650988 0 0,0 0.7785705780346084,0.4332736837357802 l -15.188918888576511 26.749244058101265" fill="#edff1a" stroke="none" /><path d="M 110.36928655335952 81.73862282372117 l 27.738806781168698 -48.85088385244084 a77.17695483743913,77.17695483743913 0 0,0 1.1495811262631783,0.6659115886590417 l -28.575584639897205 48.36616810639175" fill="#42ffd8" stroke="none" /><line stroke="#e1ed5e" stroke-width="0.3" x1="143.23703022742887" x2="145.7803849466894" y1="26.81831364943548" y2="22.513508569990506" /><path d="M 143.74570117128098 25.957352633546492 a86.0,86.0 0 0,1 28.547481713284135,27.462654790039103" fill="none" id="id62" stroke="none" /><text fill="#e1ed5e" style="font-size:6.75px; font-family:Arial;" text-anchor="middle"><textPath startOffset="19.985693538727396" xlink:href="#id62">February</textPath></text><path d="M 110.68208982089419 81.91981866633111 l 16.56638422804304 -28.03975962647142 a53.567978234785315,53.567978234785315 0 0,0 0.7898418141674995,0.47587085543554 l -17.04658810842818 27.750442161577265" fill="#d2ff1c" stroke="none" /><path d="M 110.99172775467656 82.1063720568725 l 11.377396315767024 -18.521464612260612 a42.736830456836415,42.736830456836415 0 0,0 0.6235117304899246,0.3904429884317147 l -11.694527198629212 18.322877282505953" fill="#ff7e0b" stroke="none" /><path d="M 111.2981086023043 82.29822771554956 l 17.43236858036195 -27.312874203142194 a53.40186061877097,53.40186061877097 0 0,0 0.7705964119980708,0.501217341897271 l -17.899932018144302 27.008757937085395" fill="#d4ff1c" stroke="none" /><path d="M 111.60114157652 82.49532879139004 l 16.265071535747275 -24.54195800816893 a50.442490637473306,50.442490637473306 0 0,0 0.7196349236870937,0.48590071285460534 l -16.68511115384091 24.25834538301565" fill="#fffd17" stroke="none" /><path d="M 112.19680574252982 82.90503203632743 l 18.38230068181459 -25.764519652752732 a52.64995183714697,52.64995183714697 0 0,0 0.7332250004057657,0.5327191453915335 l -18.823070998574146 25.444281272544526" fill="#dfff1b" stroke="none" /><path d="M 112.48926042617603 83.11751280151076 l 19.342384791265843 -26.146269073098452 a53.52314923029836,53.52314923029836 0 0,0 0.7359531049148903,0.5543046207139414 l -19.789584049939116 25.809447862878663" fill="#d2ff1c" stroke="none" /><path d="M 112.77801427241765 83.33499621200491 l 20.474276067166134 -26.702418775059318 a54.648404849460135,54.648404849460135 0 0,0 0.7415722045030311,0.578808868238014 l -20.930880826828595 26.34603151759808" fill="#c2ff1e" stroke="none" /><path d="M 113.06298171725822 83.55741782278167 l 20.048525545578613 -25.235396936958054 a53.2299338366921,53.2299338366921 0 0,0 0.7125120712443402,0.5761352097197099 l -20.479941015387443 24.886555629974215" fill="#d7ff1c" stroke="none" /><path d="M 113.89432698308785 84.25364557470407 l 19.98097883123893 -22.64431914003376 a51.19941562961306,51.19941562961306 0 0,0 0.6558133450415261,0.5887956964278228 l -20.367803163876445 22.29702443483664" fill="#f6ff19" stroke="none" /><path d="M 114.16331599549186 84.49514656593476 l 27.34948075483483 -29.94000068461904 a61.55117431781809,61.55117431781809 0 0,0 0.7761078905965394,0.7213077010159714 l -27.860796529226217 29.464788397528427" fill="#61ff29" stroke="none" /><path d="M 114.42810811169701 84.74124197986012 l 23.6168443716745 -24.976504935843476 a55.37413470745274,55.37413470745274 0 0,0 0.6869471410359334,0.6608426054090614 l -24.04327475632285 24.566279243672113" fill="#b7ff1f" stroke="none" /><path d="M 114.68862486808459 84.99185889309783 l 26.85307817063674 -27.437203275254202 a59.391248101695616,59.391248101695616 0 0,0 0.7244719784302325,0.7213608655184165 l -27.321385949234294 26.970906559085666" fill="#7eff26" stroke="none" /><path d="M 115.19652480421416 85.50635884689758 l 21.73460062266055 -20.72931187158538 a51.03493357568828,51.03493357568828 0 0,0 0.600833490522712,0.6409272757860004 l -22.088201435153724 20.352115178921327" fill="#f8ff18" stroke="none" /><path d="M 115.4437574822437 85.77008943001954 l 27.01850560111955 -24.894907789149702 a57.73902664399256,57.73902664399256 0 0,0 0.6671781904669024,0.7367148216679548 l -27.443027432202488 24.426140180212197" fill="#95ff23" stroke="none" /><path d="M 115.68641384162765 86.03803664274999 l 30.40668702678352 -27.06399654946691 a61.70659068473215,61.70659068473215 0 0,0 0.6993652692303624,0.7994954002413195 l -30.86804415959173 26.536585593022643" fill="#5fff29" stroke="none" /><path d="M 115.9244219780498 86.31012108654704 l 32.124868886656245 -27.617050450878278 a63.36400213142298,63.36400213142298 0 0,0 0.7039118659162221,0.8332096240130796 l -32.59549136605958 27.059981877236094" fill="#49ff2c" stroke="none" /><path d="M 116.15771136456269 86.58626213691792 l 48.47313409368808 -40.241213589246215 a84.0,84.0 0 0,0 0.9140060316943646,1.1204633215675965 l -49.158638617458855 39.400866098070516" fill="#4dd2ff" stroke="none" /><path d="M 116.38621287248628 86.86637796730983 l 25.81027902968416 -20.687052705345888 a54.07755512766796,54.07755512766796 0 0,0 0.5759154540837093,0.7313541415562652 l -26.162548564361835 20.239706169836584" fill="#caff1d" stroke="none" /><path d="M 116.60985879189232 87.15038557335679 l 23.875052171093458 -18.470067606131074 a51.18545201827342,51.18545201827342 0 0,0 0.533118565090505,0.7015215402033318 l -24.189446676408078 18.05636129004671" fill="#f6ff19" stroke="none" /><path d="M 116.82858285166822 87.43820079747576 l 12.600060250243587 -9.405392491951702 a36.7233242743839,36.7233242743839 0 0,0 0.37376892334389245,0.5098203913911047 l -12.760091786101107 9.187109656889103" fill="#ff1202" stroke="none" /><path d="M 117.04232023915458 87.72973835380427 l 24.54039201209469 -17.668781402006516 a51.239323344598375,51.239323344598375 0 0,0 0.5091904834193324,0.7202138282026643 l -24.840895115317906 17.24374107347206" fill="#f5ff19" stroke="none" /><path d="M 117.2510076193507 88.02491185347247 l 26.397307842654175 -18.324152143566447 a53.133975993026795,53.133975993026795 0 0,0 0.5150846454250059,0.755823159054273 l -26.708816953747913 17.86705096124177" fill="#d8ff1c" stroke="none" /><path d="M 117.45458315368197 88.32363383020206 l 26.081433473240164 -17.447358369170587 a52.37915687333424,52.37915687333424 0 0,0 0.49486671241831365,0.7537159538667269 l -26.377896821016403 16.995824351326185" fill="#e4ff1b" stroke="none" /><path d="M 117.65298651832404 88.62581576622439 l 25.79310596940028 -16.619031513604142 a51.68348943648489,51.68348943648489 0 0,0 0.4754201851829783,0.7520005605550445 l -26.075353750829212 16.17258330533489" fill="#eeff19" stroke="none" /><line stroke="#e1ed5e" stroke-width="0.3" x1="172.23445277983987" x2="176.4835382374775" y1="55.19839476539836" y2="52.563006222186495" /><path d="M 173.08426987136738 54.67131705675599 a86.0,86.0 0 0,1 12.851231095245387,41.99856678651699" fill="none" id="id63" stroke="none" /><text fill="#e1ed5e" style="font-size:6.75px; font-family:Arial;" text-anchor="middle"><textPath startOffset="22.20632615414155" xlink:href="#id63">March</textPath></text><path d="M 118.03404312379186 89.2402003453031 l 31.726111931642322 -18.929011418221787 a57.943925773667694,57.943925773667694 0 0,0 0.5036715749139282,0.8609379890677173 l -32.04724318102658 18.38009401680017" fill="#92ff23" stroke="none" /><path d="M 118.21658344932153 89.55222093294921 l 35.7047777227692 -20.477804211938714 a62.160316052902836,62.160316052902836 0 0,0 0.5243440477913833,0.9327495531397442 l -36.05197941185302 19.860171148864175" fill="#59ff2a" stroke="none" /><path d="M 118.3937258080291 89.86733742301442 l 31.790958234254532 -17.512876735725293 a57.295535221468,57.295535221468 0 0,0 0.4684371118318685,0.8679428249568513 l -32.08770344530487 16.96305292743598" fill="#9bff22" stroke="none" /><path d="M 119.196687751892 91.48605970444005 l 27.44256835249198 -12.171078236500032 a51.02048805766154,51.02048805766154 0 0,0 0.34914848201173926,0.8058828348731119 l -27.6480075443464 11.696896257040317" fill="#f8ff18" stroke="none" /><path d="M 119.34039704204932 91.81776055985345 l 30.12707474519164 -12.745702100137956 a53.7122844620767,53.7122844620767 0 0,0 0.35291097159838347,0.8546019103726548 l -30.34200740367622 12.225225619311997" fill="#d0ff1d" stroke="none" /><path d="M 119.47837535516314 92.15188598940014 l 29.994074233252174 -12.08503840452801 a53.337171217482194,53.337171217482194 0 0,0 0.3357865745721554,0.85454020629361 l -30.19765435770603 11.566949193338615" fill="#d5ff1c" stroke="none" /><path d="M 119.61058180528143 92.48833698450437 l 29.98780481903187 -11.486568150382869 a53.112453748316106,53.112453748316106 0 0,0 0.3196747832003243,0.8565694866740157 l -30.18108419073382 10.96867552667952" fill="#d9ff1c" stroke="none" /><path d="M 119.7369772167798 92.82701384747503 l 16.327057624217662 -5.9337231311400505 a38.371870390419986,38.371870390419986 0 0,0 0.22026717900621046,0.6227249765478781 l -16.426777884033683 5.651800528165558" fill="#ff3004" stroke="none" /><path d="M 119.97218684219823 93.5106431181261 l 37.3775224380115 -12.14469323649734 a60.30105287918732,60.30105287918732 0 0,0 0.31225756302928775,0.9899418068767394 l -37.581035484809 11.499501263194182" fill="#72ff27" stroke="none" /><path d="M 120.08093135843002 93.85539295169968 l 29.750655239404466 -9.103466498273498 a52.11229000666927,52.11229000666927 0 0,0 0.2550874333662081,0.8600280145549548 l -29.902948569882376 8.590009096972013" fill="#e8ff1a" stroke="none" /><path d="M 120.18372546131832 94.20196356495316 l 31.33415330400974 -9.001141185068697 a53.60137582852485,53.60137582852485 0 0,0 0.2471105855259798,0.8889882534413247 l -31.484450660102084 8.46044162820842" fill="#d1ff1c" stroke="none" /><path d="M 120.28053869075195 94.5502522615342 l 14.627646324698409 -3.9307132661843003 a36.1465687131251,36.1465687131251 0 0,0 0.15629719187875768,0.6022768379460268 l -14.69313984844747 3.6783400026894233" fill="#ff0701" stroke="none" /><path d="M 120.37134235888165 94.90015583598534 l 31.778310048009192 -7.955510549354136 a53.758985601026886,53.758985601026886 0 0,0 0.21699993667704656,0.8996048319623897 l -31.910542784947058 7.40732048573234" fill="#cfff1d" stroke="none" /><path d="M 120.45610955862082 95.25157060432595 l 31.995924175119722 -7.427139870341009 a53.84663712579447,53.84663712579447 0 0,0 0.20181107537449977,0.9046794797286514 l -32.11902963749626 6.875282221062394" fill="#ceff1d" stroke="none" /><path d="M 120.53481517161879 95.60439243477599 l 32.03029814488262 -6.8562886817027024 a53.755895556936245,53.755895556936245 0 0,0 0.18589480876498093,0.9064891067356293 l -32.143572249562595 6.303923918803662" fill="#cfff1d" stroke="none" /><path d="M 120.6074358757038 95.95851677861258 l 15.147679799752298 -2.970728339173222 a36.43623756557895,36.43623756557895 0 0,0 0.11540618881537498,0.6165044753253478 l -15.196571712477533 2.709545786385312" fill="#ff0c01" stroke="none" /><path d="M 120.73433829027371 96.67025291283417 l 17.871075513956104 -2.8699329973327248 a39.100051255029655,39.100051255029655 0 0,0 0.10099749270507927,0.6654472868601277 l -17.91782890010048 2.561886598080515" fill="#ff3d05" stroke="none" /><path d="M 120.78858239683441 97.02765380044208 l 32.30944063393226 -4.619595566686368 a53.6380241019174,53.6380241019174 0 0,0 0.12281575245011435,0.9151200096957361 l -32.38417238544021 4.062757214925968" fill="#d1ff1d" stroke="none" /><path d="M 120.83666639777658 97.38593545837742 l 32.27431039459497 -4.04897447591877 a53.52730092942392,53.52730092942392 0 0,0 0.1068242993629916,0.9152053604418853 l -32.339225046961545 3.4928253771520317" fill="#d2ff1c" stroke="none" /><path d="M 120.87857604477298 97.74499172005257 l 32.4150755912848 -3.5010176794010284 a53.60359259928553,53.60359259928553 0 0,0 0.091184495305014,0.9182154238149364 l -32.470537212272035 2.9425267248816573" fill="#d1ff1c" stroke="none" /><path d="M 120.91429891909075 98.10471618934814 l 42.764724248618826 -3.8754007413279408 a63.93996240061573,63.93996240061573 0 0,0 0.08989811402096558,1.09698469462859 l -42.82509684645929 3.1387021294915822" fill="#42ff2d" stroke="none" /><path d="M 120.94382443527127 98.46500227214037 l 30.261345671753517 -2.217889907914278 a51.342512709216805,51.342512709216805 0 0,0 0.05701319298701054,0.8819688608725381 l -30.29503945574494 1.6966619827887048" fill="#f4ff19" stroke="none" /><path d="M 120.96714384426684 98.82574320788733 l 31.40044551488281 -1.758569822150434 a52.44965097346078,52.44965097346078 0 0,0 0.04272496559849491,0.9018564965722312 l -31.426064088714803 1.2178022189552031" fill="#e3ff1b" stroke="none" /><path d="M 120.98425023603335 99.18683210126433 l 32.59156997597501 -1.2629671384851842 a53.61603163310597,53.61603163310597 0 0,0 0.027799415928431305,0.9225272764593698 l -32.608481086359085 0.7017697146008153" fill="#d1ff1c" stroke="none" /><line stroke="#e1ed5e" stroke-width="0.3" x1="184.98032266829074" x2="189.97916517819016" y1="98.17113171792111" y2="98.06355123074" /><path d="M 185.9800911702706 98.14961562048488 a86.0,86.0 0 0,1 -9.607161424134198,41.387399972396054" fill="none" id="id64" stroke="none" /><text fill="#e1ed5e" style="font-size:6.75px; font-family:Arial;" text-anchor="middle"><textPath startOffset="21.466115282336823" xlink:href="#id64">April</textPath></text><path d="M 120.99513854157772 99.54816195383933 l 33.63361263718946 -0.7238316522283077 a54.6414005548116,54.6414005548116 0 0,0 0.01214338226035044,0.9405183385409194 l -33.64108902656753 0.14477705562692555" fill="#c2ff1e" stroke="none" /><path d="M 120.99980553446 99.90962569577887 l 35.62140050429318 -0.1532994808297157 a56.621730370913774,56.621730370913774 0 0,0 -0.004194599019574291,0.9746770884186615 l -35.6187616079841 -0.4598870857926306" fill="#a5ff21" stroke="none" /><path d="M 120.99824983174949 100.27111621757518 l 14.776086520859343 0.19077955163872318 a35.7773180824277,35.7773180824277 0 0,0 -0.013251130349698662,0.6157279580336119 l -14.770613327824636 -0.4450973254624499" fill="#ff0000" stroke="none" /><path d="M 120.9904718944345 100.63252640178507 l 30.626461044442884 0.9228970792690214 a51.64036316895903,51.64036316895903 0 0,0 -0.034421663959748,0.8882701975756143 l -30.60603724763193 -1.449944523858642" fill="#efff19" stroke="none" /><path d="M 120.9764740272857 100.99374915477107 l 43.05259602014926 2.039593539413328 a64.10088126570254,64.10088126570254 0 0,0 -0.061700605795478945,1.1017057646008017 l -43.01110906346625 -2.7803710203495533" fill="#40ff2d" stroke="none" /><path d="M 120.95626037817324 101.35467743843564 l 18.16408546809007 1.1741826227291448 a39.20199730039536,39.20199730039536 0 0,0 -0.04932627028132332,0.6730177680844581 l -18.14118263914441 -1.486673527310373" fill="#ff3f05" stroke="none" /><path d="M 120.92983693683757 101.71520430193887 l 30.027764361059496 2.4607812648098917 a51.12842639363288,51.12842639363288 0 0,0 -0.07943264537190999,0.8765326226634441 l -29.980957119410512 -2.9772952760219065" fill="#f7ff19" stroke="none" /><path d="M 120.89721153311464 102.0752229133903 l 32.23170793997762 3.2008088135946733 a53.390248127935074,53.390248127935074 0 0,0 -0.09868983593401014,0.913745312031595 l -32.17183580254255 -3.7551504475110598" fill="#d4ff1c" stroke="none" /><path d="M 120.8583938346157 102.4346265915055 l 29.578868969445644 3.4524950248162907 a50.7796778257928,50.7796778257928 0 0,0 -0.10880994586152232,0.8673223275770446 l -29.515057514337272 -3.9611351066807305" fill="#fcff18" stroke="none" /><line stroke="#e1ed5e" stroke-width="0.3" x1="174.80103733775053" x2="179.2010983576182" y1="140.37084112569926" y2="142.7455964860345" /><path d="M 175.68104954172406 140.8457921977663 a86.0,86.0 0 0,1 -30.038265399797805,32.042727171017184" fill="none" id="id65" stroke="none" /><text fill="#e1ed5e" style="font-size:6.75px; font-family:Arial;" text-anchor="middle"><textPath startOffset="22.206326154141568" xlink:href="#id65">May</textPath></text><line stroke="#e1ed5e" stroke-width="0.3" x1="143.8653032363475" x2="146.44561519142675" y1="172.8068346515853" y2="177.08958963109032" /><path d="M 144.38136562736335 173.6633856474863 a86.0,86.0 0 0,1 -40.68145358897372,12.25698825130547" fill="none" id="id66" stroke="none" /><text fill="#e1ed5e" style="font-size:6.75px; font-family:Arial;" text-anchor="middle"><textPath startOffset="21.466115282336833" xlink:href="#id66">June</textPath></text><line stroke="#e1ed5e" stroke-width="0.3" x1="102.19456741930631" x2="102.32365962044197" y1="184.97166512339345" y2="189.96999836594603" /><path d="M 102.22038585953345 185.97133177190398 a86.0,86.0 0 0,1 -42.740103519485714,-10.115201625700543" fill="none" id="id67" stroke="none" /><text fill="#e1ed5e" style="font-size:6.75px; font-family:Arial;" text-anchor="middle"><textPath startOffset="22.20632615414155" xlink:href="#id67">July</textPath></text><line stroke="#e1ed5e" stroke-width="0.3" x1="58.666819895761336" x2="56.23545636021788" y1="174.27360380694188" y2="178.64263932499728" /><path d="M 58.180547188652646 175.14741091055294 a86.0,86.0 0 0,1 -31.652253787137756,-30.449443065178592" fill="none" id="id68" stroke="none" /><text fill="#e1ed5e" style="font-size:6.75px; font-family:Arial;" text-anchor="middle"><textPath startOffset="22.20632615414155" xlink:href="#id68">August</textPath></text><line stroke="#e1ed5e" stroke-width="0.3" x1="26.63291911575756" x2="22.317208475507996" y1="142.92168965132927" y2="145.44649492493687" /><path d="M 25.769776987707644 143.4266507060508 a86.0,86.0 0 0,1 -11.730757126820373,-40.83630448921669" fill="none" id="id69" stroke="none" /><text fill="#e1ed5e" style="font-size:6.75px; font-family:Arial;" text-anchor="middle"><textPath startOffset="21.46611528233685" xlink:href="#id69">September</textPath></text><line stroke="#e1ed5e" stroke-width="0.3" x1="15.007084014347285" x2="10.007500721073583" y1="101.09737516637583" y2="101.16192664675087" /><path d="M 14.007167355692545 101.11028546245083 a86.0,86.0 0 0,1 10.666146001902534,-42.60595125391555" fill="none" id="id70" stroke="none" /><text fill="#e1ed5e" style="font-size:6.75px; font-family:Arial;" text-anchor="middle"><textPath startOffset="22.20632615414155" xlink:href="#id70">October</textPath></text><line stroke="#e1ed5e" stroke-width="0.3" x1="26.266209847984243" x2="21.928928074336255" y1="57.711370442889674" y2="55.22380399835377" /><path d="M 25.398753493254645 57.213857153982495 a86.0,86.0 0 0,1 29.58750427330803,-30.492523968695096" fill="none" id="id71" stroke="none" /><text fill="#e1ed5e" style="font-size:6.75px; font-family:Arial;" text-anchor="middle"><textPath startOffset="21.46611528233685" xlink:href="#id71">November</textPath></text><line stroke="#e1ed5e" stroke-width="0.3" x1="56.762969772571076" x2="54.21961505331055" y1="26.818313649435495" y2="22.513508569990535" /><path d="M 56.25429882871897 25.957352633546506 a86.0,86.0 0 0,1 42.265352541879196,-11.944610805530505" fill="none" id="id72" stroke="none" /><text fill="#e1ed5e" style="font-size:6.75px; font-family:Arial;" text-anchor="middle"><textPath startOffset="22.20632615414155" xlink:href="#id72">December</textPath></text></svg>