<?xml version="1.0" encoding="utf-8" ?>
<svg baseProfile="full" height="200mm" version="1.1" viewBox="0,0,200,200" width="200mm" xmlns="http://www.w3.org/2000/svg" xmlns:ev="http://www.w3.org/2001/xml-events" xmlns:xlink="http://www.w3.org/1999/xlink"><defs /><rect fill="#1a1a1a" height="200" width="200" x="0" y="0" /><text alignment-baseline="middle" fill="#e1ed5e" style="dominant-baseline: central; font-size:9.0px; font-family:Arial;" text-anchor="middle" x="100.0" y="100.0">2024</text><line stroke="#e1ed5e" stroke-width="0.3" x1="100.0" x2="100.0" y1="15.0" y2="10.0" /><path d="M 100.0 14.0 a86.0,86.0 0 0,1 42.35913384403234,11.155469271406648" fill="none" id="id37" stroke="none" /><text fill="#e1ed5e" style="font-size:6.75px; font-family:Arial;" text-anchor="middle"><textPath startOffset="22.145653131862478" xlink:href="#id37">January</textPath></text><path d="M 100.36049292484886 79.00309439819443 l 0.42439109121285346 -24.718653449799728 a45.72229633690198,45.72229633690198 0 0,0 0.7846527071395993,0.02020987038114865 l -0.8486571124231941 24.707725862068536" fill="#d2ff1c" stroke="none" /><path d="M 100.72087961077811 79.0123766808444 l 0.9109319141045562 -26.520788765252576 a47.53642842741429,47.53642842741429 0 0,0 0.8153046167903204,0.03501268828482935 l -1.3660622914957128 26.501243508541915" fill="#bcff1f" stroke="none" /><path d="M 101.08105385017728 79.02784411241856 l 1.4991444230536115 -29.083001307587896 a50.121613950094385,50.121613950094385 0 0,0 0.8588831361989442,0.05166827667875633 l -1.998171911385018 29.052981053084448" fill="#9fff22" stroke="none" /><path d="M 102.15924093988457 79.11130261209362 l 2.353266735713043 -22.765720956533865 a43.887025036036874,43.887025036036874 0 0,0 0.7487212121885245,0.08389577350872525 l -2.7437238495023646 22.721969422518168" fill="#e8ff1a" stroke="none" /><path d="M 102.51750503828377 79.15144685158666 l 3.312047074644922 -27.428501002268163 a48.62774552974038,48.62774552974038 0 0,0 0.827880833253957,0.10718574861642671 l -3.7824057297896707 27.36760365745134" fill="#b0ff20" stroke="none" /><path d="M 102.87502721639298 79.19773525538626 l 3.634271725026918 -26.295779791859996 a47.545733477026445,47.545733477026445 0 0,0 0.8075414031773194,0.11868077705157723 l -4.08513823381192 26.229517941509535" fill="#bcff1f" stroke="none" /><path d="M 103.23170211078529 79.25015418208739 l 4.630432705702155 -29.73069961890523 a51.08912439522971,51.08912439522971 0 0,0 0.8654071855573048,0.14240242305739817 l -5.14011739431253 29.646831197352164" fill="#94ff23" stroke="none" /><path d="M 103.58742460773223 79.30868818359171 l 0.579485801594275 -3.342320111236588 a24.39218329696759,24.39218329696759 0 0,0 0.4119552470614547,0.07507196896589761 l -0.6367757822067833 3.3318799683393245" fill="#ff1001" stroke="none" /><path d="M 103.94208987418118 79.37332000966035 l 4.707063814331134 -24.62934689242289 a46.075110729555846,46.075110729555846 0 0,0 0.7756054082118241,0.15514280373868886 l -5.129165708073915 24.544914692021344" fill="#ceff1d" stroke="none" /><path d="M 104.9986988182912 79.60360301121754 l 6.23393418675159 -25.436578817203923 a47.18933900213172,47.18933900213172 0 0,0 0.7851288220732033,0.19957667634863283 l -6.669668302050188 25.325816909020023" fill="#c0ff1e" stroke="none" /><path d="M 105.69591212413111 79.78721728523813 l 8.300036069840296 -29.453899910711872 a51.60102643230914,51.60102643230914 0 0,0 0.8505323166845709,0.24757756159608071 l -8.804428398906472 29.307078654813274" fill="#8eff24" stroke="none" /><path d="M 106.04205211174951 79.88797359093562 l 7.952473911174432 -26.47119924833356 a48.63993905479687,48.63993905479687 0 0,0 0.7976008871463014,0.24709879367821325 l -8.405715431192364 26.3307838668487" fill="#b0ff20" stroke="none" /><path d="M 106.38641147887787 79.99465700312896 l 9.409764391634154 -29.4759529349118 a51.941484568895554,51.941484568895554 0 0,0 0.847084639888923,0.2784535463703513 l -9.914371769170819 29.310078467139427" fill="#8aff24" stroke="none" /><path d="M 107.06938296918511 80.22567764915836 l 17.735644372195598 -49.609753841941384 a73.68472983279891,73.68472983279891 0 0,0 1.1874148539454337,0.4360351817782677 l -18.58464837779516 49.29798781115439" fill="#40ffc6" stroke="none" /><path d="M 107.74402155503746 80.48000691201159 l 10.209193313584121 -25.73383628890679 a48.68497712222979,48.68497712222979 0 0,0 0.7741967103340068,0.314859062206874 l -10.64944448510857 25.554789970120623" fill="#afff20" stroke="none" /><path d="M 108.07796709384702 80.6158196554323 l 11.413253223124968 -27.38765288655217 a50.67062317797592,50.67062317797592 0 0,0 0.8000286364320501,0.3414846522494995 l -11.881716934727448 27.18769358464327" fill="#98ff23" stroke="none" /><path d="M 109.3889696526874 81.21577127319529 l 28.166908958062173 -56.352686180414125 a84.0,84.0 0 0,0 1.2842911131456847,0.6557681933086643 l -29.130127292921436 55.86086003543262" fill="#4dd2ff" stroke="none" /><path d="M 109.71004243097381 81.37971332152246 l 12.021343482543568 -23.052511201329526 a46.99867250097043,46.99867250097043 0 0,0 0.7121668206187362,0.37918871902378015 l -12.415299118948862 22.842752014583173" fill="#c3ff1e" stroke="none" /><path d="M 110.02825361518725 81.54914285379988 l 12.830487991376232 -23.60665277615224 a47.86811265032708,47.86811265032708 0 0,0 0.7186047959530528,0.3985979668038303 l -13.233836975485385 23.382921893915263" fill="#b8ff1f" stroke="none" /><path d="M 110.34350942703115 81.72400993836675 l 15.05440643301858 -26.599693681780284 a51.56433962995198,51.56433962995198 0 0,0 0.7666083439178866,0.44260153372400507 l -15.508807244796863 26.33734525078011" fill="#8fff24" stroke="none" /><line stroke="#e1ed5e" stroke-width="0.3" x1="143.13028292997686" x2="145.6673583964461" y1="26.7553504044142" y2="22.446841604673864" /><path d="M 143.63769802327073 25.89364864446614 a86.0,86.0 0 0,1 29.32050498858742,28.57503671076993" fill="none" id="id38" stroke="none" /><text fill="#e1ed5e" style="font-size:6.75px; font-family:Arial;" text-anchor="middle"><textPath startOffset="20.669276256404974" xlink:href="#id38">February</textPath></text><path d="M 110.96478420261332 82.08984904055464 l 15.63718670145385 -25.54216929662144 a50.94868979293412,50.94868979293412 0 0,0 0.7419969966592708,0.4630610037759839 l -16.073347826902832 25.269972496003913" fill="#95ff23" stroke="none" /><path d="M 111.5731344415666 82.4767994020092 l 15.574137722270255 -23.581229512713993 a49.2600097509455,49.2600097509455 0 0,0 0.7016119888040822,0.47207585801558505 l -15.976645999171337 23.310403980641286" fill="#a8ff21" stroke="none" /><path d="M 111.8722381534696 82.67804972795209 l 13.700144624999977 -19.98892044165746 a45.23326026701375,45.23326026701375 0 0,0 0.636722560816388,0.44448179781591746 l -14.041262276990127 19.750793828036414" fill="#d8ff1c" stroke="none" /><path d="M 112.45986205192187 83.09580414077388 l 11.254643868174638 -15.269085924118805 a39.96871090922006,39.96871090922006 0 0,0 0.5488027775125357,0.4118318355019246 l -11.515099634597942 15.073635061352865" fill="#ffe615" stroke="none" /><path d="M 113.03279911837588 83.53348406188908 l 11.79206436611819 -14.898888110239866 a40.00078021914156,40.00078021914156 0 0,0 0.5347708681767889,0.4307735569597023 l -12.046086004650238 14.694266259486756" fill="#ffe615" stroke="none" /><path d="M 113.31354834802062 83.75963576809568 l 15.85533800283605 -19.34093432156237 a46.00926795440375,46.00926795440375 0 0,0 0.606502201723891,0.5059657076763607 l -16.185014538721834 19.065906429974135" fill="#ceff1d" stroke="none" /><path d="M 113.59037401385872 83.9905735841838 l 18.23583961807371 -21.48177321672434 a49.178226117179236,49.178226117179236 0 0,0 0.6388966301727873,0.5518636923566684 l -18.60191572800936 21.165565391902952" fill="#a9ff21" stroke="none" /><path d="M 113.86319453409587 84.22622945171908 l 7.887907931556416 -8.974991262823727 a32.94862166546723,32.94862166546723 0 0,0 0.42164033140362295,0.37703338430442185 l -8.040813289783415 8.838262348635919" fill="#ff890c" stroke="none" /><path d="M 114.13192950727249 84.46653392183569 l 16.93502178827011 -18.614555524473353 a46.165385757879505,46.165385757879505 0 0,0 0.5816184127305337,0.5383373197646615 l -17.252069972314608 18.321100458576318" fill="#ccff1d" stroke="none" /><path d="M 114.39649973595853 84.71141617570332 l 23.73853800915691 -25.209504732094814 a55.6271182117383,55.6271182117383 0 0,0 0.6895842572637265,0.6606061194316705 l -24.16779475228595 24.798286482357565" fill="#63ff29" stroke="none" /><path d="M 114.91283532996326 85.21462403516908 l 10.884603687258158 -10.791573445523543 a36.327513003054435,36.327513003054435 0 0,0 0.4352610358540003,0.4466161671906044 l -11.068251524262969 10.603134586265197" fill="#ffb710" stroke="none" /><path d="M 115.16444852881244 85.47280134310134 l 36.355210805550094 -34.827469563577644 a71.34534724200354,71.34534724200354 0 0,0 0.8396469695677138,0.8916759846137767 l -36.94771360885407 34.19825211901937" fill="#3dffac" stroke="none" /><path d="M 115.41159269507618 85.73525988315684 l 11.910343442757478 -11.024036079513236 a37.22916055767659,37.22916055767659 0 0,0 0.43008952128663,0.47274372448870194 l -12.097830664885986 10.817954779466861" fill="#ffc212" stroke="none" /><path d="M 115.6541949942343 86.00192230759917 l 11.392543928515595 -10.187283030790624 a36.283023022707,36.283023022707 0 0,0 0.41118847835904837,0.46785700754471754 l -11.565743470833233 9.990213745434609" fill="#ffb610" stroke="none" /><path d="M 115.8921839302757 86.27271002978787 l 5.3013811893525045 -4.579206806827293 a28.00526783888482,28.00526783888482 0 0,0 0.31113243986910744,0.36651323183441886 l -5.379208192728724 4.487526792543322" fill="#ff4406" stroke="none" /><path d="M 116.1254893667686 86.54754324733833 l 14.471633146255447 -12.072751072074816 a39.84620610011689,39.84620610011689 0 0,0 0.433665578354996,0.5290014925563853 l -14.676745543849071 11.822547297819934" fill="#ffe415" stroke="none" /><path d="M 116.35404254752997 86.82634096563983 l 5.487629414675334 -4.420445807558265 a28.046589084824614,28.046589084824614 0 0,0 0.2988077849655854,0.3775338750238188 l -5.5627036302824795 4.325591988619768" fill="#ff4506" stroke="none" /><path d="M 116.57777611688842 87.10902102172516 l 6.728082594267823 -5.231797719746418 a29.522840065121102,29.522840065121102 0 0,0 0.3076673891017525,0.4027464885900664 l -6.816901960723882 5.11553031791547" fill="#ff5a08" stroke="none" /><line stroke="#e1ed5e" stroke-width="0.3" x1="172.87174338648825" x2="177.1583165268699" y1="56.24261187166439" y2="53.66864786411523" /><path d="M 173.72905801456457 55.72781907015455 a86.0,86.0 0 0,1 12.242430191666344,42.057860355516425" fill="none" id="id39" stroke="none" /><text fill="#e1ed5e" style="font-size:6.75px; font-family:Arial;" text-anchor="middle"><textPath startOffset="22.145653131862474" xlink:href="#id39">March</textPath></text><path d="M 120.7213421655516 96.59031103205396 l 12.252088581191282 -2.016076513568518 a33.416853027636286,33.416853027636286 0 0,0 0.08828176873372172,0.5668322843382926 l -12.284891842063269 1.8054560472987842" fill="#ff900d" stroke="none" /><path d="M 120.82617615685814 97.30363454192243 l 24.403581254003566 -3.1595321700482235 a45.60726359338486,45.60726359338486 0 0,0 0.09385956113865185,0.7772918103949079 l -24.45422290140188 2.7401466827299026" fill="#d3ff1c" stroke="none" /><path d="M 120.9064616781168 98.02013634271609 l 25.26027033778326 -2.3921738639921255 a46.37328818528375,46.37328818528375 0 0,0 0.06824906387622755,0.7931575752446097 l -25.29761302435723 1.9581952413718537" fill="#caff1d" stroke="none" /><path d="M 120.93736805541906 98.37931529534042 l 23.908542213722672 -1.850672375530947 a44.98006211474258,44.98006211474258 0 0,0 0.05298231253657201,0.770351196262556 l -23.936788487424312 1.4399777551140571" fill="#dbff1b" stroke="none" /><path d="M 120.96210409425399 98.7389718711861 l 29.040806973371016 -1.7470228328326276 a50.09330779480108,50.09330779480108 0 0,0 0.044269151025437464,0.8588097032947463 l -29.066517713853024 1.2482413361611506" fill="#9fff22" stroke="none" /><line stroke="#e1ed5e" stroke-width="0.3" x1="184.99686870605535" x2="189.99668451229388" y1="99.2704041080226" y2="99.22748670261217" /><path d="M 185.99683186730306 99.26182062694052 a86.0,86.0 0 0,1 -10.086455211305974,41.156179273409016" fill="none" id="id40" stroke="none" /><text fill="#e1ed5e" style="font-size:6.75px; font-family:Arial;" text-anchor="middle"><textPath startOffset="21.40746469413373" xlink:href="#id40">April</textPath></text><path d="M 120.99922638620191 99.81974689727618 l 28.01588463416784 -0.24048267483700145 a49.016916742423646,49.016916742423646 0 0,0 0.0,0.8414715551216532 l -28.01588463416784 -0.24048267483699803" fill="#abff21" stroke="none" /><path d="M 120.99303781780057 100.54070618675476 l 25.23146059187692 0.6498729226943287 a46.23982841492963,46.23982841492963 0 0,0 -0.027249159516518937,0.7933295478823607 l -25.216586745363557 -1.0829087351408002" fill="#ccff1d" stroke="none" /><path d="M 120.9064616781168 101.97986365728391 l 25.51856893071316 2.4166350092946183 a46.63274244086472,46.63274244086472 0 0,0 -0.0823125806810251,0.7962995501351858 l -25.47332395755047 -2.854339081712735" fill="#c7ff1e" stroke="none" /><path d="M 120.86939407059847 102.33845913500097 l 25.077166477779272 2.8099488097989447 a46.23410570771128,46.23410570771128 0 0,0 -0.09514959963511706,0.7879751797419711 l -25.025234791884493 -3.240017666464324" fill="#ccff1d" stroke="none" /><path d="M 120.77682067341334 103.0534771498775 l 25.148327183682287 3.695938065792683 a46.41846412204539,46.41846412204539 0 0,0 -0.12262986317735439,0.7873716903268344 l -25.081175828366664 -4.127097938050968" fill="#c9ff1d" stroke="none" /><path d="M 120.7213421655516 103.40968896794604 l 24.755310130900508 4.073476861539353 a46.08821622631952,46.08821622631952 0 0,0 -0.13515958132167882,0.7795645478024332 l -24.681735732086594 -4.497834442262374" fill="#cdff1d" stroke="none" /><path d="M 120.65975698304385 103.76489593502545 l 23.035921579027146 4.197912278620934 a44.415297360787136,44.415297360787136 0 0,0 -0.14313085008547108,0.7489210889874914 l -22.960464436659517 -4.59273593264174" fill="#e1ff1b" stroke="none" /><path d="M 120.43855184770803 104.8234425847677 l 26.6671062686902 6.293364468645092 a48.39965315621387,48.39965315621387 0 0,0 -0.1977759025280038,0.8069931735064998 l -26.555142839645903 -6.750213466759692" fill="#b2ff20" stroke="none" /><path d="M 120.26092885502905 105.52220625578681 l 23.389803168185907 6.374994863323753 a45.243008306600146,45.243008306600146 0 0,0 -0.2106633131096037,0.7475697800562199 l -23.276921363001723 -6.775572567282981" fill="#d7ff1c" stroke="none" /><path d="M 120.16314734710363 105.8691983318838 l 22.941397925849646 6.67790658469898 a44.893559281658824,44.893559281658824 0 0,0 -0.22173929413470767,0.7380979933774974 l -22.82338231171131 -7.070742181667201" fill="#dcff1b" stroke="none" /><path d="M 120.05942366710727 106.21446072829308 l 24.384865935903342 7.554493799931589 a46.52826009122408,46.52826009122408 0 0,0 -0.24291138188053152,0.7609164439898914 l -24.251589838245554 -7.971979277612864" fill="#c8ff1d" stroke="none" /><path d="M 119.71291397450082 107.23885506374661 l 27.881780909786517 10.23857615298057 a50.70222463624094,50.70222463624094 0 0,0 -0.30703653505130396,0.8144508873583449 l -27.701913690920772 -10.715695320533074" fill="#98ff23" stroke="none" /><path d="M 119.4528033332814 107.91128576633889 l 35.027482184861604 14.245372067566151 a58.81342530840325,58.81342530840325 0 0,0 -0.3883762897409194,0.9319617119542948 l -34.7777800505842 -14.844566288961722" fill="#42ff2d" stroke="none" /><path d="M 119.31412917781788 108.2440532568976 l 26.161710676056863 11.166878616130646 a49.445285787369116,49.445285787369116 0 0,0 -0.33991542674686576,0.7777930174448265 l -25.96616136729303 -11.614333703351317" fill="#a6ff21" stroke="none" /><path d="M 119.16976305983485 108.57439118712176 l 31.09676174495146 13.909185993675717 a55.0657312563365,55.0657312563365 0 0,0 -0.393367387741285,0.8595787337253374 l -30.85340989235512 -14.440953709615743" fill="#68ff28" stroke="none" /><path d="M 118.8641267826498 109.22738970284198 l 22.008884001200723 10.765648044229057 a45.50081943100112,45.50081943100112 0 0,0 -0.3492298107060027,0.6986935611877857 l -21.820834277282987 -11.141873461580587" fill="#d4ff1c" stroke="none" /><path d="M 118.70294669586154 109.54985784667822 l 18.211875095795953 9.29911318866105 a41.448616104773514,41.448616104773514 0 0,0 -0.32900713603908166,0.6309145645719076 l -18.04955989078192 -9.61037399633746" fill="#fff817" stroke="none" /><line stroke="#e1ed5e" stroke-width="0.3" x1="174.33088141563837" x2="178.70328620479359" y1="141.23008692659167" y2="143.65538615756765" /><path d="M 175.20536237346943 141.71514677278685 a86.0,86.0 0 0,1 -30.301960400862466,31.631185727798858" fill="none" id="id41" stroke="none" /><text fill="#e1ed5e" style="font-size:6.75px; font-family:Arial;" text-anchor="middle"><textPath startOffset="22.145653131862474" xlink:href="#id41">May</textPath></text><path d="M 118.18653347947321 110.5 l 12.639597249822135 7.297474874633259 a35.594949749266526,35.594949749266526 0 0,0 -0.31005962360717926,0.5265490263933076 l -12.51246391608519 -7.513375069320117" fill="#ffad10" stroke="none" /><path d="M 117.21940702142032 112.02048342749411 l 22.521572346952947 15.72180661162672 a48.466277944279696,48.466277944279696 0 0,0 -0.482089223476686,0.6781188665074409 l -22.2483680249463 -16.106102704843664" fill="#b2ff20" stroke="none" /><path d="M 117.01052211995028 112.31430620078461 l 22.304646204206627 16.146843766578716 a48.535755045342974,48.535755045342974 0 0,0 -0.4943666658177566,0.6707033280490374 l -22.024177518805043 -16.52735340389663" fill="#b1ff20" stroke="none" /><path d="M 116.79662413953412 112.60449989151573 l 22.36183617041803 16.780738750991937 a48.957913190037246,48.957913190037246 0 0,0 -0.5102067854523462,0.6678770600149656 l -22.07047740761138 -17.16213672424778" fill="#acff21" stroke="none" /><path d="M 116.57777611688842 112.89097897827486 l 18.243992424451882 14.186638857055446 a44.11068976997383,44.11068976997383 0 0,0 -0.4699543842428094,0.5937720122922965 l -17.99777160956751 -14.497730813262425" fill="#e5ff1a" stroke="none" /><path d="M 116.35404254752997 113.17365903436017 l 21.5743819904964 17.378794961174066 a48.70336572646696,48.70336572646696 0 0,0 -0.5300623405032587,0.6465898684829912 l -21.272872830754512 -17.746587111355552" fill="#afff20" stroke="none" /><path d="M 115.89218393027572 113.72728997021213 l 22.812680526102415 19.705050102209963 a51.144773880668225,51.144773880668225 0 0,0 -0.5796138247589979,0.6594941343334579 l -22.471055637384833 -20.093756514354716" fill="#93ff23" stroke="none" /><path d="M 115.6541949942343 113.99807769240083 l 20.958096989493626 18.74085956204441 a49.115149769213275,49.115149769213275 0 0,0 -0.5674022979765027,0.6236745197288796 l -20.633296990675245 -19.097871657330963" fill="#aaff21" stroke="none" /><path d="M 115.41159269507618 114.26474011684316 l 20.26874940772685 18.760451856933337 a48.61841335829307,48.61841335829307 0 0,0 -0.5721789159286296,0.6076341804682169 l -19.943714658061964 -19.10562749734605" fill="#b0ff20" stroke="none" /><path d="M 115.16444852881244 114.52719865689866 l 38.242182329534955 36.63514559853237 a73.95845921428474,73.95845921428474 0 0,0 -0.886139262136369,0.9092569475600991 l -37.60765626624778 -37.286225238160206" fill="#40ffc8" stroke="none" /><path d="M 113.59037401385872 116.0094264158162 l 15.763827920854778 18.56974965318543 a45.35844561749171,45.35844561749171 0 0,0 -0.5979229480687437,0.49880858914551135 l -15.44273063862414 -18.83762042624281" fill="#d6ff1c" stroke="none" /><path d="M 113.31354834802062 116.24036423190432 l 17.583037396731104 21.44844666212239 a48.7344383089464,48.7344383089464 0 0,0 -0.6515312386860082,0.5248274464089687 l -17.212255387689844 -21.747122402324763" fill="#aeff20" stroke="none" /><path d="M 113.03279911837588 116.46651593811092 l 15.600347818968832 19.71052984611157 a46.13714062671529,46.13714062671529 0 0,0 -0.6252462573966217,0.48619527151979397 l -15.259691616936978 -19.975426169252156" fill="#cdff1d" stroke="none" /><path d="M 112.16784306229584 117.11559508785304 l 14.549257639597508 20.46535292354586 a46.109989409569124,46.109989409569124 0 0,0 -0.6490637721616498,0.4530969218016909 l -14.1957987762621 -20.712094661152673" fill="#cdff1d" stroke="none" /><path d="M 111.8722381534696 117.32195027204791 l 16.751600505038127 24.441085764496936 a50.63077442166992,50.63077442166992 0 0,0 -0.7211358364783225,0.4852123740524497 l -16.329568380462803 -24.725047812606505" fill="#99ff23" stroke="none" /><path d="M 111.27062007382361 117.71928675628689 l 10.383718148330829 16.32492961891796 a40.34747863796727,40.34747863796727 0 0,0 -0.587605060970528,0.3667090171280143 l -10.101948958570587 -16.50077443288752" fill="#ffea16" stroke="none" /><path d="M 110.96478420261333 117.91015095944535 l 19.109098385077488 31.21327610752802 a57.59817272016939,57.59817272016939 0 0,0 -0.8477004033310194,0.509019735789388 l -18.570465225189032 -31.53670984385333" fill="#4eff2b" stroke="none" /><line stroke="#e1ed5e" stroke-width="0.3" x1="143.1302829299769" x2="145.66735839644613" y1="173.24464959558577" y2="177.55315839532614" /><path d="M 143.63769802327073 174.10635135553383 a86.0,86.0 0 0,1 -40.68552437913181,11.842963189579606" fill="none" id="id42" stroke="none" /><text fill="#e1ed5e" style="font-size:6.75px; font-family:Arial;" text-anchor="middle"><textPath startOffset="21.407464694133747" xlink:href="#id42">June</textPath></text><path d="M 110.34350942703117 118.27599006163325 l 12.990366029276142 22.952732060898988 a47.373803643653524,47.373803643653524 0 0,0 -0.7111841394197029,0.39448185371468597 l -12.594437701700345 -23.172346830046816" fill="#beff1f" stroke="none" /><path d="M 110.02825361518725 118.45085714620011 l 10.908529029175147 20.070464760451646 a43.84337018219703,43.84337018219703 0 0,0 -0.6643547974088294,0.3537315096874252 l -10.562385415979763 -20.25476673786164" fill="#e8ff1a" stroke="none" /><path d="M 109.71004243097381 118.62028667847754 l 13.916120304030004 26.685995592218404 a51.09652413592201,51.09652413592201 0 0,0 -0.7812239507190227,0.39889851567816265 l -13.455969131597397 -26.9209520595694" fill="#94ff23" stroke="none" /><path d="M 109.3889696526874 118.78422872680471 l 11.189139978136312 22.385775263996916 a46.02638183238849,46.02638183238849 0 0,0 -0.709770096189024,0.3471841210791402 l -10.80320963268522 -22.574553135173282" fill="#ceff1d" stroke="none" /><path d="M 109.06512990194946 118.94263497670748 l 13.321772220373001 27.837380284986303 a51.860806149911994,51.860806149911994 0 0,0 -0.8063399293175364,0.3774078014104571 l -12.841943577183958 -28.061964317967295" fill="#8bff24" stroke="none" /><path d="M 108.73861861582097 119.09545874513695 l 20.388922349698476 44.553474948728045 a69.99714567797773,69.99714567797773 0 0,0 -1.0969105943326023,0.4906341567054813 l -19.621098352510245 -44.89691285634338" fill="#3bff9d" stroke="none" /><path d="M 107.407793817531 119.65005319985036 l 8.879841903524138 23.55483563778059 a46.17303863569994,46.17303863569994 0 0,0 -0.7440693893054279,0.27323258618790064 l -8.474183362564583 -23.703799072977215" fill="#ccff1d" stroke="none" /><path d="M 107.06938296918513 119.77432235084164 l 9.329444634686297 26.09611706775054 a48.71364038168602,48.71364038168602 0 0,0 -0.7898434939351728,0.2747485677189 l -8.880095368706101 -26.25242406803803" fill="#afff20" stroke="none" /><path d="M 106.72888874123015 119.89276391827305 l 8.971545155070086 26.522779111861013 a48.99904345305447,48.99904345305447 0 0,0 -0.7990980123658002,0.2626793887679664 l -8.51492440505655 -26.672879422031" fill="#abff21" stroke="none" /><path d="M 106.38641147887787 120.00534299687104 l 7.21991663371764 22.61628602291597 a44.74075798428047,44.74075798428047 0 0,0 -0.7336618621100307,0.22729032028000767 l -6.830614138735985 -22.73689293100262" fill="#ddff1b" stroke="none" /><path d="M 105.3480935250658 120.30758222061773 l 7.2014450327916695 27.345059772281477 a49.2774310097287,49.2774310097287 0 0,0 -0.8198701694404701,0.20840779099440626 l -6.7309695701258025 -27.464652795111153" fill="#a8ff21" stroke="none" /><path d="M 104.9986988182912 120.39639698878246 l 3.9873518677454443 16.26975630756266 a37.75123712520028,37.75123712520028 0 0,0 -0.6307473935130542,0.1488546674329703 l -3.7074723204925113 -16.335807118641853" fill="#ffc912" stroke="none" /><path d="M 104.64783097203109 120.47920084513623 l 6.74435336425559 29.71686533961951 a51.47258420145927,51.47258420145927 0 0,0 -0.8633608890233362,0.1881654873921625 l -6.233230058613119 -29.828262285145392" fill="#90ff24" stroke="none" /><path d="M 104.29559338865022 120.5559693870025 l 5.264208149186665 25.191141658659834 a46.7352968800562,46.7352968800562 0 0,0 -0.7867186522311375,0.15736576378709816 l -4.830993011424568 -25.277796819109792" fill="#c6ff1e" stroke="none" /><path d="M 103.94208987418118 120.62667999033965 l 4.7261327492891425 24.729123617888114 a46.17669330298749,46.17669330298749 0 0,0 -0.7798699635254843,0.14211828618968828 l -4.300928052212601 -24.806610078009165" fill="#ccff1d" stroke="none" /><path d="M 102.875027216393 120.80226474461374 l 2.50380981718213 18.11632056566453 a39.28852466544355,39.28852466544355 0 0,0 -0.6688818530041607,0.08660014735260972 l -2.1924501422871936 -18.156632309217535" fill="#ffdd14" stroke="none" /><path d="M 102.51750503828377 120.84855314841334 l 3.5705456742564343 29.569240230526155 a50.78403539184235,50.78403539184235 0 0,0 -0.8663855548919762,0.09708030853298036 l -3.0624242177636587 -29.626176299566104" fill="#97ff23" stroke="none" /><path d="M 102.15924093988457 120.88869738790638 l 2.609176598022053 25.241416731661 a46.3759122228353,46.3759122228353 0 0,0 -0.7925873878663712,0.07505884968094599 l -2.1754896467706666 -25.28248733684713" fill="#caff1d" stroke="none" /><path d="M 101.80034050326958 120.92268563240118 l 2.7641206800200626 32.12327219936959 a53.241975434648936,53.241975434648936 0 0,0 -0.9112769881251461,0.07053860219935393 l -2.2122746971196805 -32.16598856856399" fill="#7cff26" stroke="none" /><path d="M 101.44090949804482 120.95050786540614 l 2.191750377208282 31.867569461521292 a52.94285136146861,52.94285136146861 0 0,0 -0.9072278131731375,0.054576572395101025 l -1.6443782119026789 -31.900498011741085" fill="#7fff26" stroke="none" /><line stroke="#e1ed5e" stroke-width="0.3" x1="101.45913802915013" x2="101.54496967792366" y1="184.9874750549273" y2="189.98673829345242" /><path d="M 101.47630435890484 185.9873277026323 a86.0,86.0 0 0,1 -42.54439059252881,-10.42667462771756" fill="none" id="id43" stroke="none" /><text fill="#e1ed5e" style="font-size:6.75px; font-family:Arial;" text-anchor="middle"><textPath startOffset="22.145653131862474" xlink:href="#id43">July</textPath></text><path d="M 100.36049292484886 120.99690560180557 l 0.433725307635567 25.262324760898867 a46.266047771022826,46.266047771022826 0 0,0 -0.7942182324844161,0.006817408318394874 l -3.094198452988722e-15 -25.266047771022826" fill="#cbff1d" stroke="none" /><path d="M 100.0 121.0 l 2.9559997732257153e-15 24.137569912270195 a45.137569912270195,45.137569912270195 0 0,0 -0.7748464094401823,-0.006651124516081354 l 0.41435348459132726 -24.134013185948547" fill="#d9ff1c" stroke="none" /><path d="M 99.63950707515114 120.99690560180557 l -0.5880872515534382 34.25313412647474 a55.25818214823589,55.25818214823589 0 0,0 -0.9483006254703767,-0.024424860258213745 l 1.176001191094559 -34.23799154886648" fill="#66ff29" stroke="none" /><path d="M 99.27912038922189 120.98762331915562 l -0.9878773819715834 28.760972107331657 a49.77793283543001,49.77793283543001 0 0,0 -0.8537490046601685,-0.03666365571598637 l 1.4814521472325906 -28.739775883189843" fill="#a3ff22" stroke="none" /><path d="M 98.91894614982273 120.97215588758144 l -1.4647035851132186 28.414858252488365 a49.45258382117957,49.45258382117957 0 0,0 -0.847418647128337,-0.05097860148510408 l 1.9522665843740021 -28.38552767317857" fill="#a6ff21" stroke="none" /><path d="M 98.19965949673042 120.92268563240118 l -1.184043711055398 13.760382714515963 a34.81123064609521,34.81123064609521 0 0,0 -0.594941232285167,-0.056341553255472666 l 1.4200845067255805 -13.738029405755308" fill="#ffa20f" stroke="none" /><path d="M 97.84075906011543 120.88869738790638 l -2.5937960203020007 25.092623594354784 a46.226326261326776,46.226326261326776 0 0,0 -0.7886301476343587,-0.08836765296750498 l 3.0241620695371587 -25.04440018088031" fill="#ccff1d" stroke="none" /><path d="M 97.48249496171623 120.84855314841334 l -1.9273051433946466 15.96085136046686 a37.07679325197262,37.07679325197262 0 0,0 -0.6312274228928553,-0.08172502750674777 l 2.201010388178296 -15.925414736759716" fill="#ffc011" stroke="none" /><path d="M 97.12497278360702 120.80226474461374 l -3.4264260402182734 24.79191195479675 a46.02757067282959,46.02757067282959 0 0,0 -0.7817561385174435,-0.11489123111093161 l 3.8515072843434015 -24.729439650386933" fill="#ceff1d" stroke="none" /><path d="M 96.76829788921471 120.74984581791261 l -5.338305530368092 34.27575094696204 a55.688969556816296,55.688969556816296 0 0,0 -0.9433247287215535,-0.1552237251339697 l 5.9259077621427085 -34.179061223332404" fill="#62ff29" stroke="none" /><path d="M 96.41257539226777 120.69131181640829 l -4.294786338123174 24.771186303238395 a46.14074105033252,46.14074105033252 0 0,0 -0.779262772322279,-0.14200763572585592 l 4.719383843996511 -24.69381049358117" fill="#cdff1d" stroke="none" /><path d="M 93.61358852112213 120.00534299687104 l -4.635616686814771 14.52100324704458 a36.24298124934079,36.24298124934079 0 0,0 -0.5910665237027808,-0.19429530641402834 l 4.884205948165295 -14.439287019228532" fill="#ffb510" stroke="none" /><path d="M 92.93061703081489 119.77432235084164 l -9.580636033802907 26.79874411731662 a49.45981857070798,49.45981857070798 0 0,0 -0.7970351981688883,-0.29268236485545934 l 10.039260383625916 -26.63033090345244" fill="#a6ff21" stroke="none" /><path d="M 92.59220618246901 119.65005319985036 l -8.085004709913914 21.44643554939015 a43.919792733213704,43.919792733213704 0 0,0 -0.703192978211506,-0.2720101502778975 l 8.451969950618947 -21.30448551097421" fill="#e7ff1a" stroke="none" /><path d="M 92.25597844496254 119.51999308798841 l -7.111985308306833 17.926848869592657 a40.28606350240473,40.28606350240473 0 0,0 -0.6406357706107935,-0.26054099075630816 l 7.418675540108068 -17.802120622257057" fill="#ffea16" stroke="none" /><path d="M 91.59046798132341 119.24265499422711 l -12.774084814282611 29.22960592840678 a52.89901417869271,52.89901417869271 0 0,0 -0.8289693603979759,-0.370787450841427 l 13.273967577536222 -29.0060147266555" fill="#80ff26" stroke="none" /><path d="M 91.26138138417905 119.09545874513695 l -10.42136751991498 22.772568788408158 a46.043857334842016,46.043857334842016 0 0,0 -0.715897098891281,-0.33507599004474325 l 10.810753332677752 -22.59031656679289" fill="#ceff1d" stroke="none" /><path d="M 90.93487009805054 118.94263497670748 l -12.735060270501771 26.611377963663465 a50.50164736448231,50.50164736448231 0 0,0 -0.7787828997318486,-0.38094174156762844 l 13.190003419495689 -26.388842471998615" fill="#9aff22" stroke="none" /><path d="M 90.6110303473126 118.78422872680471 l -13.178768676647433 26.36636546044623 a50.476518984208354,50.476518984208354 0 0,0 -0.7717445804041372,-0.3940582816521945 l 13.629440478765153 -26.136249227121198" fill="#9bff22" stroke="none" /><path d="M 90.28995756902619 118.62028667847754 l -10.865280333723517 20.835607680827202 a44.49844386677008,44.49844386677008 0 0,0 -0.674281072309529,-0.35901669197238995 l 11.221350221819607 -20.64602052113224" fill="#e0ff1b" stroke="none" /><path d="M 89.97174638481275 118.45085714620012 l -24.063521680433777 44.274169561065946 a71.39102267256267,71.39102267256267 0 0,0 -1.07173499100023,-0.5944733332855733 l 24.82000085959011 -43.854563312347224" fill="#3dffad" stroke="none" /><line stroke="#e1ed5e" stroke-width="0.3" x1="58.13341422392154" x2="55.67067388415222" y1="173.97424548756322" y2="178.32567169271397" /><path d="M 57.64086615596768 174.84453072859336 a86.0,86.0 0 0,1 -31.369924170532247,-30.572349798747897" fill="none" id="id44" stroke="none" /><text fill="#e1ed5e" style="font-size:6.75px; font-family:Arial;" text-anchor="middle"><textPath startOffset="22.145653131862474" xlink:href="#id44">August</textPath></text><path d="M 89.65649057296885 118.27599006163327 l -9.113880104138763 16.10335286888849 a39.50353436975097,39.50353436975097 0 0,0 -0.5873000464938968,-0.33907783993833357 l 9.38897261849306 -15.944528131673984" fill="#ffe015" stroke="none" /><path d="M 88.4268655584334 117.5232005979908 l -1.294565276161554 1.9601368268820971 a23.34904994292217,23.34904994292217 0 0,0 -0.33256130987316285,-0.22376209102236397 l 1.3280228741317226 -1.9376250618026118" fill="#ff0000" stroke="none" /><path d="M 88.1277618465304 117.32195027204791 l -1.3607907850301382 1.9854344230842815 a23.407010886762034,23.407010886762034 0 0,0 -0.32948701519409385,-0.23000752585662523 l 1.3946728913979973 -1.9617820814225273" fill="#ff0100" stroke="none" /><path d="M 87.83215693770417 117.11559508785305 l -1.6139619804556065 2.270239647507047 a23.78547326884842,23.78547326884842 0 0,0 -0.33075285103554497,-0.23943955721719662 l 1.6526958418651052 -2.2421993189167853" fill="#ff0701" stroke="none" /><path d="M 87.54013794807813 116.9041958592261 l -2.387482267892233 3.239078225641716 a25.02389106852138,25.02389106852138 0 0,0 -0.34359829502051,-0.25784256624028506 l 2.4427335518235096 -3.197616632137416" fill="#ff1902" stroke="none" /><path d="M 87.2517909369889 116.68781488649013 l -1.6101352159342543 2.1077186836927413 a23.652359979938453,23.652359979938453 0 0,0 -0.320534592199914,-0.24924963763080082 l 1.6460797527693967 -2.079767994441147" fill="#ff0500" stroke="none" /><path d="M 86.68645165197938 116.24036423190432 l -4.801019936613047 5.856463687745747 a28.572843545039106,28.572843545039106 0 0,0 -0.3766522113925484,-0.3142166708437689 l 4.900846482167488 -5.773184832990108" fill="#ff4c07" stroke="none" /><path d="M 86.13680546590413 115.77377054828092 l -18.315277369900056 20.83942355785223 a48.744025651659484,48.744025651659484 0 0,0 -0.6237725917152206,-0.5577812978844215 l 18.670314988438648 -20.521946730084423" fill="#aeff20" stroke="none" /><path d="M 85.86807049272751 115.53346607816431 l -1.8153072047040517 1.9953406129861146 a23.697540437005948,23.697540437005948 0 0,0 -0.29855541393881774,-0.27633843396824503 l 1.8492923899568368 -1.9638844328854923" fill="#ff0500" stroke="none" /><path d="M 85.60350026404147 115.28858382429668 l -17.28034109891642 18.351123415321812 a46.20662450823736,46.20662450823736 0 0,0 -0.5728026521325843,-0.5487319834228179 l 17.59281623691432 -18.05177930159341" fill="#ccff1d" stroke="none" /><path d="M 85.34317274990678 115.03919595460226 l -12.787018067782459 13.120607012353036 a39.32097594121019,39.32097594121019 0 0,0 -0.4793565499678648,-0.47525951005700473 l 13.010366537880287 -12.899167492067372" fill="#ffdd14" stroke="none" /><path d="M 84.3458050057657 113.99807769240083 l -16.94757712585239 15.154627969883714 a43.7350636537991,43.7350636537991 0 0,0 -0.49564101269861327,-0.5639484888852407 l 17.205229202509596 -14.861467203187173" fill="#eaff1a" stroke="none" /><path d="M 84.1078160697243 113.72728997021213 l -17.377618754643933 15.010373192468787 a43.962859947291804,43.962859947291804 0 0,0 -0.48841782045136234,-0.575354964382563 l 17.63273113860241 -14.70985144563667" fill="#e7ff1a" stroke="none" /><path d="M 83.8745106332314 113.45245675266167 l -5.364345137446425 4.475127503203949 a27.985911889193673,27.985911889193673 0 0,0 -0.304584246608698,-0.37154325615686434 l 5.440376203293752 -4.38238196534859" fill="#ff4406" stroke="none" /><path d="M 83.64595745247003 113.17365903436017 l -2.6982098535616874 2.1734868617754177 a24.464733980000158,24.464733980000158 0 0,0 -0.26064677413095755,-0.32931868445613643 l 2.735123058334207 -2.126848233404601" fill="#ff1101" stroke="none" /><path d="M 83.4222238831116 112.89097897827486 l -21.00303114774622 16.332084056185657 a47.60571906586085,47.60571906586085 0 0,0 -0.4961151182947896,-0.6494306153571193 l 21.280298243395304 -15.969132527587666" fill="#bcff1f" stroke="none" /><path d="M 83.20337586046588 112.60449989151573 l -18.7355113622432 14.059477009850875 a44.424096136143,44.424096136143 0 0,0 -0.4524868783492738,-0.6138853531019733 l 18.974100260176307 -13.735785347480022" fill="#e1ff1b" stroke="none" /><path d="M 82.78059297857968 112.02048342749411 l -18.742913297461413 13.084009129630898 a43.85799846400425,43.85799846400425 0 0,0 -0.425652867128656,-0.621040253930758 l 18.964755901405393 -12.76033414063009" fill="#e8ff1a" stroke="none" /><path d="M 82.576782715395 111.72311816256416 l -20.867118337762665 14.040328487549315 a46.150893657293366,46.150893657293366 0 0,0 -0.4366216519844112,-0.661100830702288 l 21.105064428667802 -13.680047778507966" fill="#cdff1d" stroke="none" /><line stroke="#e1ed5e" stroke-width="0.3" x1="26.387840678322732" x2="22.057713659400548" y1="142.50000000000003" y2="145.00000000000006" /><path d="M 25.521815274538298 143.00000000000003 a86.0,86.0 0 0,1 -11.493303480769221,-40.785679425670985" fill="none" id="id45" stroke="none" /><text fill="#e1ed5e" style="font-size:6.75px; font-family:Arial;" text-anchor="middle"><textPath startOffset="21.40746469413373" xlink:href="#id45">September</textPath></text><path d="M 81.81346652052679 110.50000000000001 l -9.906959126719364 5.719785518662052 a32.43957103732409,32.43957103732409 0 0,0 -0.2742945461546474,-0.4846521806594786 l 10.00368703789539 -5.548876567903451" fill="#ff820c" stroke="none" /><line stroke="#e1ed5e" stroke-width="0.3" x1="15.003131293944662" x2="10.003315487706104" y1="100.72959589197737" y2="100.7725132973878" /><path d="M 14.003168132696942 100.73817937305945 a86.0,86.0 0 0,1 10.791469493833604,-42.45332614584628" fill="none" id="id46" stroke="none" /><text fill="#e1ed5e" style="font-size:6.75px; font-family:Arial;" text-anchor="middle"><textPath startOffset="22.145653131862435" xlink:href="#id46">October</textPath></text><line stroke="#e1ed5e" stroke-width="0.3" x1="26.387840678322718" x2="22.05771365940052" y1="57.49999999999999" y2="54.99999999999999" /><path d="M 25.521815274538284 56.99999999999999 a86.0,86.0 0 0,1 29.574782752854787,-30.34633250058573" fill="none" id="id47" stroke="none" /><text fill="#e1ed5e" style="font-size:6.75px; font-family:Arial;" text-anchor="middle"><textPath startOffset="21.40746469413373" xlink:href="#id47">November</textPath></text><line stroke="#e1ed5e" stroke-width="0.3" x1="56.869717070023135" x2="54.33264160355391" y1="26.7553504044142" y2="22.446841604673864" /><path d="M 56.362301976729285 25.89364864446614 a86.0,86.0 0 0,1 42.16139366436587,-11.88097634709845" fill="none" id="id48" stroke="none" /><text fill="#e1ed5e" style="font-size:6.75px; font-family:Arial;" text-anchor="middle"><textPath startOffset="22.145653131862474" xlink:href="#id48">December</textPath></text></svg>