<?xml version="1.0" encoding="utf-8" ?>
<svg baseProfile="full" height="200mm" version="1.1" viewBox="0,0,200,200" width="200mm" xmlns="http://www.w3.org/2000/svg" xmlns:ev="http://www.w3.org/2001/xml-events" xmlns:xlink="http://www.w3.org/1999/xlink"><defs /><rect fill="#1a1a1a" height="200" width="200" x="0" y="0" /><text alignment-baseline="middle" fill="#e1ed5e" style="dominant-baseline: central; font-size:9.0px; font-family:Arial;" text-anchor="middle" x="100.0" y="100.0">2023</text><line stroke="#e1ed5e" stroke-width="0.3" x1="100.0" x2="100.0" y1="15.0" y2="10.0" /><path d="M 100.0 14.0 a86.0,86.0 0 0,1 42.46469731375804,11.215312516191453" fill="none" id="id25" stroke="none" /><text fill="#e1ed5e" style="font-size:6.75px; font-family:Arial;" text-anchor="middle"><textPath startOffset="22.20632615414155" xlink:href="#id25">January</textPath></text><path d="M 100.72285384407766 79.0124445844662 l 0.614077861615869 -17.829320900354666 a38.83989280763622,38.83989280763622 0 0,0 0.6679706360234993,0.02876422070072949 l -0.9208893300286999 17.816108953129742" fill="#ffc612" stroke="none" /><path d="M 101.08401301168833 79.027996857942 l 1.1321058248335976 -21.902437202828263 a42.93167615624619,42.93167615624619 0 0,0 0.7376846697191028,0.04449915380690634 l -1.5089525433923123 21.879704779641052" fill="#fffc17" stroke="none" /><path d="M 101.44485096284872 79.0497635885617 l 1.6095639651576044 -23.33856325423273 a44.39399989163367,44.39399989163367 0 0,0 0.7619063378281875,0.05913859558922792 l -2.011060492348133 23.307399396455036" fill="#f0ff19" stroke="none" /><path d="M 101.80526077348638 79.07773832637324 l 1.8427927567401616 -21.357242584029738 a42.436597116552505,42.436597116552505 0 0,0 0.7272316663829449,0.06905940948033049 l -2.210149550213351 21.32235763003423" fill="#fff517" stroke="none" /><path d="M 102.16513564639614 79.11191278185805 l 2.0078477969843957 -19.37065697198857 a40.47443976863788,40.47443976863788 0 0,0 0.6923698296040408,0.0777958176225078 l -2.340984330098162 19.333225200895463" fill="#ffdc14" stroke="none" /><path d="M 102.52436894288641 79.15227682838746 l 2.8629081039250543 -23.643578639559202 a44.816277074650856,44.816277074650856 0 0,0 0.7650464406844669,0.09932498498070996 l -3.2694692731173673 23.590795331414355" fill="#eaff1a" stroke="none" /><path d="M 103.2404852339499 79.25152402106235 l 3.256985549977608 -20.854125715328635 a42.10693047848251,42.10693047848251 0 0,0 0.7151577295626452,0.1180071530857197 l -3.6154724856791285 20.79497229930329" fill="#fff116" stroke="none" /><path d="M 103.59715602781102 79.31037775812273 l 2.688809667019968 -15.465121852054791 a36.69712366404631,36.69712366404631 0 0,0 0.621413153163098,0.11355928176764152 l -2.954617941285967 15.41654708893641" fill="#ffa90f" stroke="none" /><path d="M 103.95276090670814 79.375362276772 l 4.8850478745024315 -25.489106234898617 a46.95300039282796,46.95300039282796 0 0,0 0.7924628816914995,0.15896059896358816 l -5.323077165661056 25.40124167985782" fill="#d0ff1d" stroke="none" /><path d="M 104.307194497241 79.44645832069477 l 5.163310724183345 -24.638850704486302 a46.17404897255171,46.17404897255171 0 0,0 0.7765095880927597,0.16971491994958235 l -5.586663036429633 24.546322286440848" fill="#daff1c" stroke="none" /><path d="M 105.01212808612495 79.60689891045804 l 10.597942107273294 -43.12038739253992 a65.40365059082228,65.40365059082228 0 0,0 1.090967497595974,0.27811190654184215 l -11.338618493554293 42.93157248982921" fill="#35ff62" stroke="none" /><path d="M 105.36241919743992 79.69619591428918 l 4.800593061514219 -18.176553795484836 a39.799808552812785,39.799808552812785 0 0,0 0.6608703452789535,0.18064082988665958 l -5.112761296016884 18.091226424771882" fill="#ffd313" stroke="none" /><path d="M 109.73455568895987 81.39251694778311 l 9.899981292271224 -18.923692051206938 a42.35686658749904,42.35686658749904 0 0,0 0.6431284154744542,0.3435369265989589 l -10.22425475427399 18.750476398106226" fill="#fff417" stroke="none" /><path d="M 110.05341064243156 81.56283822128135 l 12.375193354093707 -22.695128054290347 a46.84984038542292,46.84984038542292 0 0,0 0.7047017146940583,0.3921657412628855 l -12.764019157859801 22.478746915467283" fill="#d1ff1c" stroke="none" /><path d="M 110.36928655335952 81.73862282372117 l 12.895630359784631 -22.71052774113981 a47.1163809257194,47.1163809257194 0 0,0 0.7018170432368241,0.4065377305984345 l -13.284644135486783 22.485185853151325" fill="#ceff1d" stroke="none" /><line stroke="#e1ed5e" stroke-width="0.3" x1="143.23703022742887" x2="145.7803849466894" y1="26.81831364943548" y2="22.513508569990506" /><path d="M 143.74570117128098 25.957352633546492 a86.0,86.0 0 0,1 28.547481713284135,27.462654790039103" fill="none" id="id26" stroke="none" /><text fill="#e1ed5e" style="font-size:6.75px; font-family:Arial;" text-anchor="middle"><textPath startOffset="19.985693538727396" xlink:href="#id26">February</textPath></text><path d="M 110.68208982089419 81.91981866633111 l 13.798342508794654 -23.35465614369786 a48.126264386759445,48.126264386759445 0 0,0 0.7096055745418995,0.42752941883052875 l -14.19831014955419 23.113680115408716" fill="#c2ff1e" stroke="none" /><path d="M 111.2981086023043 82.29822771554956 l 6.923257389453088 -10.847295780971873 a33.86838446117099,33.86838446117099 0 0,0 0.4887255845309579,0.31788071496550124 l -7.108949999768326 10.726516141846844" fill="#ff820b" stroke="none" /><path d="M 112.19680574252982 82.90503203632743 l 14.222068681972399 -19.9335640517499 a45.48702132559116,45.48702132559116 0 0,0 0.6334710681802014,0.46024367129389704 l -14.563085066506389 19.68580114563933" fill="#e2ff1b" stroke="none" /><path d="M 112.48926042617603 83.11751280151076 l 8.91366416453225 -12.049137900427592 a35.9878328313865,35.9878328313865 0 0,0 0.49483929276015215,0.3727026962125416 l -9.119749611050784 11.893918614709202" fill="#ff9f0e" stroke="none" /><path d="M 112.77801427241765 83.33499621200491 l 15.156937226572415 -19.767579759279933 a45.9096357988179,45.9096357988179 0 0,0 0.6229881717690612,0.4862521497403911 l -15.494957953500908 19.503749220316315" fill="#ddff1b" stroke="none" /><path d="M 113.06298171725822 83.55741782278167 l 15.73834419572261 -19.81010334184491 a46.30090260124351,46.30090260124351 0 0,0 0.6197631602193362,0.5011387072585738 l -16.077010754506436 19.536258537322208" fill="#d8ff1c" stroke="none" /><path d="M 113.34407831869373 83.78471172551755 l 14.433456189518324 -17.53906469375874 a43.71438856554583,43.71438856554583 0 0,0 0.5769101579705509,0.4831456662523831 l -14.733223884447993 17.288017870112537" fill="#f8ff18" stroke="none" /><path d="M 113.89432698308785 84.25364557470407 l 19.123129584290968 -21.672123919469442 a49.902855227095195,49.902855227095195 0 0,0 0.6392057020798392,0.5738851905993207 l -19.493346273966797 21.339739720100823" fill="#adff20" stroke="none" /><path d="M 114.16331599549186 84.49514656593476 l 17.214374057984422 -18.84490516297023 a46.52381485612112,46.52381485612112 0 0,0 0.5866256852232884,0.5452046416382818 l -17.536207627002558 18.54579593525731" fill="#d5ff1c" stroke="none" /><path d="M 114.42810811169701 84.74124197986012 l 18.26299926991461 -19.314430168131135 a47.581654482979715,47.581654482979715 0 0,0 0.5902770614028816,0.5678460653936693 l -18.592759574929907 18.997201015975165" fill="#c8ff1d" stroke="none" /><path d="M 114.68862486808459 84.99185889309783 l 17.75133793566257 -18.137476242149425 a46.37869269565767,46.37869269565767 0 0,0 0.56574098588899,0.5633115143036894 l -18.060914721718884 17.829228877195618" fill="#d7ff1c" stroke="none" /><path d="M 114.94478906791727 85.2469230424477 l 19.179891942132834 -18.933851831155827 a47.95104821850265,47.95104821850265 0 0,0 0.574809163309166,0.5923913699420235 l -19.50296536914511 18.60089626566369" fill="#c4ff1e" stroke="none" /><path d="M 115.19652480421416 85.50635884689758 l 21.25784390360681 -20.27460654307638 a50.376105900998326,50.376105900998326 0 0,0 0.5930771224096848,0.6326533230801501 l -21.603688347986957 19.905683803118173" fill="#a7ff21" stroke="none" /><path d="M 115.68641384162765 86.03803664274999 l 35.07625013876683 -31.220221785018413 a67.95791277413295,67.95791277413295 0 0,0 0.7702160083100251,0.8804900427980263 l -35.6084580106547 30.611816186017442" fill="#38ff81" stroke="none" /><path d="M 115.9244219780498 86.31012108654704 l 10.19859510091657 -8.767510193546174 a34.449184994875175,34.449184994875175 0 0,0 0.38269663015824934,0.45299210137647866 l -10.348002344561937 8.59065914254059" fill="#ff8a0c" stroke="none" /><path d="M 116.15771136456269 86.58626213691792 l 19.36468559334297 -16.076089644712788 a46.1680691828727,46.1680691828727 0 0,0 0.5023558774384329,0.615828906511954 l -19.63853996285781 15.740376568592733" fill="#daff1c" stroke="none" /><path d="M 116.38621287248628 86.86637796730983 l 21.267332462880425 -17.045860955463862 a48.25547295131191,48.25547295131191 0 0,0 0.5139114102175834,0.652615302455524 l -21.557597953691975 16.6772532590553" fill="#c0ff1e" stroke="none" /><path d="M 116.82858285166822 87.43820079747576 l 20.179868148850865 -15.063386730401385 a46.18199154742607,46.18199154742607 0 0,0 0.4700389629649827,0.6411326172438253 l -20.436169724329474 14.713791669486065" fill="#d9ff1c" stroke="none" /><path d="M 117.04232023915458 87.72973835380427 l 20.418603557571647 -14.70114424476839 a46.16034604982142,46.16034604982142 0 0,0 0.45871817552778166,0.6488243280676798 l -20.66863435290331 14.347493416368918" fill="#daff1c" stroke="none" /><path d="M 117.45458315368197 88.32363383020206 l 19.223258372599094 -12.859533897705983 a44.127932776751805,44.127932776751805 0 0,0 0.4169109684574698,0.6349840075781865 l -19.44176597641449 12.526731826150122" fill="#f3ff19" stroke="none" /><path d="M 117.65298651832404 88.62581576622439 l 20.355611263178798 -13.115541240468508 a45.21504350456719,45.21504350456719 0 0,0 0.415918982839092,0.657883947691667 l -20.578357842263845 12.763209645062634" fill="#e5ff1a" stroke="none" /><line stroke="#e1ed5e" stroke-width="0.3" x1="172.23445277983987" x2="176.4835382374775" y1="55.19839476539836" y2="52.563006222186495" /><path d="M 173.08426987136738 54.67131705675599 a86.0,86.0 0 0,1 12.851231095245387,41.99856678651699" fill="none" id="id27" stroke="none" /><text fill="#e1ed5e" style="font-size:6.75px; font-family:Arial;" text-anchor="middle"><textPath startOffset="22.20632615414155" xlink:href="#id27">March</textPath></text><path d="M 117.84615892207809 88.93136811851018 l 19.624925273419688 -12.171867038822395 a44.093116706024716,44.093116706024716 0 0,0 0.39449523968494365,0.6484464485029358 l -19.831536311390856 11.832252817112376" fill="#f4ff19" stroke="none" /><path d="M 118.03404312379186 89.2402003453031 l 14.945526665876706 -8.91707264726509 a38.4035327424358,38.4035327424358 0 0,0 0.33381873182350835,0.5706044216181543 l -15.096805072170543 8.65848881329304" fill="#ffc011" stroke="none" /><path d="M 118.21658344932153 89.55222093294921 l 22.269351046159922 -12.772167752759415 a46.672013265845194,46.672013265845194 0 0,0 0.3936947864544131,0.7003390954576131 l -22.48590347390677 12.386945147367008" fill="#d3ff1c" stroke="none" /><path d="M 118.56541770881063 90.18545643968196 l 3.9233928700075325 -2.0740880076539367 a25.43788831269105,25.43788831269105 0 0,0 0.20131128942360843,0.38886933506993326 l -3.9585135925912573 2.0062459503236587" fill="#ff0500" stroke="none" /><path d="M 118.73160827565052 90.50648371742162 l 23.856737491330318 -12.091024032226475 a47.745780711695886,47.745780711695886 0 0,0 0.36523245690744016,0.7362863463387856 l -24.061329961191166 11.678578097388739" fill="#c6ff1e" stroke="none" /><path d="M 118.89224826269711 90.83032412892265 l 43.25154695500605 -20.992878189261496 a69.07699292458155,69.07699292458155 0 0,0 0.5099915117622549,1.0741721878222303 l -43.606496660610055 20.245263585798728" fill="#39ff8e" stroke="none" /><path d="M 119.34039704204932 91.81776055985345 l 24.507067548382846 -10.368075392699698 a47.61002343421938,47.61002343421938 0 0,0 0.3128167009886762,0.7575104538422311 l -24.681905936257717 9.944690368404164" fill="#c8ff1d" stroke="none" /><path d="M 119.47837535516314 92.15188598940014 l 27.076433375746067 -10.909479474474704 a50.19160815637262,50.19160815637262 0 0,0 0.31598354000393875,0.8041436433377348 l -27.260210465631705 10.441786826241186" fill="#a9ff21" stroke="none" /><path d="M 119.61058180528143 92.48833698450437 l 23.402194507427314 -8.964007325653851 a46.06025010046462,46.06025010046462 0 0,0 0.27722877453172773,0.7428352862699855 l -23.553027870460667 8.559848902354531" fill="#dbff1b" stroke="none" /><path d="M 119.7369772167798 92.82701384747503 l 22.511823602737035 -8.181445273860602 a44.95241634344903,44.95241634344903 0 0,0 0.258041680969407,0.7295185803669749 l -22.64931836451625 7.792729067067012" fill="#e9ff1a" stroke="none" /><path d="M 119.85752413597 93.16781622104841 l 22.3730833123681 -7.697687579037504 a44.66028848020734,44.66028848020734 0 0,0 0.24385093038447697,0.7290832439173242 l -22.502271536524347 7.311431232197866" fill="#ecff1a" stroke="none" /><path d="M 119.97218684219823 93.5106431181261 l 26.44236984251915 -8.591646776909487 a48.803153008746065,48.803153008746065 0 0,0 0.25271786973915733,0.801184708458629 l -26.58634319602651 8.135211902024437" fill="#baff1f" stroke="none" /><path d="M 120.08093135843002 93.85539295169968 l 25.752929177234268 -7.880193767525746 a47.931595107260094,47.931595107260094 0 0,0 0.23462311043123435,0.7910324909781028 l -25.884758184777205 7.435731889801113" fill="#c4ff1e" stroke="none" /><path d="M 120.18372546131832 94.20196356495316 l 25.631429351639856 -7.362959902915283 a47.6680210953127,47.6680210953127 0 0,0 0.21975690775942633,0.7905825207563985 l -25.754373029965645 6.920666078739933" fill="#c7ff1e" stroke="none" /><path d="M 120.28053869075195 94.5502522615342 l 24.58796442861692 -6.607230980478666 a46.46023361975157,46.46023361975157 0 0,0 0.2008933159445775,0.7741238958755499 l -24.698054076431802 6.183010659054266" fill="#d6ff1c" stroke="none" /><path d="M 120.45610955862082 95.25157060432595 l 23.120518036451845 -5.366912372701526 a44.73525021334622,44.73525021334622 0 0,0 0.1676626328885068,0.7515987079006278 l -23.209475056342388 4.968135495250935" fill="#ecff1a" stroke="none" /><path d="M 120.6074358757038 95.95851677861258 l 20.56401435709699 -4.032967492407122 a41.95575131732823,41.95575131732823 0 0,0 0.132888401270955,0.7098951533131277 l -20.630388482277805 3.6783942616314316" fill="#ffef16" stroke="none" /><path d="M 120.67395015179393 96.31383870115 l 20.699845648013216 -3.6907784607990717 a42.02630389531812,42.02630389531812 0 0,0 0.12085191711541245,0.7132748558499448 l -20.760309426648853 3.333917816633289" fill="#fff016" stroke="none" /><path d="M 120.73433829027371 96.67025291283417 l 16.56379254182139 -2.6599951826975228 a37.77601853064284,37.77601853064284 0 0,0 0.0975774464102463,0.6429134549116621 l -16.607125881670935 2.3744826153937786" fill="#ffb811" stroke="none" /><path d="M 120.78858239683441 97.02765380044208 l 12.678408088654358 -1.8127555491467524 a33.80734610851985,33.80734610851985 0 0,0 0.07740916486352983,0.5767881911502005 l -12.707733252575725 1.5942490159318876" fill="#ff810b" stroke="none" /><path d="M 120.83666639777658 97.38593545837742 l 43.24171330971027 -5.424890302701419 a64.58067467072439,64.58067467072439 0 0,0 0.128883489440006,1.1041950297013892 l -43.32868715215387 4.6797515346751775" fill="#34ff58" stroke="none" /><path d="M 120.87857604477298 97.74499172005257 l 10.474825641631417 -1.1313424106237375 a31.535744296092943,31.535744296092943 0 0,0 0.05364511571460486,0.540198994321556 l -10.492747883028251 0.9508678855977466" fill="#ff6008" stroke="none" /><path d="M 120.91429891909075 98.10471618934814 l 21.028893391281102 -1.905668526332403 a42.115064049017704,42.115064049017704 0 0,0 0.05921280976296606,0.722546259655453 l -21.05858068486356 1.543408349469181" fill="#fff116" stroke="none" /><path d="M 120.94382443527127 98.46500227214037 l 27.108734779107564 -1.986831317254621 a48.18144587778987,48.18144587778987 0 0,0 0.05350299249632382,0.8276676129331264 l -27.138918362608305 1.5199046400684595" fill="#c1ff1e" stroke="none" /><path d="M 120.96714384426684 98.82574320788733 l 27.179553017568036 -1.5221803682237116 a48.22214420849683,48.22214420849683 0 0,0 0.039281280507208374,0.8291657470720114 l -27.20172790630874 1.0541035145287003" fill="#c1ff1e" stroke="none" /><path d="M 120.98425023603335 99.18683210126433 l 24.464524583046387 -0.9480332070479276 a45.482886472721034,45.482886472721034 0 0,0 0.023582455474009268,0.782586888755895 l -24.47721873297604 0.5267761708670335" fill="#e2ff1b" stroke="none" /><line stroke="#e1ed5e" stroke-width="0.3" x1="184.98032266829074" x2="189.97916517819016" y1="98.17113171792111" y2="98.06355123074" /><path d="M 185.9800911702706 98.14961562048488 a86.0,86.0 0 0,1 -9.607161424134198,41.387399972396054" fill="none" id="id28" stroke="none" /><text fill="#e1ed5e" style="font-size:6.75px; font-family:Arial;" text-anchor="middle"><textPath startOffset="21.466115282336823" xlink:href="#id28">April</textPath></text><path d="M 120.99513854157772 99.54816195383933 l 21.273703521368066 -0.45783306524320405 a42.278629481963776,42.278629481963776 0 0,0 0.009395907755479351,0.7277234103155175 l -21.27843243624126 0.09157339686722388" fill="#fff316" stroke="none" /><path d="M 120.99824983174949 100.27111621757518 l 13.957605186966573 0.18021183455854156 a34.958768529514025,34.958768529514025 0 0,0 -0.012947957630090198,0.6016407130477334 l -13.952435166651474 -0.42044236339638974" fill="#ff910d" stroke="none" /><path d="M 120.9904718944345 100.63252640178507 l 48.907210404054034 1.4737687639325494 a69.92941062260974,69.92941062260974 0 0,0 -0.046612504747092914,1.202861629513671 l -48.87459576645574 -2.3154076404602266" fill="#3bff98" stroke="none" /><path d="M 120.9764740272857 100.99374915477107 l 18.482430980110834 0.8755952092190727 a39.50315978164184,39.50315978164184 0 0,0 -0.038023952888570134,0.6789432218721678 l -18.464620676334736 -1.1936101474266638" fill="#ffcf13" stroke="none" /><path d="M 120.89721153311464 102.0752229133903 l 32.82831173153196 3.2600552760467174 a53.98978647317256,53.98978647317256 0 0,0 -0.09979805968277142,0.9240060875768072 l -32.76733137034814 -3.824657685508316" fill="#7eff26" stroke="none" /><path d="M 120.81339534386255 102.79330883721812 l 23.736400920450826 3.185597417405465 a44.949212086458274,44.949212086458274 0 0,0 -0.10951757583141383,0.7659656702881907 l -23.67804929360281 -3.5937085596740648" fill="#e9ff1a" stroke="none" /><path d="M 120.76222939487914 103.15116336523771 l 22.43462331181851 3.4049890186911576 a43.69154629725788,43.69154629725788 0 0,0 -0.11925346585720792,0.7425914457291563 l -22.37268809160001 -3.790659694113519" fill="#f9ff18" stroke="none" /><path d="M 120.70491114924044 103.5080841355445 l 46.89330886402975 7.945248917193538 a68.56163786680875,68.56163786680875 0 0,0 -0.20716570674767676,1.1618953017055516 l -46.74959671494288 -8.75126296963231" fill="#39ff88" stroke="none" /><path d="M 120.5718875245553 104.21870165774334 l 23.61956090241268 4.843691694077163 a45.111097163962775,45.111097163962775 0 0,0 -0.16254164433839488,0.7593404494492996 l -23.53268521934984 -5.249545962942631" fill="#e7ff1a" stroke="none" /><path d="M 120.41448212921028 104.9243191809786 l 25.64572008714616 6.186182462813587 a47.381277684211476,47.381277684211476 0 0,0 -0.19807333785322323,0.7912045246492565 l -25.535435434997876 -6.62671482686024" fill="#cbff1d" stroke="none" /><path d="M 120.32669344350535 105.2749913415812 l 25.20508505397034 6.540985418658579 a47.03998469325555,47.03998469325555 0 0,0 -0.21013864061560272,0.7820040552237589 l -25.088758337012962 -6.973880407057886" fill="#cfff1d" stroke="none" /><path d="M 120.23288151984713 105.62410040840565 l 17.504414155558294 4.865672875344403 a39.1680843090066,39.1680843090066 0 0,0 -0.18615539110023305,0.6480313377128869 l -17.41806612757196 -5.166261688561872" fill="#ffca12" stroke="none" /><path d="M 120.13307415673323 105.97154293290107 l 22.130036648089686 6.563849262262113 a44.08295126675728,44.08295126675728 0 0,0 -0.22203790633046588,0.7256327249152437 l -22.013771969253085 -6.943808959729413" fill="#f4ff19" stroke="none" /><path d="M 119.9155931802556 106.66101706037122 l 25.329956917866074 8.47191814179288 a47.70917659648441,47.70917659648441 0 0,0 -0.26719221980453295,0.7765856606576895 l -25.18037386711831 -8.90667650553987" fill="#c7ff1e" stroke="none" /><path d="M 119.79798401119884 107.00284435728193 l 24.159930313987225 8.54573029132298 a46.62677777225912,46.62677777225912 0 0,0 -0.2741559924940363,0.7543595460300282 l -24.00925006048796 -8.960337634359139" fill="#d4ff1c" stroke="none" /><path d="M 119.67450827220406 107.3425965602758 l 20.417452417452335 7.619865961365931 a42.79299705153271,42.79299705153271 0 0,0 -0.26349425295720846,0.6879003480560097 l -20.28326388490162 -7.970189876255084" fill="#fffa17" stroke="none" /><path d="M 119.54520255179757 107.68017299344265 l 41.674293949765705 16.375669991935926 a65.77621404156753,65.77621404156753 0 0,0 -0.42315212195533175,1.0502288642401905 l -41.386239213552976 -17.09059822401893" fill="#35ff67" stroke="none" /><path d="M 119.41010516605496 108.01547362559984 l 19.529418135241148 8.064744350797984 a42.129085975138956,42.129085975138956 0 0,0 -0.2825638296601515,0.6678974253106722 l -19.387703324388685 -8.39971630177482" fill="#fff116" stroke="none" /><path d="M 119.26925614724726 108.34839909993367 l 21.701291928315275 9.402077828916426 a44.65047861796804,44.65047861796804 0 0,0 -0.31161551011804234,0.702610711224058 l -21.53623533346596 -9.774236876633172" fill="#edff1a" stroke="none" /><path d="M 119.12269723197855 108.67885076344098 l 25.243380212004084 11.456727414917871 a48.72155925606513,48.72155925606513 0 0,0 -0.353174191710256,0.7607057890928144 l -25.042431403453996 -11.889553271289516" fill="#bbff1f" stroke="none" /><path d="M 118.97047184881838 109.00673069616215 l 17.31890815961556 8.222607375732654 a40.1717461879885,40.1717461879885 0 0,0 -0.3019513958035357,0.6221093104044622 l -17.17480350719731 -8.519505642102391" fill="#ffd814" stroke="none" /><line stroke="#e1ed5e" stroke-width="0.3" x1="174.80103733775053" x2="179.2010983576182" y1="140.37084112569926" y2="142.7455964860345" /><path d="M 175.68104954172406 140.8457921977663 a86.0,86.0 0 0,1 -30.038265399797805,32.042727171017184" fill="none" id="id29" stroke="none" /><text fill="#e1ed5e" style="font-size:6.75px; font-family:Arial;" text-anchor="middle"><textPath startOffset="22.206326154141568" xlink:href="#id29">May</textPath></text><path d="M 118.48025628344425 109.97397251340804 l 20.97500571000913 11.320412834730318 a44.834903215319386,44.834903215319386 0 0,0 -0.3723935619385746,0.6760024839405314 l -20.77703573861904 -11.679785837068655" fill="#eaff1a" stroke="none" /><path d="M 118.30583269289576 110.29060199501025 l 21.95505696393535 12.342009062571474 a46.186300125072805,46.186300125072805 0 0,0 -0.39554828012387844,0.6896717672597357 l -21.73935668765909 -12.718100675689525" fill="#d9ff1c" stroke="none" /><path d="M 118.12598468904814 110.60418214915192 l 3.840054957699981 2.24653407430098 a25.44892542364463,25.44892542364463 0 0,0 -0.22445846101850384,0.3762052914935681 l -3.8008156209832498 -2.3123014596806524" fill="#ff0600" stroke="none" /><path d="M 117.94076556474637 110.91462005526583 l 18.55520065319439 11.288423810452938 a42.71920770665234,42.71920770665234 0 0,0 -0.3875961730231495,0.6249284442215466 l -18.35813984050328 -11.606148586039758" fill="#fff917" stroke="none" /><path d="M 117.75023020441432 111.22182372390056 l 19.66405003484862 12.431754441931343 a44.26420818075504,44.26420818075504 0 0,0 -0.4127007946789343,0.6405207982243607 l -19.44714437679264 -12.768396840077157" fill="#f1ff19" stroke="none" /><path d="M 117.55443506779139 111.5257021239791 l 19.899484759908173 13.065389622488137 a44.80533342965896,44.80533342965896 0 0,0 -0.42884442287612656,0.6410642258244309 l -19.671637231621325 -13.405990762518375" fill="#ebff1a" stroke="none" /><path d="M 117.35343817320211 111.8261652097733 l 23.67108133358317 16.13156515446186 a49.64520004876485,49.64520004876485 0 0,0 -0.4873245953241266,0.7020274259501964 l -23.38989583109691 -16.536633842599077" fill="#b0ff20" stroke="none" /><path d="M 117.14729908036423 112.12312394758627 l 15.431412780927422 10.909993985220456 a39.89858378749362,39.89858378749362 0 0,0 -0.4013041500720862,0.5573763653972835 l -15.241328838479733 -11.174003956068871" fill="#ffd413" stroke="none" /><path d="M 116.93607887273984 112.41649034213515 l 17.64641345747973 12.937263927176941 a42.88078394010954,42.88078394010954 0 0,0 -0.4415469715395584,0.5915243249520734 l -17.42110521924508 -13.23910113163833" fill="#fffb17" stroke="none" /><path d="M 116.71984013943494 112.70617746262583 l 21.68845659694577 16.48205820827688 a48.240546843604804,48.240546843604804 0 0,0 -0.5081180997846576,0.6568111389808134 l -21.401531679943044 -16.852947341370943" fill="#c0ff1e" stroke="none" /><path d="M 116.498646956653 112.99209946851258 l 18.29069795442474 14.403276086623617 a44.280979225271025,44.280979225271025 0 0,0 -0.4767207733097576,0.5947824638737471 l -18.04005926906013 -14.715986384075613" fill="#f1ff19" stroke="none" /><path d="M 116.27256486870786 113.27417163493432 l 20.5483687880943 16.76211318325199 a47.51799197186088,47.51799197186088 0 0,0 -0.5224806868251985,0.6293616453110158 l -20.256792101375556 -17.113336085676774" fill="#c9ff1d" stroke="none" /><path d="M 116.0416608686014 113.55231037782055 l 19.240894506749612 16.255085831714606 a46.18808918549155,46.18808918549155 0 0,0 -0.5183128183416187,0.6029149043672858 l -18.958239178837214 -16.58387783524342" fill="#d9ff1c" stroke="none" /><path d="M 115.56566222782051 114.09645910891815 l 17.531143897580222 15.876423981699244 a44.65167742052007,44.65167742052007 0 0,0 -0.5208375606272718,0.565266305393373 l -17.255259928957226 -16.175841541893952" fill="#edff1a" stroke="none" /><path d="M 115.32070863581623 114.36230785411682 l 10.826280673842511 10.149032897166473 a35.83951555734159,35.83951555734159 0 0,0 -0.4257963968242099,0.4464458197586229 l -10.649977725639337 -10.333885833507603" fill="#ff9d0e" stroke="none" /><path d="M 114.55890576462653 115.13401014063108 l 7.343716259003426 7.633806972204561 a31.592694528854793,31.592694528854793 0 0,0 -0.3951556546556067,0.3736443358492457 l -7.2112247699570124 -7.759085944799728" fill="#ff6109" stroke="none" /><path d="M 111.45004920935366 117.60387380957326 l 11.808419529841409 18.154850122741315 a42.65727025208718,42.65727025208718 0 0,0 -0.6189736438482422,0.39505826522830106 l -11.494164083946236 -18.355422816793425" fill="#fff817" stroke="none" /><path d="M 111.1453310114006 117.79835938074945 l 12.429317972631322 19.84880196992016 a44.41928446613778,44.41928446613778 0 0,0 -0.65152683522353,0.40022099601068273 l -12.085811937475484 -20.05981143275922" fill="#efff19" stroke="none" /><line stroke="#e1ed5e" stroke-width="0.3" x1="143.8653032363475" x2="146.44561519142675" y1="172.8068346515853" y2="177.08958963109032" /><path d="M 144.38136562736335 173.6633856474863 a86.0,86.0 0 0,1 -40.68145358897372,12.25698825130547" fill="none" id="id30" stroke="none" /><text fill="#e1ed5e" style="font-size:6.75px; font-family:Arial;" text-anchor="middle"><textPath startOffset="21.466115282336833" xlink:href="#id30">June</textPath></text><path d="M 110.8373102113329 117.98757091392108 l 11.367002860740369 18.866745165465133 a43.02641203588732,43.02641203588732 0 0,0 -0.6376762771399644,0.3767503844874457 l -11.040558712572022 -19.05961412224633" fill="#fffd17" stroke="none" /><path d="M 110.5260780823613 118.17145234162733 l 10.800536780597735 18.645257790886337 a42.54755746802064,42.54755746802064 0 0,0 -0.6368989121220683,0.3616478243434666 l -10.477989101554469 -18.828408781024432" fill="#fff717" stroke="none" /><path d="M 110.21172684928248 118.3499491758327 l 14.242173407540884 25.592454835406613 a50.288449052020354,50.288449052020354 0 0,0 -0.7600193597912828,0.4144231531883157 l -13.799531235880952 -25.833818640354696" fill="#a8ff21" stroke="none" /><path d="M 109.89434966115114 118.52300852407294 l 10.243691148403302 19.177003538175885 a42.741450573664274,42.741450573664274 0 0,0 -0.6519274027599429,0.34105760513212335 l -9.912072843116864 -19.350490562252723" fill="#fff917" stroke="none" /><path d="M 109.57404056367764 118.69057910512821 l 16.250125744248017 31.723728207652346 a56.643534029286,56.643534029286 0 0,0 -0.8716255560286834,0.4370511484425062 l -15.70164628053657 -31.998747197004153" fill="#60ff29" stroke="none" /><path d="M 109.2508944713604 118.85261126421891 l 12.109771595692523 24.678782911086234 a48.489796180989835,48.489796180989835 0 0,0 -0.7524862050778706,0.36123910694875355 l -11.683172722614419 -24.883576294534546" fill="#bdff1f" stroke="none" /><path d="M 108.92500713936063 119.00905698771935 l 9.329195951243044 19.869924440137073 a42.9510317377896,42.9510317377896 0 0,0 -0.6719423114606283,0.3084557585023906 l -8.985785644014996 -20.027567268973538" fill="#fffc17" stroke="none" /><path d="M 108.59647513512805 119.15986991738527 l 18.462248369600406 41.148758250754035 a66.1007197330576,66.1007197330576 0 0,0 -1.0421229378027435,0.45683607076263705 l -17.75120475713991 -41.460458874811124" fill="#36ff6b" stroke="none" /><path d="M 108.2653958097858 119.30500536409082 l 8.555582513012133 19.98277760770674 a42.7372811790257,42.7372811790257 0 0,0 -0.6787668103184317,0.28372458176272275 l -8.21034424319624 -20.127087232489437" fill="#fff917" stroke="none" /><path d="M 107.59598834532513 119.57807347666477 l 8.493791268919715 21.892091193202877 a44.48208140117668,44.48208140117668 0 0,0 -0.7162245887763503,0.27081485457332033 l -8.11569645938309 -22.035054297882827" fill="#efff19" stroke="none" /><path d="M 107.2578585660854 119.70592522655815 l 7.450780198271663 20.22972976529807 a42.5582024283089,42.5582024283089 0 0,0 -0.6896058962435067,0.24726813939033854 l -7.101454741398421 -20.35498544572837" fill="#fff717" stroke="none" /><path d="M 106.57524785965236 119.94407469862006 l 6.671520735860117 20.236090068309856 a42.30747592235552,42.30747592235552 0 0,0 -0.6935981382450469,0.222068220758774 l -6.322201252524129 -20.347931135728334" fill="#fff417" stroke="none" /><path d="M 106.2309692047433 120.05430185196036 l 5.71958140315574 18.408406165517153 a40.27648902113595,40.27648902113595 0 0,0 -0.6638428948522781,0.2000104186326885 l -5.401863533863216 -18.504131953255566" fill="#ffd914" stroke="none" /><path d="M 105.18746579009965 120.34920634021253 l 11.793785354799924 46.26424181438117 a68.74383147229209,68.74383147229209 0 0,0 -1.1491569634530667,0.28243482276674986 l -10.995675106603647 -46.46039789546195" fill="#39ff8a" stroke="none" /><path d="M 104.48393922423573 120.51570834832081 l 4.499113293816633 20.585135423580077 a42.07106596348957,42.07106596348957 0 0,0 -0.7088143983166896,0.148538948840568 l -4.144107434070565 -20.659530353147186" fill="#fff116" stroke="none" /><path d="M 104.13013068566511 120.58985236759428 l 4.655862466428547 23.210771794779056 a44.673127858726424,44.673127858726424 0 0,0 -0.7552574832488995,0.14474689419261166 l -4.255637368607943 -23.287475887320138" fill="#ecff1a" stroke="none" /><path d="M 103.41894727170886 120.7198165907248 l 8.02554932217871 48.63716716878306 a70.29486253279211,70.29486253279211 0 0,0 -1.195562089013462,0.1867222103276981 l -7.18715136955673 -48.76810768645786" fill="#3bff9c" stroke="none" /><path d="M 102.70371172650421 120.8252237178851 l 8.111135179512624 62.47567115365527 a84.0,84.0 0 0,0 -1.4354903077944787,0.1738178850985963 l -7.034517448666764 -62.60603456747921" fill="#4dd2ff" stroke="none" /><path d="M 102.34483914955558 120.86867818915974 l 2.3730420848384606 21.119679619479385 a42.25258092481634,42.25258092481634 0 0,0 -0.7234595623737075,0.07498954168771813 l -2.00914992585915 -21.157398529622863" fill="#fff316" stroke="none" /><path d="M 101.98527174616119 120.90594882070398 l 2.196926736483443 23.134786461636356 a44.238864682057695,44.238864682057695 0 0,0 -0.7587084996145764,0.06546456182561772 l -1.7983739191273251 -23.169175275740635" fill="#f2ff19" stroke="none" /><path d="M 101.26447882468166 120.96189622390904 l 1.070182912949334 17.74095597646107 a38.77320484397506,38.77320484397506 0 0,0 -0.6665518845011079,0.034453118801776386 l -0.7646429600347467 -17.75674890202505" fill="#ffc512" stroke="none" /><path d="M 100.90346689309514 120.98055641714683 l 0.9615519486134908 22.329423535144787 a43.3501171710969,43.3501171710969 0 0,0 -0.7457864326874526,0.02568639267678151 l -0.577045164251386 -22.342666726247664" fill="#fdff18" stroke="none" /><line stroke="#e1ed5e" stroke-width="0.3" x1="102.19456741930631" x2="102.32365962044197" y1="184.97166512339345" y2="189.96999836594603" /><path d="M 102.22038585953345 185.97133177190398 a86.0,86.0 0 0,1 -42.740103519485714,-10.115201625700543" fill="none" id="id31" stroke="none" /><text fill="#e1ed5e" style="font-size:6.75px; font-family:Arial;" text-anchor="middle"><textPath startOffset="22.20632615414155" xlink:href="#id31">July</textPath></text><path d="M 100.18074693466247 120.99922214144158 l 0.19269317826794113 22.387139583558604 a43.387968853709964,43.387968853709964 0 0,0 -0.7468802258607777,0.0 l 0.1926931782679257 -22.387139583558604" fill="#fdff18" stroke="none" /><path d="M 99.81925306533755 120.99922214144158 l -0.19163877441647006 22.264638691663205 a43.26546342410519,43.26546342410519 0 0,0 -0.7446610722355245,-0.012820015675437203 l 0.5748595365446624 -22.25804119870861" fill="#feff18" stroke="none" /><path d="M 99.45781275523022 120.99299961872073 l -0.552443042539772 21.39009483029572 a42.39722762799644,42.39722762799644 0 0,0 -0.7293931184482221,-0.02512177378809264 l 0.920556512662637 -21.377416258081535" fill="#fff517" stroke="none" /><path d="M 99.09653310690486 120.98055641714683 l -0.9515546715212093 22.097264019776407 a43.117742503533194,43.117742503533194 0 0,0 -0.7412390241357298,-0.038313590813978574 l 1.3317817640704281 -22.077610622200226" fill="#fffe18" stroke="none" /><path d="M 98.73552117531835 120.96189622390904 l -1.4277219050110903 23.668058195422095 a44.71108113477611,44.71108113477611 0 0,0 -0.7678324220492818,-0.052954219347074914 l 1.8349170878393022 -23.639975631558734" fill="#ecff1a" stroke="none" /><path d="M 98.37488393609728 120.93702456842531 l -1.745498632570273 22.487961669957546 a43.555602087858006,43.555602087858006 0 0,0 -0.7469903612443063,-0.06445347153967602 l 2.132333311556121 -22.454583946139206" fill="#faff18" stroke="none" /><path d="M 97.2962882734958 120.8252237178851 l -3.0015080206439504 23.118986912763894 a44.31301366770367,44.31301366770367 0 0,0 -0.7555820587024697,-0.10471678845675868 l 3.3990186705332515 -23.06389555881453" fill="#f1ff19" stroke="none" /><path d="M 96.93821686468263 120.77559828337769 l -3.6667034246730212 24.880258989144853 a46.14899603108307,46.14899603108307 0 0,0 -0.7848936339417026,-0.1225842434688339 l 4.094432922223241 -24.813456438328913" fill="#daff1c" stroke="none" /><path d="M 96.22490169976321 120.6578951692458 l -3.1853112844326996 17.43049355591587 a38.71915104009103,38.71915104009103 0 0,0 -0.6545977407391597,-0.12545521496841036 l 3.484876639743554 -17.37308114259899" fill="#ffc412" stroke="none" /><path d="M 95.86986931433489 120.58985236759428 l -3.3464968801534702 16.68321948022784 a38.015547408012786,38.015547408012786 0 0,0 -0.6404869176852794,-0.13422026093860892 l 3.6331752592681363 -16.62314323856269" fill="#ffbb11" stroke="none" /><path d="M 95.51606077576429 120.51570834832081 l -4.5267193786613955 20.711443644318944 a42.200355802791336,42.200355802791336 0 0,0 -0.7083226242350443,-0.1612119231754163 l 4.882562152289302 -20.63045498756584" fill="#fff216" stroke="none" /><path d="M 93.76903079525671 120.05430185196036 l -7.456619255700016 23.999042273409675 a46.13076204107987,46.13076204107987 0 0,0 -0.7562779383539469,-0.24213631339079514 l 7.8686185391449035 -23.867133113359174" fill="#daff1c" stroke="none" /><line stroke="#e1ed5e" stroke-width="0.3" x1="58.666819895761336" x2="56.23545636021788" y1="174.27360380694188" y2="178.64263932499728" /><path d="M 58.180547188652646 175.14741091055294 a86.0,86.0 0 0,1 -31.652253787137756,-30.449443065178592" fill="none" id="id32" stroke="none" /><text fill="#e1ed5e" style="font-size:6.75px; font-family:Arial;" text-anchor="middle"><textPath startOffset="22.20632615414155" xlink:href="#id32">August</textPath></text><path d="M 87.95078237400918 117.19931262002967 l -2.3423623256647375 3.3435384071399197 a25.08239027344438,25.08239027344438 0 0,0 -0.35147914331921737,-0.250771036408209 l 2.399568796832842 -3.3027231088874913" fill="#ff0000" stroke="none" /><path d="M 87.65650970185807 116.9893568818739 l -8.109445181308793 11.161693732605505 a34.79661219753376,34.79661219753376 0 0,0 -0.4815437372914295,-0.3562345447633449 l 8.300373889018786 -11.020449239102392" fill="#ff8f0d" stroke="none" /><path d="M 87.36589467227662 116.77436683061367 l -10.46288575180596 13.891627397032341 a38.39106925963219,38.39106925963219 0 0,0 -0.5244426120478715,-0.40212023153808774 l 10.700457092347317 -13.709467823666886" fill="#ffc011" stroke="none" /><path d="M 86.79598089348748 116.32954008644616 l -14.826188330239287 18.33569269438811 a44.57993823119054,44.57993823119054 0 0,0 -0.5925520203789489,-0.48762997203570707 l 15.139610479162924 -18.077767603495225" fill="#edff19" stroke="none" /><path d="M 86.51685102203217 116.09983520530335 l -16.099578973145462 19.2240380022468 a46.07508883781624,46.07508883781624 0 0,0 -0.6036594099553501,-0.5144516452751735 l 16.42810385967787 -18.944061966748674" fill="#dbff1b" stroke="none" /><path d="M 85.44109423537348 115.13401014063109 l -17.005196394453264 17.67693388759845 a45.52856897742819,45.52856897742819 0 0,0 -0.5601099030276434,-0.5481854276202575 l 17.3069562498567 -17.381598357055623" fill="#e2ff1b" stroke="none" /><path d="M 84.67929136418377 114.36230785411682 l -17.84937262336573 16.73278897950699 a45.46602399411209,45.46602399411209 0 0,0 -0.5303364710242919,-0.5755754965717467 l 18.13475550238575 -16.4230622281339" fill="#e2ff1b" stroke="none" /><path d="M 83.95833913139862 113.55231037782056 l -17.616489274373517 14.882756366029078 a44.0615942945126,44.0615942945126 0 0,0 -0.48447611303195687,-0.5835826879352004 l 17.87006138729901 -14.577312420980117" fill="#f4ff19" stroke="none" /><path d="M 83.72743513129214 113.27417163493432 l -17.392783501519173 14.187978064379502 a43.445659702624724,43.445659702624724 0 0,0 -0.4677278789392089,-0.5835624454257647 l 17.634429292513243 -13.886487785375477" fill="#fcff18" stroke="none" /><path d="M 83.50135304334701 112.99209946851258 l -19.059543520698142 15.008714708299273 a45.25959019465303,45.25959019465303 0 0,0 -0.4767196574552955,-0.6162244197174931 l 19.315069995371505 -14.678412294468528" fill="#e5ff1a" stroke="none" /><path d="M 83.28015986056508 112.70617746262583 l -19.749199980186496 15.008327687373281 a45.80485436016454,45.80485436016454 0 0,0 -0.4716563660027662,-0.6318607792424564 l 20.00461761288435 -14.666154028621518" fill="#deff1b" stroke="none" /><path d="M 82.85270091963577 112.12312394758628 l -12.08407528087818 8.543429594098964 a35.79915756464729,35.79915756464729 0 0,0 -0.3514098030826774,-0.5062320307221867 l 12.229345991122992 -8.334156301189765" fill="#ff9d0e" stroke="none" /><path d="M 82.6465618267979 111.8261652097733 l -19.900512655269534 13.561966687606267 a45.082303552158066,45.082303552158066 0 0,0 -0.4314953816625986,-0.6450270495233951 l 20.131011142342864 -13.21740272387705" fill="#e7ff1a" stroke="none" /><path d="M 82.24976979558568 111.22182372390057 l -18.689333465958228 11.815531587867591 a43.11103733671677,43.11103733671677 0 0,0 -0.3911512872971208,-0.6306604204042124 l 18.889949392923306 -11.492074836098114" fill="#fffe18" stroke="none" /><line stroke="#e1ed5e" stroke-width="0.3" x1="26.63291911575756" x2="22.317208475507996" y1="142.92168965132927" y2="145.44649492493687" /><path d="M 25.769776987707644 143.4266507060508 a86.0,86.0 0 0,1 -11.730757126820373,-40.83630448921669" fill="none" id="id33" stroke="none" /><text fill="#e1ed5e" style="font-size:6.75px; font-family:Arial;" text-anchor="middle"><textPath startOffset="21.46611528233685" xlink:href="#id33">September</textPath></text><path d="M 81.87401531095188 110.60418214915194 l -20.91056831470431 12.233237479527743 a45.22610093420809,45.22610093420809 0 0,0 -0.38732495118230637,-0.6753337001036543 l 21.118045262038994 -11.87148393356578" fill="#e5ff1a" stroke="none" /><path d="M 81.51974371655577 109.97397251340807 l -29.557886669767523 15.952676449774172 a54.588041775221136,54.588041775221136 0 0,0 -0.4391672732780356,-0.8307389765339029 l 29.828106451270443 -15.441522458154143" fill="#77ff27" stroke="none" /><path d="M 81.18737489456691 109.33194174019688 l -22.8856609741938 11.352357988327508 a46.54661445516569,46.54661445516569 0 0,0 -0.3498681670170548,-0.7208320515831333 l 23.077682397825573 -10.956736980779091" fill="#d5ff1c" stroke="none" /><path d="M 80.87730276802145 108.67885076344099 l -24.67513045747245 11.198826829236136 a48.097523603541774,48.097523603541774 0 0,0 -0.3356724231641307,-0.7568526993034383 l 24.86424396536786 -10.772425793440002" fill="#c2ff1e" stroke="none" /><path d="M 80.73074385275274 108.34839909993369 l -23.535231363213814 10.196631506061223 a46.649140519526256,46.649140519526256 0 0,0 -0.31288027001892793,-0.739556534987109 l 23.707262614425048 -9.790000445407957" fill="#d4ff1c" stroke="none" /><path d="M 80.58989483394504 108.01547362559985 l -23.383293647682052 9.656216280601749 a46.298635035738315,46.298635035738315 0 0,0 -0.2978487884180743,-0.7392362664522998 l 23.546045050357517 -9.252280646306643" fill="#d8ff1c" stroke="none" /><path d="M 80.20201598880116 107.00284435728193 l -21.069996409803917 7.452774251301722 a43.34924143567329,43.34924143567329 0 0,0 -0.24277467926147173,-0.7056168582421738 l 21.19516192000862 -7.0889846899702516" fill="#fdff18" stroke="none" /><path d="M 80.0844068197444 106.66101706037122 l -15.899360615363273 5.317738284236727 a37.765083013125874,37.765083013125874 0 0,0 -0.20088821017051298,-0.6182703372543927 l 15.988541076550035 -5.043269047004531" fill="#ffb811" stroke="none" /><path d="M 79.97269907076064 106.31721596034903 l -25.567861933828638 8.064876343100776 a47.80965860090035,47.80965860090035 0 0,0 -0.24080866169510828,-0.7869766395155358 l 25.702897368029877 -7.6235727310331916" fill="#c6ff1e" stroke="none" /><path d="M 79.86692584326677 105.97154293290107 l -28.048036226898738 8.319149435828994 a50.25577863467451,50.25577863467451 0 0,0 -0.23885222603631107,-0.831475933300643 l 28.187081089821152 -7.835116027023756" fill="#a8ff21" stroke="none" /><path d="M 79.76711848015287 105.62410040840567 l -20.983585129939236 5.832772241726554 a42.779166121072286,42.779166121072286 0 0,0 -0.191104565062503,-0.7111711792407689 l 21.080877771343513 -5.470710129310246" fill="#fffa17" stroke="none" /><path d="M 79.58551787078972 104.9243191809786 l -22.77612348225701 5.493987112782764 a44.42937675813086,44.42937675813086 0 0,0 -0.17293486248894105,-0.7449988614765081 l 22.867318910676506 -5.101119593957682" fill="#efff19" stroke="none" /><line stroke="#e1ed5e" stroke-width="0.3" x1="15.007084014347285" x2="10.007500721073583" y1="101.09737516637583" y2="101.16192664675087" /><path d="M 14.007167355692545 101.11028546245083 a86.0,86.0 0 0,1 10.666146001902534,-42.60595125391555" fill="none" id="id34" stroke="none" /><text fill="#e1ed5e" style="font-size:6.75px; font-family:Arial;" text-anchor="middle"><textPath startOffset="22.20632615414155" xlink:href="#id34">October</textPath></text><path d="M 79.00019446554 99.90962569577889 l -13.41533275918335 -0.05773393291744943 a34.415456989854206,34.415456989854206 0 0,0 0.007648413943438865,-0.5923780887672184 l 13.412351338122196 0.2886482797451398" fill="#ff890c" stroke="none" /><path d="M 79.01574976396665 99.18683210126434 l -18.754768482479005 -0.7267724844408817 a39.76884490520203,39.76884490520203 0 0,0 0.03239530671664814,-0.6838137237000278 l 18.739479567528857 1.0494973147639186" fill="#ffd213" stroke="none" /><path d="M 79.03285615573316 98.82574320788736 l -15.022318506050315 -0.8413191453271051 a36.04585893864208,36.04585893864208 0 0,0 0.0400270536755916,-0.6192008039680801 l 15.005610861370311 1.099779013548197" fill="#ffa00e" stroke="none" /><path d="M 79.08570108090925 98.10471618934814 l -21.63160963115202 -1.9602875377687068 a42.72025005531198,42.72025005531198 0 0,0 0.07267095826427016,-0.7317866323486254 l 21.59466154720552 2.3323497008217626" fill="#fff917" stroke="none" /><path d="M 79.12142395522702 97.74499172005258 l -21.327440036823717 -2.303488215383349 a42.451474459410036,42.451474459410036 0 0,0 0.08472030043195408,-0.725831796285399 l 21.28462938338817 2.6702637499936097" fill="#fff517" stroke="none" /><path d="M 79.21141760316559 97.0276538004421 l -23.288019695341035 -3.3297151058850947 a44.52485630172799,44.52485630172799 0 0,0 0.11501004999193759,-0.7577725315643875 l 23.227253751909792 3.730086749841574" fill="#eeff19" stroke="none" /><path d="M 79.26566170972629 96.67025291283419 l -16.509372321602513 -2.651255787824138 a37.720901043477475,37.720901043477475 0 0,0 0.10847119027597532,-0.6402031052108422 l 16.461289269806315 2.935044681350808" fill="#ffb711" stroke="none" /><path d="M 79.32604984820605 96.31383870115002 l -23.304872424671036 -4.1552542293909065 a44.67241467280141,44.67241467280141 0 0,0 0.14149301538856485,-0.7558613459966178 l 23.22989368537261 4.555793652850097" fill="#ecff1a" stroke="none" /><path d="M 79.3925641242962 95.95851677861259 l -20.805424096519587 -4.0803122187107865 a42.20175982408532,42.20175982408532 0 0,0 0.14593911962149386,-0.7116509764978046 l 20.7321056809831 4.4378388513719935" fill="#fff216" stroke="none" /><path d="M 79.46518482838121 95.60439243477599 l -29.92138834859875 -6.4048631501141475 a51.59921163493189,51.59921163493189 0 0,0 0.193387980092329,-0.8669203951817005 l 29.806705981504383 6.918961714845808" fill="#99ff23" stroke="none" /><path d="M 79.62865764111835 94.90015583598534 l -24.148493290469382 -6.045431391194202 a45.89371344145909,45.89371344145909 0 0,0 0.19844369164654602,-0.7646844941906044 l 24.040853266952528 6.46021231093367" fill="#ddff1b" stroke="none" /><path d="M 79.71946130924805 94.55025226153421 l -16.47275912706474 -4.426528464944054 a38.0571377290932,38.0571377290932 0 0,0 0.17544925745496703,-0.6311843283462693 l 16.394123099043412 4.709424096709266" fill="#ffbb11" stroke="none" /><path d="M 79.81627453868168 94.20196356495316 l -16.151705059852553 -4.639786376634499 a37.80491576775289,37.80491576775289 0 0,0 0.1850534476720782,-0.6239082305535975 l 16.069445715068767 4.917123993934636" fill="#ffb811" stroke="none" /><path d="M 79.91906864156998 93.8553929516997 l -15.743695669462184 -4.817447042179204 a37.46425671984142,37.46425671984142 0 0,0 0.19400154633252256,-0.6150379175773054 l 15.658438639361457 5.087735126182924" fill="#ffb310" stroke="none" /><path d="M 80.02781315780177 93.51064311812611 l -15.746532927198116 -5.1163586954266655 a37.55688453567284,37.55688453567284 0 0,0 0.20506542944577713,-0.6131195328223497 l 15.656130203980567 5.386651331171338" fill="#ffb510" stroke="none" /><path d="M 80.2630227832202 92.82701384747504 l -41.508960012690146 -15.085551962009966 a65.16523111378012,65.16523111378012 0 0,0 0.3922183905720371,-1.0509502880177624 l 41.24313703361648 15.797825387057069" fill="#34ff60" stroke="none" /><path d="M 81.26839172434947 90.50648371742162 l -5.733855103410077 -2.906020987900371 a27.428223108217328,27.428223108217328 0 0,0 0.2170624736078808,-0.41929560941272226 l 5.682983196642082 3.004289319573429" fill="#ff2403" stroke="none" /><line stroke="#e1ed5e" stroke-width="0.3" x1="26.266209847984243" x2="21.928928074336255" y1="57.711370442889674" y2="55.22380399835377" /><path d="M 25.398753493254645 57.213857153982495 a86.0,86.0 0 0,1 29.58750427330803,-30.492523968695096" fill="none" id="id35" stroke="none" /><text fill="#e1ed5e" style="font-size:6.75px; font-family:Arial;" text-anchor="middle"><textPath startOffset="21.46611528233685" xlink:href="#id35">November</textPath></text><path d="M 82.15384107792192 88.93136811851018 l -13.405755931618547 -8.314583443309711 a36.774872105151466,36.774872105151466 0 0,0 0.33828049725235254,-0.535078508416091 l 13.260647838120232 8.544109599440018" fill="#ffaa0f" stroke="none" /><path d="M 83.17141714833178 87.43820079747576 l -17.592936653410497 -13.132355800296263 a42.953819461690244,42.953819461690244 0 0,0 0.44738256074007493,-0.5887030083396333 l 17.36427815244631 13.433243584516923" fill="#fffc17" stroke="none" /><path d="M 83.6137871275137 86.86637796730984 l -16.856701981974155 -13.51072113317151 a42.60296246461162,42.60296246461162 0 0,0 0.4635638650084097,-0.5682744860919233 l 16.62163962488935 13.798879788871515" fill="#fff717" stroke="none" /><path d="M 83.84228863543731 86.58626213691792 l -16.340158470195494 -13.565201000009003 a42.237124499370125,42.237124499370125 0 0,0 0.4692129934536196,-0.55540018685247 l 16.10423486325475 13.84446013649059" fill="#fff316" stroke="none" /><path d="M 84.31358615837235 86.03803664274999 l -12.152892029167097 -10.81689128623937 a37.26953969142687,37.26953969142687 0 0,0 0.4306519436874979,-0.4755366323840229 l 11.964896444863554 11.024480705892948" fill="#ffb110" stroke="none" /><path d="M 84.80347519578584 85.50635884689758 l -17.165438712916234 -16.371487043642244 a44.720832072822176,44.720832072822176 0 0,0 0.53608721855529,-0.5524850021181168 l 16.881087230657826 16.664536241310483" fill="#ecff1a" stroke="none" /><path d="M 85.05521093208273 85.24692304244772 l -16.706286940333044 -16.491978293276265 a44.475207589255476,44.475207589255476 0 0,0 0.5425217125949652,-0.5401919519482499 l 16.419929427570764 16.777106095874625" fill="#efff19" stroke="none" /><path d="M 85.31137513191541 84.99185889309783 l -18.853405122888294 -19.263516290398496 a47.95429362083523,47.95429362083523 0 0,0 0.5948998585217738,-0.5722931925594001 l 18.519022020754093 19.58519256972021" fill="#c4ff1e" stroke="none" /><path d="M 86.10567301691215 84.25364557470407 l -15.833520537662197 -17.944030429808045 a44.930913076655635,44.930913076655635 0 0,0 0.5843290949379729,-0.5067244330556904 l 15.522297644077451 18.213919856283415" fill="#e9ff1a" stroke="none" /><path d="M 86.37877921826538 84.01681056812374 l -16.31368305314418 -19.142534340214105 a46.1510014855218,46.1510014855218 0 0,0 0.6090667725476795,-0.5100759061860027 l 15.981758743637393 19.42051140379392" fill="#daff1c" stroke="none" /><path d="M 86.65592168130627 83.78471172551755 l -16.011141939345393 -19.45621690382559 a46.197242754130336,46.197242754130336 0 0,0 0.6183756158988949,-0.500016742915356 l 15.673862924881998 19.728939744005082" fill="#d9ff1c" stroke="none" /><path d="M 86.93701828274178 83.55741782278169 l -15.38250470009065 -19.36220252750795 a45.728856373972214,45.728856373972214 0 0,0 0.6205350169701178,-0.48433742350851633 l 15.046937127961106 19.62411834023969" fill="#dfff1b" stroke="none" /><path d="M 87.22198572758235 83.33499621200491 l -14.753212434489178 -19.241044489719467 a45.246135159908064,45.246135159908064 0 0,0 0.6221426454757714,-0.46858494220266106 l 14.419823635255018 19.492146021427985" fill="#e5ff1a" stroke="none" /><path d="M 87.51073957382395 83.11751280151077 l -12.780867860678878 -17.276670569800817 a42.490321757701906,42.490321757701906 0 0,0 0.5917377908416541,-0.4299226704744042 l 12.481584753483443 17.49411247509189" fill="#fff617" stroke="none" /><path d="M 87.80319425747018 82.90503203632743 l -28.555711888484232 -40.02351027132529 a70.16614745835798,70.16614745835798 0 0,0 0.9892386341809952,-0.6930248813201767 l 27.862542114719577 40.509119995409414" fill="#3bff9b" stroke="none" /><path d="M 88.09926311788651 82.69761687909137 l -11.008022905891655 -16.004473639589456 a40.42471994075974,40.42471994075974 0 0,0 0.5767169678181892,-0.3894018710799188 l 10.730901243666928 16.19158742296804" fill="#ffdb14" stroke="none" /><path d="M 88.39885842347998 82.49532879139004 l -13.13732262324426 -19.822576214978504 a44.78074375426128,44.78074375426128 0 0,0 0.6461924746402621,-0.4203015605190991 l 12.794163122819711 20.04577669965714" fill="#ebff1a" stroke="none" /><path d="M 88.70189139769569 82.29822771554957 l -11.32543604190906 -17.74458866460999 a42.05079400914792,42.05079400914792 0 0,0 0.6135027577115704,-0.38417537059613593 l 11.018314131825246 17.936908376529054" fill="#fff016" stroke="none" /><path d="M 89.00827224532344 82.1063720568725 l -15.103671369422665 -24.58753365181658 a49.85598204731093,49.85598204731093 0 0,0 0.7351096794199683,-0.44289535665219354 l 14.678199623785048 24.843875617927395" fill="#adff20" stroke="none" /><line stroke="#e1ed5e" stroke-width="0.3" x1="56.762969772571076" x2="54.21961505331055" y1="26.818313649435495" y2="22.513508569990535" /><path d="M 56.25429882871897 25.957352633546506 a86.0,86.0 0 0,1 42.265352541879196,-11.944610805530505" fill="none" id="id36" stroke="none" /><text fill="#e1ed5e" style="font-size:6.75px; font-family:Arial;" text-anchor="middle"><textPath startOffset="22.20632615414155" xlink:href="#id36">December</textPath></text><path d="M 89.3179101791058 81.91981866633112 l -11.208106762954896 -18.970501660168733 a43.03410062717015,43.03410062717015 0 0,0 0.6410098710283352,-0.3713142916238854 l 10.879900159461242 19.160620109182666" fill="#fffd17" stroke="none" /><path d="M 89.63071344664047 81.73862282372117 l -12.915663996619783 -22.745809030414303 a47.15695328056495,47.15695328056495 0 0,0 0.7093212178135925,-0.394736489747479 l 12.522218689734144 22.964760917721968" fill="#ceff1d" stroke="none" /><path d="M 89.94658935756843 81.56283822128135 l -7.290909237915329 -13.370952198654722 a36.22956730226531,36.22956730226531 0 0,0 0.550094142688735,-0.29384124005773354 l 7.0596700486982895 13.494472165214205" fill="#ffa30f" stroke="none" /><path d="M 90.26544431104013 81.39251694778311 l -9.862099148094023 -18.851280800166634 a42.27514482708797,42.27514482708797 0 0,0 0.6476944992276991,-0.3317742790952608 l 9.53614416127756 19.018247604574402" fill="#fff316" stroke="none" /><path d="M 92.91201910852362 80.23233633223022 l -7.8312249976352595 -21.840496501062113 a44.20205534810427,44.20205534810427 0 0,0 0.7184265213189852,-0.25064490661366745 l 7.45411647225299 21.97206226084799" fill="#f2ff19" stroke="none" /><path d="M 93.59665428221793 80.00007090966166 l -6.913121877014025 -21.592141581422673 a43.67182904308014,43.67182904308014 0 0,0 0.7179121041022706,-0.2230587853616282 l 6.540424400201026 21.707940501666826" fill="#f9ff18" stroke="none" /><path d="M 93.94186890950719 79.89281104454417 l -6.6344664872233645 -22.02007009828303 a43.99781799874476,43.99781799874476 0 0,0 0.7270320592566168,-0.21224059462875208 l 6.254444210243327 22.13100902183048" fill="#f5ff19" stroke="none" /><path d="M 94.63758080256005 79.69619591428918 l -11.404016751774588 -43.17919084519473 a65.65975951704738,65.65975951704738 0 0,0 1.0952395299953435,-0.2792009427212048 l 10.659068333094245 43.3690947840848" fill="#35ff66" stroke="none" /><path d="M 95.33964822691252 79.52364482259891 l -5.586771256121632 -24.54679777519325 a46.17453662104745,46.17453662104745 0 0,0 0.7765177888839335,-0.16971671232489915 l 5.163410743084178 24.63932798561402" fill="#daff1c" stroke="none" /><path d="M 95.692805502759 79.44645832069477 l -5.500310657932536 -26.246983838170856 a47.81711352727896,47.81711352727896 0 0,0 0.8070472017329069,-0.16188607636173474 l 5.047697046732492 26.3377738706098" fill="#c6ff1e" stroke="none" /><path d="M 96.04723909329186 79.375362276772 l -5.145170667124731 -26.84636980029268 a48.3349657517237,48.3349657517237 0 0,0 0.8184833163160717,-0.14957259444306742 l 4.682292229705766 26.930957876086485" fill="#bfff1e" stroke="none" /><path d="M 96.40284397218896 79.31037775812273 l -1.808046351098253 -10.39926978724665 a31.55527563428169,31.55527563428169 0 0,0 0.5359450100469298,-0.08843551881179092 l 1.6287721349124373 10.428851568998068" fill="#ff6108" stroke="none" /><path d="M 96.75951476605007 79.25152402106235 l -3.972882194662869 -25.437934393126 a46.74630651417115,46.74630651417115 0 0,0 0.7960918695170441,-0.11732324754280228 l 3.534421344717176 25.502552124829773" fill="#d3ff1c" stroke="none" /><path d="M 97.11714578562143 79.19881850522333 l -6.504154554656057 -46.93060741215565 a68.3791719909153,68.3791719909153 0 0,0 1.1672821921700551,-0.15154672976690928 l 5.695357633978144 47.0356124650867" fill="#39ff86" stroke="none" /><path d="M 97.83486435360386 79.11191278185805 l -2.5359577062499086 -24.465582947580078 a45.59666299425207,45.59666299425207 0 0,0 0.7813853952459899,-0.07420195855968485 l 2.1144471839136822 24.50561045065494" fill="#e1ff1b" stroke="none" /><path d="M 98.55514903715128 79.0497635885617 l -1.5816357798530378 -22.93360654954987 a43.98808128377982,43.98808128377982 0 0,0 0.7558366250435827,-0.04559412932291527 l 1.186637105969832 22.957433948253094" fill="#f5ff19" stroke="none" /><path d="M 98.91598698831166 79.02799685794201 l -1.190116630431747 -23.024751035005117 a44.0554882363831,44.0554882363831 0 0,0 0.7576687361968593,-0.03262680957916443 l 0.7936070618455636 23.041825571108472" fill="#f4ff19" stroke="none" /><path d="M 99.27714615592234 79.0124445844662 l -0.5417335762977261 -15.728855212094995 a36.73818164689734,36.73818164689734 0 0,0 0.6322000151695729,-0.016327861220106717 l 0.27090692593327415 15.735849865457462" fill="#ffaa0f" stroke="none" /></svg>