<?xml version="1.0" encoding="utf-8" ?>
<svg baseProfile="full" height="200mm" version="1.1" viewBox="0,0,200,200" width="200mm" xmlns="http://www.w3.org/2000/svg" xmlns:ev="http://www.w3.org/2001/xml-events" xmlns:xlink="http://www.w3.org/1999/xlink"><defs /><rect fill="#1a1a1a" height="200" width="200" x="0" y="0" /><text alignment-baseline="middle" fill="#e1ed5e" style="dominant-baseline: central; font-size:9.0px; font-family:Arial;" text-anchor="middle" x="100.0" y="100.0">2024</text><line stroke="#e1ed5e" stroke-width="0.3" x1="100.0" x2="100.0" y1="15.0" y2="10.0" /><path d="M 100.0 14.0 a86.0,86.0 0 0,1 42.35913384403234,11.155469271406648" fill="none" id="id37" stroke="none" /><text fill="#e1ed5e" style="font-size:6.75px; font-family:Arial;" text-anchor="middle"><textPath startOffset="22.145653131862478" xlink:href="#id37">January</textPath></text><path d="M 100.36049292484886 79.00309439819443 l 0.2877482697757914 -16.759894136891454 a37.762364109712195,37.762364109712195 0 0,0 0.6480501549691979,0.016691473199850527 l -0.5754117388157307 16.752484946341557" fill="#ffd113" stroke="none" /><path d="M 100.72087961077811 79.0123766808444 l 0.6176356846182471 -17.981789058015792 a38.99239315838475,38.99239315838475 0 0,0 0.6687645499130659,0.028719627290019742 l -0.9262259951321493 17.968536862299942" fill="#ffe015" stroke="none" /><path d="M 101.08105385017728 79.02784411241856 l 1.0164591642225278 -19.71903623666838 a40.74521661910987,40.74521661910987 0 0,0 0.6982093487606164,0.04200254061467757 l -1.3548128651156064 19.698681718229007" fill="#fff617" stroke="none" /><path d="M 102.15924093988457 79.11130261209362 l 1.5955764518693178 -15.435754781561945 a36.51800212302706,36.51800212302706 0 0,0 0.6230042431403087,0.06980892490636881 l -1.8603165966104234 15.406090096148606" fill="#ffc111" stroke="none" /><path d="M 102.51750503828377 79.15144685158666 l 2.2456546211217514 -18.597241717281317 a39.732334722835645,39.732334722835645 0 0,0 0.6764376595939203,0.08757839778817156 l -2.564570102606463 18.555951723292747" fill="#ffe915" stroke="none" /><path d="M 102.87502721639298 79.19773525538626 l 2.4641313694473315 -17.829227083652228 a38.99870222561428,38.99870222561428 0 0,0 0.6623741903694491,0.0973461958763422 l -2.7698306654244624 17.784299814477002" fill="#ffe015" stroke="none" /><path d="M 103.23170211078529 79.25015418208739 l 3.139554592371888 -20.158192647529013 a41.40121402890956,41.40121402890956 0 0,0 0.7013020586189502,0.11539898686901658 l -3.4851341540439087 20.101327662164326" fill="#fffe18" stroke="none" /><path d="M 103.58742460773223 79.30868818359171 l 0.3929065435653988 -2.266180532434396 a23.29998907770475,23.29998907770475 0 0,0 0.3935093730715093,0.07171051626053745 l -0.4317506501879617 2.259101842242493" fill="#ff0a01" stroke="none" /><path d="M 103.94208987418118 79.37332000966035 l 3.191512490111852 -16.699341953075862 a38.00158150409248,38.00158150409248 0 0,0 0.6396996484323083,0.12795784551999578 l -3.477708624075117 16.642094710893005" fill="#ffd413" stroke="none" /><path d="M 104.9986988182912 79.60360301121754 l 4.226770573829604 -17.24666633021983 a38.75705744175341,38.75705744175341 0 0,0 0.6448338438241894,0.16391424149697822 l -4.5222097108791885 17.171566856887583" fill="#ffdd14" stroke="none" /><path d="M 105.69591212413111 79.78721728523813 l 5.627641738066883 -19.970515199165384 a41.74829701089051,41.74829701089051 0 0,0 0.6881311909732734,0.20030496076088783 l -5.969632941421761 19.870966544101982" fill="#fcff18" stroke="none" /><path d="M 106.04205211174951 79.88797359093562 l 5.391985495826206 -17.948166067364212 a39.74060225203247,39.74060225203247 0 0,0 0.6516689828957224,0.20188871670788974 l -5.699295111593558 17.852960762849676" fill="#ffea16" stroke="none" /><path d="M 106.38641147887787 79.99465700312896 l 6.3800665912955274 -19.985467726888622 a41.97913654018849,41.97913654018849 0 0,0 0.6846142741997799,0.2250463100968166 l -6.72220360314305 19.873000495389782" fill="#f9ff18" stroke="none" /><path d="M 107.06938296918511 80.22567764915836 l 12.025231177386853 -33.636711815097584 a56.72162603523981,56.72162603523981 0 0,0 0.9140577898163329,0.3356546814401918 l -12.600878118857311 33.425326284648676" fill="#54ff2b" stroke="none" /><path d="M 107.74402155503746 80.48000691201159 l 6.922100328248915 -17.448214677797004 a39.77113924078223,39.77113924078223 0 0,0 0.6324473582301462,0.2572108347265497 l -7.2206021476695 17.326816586491162" fill="#ffea16" stroke="none" /><path d="M 108.07796709384702 80.6158196554323 l 7.738484467431999 -18.569545625482398 a41.117459247866236,41.117459247866236 0 0,0 0.6491955849857941,0.2771029916747404 l -8.056115127588223 18.433967984148257" fill="#fffb17" stroke="none" /><path d="M 109.3889696526874 81.21577127319529 l 19.097901641741984 -38.208596460615794 a63.71564924717676,63.71564924717676 0 0,0 0.9741600249578173,0.49741304990844837 l -19.750988888413378 37.87512545903451" fill="#34ff58" stroke="none" /><path d="M 109.71004243097381 81.37971332152246 l 8.150785582224847 -15.63020607527945 a38.62778056259798,38.62778056259798 0 0,0 0.5853234188743438,0.3116517520779074 l -8.41789781688575 15.48798385547897" fill="#ffdc14" stroke="none" /><path d="M 110.02825361518725 81.54914285379988 l 8.699406741424454 -16.005928569619215 a39.217283744523876,39.217283744523876 0 0,0 0.5887369821520212,0.3265624796683792 l -8.972887911732576 15.85423317451769" fill="#ffe315" stroke="none" /><path d="M 110.34350942703115 81.72400993836675 l 10.20728166376608 -18.03528865703604 a41.72342239848592,41.72342239848592 0 0,0 0.6203031780690242,0.35813220683733155 l -10.515377309695502 17.857409552922537" fill="#fcff18" stroke="none" /><line stroke="#e1ed5e" stroke-width="0.3" x1="143.13028292997686" x2="145.6673583964461" y1="26.7553504044142" y2="22.446841604673864" /><path d="M 143.63769802327073 25.89364864446614 a86.0,86.0 0 0,1 29.32050498858742,28.57503671076993" fill="none" id="id38" stroke="none" /><text fill="#e1ed5e" style="font-size:6.75px; font-family:Arial;" text-anchor="middle"><textPath startOffset="20.669276256404974" xlink:href="#id38">February</textPath></text><path d="M 110.96478420261332 82.08984904055464 l 10.60242194209396 -17.318259439468076 a41.305995692182165,41.305995692182165 0 0,0 0.6015645323203291,0.375420759688329 l -10.898150603204002 17.133702882938202" fill="#fffd17" stroke="none" /><path d="M 111.5731344415666 82.4767994020092 l 10.559673083678106 -15.988690931464507 a40.161026416558464,40.161026416558464 0 0,0 0.5720148607155731,0.3848771265015739 l -10.83258423249068 15.805064130905814" fill="#ffef16" stroke="none" /><path d="M 111.8722381534696 82.67804972795209 l 9.289056705350687 -13.553011339929554 a37.4307848520842,37.4307848520842 0 0,0 0.5268916068330918,0.36781126203383374 l -9.52034340335754 13.391555262090595" fill="#ffcc13" stroke="none" /><path d="M 112.45986205192187 83.09580414077388 l 7.630943172616453 -10.352839978724804 a33.86128256935459,33.86128256935459 0 0,0 0.4649428390724459,0.34890177430690494 l -7.807539000599665 10.220319177153884" fill="#ff9e0e" stroke="none" /><path d="M 113.03279911837588 83.53348406188908 l 7.995328339098986 -10.101836169681556 a33.88302640100865,33.88302640100865 0 0,0 0.45298255048169433,0.36489067771576666 l -8.16756165993594 9.963097198172381" fill="#ff9e0e" stroke="none" /><path d="M 113.31354834802062 83.75963576809568 l 10.750334235310744 -13.113659787183188 a37.956938378872515,37.956938378872515 0 0,0 0.5003549876146378,0.4174139264099303 l -10.973863557087274 12.927183676861388" fill="#ffd313" stroke="none" /><path d="M 113.59037401385872 83.9905735841838 l 12.364376648466775 -14.565204602111004 a40.10557497188991,40.10557497188991 0 0,0 0.5210297061066961,0.45005305061913947 l -12.61258583433633 14.350807419027145" fill="#ffee16" stroke="none" /><path d="M 113.86319453409587 84.22622945171908 l 5.348208071402977 -6.085279028242135 a29.10147828649707,29.10147828649707 0 0,0 0.37240880889151945,0.3330102532974666 l -5.451881907117873 5.992573245061282" fill="#ff5d08" stroke="none" /><path d="M 114.13192950727249 84.46653392183569 l 11.48238810636575 -12.621155947230164 a38.062790336563154,38.062790336563154 0 0,0 0.47953719732252953,0.4438524707670688 l -11.697355075002244 12.422185730330721" fill="#ffd413" stroke="none" /><path d="M 114.39649973595853 84.71141617570332 l 16.09535021015747 -17.092704156050875 a44.47809263449429,44.47809263449429 0 0,0 0.551374823285251,0.5282046081041712 l -16.38639751930803 16.813887417641123" fill="#dbff1b" stroke="none" /><path d="M 114.91283532996326 85.21462403516908 l 7.380046242848354 -7.316969303557626 a31.392455067778002,31.392455067778002 0 0,0 0.3761312399682396,0.38594378756110925 l -7.504564283967405 7.189202823928775" fill="#ff7d0b" stroke="none" /><path d="M 115.16444852881244 85.47280134310134 l 24.649784652016642 -23.613936095944556 a55.13546339709113,55.13546339709113 0 0,0 0.6488765777542401,0.6890844394516324 l -25.05151706350714 23.187310196548427" fill="#64ff29" stroke="none" /><path d="M 115.41159269507618 85.73525988315684 l 8.075524649432385 -7.4745850549318895 a32.003795713616334,32.003795713616334 0 0,0 0.3697235439004851,0.4063909407785678 l -8.202645894174747 7.33485653859565" fill="#ff850c" stroke="none" /><path d="M 115.6541949942343 86.00192230759917 l 7.724443023548026 -6.907244582936006 a31.362289696420312,31.362289696420312 0 0,0 0.3554227598415971,0.4044058566436124 l -7.841876847348213 6.773626448481095" fill="#ff7c0b" stroke="none" /><path d="M 115.8921839302757 86.27271002978787 l 3.5944752287295607 -3.1048220919161738 a25.749754982354474,25.749754982354474 0 0,0 0.286074182178244,0.33699466728267424 l -3.647243974414917 3.0426606421839475" fill="#ff2e04" stroke="none" /><path d="M 116.1254893667686 86.54754324733833 l 9.81214611919468 -8.185641273701984 a33.77822110178724,33.77822110178724 0 0,0 0.3676247558702087,0.4484424272124773 l -9.951217694303516 8.015996564791012" fill="#ff9d0e" stroke="none" /><path d="M 116.35404254752997 86.82634096563983 l 3.720756401202564 -2.997177978282728 a25.777771868830992,25.777771868830992 0 0,0 0.2746358528724362,0.3469934284588464 l -3.7716586847165594 2.9328646059092036" fill="#ff2e04" stroke="none" /><path d="M 116.57777611688842 87.10902102172516 l 4.56181613020285 -3.547295814743925 a26.77870867954759,26.77870867954759 0 0,0 0.2790698782630502,0.36531142890977436 l -4.6220379858202065 3.4684634725932684" fill="#ff3d05" stroke="none" /><line stroke="#e1ed5e" stroke-width="0.3" x1="172.87174338648825" x2="177.1583165268699" y1="56.24261187166439" y2="53.66864786411523" /><path d="M 173.72905801456457 55.72781907015455 a86.0,86.0 0 0,1 12.242430191666344,42.057860355516425" fill="none" id="id39" stroke="none" /><text fill="#e1ed5e" style="font-size:6.75px; font-family:Arial;" text-anchor="middle"><textPath startOffset="22.145653131862474" xlink:href="#id39">March</textPath></text><path d="M 120.7213421655516 96.59031103205396 l 8.307236799674707 -1.3669526541121244 a29.418951407654866,29.418951407654866 0 0,0 0.07771997747397975,0.4990180079329203 l -8.329478269286952 1.2241464642477629" fill="#ff6209" stroke="none" /><path d="M 120.82617615685814 97.30363454192243 l 16.546266940015787 -2.1422455231897013 a37.684368898219844,37.684368898219844 0 0,0 0.07755427640010852,0.6422606623725505 l -16.58060330267556 1.8578911838937378" fill="#ffd013" stroke="none" /><path d="M 120.9064616781168 98.02013634271609 l 17.127124565676397 -1.621956503373828 a38.203753624922456,38.203753624922456 0 0,0 0.0562256963759241,0.653427819681805 l -17.152443884750063 1.327707636316361" fill="#ffd614" stroke="none" /><path d="M 120.93736805541906 98.37931529534042 l 16.210617511312645 -1.254804318486021 a37.259109876489774,37.259109876489774 0 0,0 0.043887751850472424,0.6381182798683687 l -16.229769224328184 0.9763426144633182" fill="#ffca12" stroke="none" /><path d="M 120.96210409425399 98.7389718711861 l 19.690427373483832 -1.1845272151442485 a40.72602430480757,40.72602430480757 0 0,0 0.035990965659534205,0.6982151187312166 l -19.70785992859994 0.8463403030363014" fill="#fff617" stroke="none" /><line stroke="#e1ed5e" stroke-width="0.3" x1="184.99686870605535" x2="189.99668451229388" y1="99.2704041080226" y2="99.22748670261217" /><path d="M 185.99683186730306 99.26182062694052 a86.0,86.0 0 0,1 -10.086455211305974,41.156179273409016" fill="none" id="id40" stroke="none" /><text fill="#e1ed5e" style="font-size:6.75px; font-family:Arial;" text-anchor="middle"><textPath startOffset="21.40746469413373" xlink:href="#id40">April</textPath></text><path d="M 120.99922638620191 99.81974689727618 l 18.995503196547343 -0.16305354902159072 a39.99620299296385,39.99620299296385 0 0,0 0.0,0.6866133034908328 l -18.995503196547343 -0.1630535490215884" fill="#ffed16" stroke="none" /><path d="M 120.99303781780057 100.54070618675476 l 17.1075908037552 0.44063085430235827 a38.11326440684222,38.11326440684222 0 0,0 -0.022460170314602314,0.6539033525141384 l -17.097505946443754 -0.7342404713806074" fill="#ffd513" stroke="none" /><path d="M 120.9064616781168 101.97986365728391 l 17.302257773559457 1.638541800245661 a38.37967040233649,38.37967040233649 0 0,0 -0.06774488376937268,0.6553702972642614 l -17.271580497308417 -1.935316619792854" fill="#ffd814" stroke="none" /><path d="M 120.86939407059847 102.33845913500097 l 17.002975355204427 1.90521885336339 a38.109384261536135,38.109384261536135 0 0,0 -0.07842895627201905,0.6495042664647295 l -16.967764312672745 -2.196816796751528" fill="#ffd513" stroke="none" /><path d="M 120.77682067341334 103.0534771498775 l 17.051224176689097 2.5059427628204625 a38.23438409268631,38.23438409268631 0 0,0 -0.1010088846892665,0.648549498589858 l -17.00569379986156 -2.798280443341771" fill="#ffd714" stroke="none" /><path d="M 120.7213421655516 103.40968896794604 l 16.784748326295677 2.761923949746118 a38.010467373980845,38.010467373980845 0 0,0 -0.11147055097295634,0.6429325158658418 l -16.734862957830487 -3.0496494985325477" fill="#ffd413" stroke="none" /><path d="M 120.65975698304385 103.76489593502545 l 15.618957877066567 2.846294420063307 a36.87618458859884,36.87618458859884 0 0,0 -0.11883562559990389,0.621798208294327 l -15.567795959184505 -3.1139951933909487" fill="#ffc512" stroke="none" /><path d="M 120.43855184770803 104.8234425847677 l 18.080996155723163 4.2670658607506144 a39.577682122462406,39.577682122462406 0 0,0 -0.1617266094133465,0.6598997557472551 l -18.005082019793523 -4.576821441105969" fill="#ffe815" stroke="none" /><path d="M 120.26092885502905 105.52220625578681 l 15.85889885861481 4.322413405306206 a37.43739427811309,37.43739427811309 0 0,0 -0.17431832691963806,0.6185942459154329 l -15.782362039620592 -4.594015575124648" fill="#ffcc13" stroke="none" /><path d="M 120.16314734710363 105.8691983318838 l 15.554868365722257 4.527795482181171 a37.20045869114227,37.20045869114227 0 0,0 -0.1837413558570588,0.6116152150108609 l -15.474850689861569 -4.794148300782755" fill="#ffc912" stroke="none" /><path d="M 120.05942366710727 106.21446072829308 l 16.53357746440438 5.122144561870625 a38.30882863408617,38.30882863408617 0 0,0 -0.19999996740659406,0.62649704933121 l -16.443212781220534 -5.405210644893219" fill="#ffd814" stroke="none" /><path d="M 119.71291397450082 107.23885506374661 l 18.904577360778895 6.942022662559153 a41.13888586384954,41.13888586384954 0 0,0 -0.24912399923531053,0.6608310056832652 l -18.782622677729144 -7.265521948436577" fill="#fffb17" stroke="none" /><path d="M 119.4528033332814 107.91128576633889 l 23.749549889210815 9.658735184661667 a46.63849225885826,46.63849225885826 0 0,0 -0.30797873933756315,0.7390368586867929 l -23.580245305336767 -10.065004552789738" fill="#c1ff1e" stroke="none" /><path d="M 119.31412917781788 108.2440532568976 l 17.73832471340579 7.571436034165642 a40.28664841950733,40.28664841950733 0 0,0 -0.27695366851769615,0.6337241930746804 l -17.60573716287113 -7.874822297016167" fill="#fff016" stroke="none" /><path d="M 119.16976305983485 108.57439118712176 l 21.084418530482083 9.430792225707869 a44.09745758244851,44.09745758244851 0 0,0 -0.3150144617982133,0.688363450087954 l -20.919419603828814 -9.791344658010512" fill="#dfff1b" stroke="none" /><path d="M 118.8641267826498 109.22738970284198 l 14.922599512969683 7.2993912027911545 a37.612196969572324,37.612196969572324 0 0,0 -0.2886827224691946,0.5775588258276939 l -14.795096877288756 -7.554481884782594" fill="#ffcf13" stroke="none" /><path d="M 118.70294669586154 109.54985784667822 l 12.348128075006565 6.3050421789943 a34.86469703367739,34.86469703367739 0 0,0 -0.2767458891974782,0.5306967328494415 l -12.238074116834138 -6.516085154948244" fill="#ffab0f" stroke="none" /><line stroke="#e1ed5e" stroke-width="0.3" x1="174.33088141563837" x2="178.70328620479359" y1="141.23008692659167" y2="143.65538615756765" /><path d="M 175.20536237346943 141.71514677278685 a86.0,86.0 0 0,1 -30.301960400862466,31.631185727798858" fill="none" id="id41" stroke="none" /><text fill="#e1ed5e" style="font-size:6.75px; font-family:Arial;" text-anchor="middle"><textPath startOffset="22.145653131862474" xlink:href="#id41">May</textPath></text><path d="M 118.18653347947321 110.5 l 8.56997782141242 4.9478790021415815 a30.895758004283167,30.895758004283167 0 0,0 -0.26912601830724403,0.45703481565313253 l -8.483778092975411 -5.094264986088263" fill="#ff760a" stroke="none" /><path d="M 117.21940702142032 112.02048342749411 l 15.270215632815198 10.659796456415739 a39.62285547290982,39.62285547290982 0 0,0 -0.3941245838771608,0.5543855847970891 l -15.084975950408078 -10.920359267922331" fill="#ffe815" stroke="none" /><path d="M 117.01052211995028 112.31430620078461 l 15.1231340292264 10.94798277431967 a39.66996276623887,39.66996276623887 0 0,0 -0.4040630913753919,0.5481891860143369 l -14.93296891826718 -11.205978269602882" fill="#ffe915" stroke="none" /><path d="M 116.79662413953412 112.60449989151573 l 15.161910323466785 11.377780168188554 a39.95619703981981,39.95619703981981 0 0,0 -0.4163968911717315,0.5450768970635782 l -14.964361454940748 -11.63637797849301" fill="#ffec16" stroke="none" /><path d="M 116.57777611688842 112.89097897827486 l 12.369904464619628 9.618912530386492 a36.6696526678495,36.6696526678495 0 0,0 -0.39067772754819763,0.49360854632270446 l -12.202960306429869 -9.82984102062388" fill="#ffc312" stroke="none" /><path d="M 116.35404254752997 113.17365903436017 l 14.62799577508971 11.783277934922454 a39.78360719584161,39.78360719584161 0 0,0 -0.4329842841319345,0.5281704243811458 l -14.423564671719149 -12.032650641002093" fill="#ffea16" stroke="none" /><path d="M 115.89218393027572 113.72728997021213 l 15.46759459906176 13.360539818476916 a41.43894583685841,41.43894583685841 0 0,0 -0.4696195538281778,0.5343408453840041 l -15.235963981274997 -13.624092941672211" fill="#ffff18" stroke="none" /><path d="M 115.6541949942343 113.99807769240083 l 14.210138410976526 12.70679339115695 a40.06280755672313,40.06280755672313 0 0,0 -0.4628252011423972,0.5087259710972485 l -13.98991550899225 -12.94885693781187" fill="#ffee16" stroke="none" /><path d="M 115.41159269507618 114.26474011684316 l 13.742742704434635 12.720077479989053 a39.72600726629187,39.72600726629187 0 0,0 -0.46752623546738015,0.4964966604450125 l -13.522360635230996 -12.954115600378563" fill="#ffe915" stroke="none" /><path d="M 115.16444852881244 114.52719865689866 l 25.92920074341264 24.83958776993905 a56.907221721719104,56.907221721719104 0 0,0 -0.6818384807153341,0.6996263479056105 l -25.498975461546497 -25.2810368099124" fill="#52ff2b" stroke="none" /><path d="M 113.59037401385872 116.0094264158162 l 10.688288004128323 12.590776393545255 a37.51566379687628,37.51566379687628 0 0,0 -0.49453802904422695,0.4125612126831964 l -10.4705756409222 -12.772399790140321" fill="#ffcd13" stroke="none" /><path d="M 113.31354834802062 116.24036423190432 l 11.921759652996156 14.542608325650782 a39.80467522019709,39.80467522019709 0 0,0 -0.5321491383014144,0.4286616769546191 l -11.67035974433949 -14.745118296398804" fill="#ffea16" stroke="none" /><path d="M 113.03279911837588 116.46651593811092 l 10.577444215381455 13.364255228293821 a38.0436393982179,38.0436393982179 0 0,0 -0.5155638782198168,0.4009055900639706 l -10.346470392526408 -13.543861869978585" fill="#ffd413" stroke="none" /><path d="M 112.16784306229584 117.11559508785304 l 9.864777557775463 13.876045034950296 a38.02523016221394,38.02523016221394 0 0,0 -0.5352592711999096,0.3736525416274422 l -9.625123195401795 -14.04334239238286" fill="#ffd413" stroke="none" /><path d="M 111.8722381534696 117.32195027204791 l 11.35802367463552 16.571695979943115 a41.090440747909035,41.090440747909035 0 0,0 -0.5852525405442733,0.39378402826920206 l -11.071874845994245 -16.764229682269438" fill="#fffa17" stroke="none" /><path d="M 111.27062007382361 117.71928675628689 l 7.040432735010214 11.068729644230897 a34.11809700502627,34.11809700502627 0 0,0 -0.49688275816996325,0.31009159038795797 l -6.849385848050535 -11.187957031460403" fill="#ffa10e" stroke="none" /><path d="M 110.96478420261333 117.91015095944535 l 12.956468953123206 21.16341831848333 a45.81451919051347,45.81451919051347 0 0,0 -0.6742746264694486,0.40488253971131244 l -12.591261570096322 -21.382714858730566" fill="#cbff1d" stroke="none" /><line stroke="#e1ed5e" stroke-width="0.3" x1="143.1302829299769" x2="145.66735839644613" y1="173.24464959558577" y2="177.55315839532614" /><path d="M 143.63769802327073 174.10635135553383 a86.0,86.0 0 0,1 -40.68552437913181,11.842963189579606" fill="none" id="id42" stroke="none" /><text fill="#e1ed5e" style="font-size:6.75px; font-family:Arial;" text-anchor="middle"><textPath startOffset="21.407464694133747" xlink:href="#id42">June</textPath></text><path d="M 110.34350942703117 118.27599006163325 l 8.807808236492066 15.562553205996668 a38.882129297717725,38.882129297717725 0 0,0 -0.5837055827605575,0.3237716472401641 l -8.539358465575415 -15.711457768669975" fill="#ffdf14" stroke="none" /><path d="M 110.02825361518725 118.45085714620011 l 7.396268250998276 13.608300522782132 a36.488402989303886,36.488402989303886 0 0,0 -0.5529056154897068,0.29439109771562816 l -7.1615738197220145 -13.733262088220329" fill="#ffc011" stroke="none" /><path d="M 109.71004243097381 118.62028667847754 l 9.435493869658103 18.093803611569943 a41.40623124681324,41.40623124681324 0 0,0 -0.6330673192754385,0.32324868400527496 l -9.123499328669082 -18.253110247248053" fill="#fffe18" stroke="none" /><path d="M 109.3889696526874 118.78422872680471 l 7.586529820375139 15.17814165560346 a37.968542036162276,37.968542036162276 0 0,0 -0.5855106280415919,0.28640258848687605 l -7.324858943071478 -15.30613799418756" fill="#ffd313" stroke="none" /><path d="M 109.06512990194946 118.94263497670748 l 9.032510309781529 18.874472574821404 a41.924434460075496,41.924434460075496 0 0,0 -0.6518476674175712,0.30509762206966284 l -8.70717392849245 -19.0267464284616" fill="#f9ff18" stroke="none" /><path d="M 108.73861861582097 119.09545874513695 l 13.824223105041952 30.208422359567354 a54.221347442751096,54.221347442751096 0 0,0 -0.8496913677389386,0.3800561411517497 l -13.303618334447387 -30.441282251628955" fill="#6eff28" stroke="none" /><path d="M 107.407793817531 119.65005319985036 l 6.020765271766977 15.970795193306905 a38.067979188066474,38.067979188066474 0 0,0 -0.6134579586593625,0.2252702596978412 l -5.745718161453488 -16.07179630201347" fill="#ffd513" stroke="none" /><path d="M 107.06938296918513 119.77432235084164 l 6.3256076934319845 17.693850529830083 a39.79057368105546,39.79057368105546 0 0,0 -0.6451647935912692,0.22442180551329527 l -6.020937127795694 -17.79983076791197" fill="#ffea16" stroke="none" /><path d="M 106.72888874123015 119.89276391827305 l 6.082942476971141 17.98313856512066 a39.98408443487517,39.98408443487517 0 0,0 -0.6520780845198996,0.2143510182981958 l -5.773341654803508 -18.084910504820876" fill="#ffed16" stroke="none" /><path d="M 106.38641147887787 120.00534299687104 l 4.895292484440317 15.33443398458262 a37.09685541140692,37.09685541140692 0 0,0 -0.608316650091664,0.18845805318725906 l -4.631335201477028 -15.416208625576523" fill="#ffc812" stroke="none" /><path d="M 105.3480935250658 120.30758222061773 l 4.882768255453211 18.540666378981886 a40.17283848607636,40.17283848607636 0 0,0 -0.668389386816482,0.16990196841238164 l -4.563773575411332 -18.621753579229537" fill="#ffef16" stroke="none" /><path d="M 104.9986988182912 120.39639698878246 l 2.7035289493284047 11.031320694776001 a32.357777293592704,32.357777293592704 0 0,0 -0.5406335061317864,0.12758803537838515 l -2.513763289456739 -11.076104873800611" fill="#ff8a0c" stroke="none" /><path d="M 104.64783097203109 120.47920084513623 l 4.572848138199339 20.148812644012242 a41.66120981594594,41.66120981594594 0 0,0 -0.6987925650615207,0.15229858714073202 l -4.2262931565186825 -20.224342689286694" fill="#fdff18" stroke="none" /><path d="M 104.29559338865022 120.5559693870025 l 3.5692709343617004 17.08025351154375 a38.44920499683243,38.44920499683243 0 0,0 -0.6472347188057566,0.12946507062663534 l -3.275539730024985 -17.139007978833245" fill="#ffd914" stroke="none" /><path d="M 103.94208987418118 120.62667999033965 l 3.2044417272100043 16.766993184948948 a38.07045714816124,38.07045714816124 0 0,0 -0.6429651822993174,0.11716967451206818 l -2.91614181135963 -16.81953103339238" fill="#ffd513" stroke="none" /><path d="M 102.875027216393 120.80226474461374 l 1.6976486021014232 12.283339602100655 a33.40009848980044,33.40009848980044 0 0,0 -0.5686321886255276,0.07362082123059381 l -1.4865385915851204 -12.310672019531644" fill="#ff980e" stroke="none" /><path d="M 102.51750503828377 120.84855314841334 l 2.420923438770828 20.048718955439107 a41.194355697832336,41.194355697832336 0 0,0 -0.7027837477723752,0.0787483848045148 l -2.076403789397653 -20.08732310075059" fill="#fffc17" stroke="none" /><path d="M 102.15924093988457 120.88869738790638 l 1.7690900378579668 17.11434132716587 a38.20553279107584,38.20553279107584 0 0,0 -0.6529515428488207,0.06183518997894319 l -1.4750389316241308 -17.142188272649996" fill="#ffd614" stroke="none" /><path d="M 101.80034050326958 120.92268563240118 l 1.874146181660392 21.780419491108816 a42.86090339210402,42.86090339210402 0 0,0 -0.7335970281459739,0.056785049570362546 l -1.4999801587391821 -21.809382307674234" fill="#eeff19" stroke="none" /><path d="M 101.44090949804482 120.95050786540614 l 1.4860641325427988 21.60704634092675 a42.658089439860255,42.658089439860255 0 0,0 -0.7309883053415314,0.04397444124525608 l -1.1149314750688024 -21.6293727599967" fill="#f1ff19" stroke="none" /><line stroke="#e1ed5e" stroke-width="0.3" x1="101.45913802915013" x2="101.54496967792366" y1="184.9874750549273" y2="189.98673829345242" /><path d="M 101.47630435890484 185.9873277026323 a86.0,86.0 0 0,1 -42.54439059252881,-10.42667462771756" fill="none" id="id43" stroke="none" /><text fill="#e1ed5e" style="font-size:6.75px; font-family:Arial;" text-anchor="middle"><textPath startOffset="22.145653131862474" xlink:href="#id43">July</textPath></text><path d="M 100.36049292484886 120.99690560180557 l 0.29407711286642413 17.12851751833055 a38.131041816657515,38.131041816657515 0 0,0 -0.6545700377152742,0.005618696521399386 l -2.0979475526829086e-15 -17.131041816657515" fill="#ffd513" stroke="none" /><path d="M 100.0 121.0 l 2.004245229965773e-15 16.365904286535567 a37.36590428653557,37.36590428653557 0 0,0 -0.6414354345654986,-0.005505951750365874 l 0.28094250971664436 -16.363492732979637" fill="#ffcc13" stroke="none" /><path d="M 99.63950707515114 120.99690560180557 l -0.39873855181099804 23.224521634333264 a44.2279443252371,44.2279443252371 0 0,0 -0.7590077276588498,-0.01954934667872459 l 0.7973595935405918 -23.214254570304494" fill="#deff1b" stroke="none" /><path d="M 99.27912038922189 120.98762331915562 l -0.6698067261510703 19.500692008644663 a40.512191826302214,40.512191826302214 0 0,0 -0.6948308513062532,-0.029839026428239795 l 1.0044633380581622 -19.486320413790594" fill="#fff316" stroke="none" /><path d="M 98.91894614982273 120.97215588758144 l -0.9931073744885487 19.266017754310145 a40.29159667748259,40.29159667748259 0 0,0 -0.6904361250473176,-0.04153492277870093 l 1.3236878516683126 -19.246130853706752" fill="#fff016" stroke="none" /><path d="M 98.19965949673042 120.92268563240118 l -0.8028126326153634 9.329899706986952 a30.36437593572161,30.36437593572161 0 0,0 -0.5189422752796201,-0.04914437301122965 l 0.9628544712799988 -9.314743578470537" fill="#ff6f0a" stroke="none" /><path d="M 97.84075906011543 120.88869738790638 l -1.7586616035229086 17.013455684887155 a38.10410959323299,38.10410959323299 0 0,0 -0.6500635461297121,-0.07284097624663688 l 2.05046105125342 -16.98075894813355" fill="#ffd513" stroke="none" /><path d="M 97.48249496171623 120.84855314841334 l -1.306763341230562 10.821875053968668 a31.900486691597465,31.900486691597465 0 0,0 -0.5431014992725554,-0.07031536235164401 l 1.4923426623939113 -10.797848095416628" fill="#ff840c" stroke="none" /><path d="M 97.12497278360702 120.80226474461374 l -2.3232065540532782 16.809565321079145 a37.969348101103435,37.969348101103435 0 0,0 -0.6448911059098151,-0.0947767845238552 l 2.611422765570778 -16.76720746325641" fill="#ffd313" stroke="none" /><path d="M 96.76829788921471 120.74984581791261 l -3.619510898562974 23.23985643069869 a44.52002946563425,44.52002946563425 0 0,0 -0.7541321926507906,-0.12409216531972972 l 4.017920594266828 -23.17429826688329" fill="#daff1b" stroke="none" /><path d="M 96.41257539226777 120.69131181640829 l -2.911977568425973 16.79551278675557 a38.04608057968417,38.04608057968417 0 0,0 -0.6425534907681731,-0.117094650600923 l 3.199865792745203 -16.74304996222328" fill="#ffd413" stroke="none" /><path d="M 93.61358852112213 120.00534299687104 l -3.1430694672752293 9.84562033996621 a31.335140325843387,31.335140325843387 0 0,0 -0.5110272892485065,-0.16798482026770506 l 3.311619494171479 -9.790214598296485" fill="#ff7c0b" stroke="none" /><path d="M 92.93061703081489 119.77432235084164 l -6.4959220378537745 18.170250063176802 a40.29650202705793,40.29650202705793 0 0,0 -0.6493701636356283,-0.23845771880099528 l 6.806881353143522 -18.056061495367086" fill="#fff116" stroke="none" /><path d="M 92.59220618246901 119.65005319985036 l -5.481844846832616 14.541244738570354 a36.540219479522975,36.540219479522975 0 0,0 -0.5850397773138056,-0.22630595395082415 l 5.7306568866399505 -14.444998896481488" fill="#ffc111" stroke="none" /><path d="M 92.25597844496254 119.51999308798841 l -4.822112220328715 12.154872832074084 a34.07645593535711,34.07645593535711 0 0,0 -0.5418895446691919,-0.2203817603159877 l 5.030056226188347 -12.070303815178805" fill="#ffa10e" stroke="none" /><path d="M 91.59046798132341 119.24265499422711 l -8.661163910802909 19.81843800747655 a42.62836668234534,42.62836668234534 0 0,0 -0.6680201968245355,-0.29879693716574024 l 9.000097510483078 -19.666837319400955" fill="#f1ff19" stroke="none" /><path d="M 91.26138138417905 119.09545874513695 l -7.0659599945493445 15.440397790838857 a37.980390884308676,37.980390884308676 0 0,0 -0.5905250607285317,-0.2763955457792606 l 7.329973769149366 -15.316826013489068" fill="#ffd313" stroke="none" /><path d="M 90.93487009805054 118.94263497670748 l -8.634704248514439 18.04321090603012 a41.00288922277973,41.00288922277973 0 0,0 -0.6323031154971414,-0.30929113890283827 l 8.943167613273648 -17.892326017030058" fill="#fff917" stroke="none" /><path d="M 90.6110303473126 118.78422872680471 l -8.935550163513517 17.877086014782495 a40.985851523130016,40.985851523130016 0 0,0 -0.626640058045998,-0.3199668786254733 l 9.241117443273097 -17.721061184484185" fill="#fff917" stroke="none" /><path d="M 90.28995756902619 118.62028667847754 l -7.366944503294944 14.127087453111061 a36.9325600963083,36.9325600963083 0 0,0 -0.5596358897276302,-0.2979745896631178 l 7.608369208809135 -13.998542395725371" fill="#ffc612" stroke="none" /><path d="M 89.97174638481275 118.45085714620012 l -16.315697646876867 30.019045994928934 a55.16643253472569,55.16643253472569 0 0,0 -0.8281684988222163,-0.4593711058714949 l 16.82861033385519 -29.734541973624292" fill="#64ff29" stroke="none" /><line stroke="#e1ed5e" stroke-width="0.3" x1="58.13341422392154" x2="55.67067388415222" y1="173.97424548756322" y2="178.32567169271397" /><path d="M 57.64086615596768 174.84453072859336 a86.0,86.0 0 0,1 -31.369924170532247,-30.572349798747897" fill="none" id="id44" stroke="none" /><text fill="#e1ed5e" style="font-size:6.75px; font-family:Arial;" text-anchor="middle"><textPath startOffset="22.145653131862474" xlink:href="#id44">August</textPath></text><path d="M 89.65649057296885 118.27599006163327 l -6.179449298558959 10.918494807158073 a33.54588069795814,33.54588069795814 0 0,0 -0.49872745838852206,-0.28794043235287325 l 6.3659692248078805 -10.810807477529028" fill="#ff9a0e" stroke="none" /><path d="M 88.4268655584334 117.5232005979908 l -0.8777491470490701 1.3290240821201529 a22.592717355967682,22.592717355967682 0 0,0 -0.3217888391973875,-0.21651389199161103 l 0.9004342743434633 -1.3137605160714207" fill="#ff0000" stroke="none" /><path d="M 88.1277618465304 117.32195027204791 l -0.9226517757482172 1.3461765145990303 a22.63201639322322,22.63201639322322 0 0,0 -0.3185778639272665,-0.22239209102499607 l 0.9456247308492491 -1.3301396077689052" fill="#ff0100" stroke="none" /><path d="M 87.83215693770417 117.11559508785305 l -1.0943084738955613 1.5392819125388117 a22.888623795865332,22.888623795865332 0 0,0 -0.31828156165710814,-0.23041130546562053 l 1.1205710459266234 -1.5202698357001259" fill="#ff0400" stroke="none" /><path d="M 87.54013794807813 116.9041958592261 l -1.618775478399027 2.196179831280621 a23.72830348399693,23.72830348399693 0 0,0 -0.3258088279918459,-0.2444930185353295 l 1.656237295301639 -2.1680677854812767" fill="#ff1101" stroke="none" /><path d="M 87.2517909369889 116.68781488649013 l -1.0917138273710294 1.4290884445133376 a22.7983695012746,22.7983695012746 0 0,0 -0.3089613923140124,-0.24025024739965004 l 1.11608516432027 -1.4101371454928944" fill="#ff0300" stroke="none" /><path d="M 86.68645165197938 116.24036423190432 l -3.2552172006518365 3.970835693882137 a26.13458616942281,26.13458616942281 0 0,0 -0.3445106770358981,-0.28740305973016883 l 3.322902211849627 -3.914370450240098" fill="#ff3304" stroke="none" /><path d="M 86.13680546590413 115.77377054828092 l -12.418237523768333 14.129674717628069 a39.81117568953907,39.81117568953907 0 0,0 -0.5094597729075405,-0.4555620704187742 l 12.658962323499244 -13.914417117325913" fill="#ffea16" stroke="none" /><path d="M 85.86807049272751 115.53346607816431 l -1.230825806857321 1.35289317068193 a22.82900303392416,22.82900303392416 0 0,0 -0.28761307396949765,-0.26621036745229265 l 1.2538686521407858 -1.3315650570972601" fill="#ff0300" stroke="none" /><path d="M 85.60350026404147 115.28858382429668 l -11.716523638934714 12.442542080960937 a38.0907512888755,38.0907512888755 0 0,0 -0.4721938378359776,-0.4523510151901214 l 11.928389962636006 -12.239578935465232" fill="#ffd513" stroke="none" /><path d="M 85.34317274990678 115.03919595460226 l -8.669932995249328 8.896115032535242 a33.42210130429681,33.42210130429681 0 0,0 -0.4074441895302334,-0.4039617814853964 l 8.821369104909524 -8.745973240821186" fill="#ff980e" stroke="none" /><path d="M 84.3458050057657 113.99807769240083 l -11.490900953926774 10.275234489412814 a36.41496832774475,36.41496832774475 0 0,0 -0.4126837889667393,-0.4695583965258881 l 11.665595806852105 -10.076463815075625" fill="#ffbf11" stroke="none" /><path d="M 84.1078160697243 113.72728997021213 l -11.782480436103667 10.177425973947964 a36.56942017810414,36.56942017810414 0 0,0 -0.4062783112830669,-0.4785948291191691 l 11.955453310893846 -9.973664362379239" fill="#ffc112" stroke="none" /><path d="M 83.8745106332314 113.45245675266167 l -3.63716643384063 3.0342535994167275 a25.736631141753634,25.736631141753634 0 0,0 -0.2801042337871393,-0.34168162090896975 l 3.688717486866399 -2.9713696968092624" fill="#ff2e04" stroke="none" /><path d="M 83.64595745247003 113.17365903436017 l -1.8294569158732883 1.4736809909673914 a23.349180340070816,23.349180340070816 0 0,0 -0.24876168852751995,-0.3143022670513074 l 1.85448503504237 -1.4420587800014033" fill="#ff0b01" stroke="none" /><path d="M 83.4222238831116 112.89097897827486 l -14.240604946581843 11.073580539991026 a39.03937402517835,39.03937402517835 0 0,0 -0.40684237193982736,-0.5325697246848182 l 14.428599295875966 -10.827489902065336" fill="#ffe115" stroke="none" /><path d="M 83.20337586046588 112.60449989151573 l -12.703167171683738 9.532693469071992 a36.88215038862909,36.88215038862909 0 0,0 -0.3756674991206289,-0.5096651115893571 l 12.864936690388198 -9.313222048213756" fill="#ffc512" stroke="none" /><path d="M 82.78059297857968 112.02048342749411 l -12.708185877533445 8.871300709970985 a36.49832134731604,36.49832134731604 0 0,0 -0.35422535617120593,-0.5168253808068117 l 12.858600970519976 -8.651840594094121" fill="#ffc011" stroke="none" /><path d="M 82.576782715395 111.72311816256416 l -14.148452503415879 9.519710269671435 a38.05296431298391,38.05296431298391 0 0,0 -0.3600092397910306,-0.5450998740091042 l 14.309786182127636 -9.27543051732327" fill="#ffd413" stroke="none" /><line stroke="#e1ed5e" stroke-width="0.3" x1="26.387840678322732" x2="22.057713659400548" y1="142.50000000000003" y2="145.00000000000006" /><path d="M 25.521815274538298 143.00000000000003 a86.0,86.0 0 0,1 -11.493303480769221,-40.785679425670985" fill="none" id="id45" stroke="none" /><text fill="#e1ed5e" style="font-size:6.75px; font-family:Arial;" text-anchor="middle"><textPath startOffset="21.40746469413373" xlink:href="#id45">September</textPath></text><path d="M 81.81346652052679 110.50000000000001 l -6.717177637508906 3.878164317210306 a28.756328634420605,28.756328634420605 0 0,0 -0.24315069095016428,-0.4296239726597256 l 6.782761693480448 -3.762283574451459" fill="#ff5808" stroke="none" /><path d="M 81.63589988554817 110.18625677009913 l -15.000156030743874 8.320333692826258 a38.15321059471496,38.15321059471496 0 0,0 -0.3127739348088503,-0.5754688115858163 l 15.140775315168053 -8.061610047765855" fill="#ffd614" stroke="none" /><path d="M 81.4637452351635 109.86951160357371 l -9.87970894619925 5.260388537031669 a32.19286989212971,32.19286989212971 0 0,0 -0.2555376975027294,-0.4900272288698666 l 9.968554712676928 -5.090015065057299" fill="#ff880c" stroke="none" /><path d="M 81.29705330413844 109.54985784667822 l -37.835558825863686 19.31910592551605 a63.48243596389808,63.48243596389808 0 0,0 -0.4872430732472115,-0.9748125376896019 l 38.16162181232263 -18.666761531662697" fill="#33ff55" stroke="none" /><path d="M 81.1358732173502 109.22738970284198 l -15.835194101950327 7.745786946959626 a38.62811923246869,38.62811923246869 0 0,0 -0.28625412278903684,-0.5981610211017763 l 15.965827482699277 -7.472813423792745" fill="#ffdc14" stroke="none" /><path d="M 80.9802524753101 108.90220220490708 l -16.964133064321523 7.940070843395822 a39.730364001325526,39.730364001325526 0 0,0 -0.2838177055791554,-0.6201929076312098 l 17.097935234755735 -7.647688953549923" fill="#ffe915" stroke="none" /><path d="M 80.68587082218212 108.24405325689762 l -17.776910377678984 7.587905959798454 a40.328602107518684,40.328602107518684 0 0,0 -0.26631118277544114,-0.6390498914790498 l 17.90454740499091 -7.281623558878123" fill="#fff116" stroke="none" /><path d="M 80.5471966667186 107.91128576633889 l -15.884478755903073 6.460079225305701 a38.14786543404054,38.14786543404054 0 0,0 -0.24149656085787286,-0.6087290905914656 l 15.99303399172707 -6.186449117500669" fill="#ffd614" stroke="none" /><path d="M 80.28708602549918 107.23885506374661 l -17.963061887548825 6.596285139440892 a40.13589741864013,40.13589741864013 0 0,0 -0.23194693742190017,-0.6487968651385492 l 18.07364899501467 -6.286953317921421" fill="#ffef16" stroke="none" /><path d="M 80.16572619554312 106.89939002012753 l -16.077690309093366 5.5926552773681095 a38.022629606690856,38.022629606690856 0 0,0 -0.20915085855842475,-0.6183173496559092 l 16.171326589224158 -5.3158362532380385" fill="#ffd413" stroke="none" /><path d="M 80.05021161711548 106.5578916946017 l -20.179401613640845 6.633370124249567 a42.241700701448025,42.241700701448025 0 0,0 -0.22053242202168513,-0.690814670972253 l 20.290298751439785 -6.285986419585923" fill="#f6ff19" stroke="none" /><path d="M 79.94057633289273 106.21446072829308 l -16.191682213913044 5.016224539310247 a37.95090208647098,37.95090208647098 0 0,0 -0.18744796302812855,-0.623953304774704 l 16.275406496944804 -4.73753363094482" fill="#ffd313" stroke="none" /><path d="M 79.83685265289637 105.86919833188381 l -4.798942067879538 1.3969020954286457 a25.998117689198292,25.998117689198292 0 0,0 -0.1210540548034511,-0.42957813483757945 l 4.822214614757564 -1.3143160366880706" fill="#ff3104" stroke="none" /><path d="M 79.73907114497094 105.5222062557868 l -17.594198268994877 4.795376976139008 a39.23599333932721,39.23599333932721 0 0,0 -0.17153699617265164,-0.6513539146851584 l 17.673924745972258 -4.492642557081047" fill="#ffe315" stroke="none" /><path d="M 79.64726062577567 105.17358676015961 l -19.444249025110555 4.942652066038759 a41.062617715453534,41.062617715453534 0 0,0 -0.16779451399423484,-0.6846588771147771 l 19.526231065621083 -4.6081373643158825" fill="#fffa17" stroke="none" /><path d="M 79.48165901384964 104.47187691870673 l -20.3073384822998 4.4258899050687575 a41.784044305343556,41.784044305343556 0 0,0 -0.14672624181391017,-0.7021381825770155 l 20.38032243493808 -4.0766352712063325" fill="#fbff18" stroke="none" /><path d="M 79.407916724674 104.11899336999214 l -16.575234865841914 3.3155111896945515 a37.903580251142394,37.903580251142394 0 0,0 -0.12214646720836285,-0.639121930618259 l 16.629707625332433 -3.030486694042978" fill="#ffd213" stroke="none" /><path d="M 79.2786578344484 103.40968896794605 l -9.739153389174703 1.6025739840061823 a30.870124219688755,30.870124219688755 0 0,0 -0.08155373472450765,-0.5236334796332053 l 9.76522861603748 -1.4351523224415272" fill="#ff760a" stroke="none" /><path d="M 79.22317932658666 103.0534771498775 l -13.560931423359156 1.9929899229129817 a34.70659950176857,34.70659950176857 0 0,0 -0.08156957129211465,-0.5901967840332686 l 13.593145511206483 -1.7599048306796274" fill="#ffa90f" stroke="none" /><path d="M 79.17382384314188 102.69636545807758 l -16.668873442888017 2.158119389654223 a37.80799872545863,37.80799872545863 0 0,0 -0.07780870607674789,-0.644367705081605 l 16.703464235224427 -1.8716580076492186" fill="#ffd113" stroke="none" /><path d="M 79.13060592940153 102.33845913500099 l -17.589665053090908 1.9709586577291751 a38.699745611460216,38.699745611460216 0 0,0 -0.0683098562564273,-0.6608358935747907 l 17.620907301829003 -1.668718241871453" fill="#ffdd14" stroke="none" /><path d="M 79.0935383218832 101.97986365728391 l -8.124645159663316 0.7694123437818394 a29.16099591503417,29.16099591503417 0 0,0 -0.04291717820284216,-0.49876266524974155 l 8.1366559605639 -0.6298286311564358" fill="#ff5e08" stroke="none" /><path d="M 79.06263194458094 101.62068470465958 l -7.784525073288714 0.6025714734499595 a28.807811665074684,28.807811665074684 0 0,0 -0.03393291181413094,-0.4933770905270155 l 7.793721946267912 -0.4688509587686006" fill="#ff5908" stroke="none" /><path d="M 79.03789590574601 101.26102812881392 l -17.251752852856757 1.0378226117463785 a38.28294107695514,38.28294107695514 0 0,0 -0.03383193034837959,-0.6563304104857355 l 17.267026372661707 -0.7415204078839122" fill="#ffd714" stroke="none" /><path d="M 79.01933749520258 100.90099992219065 l -8.119405132823106 0.34868219205352546 a29.12688864092338,29.12688864092338 0 0,0 -0.017164493511398832,-0.4997255004791995 l 8.124194313331353 -0.20925042701020607" fill="#ff5e08" stroke="none" /><path d="M 79.00696218219943 100.54070618675478 l -8.38490679034651 0.21596545560729294 a29.38768758125949,29.38768758125949 0 0,0 -0.008660367369221775,-0.5044229819620458 l 8.387378589314398 -0.07199555767619469" fill="#ff6109" stroke="none" /><line stroke="#e1ed5e" stroke-width="0.3" x1="15.003131293944662" x2="10.003315487706104" y1="100.72959589197737" y2="100.7725132973878" /><path d="M 14.003168132696942 100.73817937305945 a86.0,86.0 0 0,1 10.791469493833604,-42.45332614584628" fill="none" id="id46" stroke="none" /><text fill="#e1ed5e" style="font-size:6.75px; font-family:Arial;" text-anchor="middle"><textPath startOffset="22.145653131862435" xlink:href="#id46">October</textPath></text><path d="M 79.00077361379809 100.18025310272382 l -18.097635097603494 0.1553464312594888 a39.09830181646098,39.09830181646098 0 0,0 0.0,-0.671199067966606 l 18.097635097603494 0.15534643125948214" fill="#ffe215" stroke="none" /><path d="M 79.00696218219943 99.45929381324524 l -19.85274289932521 -0.5113362345593795 a40.8593269113402,40.8593269113402 0 0,0 0.024078426648849814,-0.7010171200134181 l 19.84103978567951 0.8520596191369362" fill="#fff717" stroke="none" /><path d="M 79.01933749520258 99.09900007780938 l -38.85890198945462 -1.6687684509917577 a59.89471753296411,59.89471753296411 0 0,0 0.052930988445690594,-1.0268470352191177 l 38.82452941155236 2.3355872795875876" fill="#34ff2f" stroke="none" /><path d="M 79.03789590574601 98.7389718711861 l -18.485682471282733 -1.1120527534733324 a39.519101429486184,39.519101429486184 0 0,0 0.0465498108419788,-0.6768240333631868 l 18.46386869927569 1.4292202109908443" fill="#ffe715" stroke="none" /><path d="M 79.06263194458094 98.37931529534042 l -23.49994997783449 -1.8190447523553095 a44.570247617956724,44.570247617956724 0 0,0 0.0655954709207422,-0.7623188027440124 l 23.465260884216004 2.2221846024750027" fill="#daff1c" stroke="none" /><path d="M 79.13060592940154 97.66154086499901 l -33.989699715537704 -3.8086167488551546 a55.20241582537824,55.20241582537824 0 0,0 0.11360634501900559,-0.9408235082383161 l 33.91931128425903 4.391533934016907" fill="#63ff29" stroke="none" /><path d="M 79.17382384314186 97.30363454192245 l -16.68061357594892 -2.1596393849245876 a37.81983684650505,37.81983684650505 0 0,0 0.088886491969639,-0.6431383771358505 l 16.641082567424075 2.445666070260505" fill="#ffd113" stroke="none" /><path d="M 79.22317932658666 96.9465228501225 l -18.120822684209475 -2.6631369097784634 a39.31547195550213,39.31547195550213 0 0,0 0.10386493904624036,-0.666887416356786 l 18.072436253024968 2.9738125080666995" fill="#ffe415" stroke="none" /><path d="M 79.407916724674 95.88100663000787 l -17.172809410358976 -3.4350428346491464 a38.5129923862368,38.5129923862368 0 0,0 0.1352398200745159,-0.6471714964225364 l 17.111311879460093 3.729330782357092" fill="#ffda14" stroke="none" /><path d="M 79.48165901384962 95.52812308129327 l -16.639002831910215 -3.626393223727946 a38.02959609190471,38.02959609190471 0 0,0 0.14449279559443765,-0.6366619180990938 l 16.574299174758117 3.9114894757660483" fill="#ffd413" stroke="none" /><path d="M 79.64726062577567 94.8264132398404 l -15.685246377763994 -3.9871282925487654 a37.18407074726261,37.18407074726261 0 0,0 0.16256613529047592,-0.6172900947274945 l 15.614490761668792 4.255798891649045" fill="#ffc912" stroke="none" /><path d="M 79.73907114497095 94.47779374421319 l -18.238188551091113 -4.970899391221931 a39.90347487587405,39.90347487587405 0 0,0 0.18580104499176167,-0.6593423614601663 l 18.15016901402477 5.283249676585109" fill="#ffec16" stroke="none" /><path d="M 79.83685265289637 94.1308016681162 l -16.25403183504237 -4.7313117783826755 a37.928640289132304,37.928640289132304 0 0,0 0.1873380070498761,-0.6235872970843455 l 16.170417507988862 5.009636679057745" fill="#ffd313" stroke="none" /><path d="M 80.05021161711548 93.44210830539832 l -18.113169916642548 -5.954158724869859 a40.06669689668634,40.06669689668634 0 0,0 0.22039464766707403,-0.6515576142652233 l 18.00828984740311 6.264218013609244" fill="#ffee16" stroke="none" /><path d="M 80.28708602549916 92.7611449362534 l -8.13018059201535 -2.9855149281234015 a29.661012402994857,29.661012402994857 0 0,0 0.17961765069811378,-0.4764571583373835 l 8.0777322575028 3.12464036665493" fill="#ff6509" stroke="none" /><path d="M 80.41425534168474 92.42381321644754 l -15.401714636066155 -5.957714087744468 a37.513847852094415,37.513847852094415 0 0,0 0.23748288764649408,-0.5986120121733933 l 15.297173073453529 6.221227117131444" fill="#ffcd13" stroke="none" /><path d="M 80.5471966667186 92.08871423366112 l -18.67964242209247 -7.596847954626993 a41.165345022165056,41.165345022165056 0 0,0 0.2718366407292008,-0.6523089790957346 l 18.546479936826792 7.916389443163991" fill="#fffb17" stroke="none" /><path d="M 80.9802524753101 91.09779779509293 l -30.842646315449553 -14.435915812139074 a55.053847023135006,55.053847023135006 0 0,0 0.4079771679001022,-0.8525153697687962 l 30.590289889589545 14.963243683972957" fill="#65ff29" stroke="none" /><path d="M 81.29705330413844 90.45014215332179 l -14.952381337571923 -7.634792450899318 a37.78879874894206,37.78879874894206 0 0,0 0.29995656355135836,-0.5752062613651336 l 14.819116705045625 7.890344955368938" fill="#ffd113" stroke="none" /><path d="M 81.46374523516351 90.13048839642627 l -12.004367828208867 -6.391649719814349 a34.599927687151094,34.599927687151094 0 0,0 0.28364468830074513,-0.5218742789063234 l 11.89287779029277 6.596778832195292" fill="#ffa80f" stroke="none" /><path d="M 81.63589988554816 89.8137432299009 l -7.01238835003695 -3.889653610029894 a29.018914862857226,29.018914862857226 0 0,0 0.24537100299661616,-0.4335470512996146 l 6.944583982018965 4.009457431428614" fill="#ff5c08" stroke="none" /><line stroke="#e1ed5e" stroke-width="0.3" x1="26.387840678322718" x2="22.05771365940052" y1="57.49999999999999" y2="54.99999999999999" /><path d="M 25.521815274538284 56.99999999999999 a86.0,86.0 0 0,1 29.574782752854787,-30.34633250058573" fill="none" id="id47" stroke="none" /><text fill="#e1ed5e" style="font-size:6.75px; font-family:Arial;" text-anchor="middle"><textPath startOffset="21.40746469413373" xlink:href="#id47">November</textPath></text><path d="M 81.81346652052679 89.5 l -7.179219360544395 -4.1449242303816805 a29.28984846076336,29.28984846076336 0 0,0 0.2551373004661159,-0.4332789145330682 l 7.1070083499485 4.267554313208321" fill="#ff6008" stroke="none" /><path d="M 81.99639281039701 89.18935116829357 l -25.41744228710227 -15.262443790970485 a50.64774127805874,50.64774127805874 0 0,0 0.4539774969764577,-0.7415381235776172 l 25.151696825670417 15.696519030672645" fill="#94ff23" stroke="none" /><path d="M 82.18462484594161 88.88188828441811 l -30.740201102238295 -19.184159023240223 a57.235230387497495,57.235230387497495 0 0,0 0.5273335474141441,-0.8290559243091654 l 30.406349863198262 19.70902862222806" fill="#4eff2b" stroke="none" /><path d="M 82.78059297857968 87.97951657250589 l -6.680136138507682 -4.66325383019565 a29.14678802435848,29.14678802435848 0 0,0 0.28992018783980494,-0.4078090518965119 l 6.599100852137905 4.777240108801682" fill="#ff5e08" stroke="none" /><path d="M 83.42222388311158 87.10902102172516 l -13.40979631769036 -10.427538725063933 a37.98694207750912,37.98694207750912 0 0,0 0.4047121019053984,-0.511340519856189 l 13.228817785143399 10.656199188834805" fill="#ffd413" stroke="none" /><path d="M 83.64595745247003 86.82634096563983 l -16.973248123412972 -13.672447215028638 a42.7951133217216,42.7951133217216 0 0,0 0.4657599652725121,-0.5681514261214483 l 16.73604133890183 13.96180092284858" fill="#efff19" stroke="none" /><path d="M 83.8745106332314 86.54754324733833 l -6.455696732586896 -5.385571819134653 a29.407163857222628,29.407163857222628 0 0,0 0.32670719998700626,-0.38486026009112384 l 6.362294969092775 5.495598861675333" fill="#ff6209" stroke="none" /><path d="M 84.10781606972428 86.27271002978789 l -10.320010046364782 -8.914178883373506 a34.63690553321582,34.63690553321582 0 0,0 0.3925333474103225,-0.4466308930002231 l 10.165465634995869 9.09002205418503" fill="#ffa80f" stroke="none" /><path d="M 84.34580500576568 86.00192230759919 l -11.975366594395704 -10.708446652483504 a37.06487580964303,37.06487580964303 0 0,0 0.4281916233061956,-0.4706576021454158 l 11.789777270247642 10.912441830186578" fill="#ffc812" stroke="none" /><path d="M 84.83555147118756 85.47280134310135 l -11.362405507270138 -10.884927447953755 a36.73486270861172,36.73486270861172 0 0,0 0.44014172930475676,-0.45162418863670944 l 11.17387697681458 11.078374328658194" fill="#ffc312" stroke="none" /><path d="M 85.34317274990677 84.96080404539775 l -15.85022518659863 -16.2637273700768 a43.70987596694599,43.70987596694599 0 0,0 0.541851588267195,-0.5190815643811661 l 15.568701112466135 16.533421064763537" fill="#e4ff1a" stroke="none" /><path d="M 85.86807049272753 84.46653392183569 l -11.057242539504426 -12.153846494708226 a37.43102544561226,37.43102544561226 0 0,0 0.4790012199571213,-0.42832584455375194 l 10.846976292723912 12.341867869145378" fill="#ffcc13" stroke="none" /><path d="M 86.13680546590413 84.22622945171909 l -11.167557615116019 -12.706630565725929 a37.91664279402909,37.91664279402909 0 0,0 0.4925922958434883,-0.42548949293583815 l 10.947785839509681 12.896464191126478" fill="#ffd313" stroke="none" /><path d="M 86.40962598614128 83.9905735841838 l -10.0786704052771 -11.87264839496017 a36.57367577190943,36.57367577190943 0 0,0 0.4821205784621564,-0.40220213376569913 l 9.873375492653034 12.04391271263775" fill="#ffc112" stroke="none" /><path d="M 86.68645165197937 83.75963576809568 l -8.485451091825352 -10.350870616978836 a34.38444630013494,34.38444630013494 0 0,0 0.4596860385963958,-0.37029053322594135 l 8.30651428287371 10.495009443998176" fill="#ffa50f" stroke="none" /><path d="M 86.96720088162412 83.53348406188908 l -11.382347049911552 -14.381223665621514 a39.340594823649056,39.340594823649056 0 0,0 0.5331400980449853,-0.4145729649088355 l 11.13379700723132 14.574497682151154" fill="#ffe515" stroke="none" /><path d="M 87.25179093698888 83.31218511350988 l -20.287866650441146 -26.557468694696034 a54.42000413967422,54.42000413967422 0 0,0 0.7472307398637879,-0.5607358777161812 l 19.828982921666608 26.901823599676213" fill="#6bff28" stroke="none" /><path d="M 87.54013794807813 83.09580414077388 l -8.217809899114595 -11.149037404237815 a34.85039474452189,34.85039474452189 0 0,0 0.4846179553030316,-0.3508260269683627 l 8.025210933437595 11.288464202579256" fill="#ffab0f" stroke="none" /><path d="M 87.83215693770416 82.88440491214696 l -7.596011456101153 -10.684741387582442 a34.10965630978696,34.10965630978696 0 0,0 0.48014199254994155,-0.33517640050618625 l 7.411474372377445 10.813562603893756" fill="#ffa10e" stroke="none" /><path d="M 88.4268655584334 82.4767994020092 l -4.516818978182176 -6.8390396239779685 a29.195981738633108,29.195981738633108 0 0,0 0.4205811407760957,-0.2726156141338796 l 4.398752205149054 6.9155690798157545" fill="#ff5f08" stroke="none" /><path d="M 88.72937992617638 82.28071324371311 l -7.794739435111404 -12.254625063802687 a35.52356011161388,35.52356011161388 0 0,0 0.5173513788203307,-0.32286552352642756 l 7.583223927501375 12.38662638417065" fill="#ffb410" stroke="none" /><line stroke="#e1ed5e" stroke-width="0.3" x1="56.869717070023135" x2="54.33264160355391" y1="26.7553504044142" y2="22.446841604673864" /><path d="M 56.362301976729285 25.89364864446614 a86.0,86.0 0 0,1 42.16139366436587,-11.88097634709845" fill="none" id="id48" stroke="none" /><text fill="#e1ed5e" style="font-size:6.75px; font-family:Arial;" text-anchor="middle"><textPath startOffset="22.145653131862474" xlink:href="#id48">December</textPath></text><path d="M 89.97174638481275 81.54914285379989 l -6.391612703922891 -11.759847472875961 a34.38457042800611,34.38457042800611 0 0,0 0.5210264225983899,-0.27741722310367795 l 6.188797465537939 11.867835163702214" fill="#ffa50f" stroke="none" /><path d="M 90.61103034731259 81.2157712731953 l -6.945137535930944 -13.894927435056989 a36.53396098290762,36.53396098290762 0 0,0 0.5633880389606991,-0.2755813215903377 l 6.705589247708192 14.012102506744542" fill="#ffc111" stroke="none" /><path d="M 90.93487009805054 81.0573650232925 l -4.178172509089033 -8.730773586859176 a30.679025412752317,30.679025412752317 0 0,0 0.4770022878421906,-0.2232611559676138 l 4.02768150737532 8.801210974397332" fill="#ff730a" stroke="none" /><path d="M 91.26138138417902 80.90454125486306 l -9.100746888115323 -19.886774373847988 a42.87023980019144,42.87023980019144 0 0,0 0.6718105397432675,-0.3004923093420776 l 8.758022945516437 20.04007043409991" fill="#eeff19" stroke="none" /><path d="M 91.5904679813234 80.7573450057729 l -6.4335478707916645 -14.72121656609977 a37.06563896618427,37.06563896618427 0 0,0 0.5852221808372773,-0.24979654953748945 l 6.1798906147839565 14.829487765296664" fill="#ffc812" stroke="none" /><path d="M 92.25597844496254 80.48000691201159 l -2.9606119448313395 -7.462676115839406 a29.028496615045555,29.028496615045555 0 0,0 0.46477074952814323,-0.1797833103303493 l 2.832068932809667 7.512399314307796" fill="#ff5c08" stroke="none" /><path d="M 92.592206182469 80.34994680014964 l -5.547892524975931 -14.716444051781687 a36.72745487985594,36.72745487985594 0 0,0 0.5918556744512772,-0.21733760171381772 l 5.294447698870527 14.809512502504228" fill="#ffc312" stroke="none" /><path d="M 92.93061703081487 80.22567764915836 l -4.222390491621532 -11.810777692537034 a33.5428486065274,33.5428486065274 0 0,0 0.5438641114138499,-0.18918416976532063 l 4.019020608162678 11.88152029487094" fill="#ff9a0e" stroke="none" /><path d="M 93.95794788825049 79.88797359093562 l -0.5387696328172417 -1.7933888823220927 a22.872569464794967,22.872569464794967 0 0,0 0.3770052814925985,-0.10974074290865307 l 0.5079043389430189 1.8023733195332663" fill="#ff0400" stroke="none" /><path d="M 94.30408787586887 79.78721728523814 l -2.214685034751334 -7.859135887896464 a29.165221779448103,29.165221779448103 0 0,0 0.483057456226527,-0.13165945775563115 l 2.079446177590129 7.895995839796234" fill="#ff5e08" stroke="none" /><path d="M 94.6519064749342 79.69241777938228 l -3.9594988811016556 -15.034862180991187 a36.547498583079026,36.547498583079026 0 0,0 0.6080715500371812,-0.1545694101741532 l 3.700822037839096 15.100616823000601" fill="#ffc111" stroke="none" /><path d="M 95.00130118170881 79.60360301121753 l -3.7081123789140618 -15.130363902421454 a36.578125985957165,36.578125985957165 0 0,0 0.6111470611868176,-0.14422904237291526 l 3.4478331639873385 15.191789088440602" fill="#ffc112" stroke="none" /><path d="M 95.35216902796891 79.52079915486377 l -1.7595484218017072 -7.752895004930181 a28.95005607565986,28.95005607565986 0 0,0 0.4855856090872113,-0.1058311234226485 l 1.6262003960953775 7.781957586486544" fill="#ff5b08" stroke="none" /><path d="M 96.05791012581881 79.37332000966035 l -3.7698004871616657 -19.725189114888313 a41.082193140469315,41.082193140469315 0 0,0 0.6938298560224879,-0.1264389124558588 l 3.4306358975881395 19.786996201275535" fill="#fffa17" stroke="none" /><path d="M 97.12497278360702 79.19773525538626 l -1.7869830032752607 -12.929718827112405 a34.05262185165033,34.05262185165033 0 0,0 0.5797413111776747,-0.07505911955735493 l 1.564763870206792 12.958489542870154" fill="#ffa00e" stroke="none" /><path d="M 97.48249496171623 79.15144685158666 l -2.5680708671024073 -21.267310749127997 a42.421799515410356,42.421799515410356 0 0,0 0.7237241788504829,-0.08109480378437624 l 2.202610786651125 21.308261313419344" fill="#f3ff19" stroke="none" /><path d="M 98.1996594967304 79.07731436759882 l -1.8798290948545735 -21.84646355667413 a42.92719150641396,42.92719150641396 0 0,0 0.734731599744149,-0.05687287258759063 l 1.5045285003352074 21.875514196256773" fill="#edff19" stroke="none" /><path d="M 98.5590905019552 79.04949213459386 l -0.2619065190819824 -3.808063306872294 a24.817059231120837,24.817059231120837 0 0,0 0.42526471084673867,-0.025582868979104022 l 0.19649745610275998 3.8119981536760923" fill="#ff2103" stroke="none" /><path d="M 98.9189461498227 79.02784411241856 l -3.24316155053188 -62.91646766274432 a84.0,84.0 0 0,0 1.4406969575967197,-0.061869726296685634 l 2.1626388323343404 62.96286995746683" fill="#4dd2ff" stroke="none" /><path d="M 99.63950707515114 79.00309439819443 l -0.19214721675998236 -11.191612078518745 a32.19326143127888,32.19326143127888 0 0,0 0.5526401416088318,-0.004743750954567638 l 2.7415583567670396e-15 11.193261431278877" fill="#ff880c" stroke="none" /></svg>