<?xml version="1.0" encoding="utf-8" ?>
<svg baseProfile="full" height="200mm" version="1.1" viewBox="0,0,200,200" width="200mm" xmlns="http://www.w3.org/2000/svg" xmlns:ev="http://www.w3.org/2001/xml-events" xmlns:xlink="http://www.w3.org/1999/xlink"><defs /><rect fill="#1a1a1a" height="200" width="200" x="0" y="0" /><text alignment-baseline="middle" fill="#e1ed5e" style="dominant-baseline: central; font-size:9.0px; font-family:Arial;" text-anchor="middle" x="100.0" y="100.0">2025</text><line stroke="#e1ed5e" stroke-width="0.3" x1="100.0" x2="100.0" y1="15.0" y2="10.0" /><path d="M 100.0 14.0 a86.0,86.0 0 0,1 42.46469731375804,11.215312516191453" fill="none" id="id49" stroke="none" /><text fill="#e1ed5e" style="font-size:6.75px; font-family:Arial;" text-anchor="middle"><textPath startOffset="22.20632615414155" xlink:href="#id49">January</textPath></text><path d="M 100.0 79.0 l 0.0 -4.028439418368883 a25.028439418368883,25.028439418368883 0 0,0 0.4308234417331155,0.0037082333788116995 l -0.06934296246058712 4.02784256159863" fill="#ff0000" stroke="none" /><path d="M 100.72285384407766 79.0124445844662 l 0.8828553262351166 -25.633086460100504 a46.6482856151839,46.6482856151839 0 0,0 0.8022598096783113,0.03454699500308626 l -1.3239559683027595 25.614091738573222" fill="#d3ff1c" stroke="none" /><path d="M 101.08401301168833 79.027996857942 l 1.5674439523740915 -30.324764684319675 a51.36524713719939,51.36524713719939 0 0,0 0.8825966922778103,0.053240642745215526 l -2.0892026934915138 30.293290772194155" fill="#9bff22" stroke="none" /><path d="M 101.44485096284872 79.0497635885617 l 4.334552888546152 -62.8507092343149 a84.0,84.0 0 0,0 1.4416392425506352,0.11189895124614191 l -5.415782320459128 62.76678502088029" fill="#4dd2ff" stroke="none" /><path d="M 101.80526077348638 79.07773832637324 l 1.0924983621379687 -12.661625924833034 a33.70867120243805,33.70867120243805 0 0,0 0.5776620840444827,0.05485597540286729 l -1.3102855732726955 12.64094440491499" fill="#ff800b" stroke="none" /><path d="M 102.16513564639614 79.11191278185805 l 3.026821729723993 -29.20118025375419 a50.35763236359112,50.35763236359112 0 0,0 0.8614351560675325,0.09679227694449381 l -3.5290235893012514 29.144752023339095" fill="#a7ff21" stroke="none" /><path d="M 102.88285421437855 79.19881850522331 l 2.3942677859925428 -17.275795118298717 a38.44091784283371,38.44091784283371 0 0,0 0.6546506972090904,0.09647849543963635 l -2.691287463630289 17.23202213869811" fill="#ffc112" stroke="none" /><path d="M 103.95276090670814 79.375362276772 l 9.349517491594284 -48.78372755201766 a70.67157689458946,70.67157689458946 0 0,0 1.1927800355890232,0.23926045404717533 l -10.187863936650434 48.61556314189327" fill="#3cffa1" stroke="none" /><path d="M 107.4271985657038 80.35727306442388 l 9.34174533139228 -24.706132604769444 a47.41327685314795,47.41327685314795 0 0,0 0.7609082143829747,0.2952205657622166 l -9.765636710774922 24.54166933511668" fill="#caff1d" stroke="none" /><path d="M 107.76421540070413 80.48803036053334 l 5.451415805944449 -13.699756409134434 a35.74453322282265,35.74453322282265 0 0,0 0.5697272306529774,0.23240604238218157 l -5.6864269061858135 13.603889480568673" fill="#ff9c0e" stroke="none" /><path d="M 108.09893153111575 80.62456947434976 l 5.809006175758066 -13.897141264752472 a36.06237325531675,36.06237325531675 0 0,0 0.5706720173985667,0.24433197569278547 l -6.047361950946947 13.795089761096897" fill="#ffa10e" stroke="none" /><path d="M 108.76106565485865 80.91482961587045 l 6.255709385095529 -13.627483709351651 a35.99473948287922,35.99473948287922 0 0,0 0.5608696684472725,0.2633358297771772 l -6.4893572648424 13.517782896934472" fill="#ffa00e" stroke="none" /><path d="M 109.41281617654863 81.2277094730956 l 14.582195672593157 -29.081754976591807 a53.53288956044816,53.53288956044816 0 0,0 0.8201736088163614,0.42012477815153637 l -15.080629768998273 28.82643767312777" fill="#82ff25" stroke="none" /><path d="M 109.73455568895987 81.39251694778311 l 28.486201212479283 -54.45102203117448 a82.4522372233697,82.4522372233697 0 0,0 1.251919250642581,0.6687319069839905 l -29.419265509650174 53.95261139768874" fill="#4be1ff" stroke="none" /><path d="M 110.05341064243156 81.56283822128135 l 14.533678320834804 -26.6536191519058 a51.35857736173326,51.35857736173326 0 0,0 0.772520828957231,0.429907004924144 l -14.99032323886407 26.399496749421473" fill="#9bff22" stroke="none" /><path d="M 110.36928655335952 81.73862282372117 l 17.4337105625613 -30.702552439527498 a56.30695385162953,56.30695385162953 0 0,0 0.8387142452244611,0.485837426092648 l -17.959621540251085 30.3979108560448" fill="#64ff29" stroke="none" /><line stroke="#e1ed5e" stroke-width="0.3" x1="143.23703022742887" x2="145.7803849466894" y1="26.81831364943548" y2="22.513508569990506" /><path d="M 143.74570117128098 25.957352633546492 a86.0,86.0 0 0,1 28.547481713284135,27.462654790039103" fill="none" id="id50" stroke="none" /><text fill="#e1ed5e" style="font-size:6.75px; font-family:Arial;" text-anchor="middle"><textPath startOffset="19.985693538727396" xlink:href="#id50">February</textPath></text><path d="M 110.68208982089419 81.91981866633111 l 17.828628480473572 -30.176195974973773 a56.049433619029806,56.049433619029806 0 0,0 0.826430038831813,0.4979148514073488 l -18.345420585523023 29.86483451410781" fill="#66ff29" stroke="none" /><path d="M 110.99172775467656 82.1063720568725 l 18.345102118326455 -29.86431607572809 a56.048825178639255,56.048825178639255 0 0,0 0.817727931750968,0.5120611558439516 l -18.85644920244969 29.544110578561195" fill="#66ff29" stroke="none" /><path d="M 111.2981086023043 82.29822771554956 l 15.775460378935625 -24.7168457252512 a50.32213520146915,50.32213520146915 0 0,0 0.7261555380469891,0.47231176127615504 l -16.198582942766894 24.44163503981552" fill="#a7ff21" stroke="none" /><path d="M 111.90073688211348 82.69761687909136 l 18.17829513038257 -26.429273241353233 a53.07735802576953,53.07735802576953 0 0,0 0.7483120430761973,0.5242404076471368 l -18.63053831304242 26.11244799094216" fill="#88ff25" stroke="none" /><path d="M 112.19680574252982 82.90503203632743 l 16.903103246963706 -23.691285619636318 a50.10312549690671,50.10312549690671 0 0,0 0.697756843661156,0.5069500211266146 l -17.30840540697865 23.39681636369303" fill="#aaff21" stroke="none" /><path d="M 112.48926042617603 83.11751280151076 l 17.36156561625284 -23.46867622744121 a50.19251144584715,50.19251144584715 0 0,0 0.6901562253578454,0.5198113605004586 l -17.76296799536907 23.166348277434903" fill="#a9ff21" stroke="none" /><path d="M 113.06298171725822 83.55741782278167 l 20.775470790610697 -26.150414441268467 a54.39856826305015,54.39856826305015 0 0,0 0.7281548886524252,0.5887839468453488 l -21.222529077827616 25.78892439715899" fill="#79ff26" stroke="none" /><path d="M 113.34407831869373 83.78471172551755 l 18.969278065578614 -23.050847338123592 a50.85255555785336,50.85255555785336 0 0,0 0.671114404725086,0.5620390137402029 l -19.363250007262817 22.72090716698957" fill="#a1ff22" stroke="none" /><path d="M 113.6212207817346 84.01681056812373 l 9.608909858719176 -11.275129371052898 a35.81417196494527,35.81417196494527 0 0,0 0.4657653552360836,0.40390712633270653 l -9.801569012602023 11.108057251300522" fill="#ff9d0e" stroke="none" /><path d="M 113.89432698308785 84.25364557470407 l 10.850496207654894 -12.296799923021016 a37.3995291487025,37.3995291487025 0 0,0 0.4790505909564033,0.4300963505225337 l -11.060557786207287 12.108204563729185" fill="#ffb310" stroke="none" /><path d="M 114.16331599549186 84.49514656593476 l 26.449157133133568 -28.954399162902792 a60.216261218248434,60.216261218248434 0 0,0 0.7592757732353476,0.7056640823591629 l -26.943640790163762 28.49483049446899" fill="#3aff2e" stroke="none" /><path d="M 114.94478906791727 85.2469230424477 l 28.156301226753822 -27.795111523525378 a60.564447719852126,60.564447719852126 0 0,0 0.7260112304843587,0.7482183912029943 l -28.630576720941292 27.30632893677227" fill="#37ff2e" stroke="none" /><path d="M 115.19652480421416 85.50635884689758 l 20.987911372929677 -20.017159180236014 a50.00308751572594,50.00308751572594 0 0,0 0.5886855826789636,0.6279687346866695 l -21.329364277579103 19.652921028671287" fill="#abff21" stroke="none" /><line stroke="#e1ed5e" stroke-width="0.3" x1="172.23445277983987" x2="176.4835382374775" y1="55.19839476539836" y2="52.563006222186495" /><path d="M 173.08426987136738 54.67131705675599 a86.0,86.0 0 0,1 12.851231095245387,41.99856678651699" fill="none" id="id51" stroke="none" /><text fill="#e1ed5e" style="font-size:6.75px; font-family:Arial;" text-anchor="middle"><textPath startOffset="22.20632615414155" xlink:href="#id51">March</textPath></text><line stroke="#e1ed5e" stroke-width="0.3" x1="184.98032266829074" x2="189.97916517819016" y1="98.17113171792111" y2="98.06355123074" /><path d="M 185.9800911702706 98.14961562048488 a86.0,86.0 0 0,1 -9.607161424134198,41.387399972396054" fill="none" id="id52" stroke="none" /><text fill="#e1ed5e" style="font-size:6.75px; font-family:Arial;" text-anchor="middle"><textPath startOffset="21.466115282336823" xlink:href="#id52">April</textPath></text><line stroke="#e1ed5e" stroke-width="0.3" x1="174.80103733775053" x2="179.2010983576182" y1="140.37084112569926" y2="142.7455964860345" /><path d="M 175.68104954172406 140.8457921977663 a86.0,86.0 0 0,1 -30.038265399797805,32.042727171017184" fill="none" id="id53" stroke="none" /><text fill="#e1ed5e" style="font-size:6.75px; font-family:Arial;" text-anchor="middle"><textPath startOffset="22.206326154141568" xlink:href="#id53">May</textPath></text><line stroke="#e1ed5e" stroke-width="0.3" x1="143.8653032363475" x2="146.44561519142675" y1="172.8068346515853" y2="177.08958963109032" /><path d="M 144.38136562736335 173.6633856474863 a86.0,86.0 0 0,1 -40.68145358897372,12.25698825130547" fill="none" id="id54" stroke="none" /><text fill="#e1ed5e" style="font-size:6.75px; font-family:Arial;" text-anchor="middle"><textPath startOffset="21.466115282336833" xlink:href="#id54">June</textPath></text><line stroke="#e1ed5e" stroke-width="0.3" x1="102.19456741930631" x2="102.32365962044197" y1="184.97166512339345" y2="189.96999836594603" /><path d="M 102.22038585953345 185.97133177190398 a86.0,86.0 0 0,1 -42.740103519485714,-10.115201625700543" fill="none" id="id55" stroke="none" /><text fill="#e1ed5e" style="font-size:6.75px; font-family:Arial;" text-anchor="middle"><textPath startOffset="22.20632615414155" xlink:href="#id55">July</textPath></text><line stroke="#e1ed5e" stroke-width="0.3" x1="58.666819895761336" x2="56.23545636021788" y1="174.27360380694188" y2="178.64263932499728" /><path d="M 58.180547188652646 175.14741091055294 a86.0,86.0 0 0,1 -31.652253787137756,-30.449443065178592" fill="none" id="id56" stroke="none" /><text fill="#e1ed5e" style="font-size:6.75px; font-family:Arial;" text-anchor="middle"><textPath startOffset="22.20632615414155" xlink:href="#id56">August</textPath></text><line stroke="#e1ed5e" stroke-width="0.3" x1="26.63291911575756" x2="22.317208475507996" y1="142.92168965132927" y2="145.44649492493687" /><path d="M 25.769776987707644 143.4266507060508 a86.0,86.0 0 0,1 -11.730757126820373,-40.83630448921669" fill="none" id="id57" stroke="none" /><text fill="#e1ed5e" style="font-size:6.75px; font-family:Arial;" text-anchor="middle"><textPath startOffset="21.46611528233685" xlink:href="#id57">September</textPath></text><line stroke="#e1ed5e" stroke-width="0.3" x1="15.007084014347285" x2="10.007500721073583" y1="101.09737516637583" y2="101.16192664675087" /><path d="M 14.007167355692545 101.11028546245083 a86.0,86.0 0 0,1 10.666146001902534,-42.60595125391555" fill="none" id="id58" stroke="none" /><text fill="#e1ed5e" style="font-size:6.75px; font-family:Arial;" text-anchor="middle"><textPath startOffset="22.20632615414155" xlink:href="#id58">October</textPath></text><line stroke="#e1ed5e" stroke-width="0.3" x1="26.266209847984243" x2="21.928928074336255" y1="57.711370442889674" y2="55.22380399835377" /><path d="M 25.398753493254645 57.213857153982495 a86.0,86.0 0 0,1 29.58750427330803,-30.492523968695096" fill="none" id="id59" stroke="none" /><text fill="#e1ed5e" style="font-size:6.75px; font-family:Arial;" text-anchor="middle"><textPath startOffset="21.46611528233685" xlink:href="#id59">November</textPath></text><line stroke="#e1ed5e" stroke-width="0.3" x1="56.762969772571076" x2="54.21961505331055" y1="26.818313649435495" y2="22.513508569990535" /><path d="M 56.25429882871897 25.957352633546506 a86.0,86.0 0 0,1 42.265352541879196,-11.944610805530505" fill="none" id="id60" stroke="none" /><text fill="#e1ed5e" style="font-size:6.75px; font-family:Arial;" text-anchor="middle"><textPath startOffset="22.20632615414155" xlink:href="#id60">December</textPath></text></svg>