<?xml version="1.0" encoding="utf-8" ?>
<svg baseProfile="full" height="200mm" version="1.1" viewBox="0,0,200,200" width="200mm" xmlns="http://www.w3.org/2000/svg" xmlns:ev="http://www.w3.org/2001/xml-events" xmlns:xlink="http://www.w3.org/1999/xlink"><defs /><rect fill="#1a1a1a" height="200" width="200" x="0" y="0" /><text alignment-baseline="middle" fill="#e1ed5e" style="dominant-baseline: central; font-size:9.0px; font-family:Arial;" text-anchor="middle" x="100.0" y="100.0">2022</text><line stroke="#e1ed5e" stroke-width="0.3" x1="100.0" x2="100.0" y1="15.0" y2="10.0" /><path d="M 100.0 14.0 a86.0,86.0 0 0,1 42.46469731375804,11.215312516191453" fill="none" id="id13" stroke="none" /><text fill="#e1ed5e" style="font-size:6.75px; font-family:Arial;" text-anchor="middle"><textPath startOffset="22.20632615414155" xlink:href="#id13">January</textPath></text><line stroke="#e1ed5e" stroke-width="0.3" x1="143.23703022742887" x2="145.7803849466894" y1="26.81831364943548" y2="22.513508569990506" /><path d="M 143.74570117128098 25.957352633546492 a86.0,86.0 0 0,1 28.547481713284135,27.462654790039103" fill="none" id="id14" stroke="none" /><text fill="#e1ed5e" style="font-size:6.75px; font-family:Arial;" text-anchor="middle"><textPath startOffset="19.985693538727396" xlink:href="#id14">February</textPath></text><line stroke="#e1ed5e" stroke-width="0.3" x1="172.23445277983987" x2="176.4835382374775" y1="55.19839476539836" y2="52.563006222186495" /><path d="M 173.08426987136738 54.67131705675599 a86.0,86.0 0 0,1 12.851231095245387,41.99856678651699" fill="none" id="id15" stroke="none" /><text fill="#e1ed5e" style="font-size:6.75px; font-family:Arial;" text-anchor="middle"><textPath startOffset="22.20632615414155" xlink:href="#id15">March</textPath></text><line stroke="#e1ed5e" stroke-width="0.3" x1="184.98032266829074" x2="189.97916517819016" y1="98.17113171792111" y2="98.06355123074" /><path d="M 185.9800911702706 98.14961562048488 a86.0,86.0 0 0,1 -9.607161424134198,41.387399972396054" fill="none" id="id16" stroke="none" /><text fill="#e1ed5e" style="font-size:6.75px; font-family:Arial;" text-anchor="middle"><textPath startOffset="21.466115282336823" xlink:href="#id16">April</textPath></text><line stroke="#e1ed5e" stroke-width="0.3" x1="174.80103733775053" x2="179.2010983576182" y1="140.37084112569926" y2="142.7455964860345" /><path d="M 175.68104954172406 140.8457921977663 a86.0,86.0 0 0,1 -30.038265399797805,32.042727171017184" fill="none" id="id17" stroke="none" /><text fill="#e1ed5e" style="font-size:6.75px; font-family:Arial;" text-anchor="middle"><textPath startOffset="22.206326154141568" xlink:href="#id17">May</textPath></text><path d="M 113.48314897796784 116.09983520530334 l 10.494913758985332 12.531670627509513 a37.34582465111272,37.34582465111272 0 0,0 -0.49639691591702856,0.40850086726973833 l -10.277646714523613 -12.710466613636429" fill="#ffbc11" stroke="none" /><path d="M 113.20401910651253 116.32954008644616 l 9.829246301222598 12.155925419420308 a36.632677494677836,36.632677494677836 0 0,0 -0.49374308983667997,0.39225937179717674 l -9.618545718668567 -12.32331870522261" fill="#ffb210" stroke="none" /><path d="M 112.92097659922987 116.55440617244103 l 10.025559844564718 12.844786808369514 a37.29418296047433,37.29418296047433 0 0,0 -0.5094585564603595,0.3906310966664935 l -9.802972559610865 -13.01545724686338" fill="#ffbb11" stroke="none" /><path d="M 112.63410532772338 116.77436683061366 l 11.83724471014889 15.716370877173848 a40.67548413322595,40.67548413322595 0 0,0 -0.5629003345055561,0.4164202104208075 l -11.56495940522477 -15.917801036334424" fill="#ffe715" stroke="none" /><path d="M 112.34349029814194 116.9893568818739 l 11.712394208291004 16.120727633723018 a40.92631520204098,40.92631520204098 0 0,0 -0.5734998159906389,0.40917689134479357 l -11.43316706445148 -16.31994878691203" fill="#ffeb16" stroke="none" /><path d="M 111.7513745106137 117.40417183066458 l 1.7504013547649848 2.5924019291056446 a24.12801097581095,24.12801097581095 0 0,0 -0.3462085798138898,0.2294481685238017 l -1.705518076211131 -2.6221481187207645" fill="#ff0000" stroke="none" /><path d="M 111.45004920935366 117.60387380957326 l 9.47554736209439 14.568176694182112 a38.378658463880484,38.378658463880484 0 0,0 -0.55688931652238,0.35543311011065515 l -9.223376243525081 -14.729124233116575" fill="#ffca12" stroke="none" /><path d="M 111.1453310114006 117.79835938074945 l 13.204032468620811 21.085969982515984 a45.87899924707499,45.87899924707499 0 0,0 -0.672937431161383,0.4133731327580354 l -12.83911583752712 -21.310131582102397" fill="#d6ff1c" stroke="none" /><line stroke="#e1ed5e" stroke-width="0.3" x1="143.8653032363475" x2="146.44561519142675" y1="172.8068346515853" y2="177.08958963109032" /><path d="M 144.38136562736335 173.6633856474863 a86.0,86.0 0 0,1 -40.68145358897372,12.25698825130547" fill="none" id="id18" stroke="none" /><text fill="#e1ed5e" style="font-size:6.75px; font-family:Arial;" text-anchor="middle"><textPath startOffset="21.466115282336833" xlink:href="#id18">June</textPath></text><path d="M 110.8373102113329 117.98757091392108 l 8.130535037758776 13.494914578238179 a36.754945873412844,36.754945873412844 0 0,0 -0.5447295264008981,0.32183580583186255 l -7.897037640329495 -13.63286895636379" fill="#ffb410" stroke="none" /><path d="M 110.5260780823613 118.17145234162733 l 7.61808683378697 13.151308659443695 a36.19842644694105,36.19842644694105 0 0,0 -0.54185809471944,0.30768116780928445 l -7.390579972146332 -13.280492993047607" fill="#ffad10" stroke="none" /><path d="M 109.57404056367764 118.69057910512821 l 13.654461178350108 26.65643466772844 a50.95012219116885,50.95012219116885 0 0,0 -0.7840158518648611,0.3931218240271414 l -13.193591418802487 -26.887524332664885" fill="#9aff22" stroke="none" /><path d="M 108.92500713936063 119.00905698771935 l 6.754593368477527 14.386369474597275 a36.89314815362598,36.89314815362598 0 0,0 -0.5771704716838225,0.2649506551260652 l -6.505954901026285 -14.500507200057415" fill="#ffb610" stroke="none" /><path d="M 108.59647513512805 119.15986991738527 l 6.35416422925985 14.162195336182748 a36.52234453272449,36.52234453272449 0 0,0 -0.5757996756100714,0.2524136565948002 l -6.109443878992026 -14.269473546072003" fill="#ffb110" stroke="none" /><path d="M 108.2653958097858 119.30500536409082 l 7.888107541926022 18.42379505033691 a41.04141872846853,41.04141872846853 0 0,0 -0.6518325946980796,0.27246607744898604 l -7.569803487730481 -18.55684617080587" fill="#ffec16" stroke="none" /><path d="M 107.93186726928326 119.44442032107085 l 7.8102721785403135 19.14633842268347 a41.67807115034684,41.67807115034684 0 0,0 -0.6666088424109063,0.265257415633916 l -7.479542260087541 -19.277942682723456" fill="#fff417" stroke="none" /><path d="M 107.2578585660854 119.70592522655815 l 10.734189239769242 29.144564970588416 a52.05846882832486,52.05846882832486 0 0,0 -0.8435466021831257,0.3024657995923096 l -10.230923076956381 -29.325018311220685" fill="#8eff24" stroke="none" /><path d="M 106.91757812671514 119.82793768551818 l 5.336784876253144 15.296890910231236 a37.201115527485115,37.201115527485115 0 0,0 -0.6064318006455739,0.20573459244857034 l -5.072683342670343 -15.386488489577928" fill="#ffba11" stroke="none" /><path d="M 106.57524785965236 119.94407469862006 l 5.0898087911731436 15.438433485641589 a37.25581071559591,37.25581071559591 0 0,0 -0.6107800190815186,0.19555247431261608 l -4.823307427000684 -15.52375880661391" fill="#ffbb11" stroke="none" /><path d="M 106.2309692047433 120.05430185196036 l 4.817831809216348 15.506135594515632 a37.23735644793824,37.23735644793824 0 0,0 -0.6137514739200143,0.184918284411989 l -4.550205360856088 -15.586769248033347" fill="#ffba11" stroke="none" /><path d="M 105.88484417918355 120.15858648285463 l 5.552856641310488 19.02136019619828 a40.81530622000231,40.81530622000231 0 0,0 -0.6761129951526201,0.1910762859402989 l -5.2246124780532615 -19.1141252754771" fill="#ffe915" stroke="none" /><path d="M 105.53697534728816 120.25689768951611 l 5.737204373103583 20.989431001661174 a42.75940550181126,42.75940550181126 0 0,0 -0.711658137265794,0.18795538221205263 l -5.375055793026291 -21.08507773317681" fill="#fcff18" stroke="none" /><path d="M 104.83641907484287 120.43548508189849 l 7.961728532953566 33.64096083145655 a55.57026709321236,55.57026709321236 0 0,0 -0.932733306819726,0.21228706391323865 l -7.381475076740978 -33.77302462894748" fill="#67ff28" stroke="none" /><path d="M 104.48393922423573 120.51570834832081 l 3.5054808237400743 16.038893170489136 a37.41750559433352,37.41750559433352 0 0,0 -0.630411093870915,0.1321087740929056 l -3.2288782684397814 -16.096857925308584" fill="#ffbd11" stroke="none" /><path d="M 104.13013068566511 120.58985236759428 l 3.4953050936498222 17.425069891307952 a38.77217539905178,38.77217539905178 0 0,0 -0.6554941866747445,0.1256270209655278 l -3.194843292403373 -17.48265411062195" fill="#ffcf13" stroke="none" /><path d="M 103.7750983002368 120.6578951692458 l 3.9112466509082924 21.402919041991254 a42.757361831855285,42.757361831855285 0 0,0 -0.7251465901693798,0.12607602968191212 l -3.5422510892668626 -21.467073650194173" fill="#fcff18" stroke="none" /><path d="M 103.41894727170886 120.7198165907248 l 3.754097232594377 22.7509230009929 a44.05857201625635,44.05857201625635 0 0,0 -0.7493400868965787,0.11703151061601039 l -3.361921282089281 -22.812172818956014" fill="#ecff1a" stroke="none" /><path d="M 103.06178313531738 120.77559828337769 l 3.0048224841776676 20.38909422553378 a41.60932122849063,41.60932122849063 0 0,0 -0.7094813462878744,0.09832764978674872 l -2.653412546702963 -20.43779644081313" fill="#fff316" stroke="none" /><path d="M 102.70371172650421 120.8252237178851 l 2.623495848416605 20.207364354209204 a41.37695523404868,41.37695523404868 0 0,0 -0.7070978357681299,0.08561970060240043 l -2.275270589597095 -20.249529583536955" fill="#fff016" stroke="none" /><path d="M 102.34483914955558 120.86867818915974 l 4.400651672104841 39.16506749946966 a60.41152429654572,60.41152429654572 0 0,0 -1.0343816631622138,0.10721788871821689 l -3.725837412337025 -39.23501475664363" fill="#35ff2f" stroke="none" /><path d="M 101.98527174616119 120.90594882070398 l 2.080968238106303 21.91368288370766 a43.01226763274764,43.01226763274764 0 0,0 -0.7376720283216966,0.06364944656561318 l -1.7034518920430648 -21.946256582551936" fill="#f9ff18" stroke="none" /><path d="M 101.62511606390274 120.93702456842531 l 1.2291249466470686 15.835311567724675 a36.88294181130766,36.88294181130766 0 0,0 -0.633398205199112,0.04368284866460693 l -0.9563639806690262 -15.854122760905566" fill="#ffb610" stroke="none" /><path d="M 101.26447882468166 120.96189622390904 l 1.1938191688497608 19.79053586274336 a40.82651038237552,40.82651038237552 0 0,0 -0.7018503510989769,0.036277646331433225 l -0.8529807493373044 -19.808153315836996" fill="#ffe915" stroke="none" /><path d="M 100.90346689309514 120.98055641714683 l 0.8539075595247829 19.829675956649837 a40.848052969144106,40.848052969144106 0 0,0 -0.7027414386413123,0.024203836047459924 l -0.5124457692088183 -19.84143659112339" fill="#ffea16" stroke="none" /><line stroke="#e1ed5e" stroke-width="0.3" x1="102.19456741930631" x2="102.32365962044197" y1="184.97166512339345" y2="189.96999836594603" /><path d="M 102.22038585953345 185.97133177190398 a86.0,86.0 0 0,1 -42.740103519485714,-10.115201625700543" fill="none" id="id19" stroke="none" /><text fill="#e1ed5e" style="font-size:6.75px; font-family:Arial;" text-anchor="middle"><textPath startOffset="22.20632615414155" xlink:href="#id19">July</textPath></text><path d="M 100.54218724476979 120.99299961872073 l 0.5147500097339403 19.930654699686354 a40.93730082861396,40.93730082861396 0 0,0 -0.7045900336405414,0.012130156406472687 l -0.17160028620073092 -19.936562333371985" fill="#ffeb16" stroke="none" /><path d="M 100.18074693466247 120.99922214144158 l 0.12909195852650157 14.997934647324074 a35.99849020465594,35.99849020465594 0 0,0 -0.6196777863779037,0.0 l 0.12909195852649122 -14.997934647324074" fill="#ffaa0f" stroke="none" /><path d="M 99.81925306533755 120.99922214144158 l -0.2320434200619563 26.95886009597271 a47.959858712964795,47.959858712964795 0 0,0 -0.8254583907579918,-0.014211014787129333 l 0.696061500712616 -26.95087160390642" fill="#bdff1f" stroke="none" /><path d="M 99.45781275523022 120.99299961872073 l -0.3213540828246317 12.442539368620453 a33.446688490768054,33.446688490768054 0 0,0 -0.5754098978853546,-0.019818280327155997 l 0.5354843323846293 -12.435164289867204" fill="#ff870c" stroke="none" /><path d="M 99.09653310690486 120.98055641714683 l -0.9580006228708132 22.246953673028933 a43.26757088061732,43.26757088061732 0 0,0 -0.743814730412759,-0.038446725407735506 l 1.3408034216970612 -22.227167140858995" fill="#f6ff19" stroke="none" /><path d="M 98.73552117531835 120.96189622390904 l -1.1898594675798757 19.72489391961503 a40.76074911769935,40.76074911769935 0 0,0 -0.6999925728757026,-0.04827558615778818 l 1.5292148012345084 -19.70148998894096" fill="#ffe815" stroke="none" /><path d="M 98.37488393609728 120.93702456842531 l -1.7313521816310715 22.30570724675112 a43.372799470665356,43.372799470665356 0 0,0 -0.7438552468960372,-0.06418296068183418 l 2.1150517462686502 -22.27260003379062" fill="#f5ff19" stroke="none" /><path d="M 98.01472825383883 120.90594882070398 l -1.2550117174270548 13.215929146550053 a34.27538465045403,34.27538465045403 0 0,0 -0.5868719551956314,-0.060831677730673626 l 1.4823162692282794 -13.19236810036362" fill="#ff920d" stroke="none" /><path d="M 97.65516085044442 120.86867818915974 l -4.962747245175024 44.16762455255212 a65.44556129507981,65.44556129507981 0 0,0 -1.1184103443720737,-0.135423917302404 l 5.722285012598486 -44.075655106524366" fill="#35ff67" stroke="none" /><path d="M 97.2962882734958 120.8252237178851 l -2.708801164576965 20.86442489655543 a42.03953017567682,42.03953017567682 0 0,0 -0.716816847421349,-0.09934428340260523 l 3.067546603185145 -20.81470604766022" fill="#fff917" stroke="none" /><path d="M 96.93821686468263 120.77559828337769 l -2.7428228047516994 18.611306626098475 a39.81233136187333,39.81233136187333 0 0,0 -0.6771208070759542,-0.10575234437253335 l 3.062779475436171 -18.561335974378835" fill="#ffdc14" stroke="none" /><path d="M 96.58105272829116 120.7198165907248 l -3.658088235455931 22.16908050572288 a43.46886156456538,43.46886156456538 0 0,0 -0.7372133216742398,-0.1281739856262613 l 4.039150528602221 -22.102827941575615" fill="#f3ff19" stroke="none" /><path d="M 96.22490169976321 120.6578951692458 l -4.086106120605356 22.359775872481098 a43.73006467866813,43.73006467866813 0 0,0 -0.7393137703715051,-0.14169124367329883 l 4.4703875055485565 -22.28612743045933" fill="#f0ff19" stroke="none" /><path d="M 95.86986931433489 120.58985236759428 l -4.476353233358992 22.31586824600022 a43.760397928038174,43.760397928038174 0 0,0 -0.7372763065803656,-0.1545034184471757 l 4.859821001368744 -22.2355088468265" fill="#f0ff19" stroke="none" /><path d="M 95.51606077576429 120.51570834832081 l -4.380455977959292 20.042233576836505 a41.515348432900474,41.515348432900474 0 0,0 -0.6968249435015245,-0.1585950884737019 l 4.724801070853679 -19.963861754785118" fill="#fff216" stroke="none" /><path d="M 95.16358092515715 120.4354850818985 l -5.247085788448586 22.17068903541342 a43.78313765872339,43.78313765872339 0 0,0 -0.731901269463366,-0.1798835249646792 l 5.627940342655163 -22.07708425213471" fill="#efff19" stroke="none" /><path d="M 94.81253420990036 120.34920634021253 l -10.961196536497903 42.998192003987064 a65.37332920937385,65.37332920937385 0 0,0 -1.0880287306622376,-0.2873582767071454 l 11.699715709971631 -42.803142377976336" fill="#35ff66" stroke="none" /><path d="M 94.46302465271185 120.25689768951611 l -4.598289410628866 16.822736655946102 a38.43986049540575,38.43986049540575 0 0,0 -0.6367633032742094,-0.1799556699620116 l 4.887183882007689 -16.74109219264557" fill="#ffca12" stroke="none" /><path d="M 94.11515582081647 120.15858648285463 l -6.2490473263243835 21.406167627812867 a43.299654817881496,43.299654817881496 0 0,0 -0.7136711490746555,-0.2150232628824887 l 6.616593449839285 -21.29542899582465" fill="#f5ff19" stroke="none" /><path d="M 93.76903079525671 120.05430185196036 l -5.142805039677126 16.552058153803234 a38.332601443609455,38.332601443609455 0 0,0 -0.6284331649605209,-0.20120445415509966 l 5.426959549728587 -16.461080852988427" fill="#ffc912" stroke="none" /><path d="M 92.06813273071674 119.44442032107085 l -6.507110964825099 15.95172944533417 a38.22788917440811,38.22788917440811 0 0,0 -0.6071472420396714,-0.25378759641368287 l 6.780729666362232 -15.837356805900514" fill="#ffc812" stroke="none" /><path d="M 91.7346041902142 119.30500536409082 l -5.068582373519721 11.838393727410645 a33.87781399626313,33.87781399626313 0 0,0 -0.53410684771206,-0.23413674608357657 l 5.271609895889524 -11.749392428032616" fill="#ff8d0d" stroke="none" /><path d="M 91.40352486487194 119.15986991738527 l -7.764487242029596 17.305530836071988 a39.96756862778882,39.96756862778882 0 0,0 -0.6252678774090795,-0.28702981506575104 l 8.061223115206095 -17.169313950672162" fill="#ffde14" stroke="none" /><path d="M 91.07499286063937 119.00905698771935 l -7.906214167250654 16.839165875798745 a39.602841983178266,39.602841983178266 0 0,0 -0.6145745006431413,-0.2950331079396109 l 8.194901335894038 -16.700578491359572" fill="#ffda14" stroke="none" /><path d="M 90.7491055286396 118.85261126421891 l -10.090543553684743 20.56375150005508 a43.906046035159065,43.906046035159065 0 0,0 -0.6756222478744037,-0.33877102077201904 l 10.443019709241907 -20.38701263837376" fill="#eeff19" stroke="none" /><path d="M 90.42595943632237 118.69057910512821 l -20.843418300391335 40.69081971959971 a66.7186055769208,66.7186055769208 0 0,0 -1.0176464922397246,-0.5323845477963275 l 21.540755695157554 -40.32600575285867" fill="#37ff76" stroke="none" /><line stroke="#e1ed5e" stroke-width="0.3" x1="58.666819895761336" x2="56.23545636021788" y1="174.27360380694188" y2="178.64263932499728" /><path d="M 58.180547188652646 175.14741091055294 a86.0,86.0 0 0,1 -31.652253787137756,-30.449443065178592" fill="none" id="id20" stroke="none" /><text fill="#e1ed5e" style="font-size:6.75px; font-family:Arial;" text-anchor="middle"><textPath startOffset="22.20632615414155" xlink:href="#id20">August</textPath></text><path d="M 89.7882731507175 118.34994917583269 l -10.846973958106226 19.49145563532335 a43.306359784411555,43.306359784411555 0 0,0 -0.648257504684934,-0.368097529641718 l 11.180880229712367 -19.301854939887" fill="#f5ff19" stroke="none" /><path d="M 89.4739219176387 118.17145234162733 l -6.345062840854565 10.953653023952727 a33.65868622818111,33.65868622818111 0 0,0 -0.49884117015164203,-0.2947241561121264 l 6.532671882034589 -10.842810295546851" fill="#ff8a0c" stroke="none" /><path d="M 89.1626897886671 117.98757091392108 l -8.58859075764659 14.255187153567178 a37.64254343499091,37.64254343499091 0 0,0 -0.5521279212108915,-0.3391620645625714 l 8.83269787878979 -14.105236622176227" fill="#ffc011" stroke="none" /><path d="M 88.8546689885994 117.79835938074946 l -13.422039418330701 21.434112719099463 a46.28976730225655,46.28976730225655 0 0,0 -0.6716825940957553,-0.4286996111139313 l 13.789003814473379 -21.199898679161727" fill="#d1ff1d" stroke="none" /><path d="M 88.54995079064634 117.60387380957326 l -13.608267303951148 20.92202539968125 a45.95828691718831,45.95828691718831 0 0,0 -0.6594473643198591,-0.4370457545054989 l 13.966389367010969 -20.684681624084433" fill="#d5ff1c" stroke="none" /><path d="M 88.24862548938628 117.40417183066458 l -10.744110849810498 15.912381247735755 a40.19999465953853,40.19999465953853 0 0,0 -0.5701567451209542,-0.39215900826096706 l 11.016424479554345 -15.72508145010969" fill="#ffe115" stroke="none" /><path d="M 87.65650970185807 116.9893568818739 l -10.25667923939079 14.117107869169514 a38.44970497199073,38.44970497199073 0 0,0 -0.5320981975158362,-0.39363352585090683 l 10.498162407325191 -13.938464394578839" fill="#ffcb12" stroke="none" /><path d="M 87.36589467227662 116.77436683061367 l -11.005406555228454 14.611935066929536 a39.292829738617,39.292829738617 0 0,0 -0.5367611442002855,-0.41156555670340056 l 11.255296427922227 -14.42033016839877" fill="#ffd614" stroke="none" /><path d="M 87.07902340077011 116.55440617244103 l -15.936478991362845 20.41787972879063 a46.90098792056992,46.90098792056992 0 0,0 -0.6321415816700482,-0.5022115039519621 l 16.28557806575025 -20.140534310833537" fill="#c9ff1d" stroke="none" /><path d="M 86.79598089348748 116.32954008644616 l -10.920611926636864 13.505628005080892 a38.36841249693905,38.36841249693905 0 0,0 -0.5099890499149978,-0.41968626820228794 l 11.15147110509655 -13.315646618021423" fill="#ffc912" stroke="none" /><path d="M 86.51685102203217 116.09983520530335 l -12.734276911221293 15.205628897550195 a40.83363200782139,40.83363200782139 0 0,0 -0.5349877086714184,-0.4559281316402632 l 12.99413009646977 -14.984176375686982" fill="#ffe915" stroke="none" /><path d="M 86.24171649860922 115.8653595955263 l -17.152854384455527 19.779807769739403 a47.18131411793874,47.18131411793874 0 0,0 -0.6089931424563653,-0.5373656417992068 l 17.49078987981848 -19.481618986167906" fill="#c6ff1e" stroke="none" /><path d="M 85.97065885151581 115.62618273729859 l -9.593926424838736 10.685922160993684 a35.36079234151218,35.36079234151218 0 0,0 -0.44941959081707217,-0.4105341405757426 l 9.776445565122666 -10.519195253831363" fill="#ffa10e" stroke="none" /><path d="M 85.70375840098266 115.38237550388516 l -17.228030502143476 18.536902341841632 a46.30655613499711,46.30655613499711 0 0,0 -0.5791939490206628,-0.547664030262553 l 17.544560285554955 -18.237603674833153" fill="#d1ff1d" stroke="none" /><path d="M 85.44109423537348 115.13401014063109 l -17.181182125137315 17.85987138824839 a45.782413627851334,45.782413627851334 0 0,0 -0.5632327971955466,-0.5512418368456454 l 17.486064874708656 -17.561479448480178" fill="#d7ff1c" stroke="none" /><path d="M 85.18274418774928 114.88116024355367 l -17.691058178461102 17.767356855244895 a46.072943766046166,46.072943766046166 0 0,0 -0.5571740952703167,-0.5644144168623644 l 17.994272898786953 -17.460201944401867" fill="#d3ff1c" stroke="none" /><path d="M 84.9287848128048 114.62390073753433 l -18.759282609547654 18.202506127207204 a47.1388965592638,47.1388965592638 0 0,0 -0.5600402793695867,-0.58719999390748 l 19.069829440296196 -17.876899016717225" fill="#c7ff1e" stroke="none" /><path d="M 84.67929136418377 114.36230785411682 l -18.452676228249736 17.298352381880314 a46.29296849150604,46.29296849150604 0 0,0 -0.5399823293588017,-0.5860441707137096 l 18.74770496560427 -16.97815695636526" fill="#d1ff1d" stroke="none" /><path d="M 84.4343377721795 114.09645910891817 l -41.38110325625616 37.47524656491358 a76.82821698573224,76.82821698573224 0 0,0 -0.8792848595151581,-0.9878858609000577 l 42.02004696541965 -36.757386534272655" fill="#44ffe5" stroke="none" /><path d="M 84.19399662182784 113.82643327865904 l -11.204140178954287 9.80091506515727 a35.88592265410796,35.88592265410796 0 0,0 -0.40270411782876836,-0.46843586748614424 l 11.371186806353835 -9.606602098509596" fill="#ffa80f" stroke="none" /><path d="M 83.95833913139862 113.55231037782056 l -15.137394886852343 12.788368704377362 a40.81623319603405,40.81623319603405 0 0,0 -0.44879197686869,-0.5405988471664991 l 15.35528286361457 -12.5259086000971" fill="#ffe915" stroke="none" /><path d="M 83.72743513129214 113.27417163493432 l -19.58892561369646 15.979457623192491 a46.27981551812311,46.27981551812311 0 0,0 -0.49823987247872004,-0.621630848799784 l 19.861083398230043 -15.639898940814449" fill="#d1ff1c" stroke="none" /><path d="M 83.50135304334701 112.99209946851258 l -19.54554255079092 15.39142171191934 a45.87818514118183,45.87818514118183 0 0,0 -0.48323532341127284,-0.6246467962862036 l 19.80758469142026 -15.052696921519884" fill="#d6ff1c" stroke="none" /><path d="M 83.28015986056508 112.70617746262583 l -19.883400387010848 15.110312764410292 a45.97340911426559,45.97340911426559 0 0,0 -0.47339198821797257,-0.6341859288310592 l 20.140553641923905 -14.765813956069929" fill="#d5ff1c" stroke="none" /><path d="M 83.06392112726016 112.41649034213515 l -22.914365026866463 16.799401690919208 a49.41281439346233,49.41281439346233 0 0,0 -0.4969992816901278,-0.6902885334820015 l 23.200144100932196 -16.402479551986065" fill="#acff21" stroke="none" /><path d="M 82.85270091963577 112.12312394758628 l -36.582051793464395 25.863475412115438 a65.80140481963497,65.80140481963497 0 0,0 -0.6459162808084165,-0.930490577217161 l 37.02182898143494 -25.229943572711267" fill="#36ff6b" stroke="none" /><path d="M 82.6465618267979 111.8261652097733 l -14.415843994896946 9.824229125110104 a38.445114960580455,38.445114960580455 0 0,0 -0.36796898662876865,-0.5500637083222798 l 14.582816086936445 -9.574628502582" fill="#ffca12" stroke="none" /><path d="M 82.44556493220864 111.52570212397912 l -14.459478219228227 9.49364865228651 a38.29756847378836,38.29756847378836 0 0,0 -0.35707036436439715,-0.5541811349863613 l 14.620753446969669 -9.2433459173787" fill="#ffc812" stroke="none" /><path d="M 82.24976979558568 111.22182372390057 l -18.83026004831233 11.904626390975901 a43.27776521547409,43.27776521547409 0 0,0 -0.39266402808076,-0.6330994402145904 l 19.032388716061046 -11.578730619396048" fill="#f6ff19" stroke="none" /><path d="M 82.05923443525364 110.91462005526583 l -18.217394068090737 11.082912484012214 a42.32379881166537,42.32379881166537 0 0,0 -0.3732941406200416,-0.6256624515180427 l 18.405469084409013 -10.767687938608061" fill="#fffc17" stroke="none" /><line stroke="#e1ed5e" stroke-width="0.3" x1="26.63291911575756" x2="22.317208475507996" y1="142.92168965132927" y2="145.44649492493687" /><path d="M 25.769776987707644 143.4266507060508 a86.0,86.0 0 0,1 -11.730757126820373,-40.83630448921669" fill="none" id="id21" stroke="none" /><text fill="#e1ed5e" style="font-size:6.75px; font-family:Arial;" text-anchor="middle"><textPath startOffset="21.46611528233685" xlink:href="#id21">September</textPath></text><path d="M 81.87401531095188 110.60418214915194 l -19.391694262955937 11.344655844782578 a43.46639763345512,43.46639763345512 0 0,0 -0.3722545166106637,-0.6490571271372846 l 19.584100775718976 -11.009178871786986" fill="#f3ff19" stroke="none" /><path d="M 81.69416730710424 110.29060199501025 l -18.616524761169995 10.465257170289847 a42.35641828171472,42.35641828171472 0 0,0 -0.35180755045095746,-0.6386328934792534 l 18.793908721072466 -10.14325375841277" fill="#fffd17" stroke="none" /><path d="M 81.51974371655577 109.97397251340807 l -18.96803123968733 10.237229360698432 a42.55428203613613,42.55428203613613 0 0,0 -0.34235424829980887,-0.647605218216157 l 19.141437996212026 -9.90920912739615" fill="#ffff18" stroke="none" /><path d="M 81.35079622478065 109.6543875284942 l -50.81253884185904 26.304819615828386 a78.21763398268669,78.21763398268669 0 0,0 -0.6086871329343604,-1.2009974594427746 l 51.257804644579664 -25.426267944682927" fill="#46fff4" stroke="none" /><path d="M 81.18737489456691 109.33194174019688 l -11.512236147882913 5.710607447357556 a33.850782798819594,33.850782798819594 0 0,0 -0.2544398012302934,-0.5242213531141191 l 11.608829205727925 -5.511597138278152" fill="#ff8d0d" stroke="none" /><path d="M 81.02952815118164 109.00673069616217 l -22.40707653524294 10.638349201303509 a45.80426480638178,45.80426480638178 0 0,0 -0.33202722669150037,-0.715157107764726 l 22.586878378774266 -10.251072026259957" fill="#d7ff1c" stroke="none" /><path d="M 80.87730276802145 108.67885076344099 l -20.207322927096435 9.17110896467319 a43.19110496396847,43.19110496396847 0 0,0 -0.3014305472750787,-0.6796463087648554 l 20.362194559102793 -8.821914319415638" fill="#f7ff19" stroke="none" /><path d="M 80.73074385275274 108.34839909993369 l -22.9712302793605 9.95227821578254 a46.03448146520611,46.03448146520611 0 0,0 -0.30875769265215375,-0.7298119798817222 l 23.13913895320496 -9.555391710234659" fill="#d4ff1c" stroke="none" /><path d="M 80.58989483394504 108.01547362559985 l -16.418478434397958 6.780070470382948 a38.76332710063488,38.76332710063488 0 0,0 -0.24937257876102498,-0.6189222895885234 l 16.53275362741637 -6.496448812951619" fill="#ffcf13" stroke="none" /><path d="M 80.45479744820244 107.68017299344265 l -23.361569805856654 9.17979217825319 a46.10042884553632,46.10042884553632 0 0,0 -0.28385948394858324,-0.7410675398637121 l 23.516123569398747 -8.77630107155632" fill="#d3ff1c" stroke="none" /><path d="M 80.32549172779594 107.34259656027581 l -23.561124853065202 8.793095710898038 a46.148461911670466,46.148461911670466 0 0,0 -0.27134359228646504,-0.746621028536635 l 23.70899270635689 -8.386226885355287" fill="#d2ff1c" stroke="none" /><path d="M 80.0844068197444 106.66101706037122 l -23.50175062161109 7.860451879200936 a45.781424213019534,45.781424213019534 0 0,0 -0.24353046876698056,-0.7495097145247115 l 23.63357334139432 -7.454743264698422" fill="#d7ff1c" stroke="none" /><path d="M 79.97269907076064 106.31721596034903 l -23.73301861576617 7.486111309581891 a45.88569941062042,45.88569941062042 0 0,0 -0.23111802487975588,-0.7553070777064703 l 23.858363413152055 -7.076477259323373" fill="#d6ff1c" stroke="none" /><path d="M 79.86692584326677 105.97154293290107 l -23.984580732464494 7.113913774744831 a46.017351620557505,46.017351620557505 0 0,0 -0.21870812013013383,-0.7613516579828177 l 24.103481489480732 -6.700004641257418" fill="#d4ff1c" stroke="none" /><path d="M 79.76711848015287 105.62410040840567 l -23.818302751443703 6.620733981984818 a45.7213604888493,45.7213604888493 0 0,0 -0.2042480371300108,-0.7600829282955698 l 23.928738864915488 -6.20976012051371" fill="#d8ff1c" stroke="none" /><path d="M 79.67330655649465 105.27499134158121 l -25.664439387952747 6.6601927133034105 a47.51455479687034,47.51455479687034 0 0,0 -0.19863049130821708,-0.793430075747121 l 25.775281193556022 -6.217434798158898" fill="#c2ff1e" stroke="none" /><path d="M 79.58551787078972 104.9243191809786 l -54.10232985346648 13.050399169903525 a76.65406556638166,76.65406556638166 0 0,0 -0.298364758977055,-1.2853475727419237 l 54.31895517837409 -12.117182939813025" fill="#44ffe4" stroke="none" /><path d="M 79.50377843672027 104.57218783832718 l -24.185902527479243 5.395262197654158 a45.78036995789536,45.78036995789536 0 0,0 -0.16495312859118505,-0.7706061010538776 l 24.27518969479487 -4.978142277184116" fill="#d7ff1c" stroke="none" /><path d="M 79.4281124754447 104.21870165774334 l -25.038551932319997 5.1346858871499945 a46.55961819016831,46.55961819016831 0 0,0 -0.15424551229130423,-0.7864945440913981 l 25.123227377586968 -4.702927615990642" fill="#ceff1d" stroke="none" /><path d="M 79.35854240842038 103.8639653848113 l -12.75873589463986 2.3883639821515668 a33.98035531641605,33.98035531641605 0 0,0 -0.10267497311452674,-0.5758557762159728 l 12.797957310093576 -2.16838945520238" fill="#ff8e0d" stroke="none" /><path d="M 79.29508885075956 103.50808413554451 l -25.090886045069094 4.251210673980172 a46.44848433052951,46.44848433052951 0 0,0 -0.12677836354300132,-0.7894489908016803 l 25.160346162973386 -3.8186824534852777" fill="#cfff1d" stroke="none" /><path d="M 79.23777060512086 103.15116336523772 l -24.672044915404204 3.7445710961124803 a45.954591020522926,45.954591020522926 0 0,0 -0.11196715522424444,-0.7830980228563311 l 24.732846121645046 -3.3193276012757487" fill="#d5ff1c" stroke="none" /><path d="M 79.18660465613746 102.79330883721812 l -33.53130231290052 4.500144331409001 a54.83193068393586,54.83193068393586 0 0,0 -0.11749305361231202,-0.9365352397367267 l 33.603796875759684 -3.9222913373848662" fill="#6fff27" stroke="none" /><path d="M 79.1416061653843 102.43462659150553 l -24.656148228230993 2.877906831969604 a45.823537080480605,45.823537080480605 0 0,0 -0.08470305935930787,-0.7842451319511335 l 24.70203358909135 -2.4530653781336884" fill="#d6ff1c" stroke="none" /><path d="M 79.10278846688536 102.07522291339032 l -20.169377071646373 2.0029444302443413 a41.26858549205892,41.26858549205892 0 0,0 -0.0641144887024978,-0.7074980402578971 l 20.200866156625946 -1.655465001437878" fill="#ffef16" stroke="none" /><path d="M 79.07016306316243 101.71520430193888 l -31.066034022116227 2.545867670145571 a52.1701766446258,52.1701766446258 0 0,0 -0.06564360009716819,-0.895654769242709 l 31.105254180877733 -2.010739764406101" fill="#8cff24" stroke="none" /><path d="M 79.04373962182676 101.35467743843564 l -17.61913033799677 1.138955038877111 a38.65590474736148,38.65590474736148 0 0,0 -0.037208423556579294,-0.6643813978079043 l 17.63612511244088 -0.835501924733769" fill="#ffcd13" stroke="none" /><path d="M 79.0235259727143 100.99374915477108 l -34.30440440038016 1.6251526750139047 a55.34287819158328,55.34287819158328 0 0,0 -0.03688963126466456,-0.9519574675491786 l 34.327296164496026 -1.0344179604507293" fill="#69ff28" stroke="none" /><path d="M 79.0095281055655 100.63252640178507 l -18.509610889488485 0.5577681927900945 a39.51801286955917,39.51801286955917 0 0,0 -0.014636601281547614,-0.6801053481331162 l 18.516469553455043 -0.23907302886684947" fill="#ffd814" stroke="none" /><line stroke="#e1ed5e" stroke-width="0.3" x1="15.007084014347285" x2="10.007500721073583" y1="101.09737516637583" y2="101.16192664675087" /><path d="M 14.007167355692545 101.11028546245083 a86.0,86.0 0 0,1 10.666146001902534,-42.60595125391555" fill="none" id="id22" stroke="none" /><text fill="#e1ed5e" style="font-size:6.75px; font-family:Arial;" text-anchor="middle"><textPath startOffset="22.20632615414155" xlink:href="#id22">October</textPath></text><path d="M 79.00175016825051 100.2711162175752 l -24.95969430027933 0.3222639012653999 a45.96177464815864,45.96177464815864 0 0,0 -0.003404897971399623,-0.7911783762022834 l 24.961543495540234 0.10742395314055883" fill="#d5ff1c" stroke="none" /><path d="M 79.00019446554 99.90962569577889 l -62.99941660337998 -0.27112291266336075 a84.0,84.0 0 0,0 0.018667971529137795,-1.445854967758112 l 62.98541562473312 1.3555141384819447" fill="#4dd2ff" stroke="none" /><path d="M 79.00486145842228 99.54816195383935 l -15.574757783388515 -0.33518560081589205 a36.578364143844354,36.578364143844354 0 0,0 0.01896554310051687,-0.6293740439776262 l 15.566680545832353 0.6032297922185127" fill="#ffb210" stroke="none" /><path d="M 79.01574976396665 99.18683210126434 l -37.722737998702755 -1.4618067954740133 a58.7510508625398,58.7510508625398 0 0,0 0.04785802346420208,-1.010207235270943 l 37.69198636700506 2.1109251373679654" fill="#46ff2d" stroke="none" /><path d="M 79.03285615573316 98.82574320788736 l -41.90531505745131 -2.3468909832126497 a62.970981967918505,62.970981967918505 0 0,0 0.06992600396969592,-1.081724331429221 l 41.8587084624772 3.0678743788948823" fill="#32ff49" stroke="none" /><path d="M 79.05617556472873 98.46500227214037 l -15.970776166194314 -1.170517123223084 a37.01361301163603,37.01361301163603 0 0,0 0.052040287136853956,-0.635023316283312 l 15.948261395237964 1.4452543567141742" fill="#ffb711" stroke="none" /><path d="M 79.08570108090925 98.10471618934814 l -16.498458137858623 -1.4951139758673873 a37.56606431013436,37.56606431013436 0 0,0 0.06390322828401165,-0.6434967879755392 l 16.47027778389238 1.7788862945473567" fill="#ffbf11" stroke="none" /><path d="M 79.16333360222342 97.38593545837743 l -24.922800047889368 -3.1266905482581726 a46.118163866247095,46.118163866247095 0 0,0 0.10559742070455228,-0.7868234386158441 l 24.86528662812698 3.555232328938676" fill="#d3ff1c" stroke="none" /><path d="M 79.21141760316559 97.0276538004421 l -29.288331620071013 -4.187638171786354 a50.586190740699514,50.586190740699514 0 0,0 0.13066679623991848,-0.8609309272109019 l 29.21190893039179 4.691168211389347" fill="#9eff22" stroke="none" /><path d="M 79.26566170972629 96.67025291283419 l -19.93119836348602 -3.200770083204109 a41.186569726681206,41.186569726681206 0 0,0 0.11843715600770546,-0.6990227991004889 l 19.873149345958087 3.543378670620426" fill="#ffee16" stroke="none" /><path d="M 79.32604984820605 96.31383870115002 l -17.212492853213618 -3.068984134449139 a38.483951894220894,38.483951894220894 0 0,0 0.12189200958722916,-0.6511519892329731 l 17.157115119716526 3.3648142011446844" fill="#ffcb12" stroke="none" /><path d="M 79.3925641242962 95.95851677861259 l -14.730084653241168 -2.8888305335394966 a36.010687384099406,36.010687384099406 0 0,0 0.12452959392468196,-0.6072505257618591 l 14.67817576340149 3.141956715464758" fill="#ffaa0f" stroke="none" /><path d="M 79.46518482838121 95.60439243477599 l -25.125852975494507 -5.37834835613392 a46.69504074303239,46.69504074303239 0 0,0 0.17500770503072358,-0.784525226090282 l 25.02955088346175 5.810051751774161" fill="#ccff1d" stroke="none" /><path d="M 79.54389044137918 95.25157060432595 l -41.29182271484139 -9.584975296413768 a63.389696561154494,63.389696561154494 0 0,0 0.2558746223717012,-1.0607655015342494 l 41.12071529220887 10.294326029607415" fill="#32ff4e" stroke="none" /><path d="M 79.71946130924805 94.55025226153421 l -33.19164388385129 -8.91919534043075 a55.369132506264464,55.369132506264464 0 0,0 0.25526021566050255,-0.918306809115748 l 33.03319689762443 9.48921345296544" fill="#69ff28" stroke="none" /><path d="M 79.91906864156998 93.8553929516997 l -17.777512289520487 -5.43977893085001 a39.591157522343025,39.591157522343025 0 0,0 0.2050152986582871,-0.6499545222292079 l 17.681241507093997 5.744983619505632" fill="#ffd914" stroke="none" /><path d="M 80.02781315780177 93.51064311812611 l -12.50726597908568 -4.0638570626286805 a34.15091770550904,34.15091770550904 0 0,0 0.18646841163291236,-0.5575168166349901 l 12.435460273680995 4.2785469821859925" fill="#ff910d" stroke="none" /><path d="M 80.14247586403 93.16781622104843 l -33.16298124380382 -11.410062048227436 a56.07096863391834,56.07096863391834 0 0,0 0.3218658345156504,-0.9099580570951625 l 32.96166232847836 11.97921773174921" fill="#62ff29" stroke="none" /><path d="M 80.2630227832202 92.82701384747504 l -27.52764163331434 -10.004338054338048 a50.28921019415951,50.28921019415951 0 0,0 0.302682162686616,-0.811037711896667 l 27.351354882126095 10.476698903264056" fill="#a2ff22" stroke="none" /><path d="M 80.52162464483688 92.15188598940014 l -24.953639230886566 -10.0541755712426 a47.9029841705825,47.9029841705825 0 0,0 0.31474156899875894,-0.7621716744078146 l 24.776875975001605 10.482221816103726" fill="#beff1f" stroke="none" /><path d="M 80.65960295795067 91.81776055985345 l -11.666933218885612 -4.935867703314042 a33.66807486236781,33.66807486236781 0 0,0 0.23040072092544955,-0.5317966300938007 l 11.580241788117483 5.135963477994442" fill="#ff8a0c" stroke="none" /><path d="M 80.803312248108 91.48605970444005 l -15.906680338207082 -7.054786140734337 a38.40093350580368,38.40093350580368 0 0,0 0.2731909758195937,-0.601940102382365 l 15.782887045424136 7.327548251958773" fill="#ffca12" stroke="none" /><path d="M 80.95270993114464 91.15688171328213 l -22.46623797963414 -10.430439143482701 a45.769455175345534,45.769455175345534 0 0,0 0.3379132855840269,-0.7117315580718943 l 22.283366500208363 10.815613117195127" fill="#d7ff1c" stroke="none" /><path d="M 81.10775173730289 90.83032412892265 l -17.002456532611497 -8.252433127504922 a39.899369848417805,39.899369848417805 0 0,0 0.3052111550293728,-0.6152870643020834 l 16.85788536462871 8.543879780305966" fill="#ffdd14" stroke="none" /><path d="M 81.26839172434947 90.50648371742162 l -30.836335423444346 -15.628409911713824 a55.5706057036281,55.5706057036281 0 0,0 0.4397766886438931,-0.8495085843514286 l 30.562749301640338 16.156891218325587" fill="#67ff28" stroke="none" /><path d="M 81.6062741919709 89.86733742301443 l -15.220834174866322 -8.384792643089668 a38.3775297624947,38.3775297624947 0 0,0 0.323727911595155,-0.5758758321966986 l 15.074248621978738 8.64555198522115" fill="#ffca12" stroke="none" /><line stroke="#e1ed5e" stroke-width="0.3" x1="26.266209847984243" x2="21.928928074336255" y1="57.711370442889674" y2="55.22380399835377" /><path d="M 25.398753493254645 57.213857153982495 a86.0,86.0 0 0,1 29.58750427330803,-30.492523968695096" fill="none" id="id23" stroke="none" /><text fill="#e1ed5e" style="font-size:6.75px; font-family:Arial;" text-anchor="middle"><textPath startOffset="21.46611528233685" xlink:href="#id23">November</textPath></text><path d="M 81.78341655067845 89.55222093294921 l -19.339100532807183 -11.091577643214913 a43.29403292438333,43.29403292438333 0 0,0 0.37632889826235727,-0.6432680759350496 l 19.145311960074505 11.422825131503854" fill="#f5ff19" stroke="none" /><path d="M 81.96595687620814 89.24020034530311 l -15.475792528260698 -9.233449535343478 a39.02100842626473,39.02100842626473 0 0,0 0.3491157627731171,-0.5738545201899451 l 15.314560967201361 9.498471828740497" fill="#ffd213" stroke="none" /><path d="M 82.15384107792192 88.93136811851018 l -21.18444598322353 -13.139120593144575 a45.92824184689549,45.92824184689549 0 0,0 0.4224794703695985,-0.6682610634604438 l 20.955138916607968 13.501829304319234" fill="#d5ff1c" stroke="none" /><path d="M 82.34701348167596 88.62581576622439 l -23.034712242369917 -14.841741398531125 a48.402103127856066,48.402103127856066 0 0,0 0.45729238649140835,-0.6964876776537222 l 22.77582322052059 15.236047140162514" fill="#b8ff1f" stroke="none" /><path d="M 82.95767976084542 87.72973835380427 l -26.649776512760457 -19.18751238302244 a53.83856299579381,53.83856299579381 0 0,0 0.5479673238448162,-0.7474268139062653 l 26.315546576402006 19.64340164060021" fill="#7aff26" stroke="none" /><path d="M 83.17141714833178 87.43820079747577 l -29.76463753331311 -22.217996804902143 a58.14260396784471,58.14260396784471 0 0,0 0.6055803040851825,-0.7968726948507654 l 29.377781289003817 22.727054275633932" fill="#4cff2c" stroke="none" /><path d="M 83.39014120810768 87.1503855733568 l -26.73435293535112 -20.68206186874643 a54.800492748103125,54.800492748103125 0 0,0 0.5836145992644259,-0.74113127407534 l 26.37438425549272 21.139185536774818" fill="#6fff27" stroke="none" /><path d="M 83.6137871275137 86.86637796730984 l -43.68383509924749 -35.01278688349106 a76.9836823934172,76.9836823934172 0 0,0 0.8376613101146619,-1.0268737200123677 l 43.07467529705644 35.759544773111514" fill="#44ffe7" stroke="none" /><path d="M 84.31358615837235 86.03803664274999 l -24.088389977851417 -21.440287219338888 a53.24804564268661,53.24804564268661 0 0,0 0.6152846142840478,-0.6794126387286352 l 23.715761722951324 21.85175264533708" fill="#80ff25" stroke="none" /><path d="M 85.05521093208273 85.24692304244772 l -19.72914554906201 -19.476059599724103 a48.72284403931312,48.72284403931312 0 0,0 0.5943356360430154,-0.5917833699426036 l 19.39097411285168 19.81277882031682" fill="#b4ff20" stroke="none" /><path d="M 85.31137513191541 84.99185889309783 l -20.398482760578098 -20.842203432035017 a50.16325672547451,50.16325672547451 0 0,0 0.6223032824741761,-0.5986552646899176 l 20.036696234491494 21.190241783487245" fill="#a3ff21" stroke="none" /><path d="M 85.57189188830299 84.74124197986013 l -17.02392359603928 -18.004018870271658 a45.7781894028777,45.7781894028777 0 0,0 0.5772239832394227,-0.5364667842787746 l 16.711491729004997 18.29439024062508" fill="#d7ff1c" stroke="none" /><path d="M 86.37877921826538 84.01681056812374 l -17.771544585094926 -20.85319430263538 a48.398604153560115,48.398604153560115 0 0,0 0.6387289696599372,-0.5349171432283966 l 17.409958078475878 21.15601260325759" fill="#b8ff1f" stroke="none" /><path d="M 86.65592168130627 83.78471172551755 l -15.72552308631957 -19.109142199388895 a45.747755290830625,45.747755290830625 0 0,0 0.6123589778835896,-0.49515170673610165 l 15.39426070987148 19.37700000338913" fill="#d7ff1c" stroke="none" /><path d="M 87.22198572758235 83.33499621200491 l -15.213203781620814 -19.84096223741997 a46.0021069473724,46.0021069473724 0 0,0 0.6325373960129367,-0.47641405280147525 l 14.869420231849487 20.0998928797273" fill="#d4ff1c" stroke="none" /><path d="M 87.51073957382395 83.11751280151077 l -14.691776789744692 -19.85976151606832 a45.703409333830606,45.703409333830606 0 0,0 0.6364845770609071,-0.46243311365425577 l 14.347746896330003 20.109713864539245" fill="#d8ff1c" stroke="none" /><path d="M 88.39885842347998 82.49532879139004 l -13.64567716242642 -20.589619613862478 a45.70095020570497,45.70095020570497 0 0,0 0.6594711840628081,-0.4289384024988557 l 13.289238952579325 20.82145694052087" fill="#d8ff1c" stroke="none" /><line stroke="#e1ed5e" stroke-width="0.3" x1="56.76296977257108" x2="54.21961505331056" y1="26.818313649435495" y2="22.513508569990535" /><path d="M 56.25429882871898 25.957352633546506 a86.0,86.0 0 0,1 42.26535254187918,-11.944610805530505" fill="none" id="id24" stroke="none" /><text fill="#e1ed5e" style="font-size:6.75px; font-family:Arial;" text-anchor="middle"><textPath startOffset="22.20632615414155" xlink:href="#id24">December</textPath></text><path d="M 92.57280143429618 80.3572730644239 l -1.1171513334917862 -2.954532371171961 a24.158684636715968,24.158684636715968 0 0,0 0.39024061023146556,-0.1437289101242332 l 1.0661283974877525 2.9733245491025166" fill="#ff0000" stroke="none" /><path d="M 93.94186890950719 79.89281104454417 l -3.594911625440613 -11.931661142878836 a33.46145766847574,33.46145766847574 0 0,0 0.5529263400092724,-0.16141436088727676 l 3.388995067707919 11.991773832684812" fill="#ff870c" stroke="none" /><path d="M 94.28887869178378 79.79150937346287 l -5.433553353476332 -19.226331588255334 a40.97937257239623,40.97937257239623 0 0,0 0.6804568435372409,-0.1859945597449093 l 5.1017986207153685 19.317012688826537" fill="#ffeb16" stroke="none" /><path d="M 94.63758080256005 79.69619591428918 l -7.257940823799137 -27.480844582693692 a49.42313360591923,49.42313360591923 0 0,0 0.8244040188327239,-0.21015894052164555 l 6.783827916281414 27.6017065193842" fill="#acff21" stroke="none" /></svg>